<svg width="908" height="492" viewBox="0 0 908 492" fill="none" xmlns="http://www.w3.org/2000/svg">
<path d="M581.039 271.764C579.479 281.708 577.077 291.652 573.812 301.596C570.549 311.539 567.673 320.382 565.188 328.114C563.942 330.989 563.011 332.314 562.391 332.092C561.766 332.092 561.377 331.593 561.226 330.598C561.066 329.606 560.831 328.558 560.526 327.452C558.035 312.648 558.346 297.842 561.457 283.033C564.562 268.232 567.984 253.093 571.715 237.622C574.2 228.341 576.217 218.785 577.777 208.952C579.328 199.121 579.328 188.565 577.777 177.296C577.777 176.414 578.082 175.752 578.708 175.306C579.328 175.306 579.713 175.586 579.873 176.135C580.028 176.689 580.413 177.077 581.039 177.296C585.701 182.159 588.417 188.845 589.197 197.35C589.969 205.858 589.897 214.751 588.963 224.033C588.032 233.314 586.706 242.263 585.001 250.881C583.29 259.5 581.97 266.461 581.039 271.764ZM556.795 337.063C558.66 340.824 560.76 344.246 563.091 347.339C565.422 350.436 567.824 353.529 570.315 356.621C570.621 356.842 570.935 357.23 571.249 357.779C571.555 358.334 571.401 358.608 570.781 358.608C569.85 358.608 569.15 358.5 568.684 358.276C568.219 358.059 567.673 357.837 567.053 357.613C566.427 357.397 565.959 357.175 565.653 356.951C561.297 354.522 557.729 352.202 554.933 349.99C552.133 347.785 549.336 343.807 546.54 338.058C545.609 335.851 544.675 333.085 543.743 329.772C542.809 326.456 542.184 323.254 541.878 320.158C541.564 317.067 541.564 314.414 541.878 312.202C542.184 309.998 542.963 308.889 544.209 308.889C544.515 308.889 544.98 309.385 545.609 310.381C546.226 311.376 546.771 312.484 547.24 313.693C547.705 314.913 548.171 316.13 548.637 317.341C549.105 318.558 549.491 319.387 549.802 319.828C551.353 322.924 552.602 325.907 553.533 328.777C554.464 331.651 555.55 334.413 556.795 337.063ZM540.478 140.834C540.167 136.856 539.618 133.102 538.847 129.565C538.067 126.033 536.902 122.385 535.351 118.626C535.036 118.185 534.805 117.631 534.651 116.968C534.491 116.305 534.725 116.089 535.351 116.305C535.971 116.751 536.516 117.081 536.982 117.301C537.447 117.522 537.987 117.744 538.613 117.963L539.547 118.626C542.963 121.722 545.68 124.705 547.705 127.574C549.722 130.449 550.888 135.198 551.202 141.829C551.202 144.263 550.808 147.354 550.036 151.11C549.257 154.869 548.325 158.459 547.24 161.883C546.146 165.312 544.909 168.181 543.509 170.502C542.109 172.822 540.784 173.764 539.547 173.318C538.921 173.099 538.613 172.381 538.613 171.164V167.186C538.613 165.75 538.767 164.367 539.081 163.042C539.387 161.717 539.547 160.721 539.547 160.059C540.167 156.527 540.553 153.211 540.712 150.115C540.864 147.024 540.784 143.93 540.478 140.834ZM445.84 250.219C452.673 240.721 459.746 231.49 467.053 222.541C474.351 213.592 480.179 206.465 484.535 201.162C491.993 191.661 499.758 182.325 507.845 173.152C515.923 163.984 522.916 155.864 528.823 148.79C529.443 147.686 530.143 146.691 530.923 145.807C531.694 144.925 532.394 144.703 533.02 145.142C533.64 145.142 533.791 145.696 533.485 146.8C533.171 147.908 532.86 149.012 532.554 150.115C528.198 166.025 520.351 181.055 509.01 195.194C497.661 209.34 485.772 223.592 473.346 237.954C468.989 242.817 465.187 246.853 461.922 250.052C458.66 253.259 455.863 256.351 453.533 259.334C451.202 262.316 449.256 265.579 447.705 269.111C446.145 272.651 445.06 277.181 444.44 282.703C445.68 280.274 447.077 277.954 448.636 275.742C450.187 273.535 451.739 271.431 453.298 269.444C461.997 258.837 471.786 248.231 482.67 237.622C493.545 227.015 504.268 217.072 514.838 207.79C515.457 207.349 516.623 206.412 518.334 204.974C520.039 203.538 521.205 202.933 521.831 203.15C522.45 203.371 522.37 204.367 521.596 206.133C520.819 207.904 520.271 209.231 519.965 210.111C518.408 212.544 516.469 215.527 514.138 219.059C511.807 222.599 509.316 226.187 506.679 229.832C504.034 233.48 501.317 237.017 498.521 240.441C495.724 243.87 493.233 246.686 491.062 248.893C489.817 250.219 487.172 252.869 483.135 256.847C479.093 260.825 474.745 265.798 470.081 271.764C465.419 277.73 460.831 284.474 456.329 291.984C451.819 299.499 448.476 307.453 446.305 315.85C445.374 314.522 444.209 312.865 442.809 310.877C441.409 308.889 439.778 305.687 437.913 301.266C432.32 287.344 429.289 273.255 428.823 259.004C428.357 244.749 428.277 230.112 428.589 215.081C428.895 205.583 428.974 196.08 428.823 186.575C428.663 177.077 426.412 167.02 422.062 156.413C421.75 155.532 421.75 154.869 422.062 154.423C422.681 154.423 423.616 155.088 424.861 156.413C430.454 160.613 434.651 166.745 437.447 174.81C440.244 182.879 442.263 191.382 443.509 200.333C444.746 209.282 445.446 218.014 445.605 226.519C445.76 235.027 445.84 241.822 445.84 246.903V250.219ZM436.05 311.539C439.464 316.626 443.974 321.375 449.568 325.794C451.739 316.513 455.935 307.287 462.157 298.116C468.37 288.948 475.442 279.72 483.369 270.439C491.294 261.158 499.606 251.876 508.31 242.595C517.009 233.314 525.096 223.924 532.554 214.419C538.147 207.574 542.883 200.167 546.771 192.211C550.656 184.257 553.453 176.135 555.164 167.849C556.869 159.563 557.335 151.332 556.564 143.154C555.784 134.981 553.373 127.244 549.337 119.951C548.405 118.847 548.245 118.077 548.871 117.631C549.491 117.19 550.502 117.464 551.902 118.459C553.299 119.455 554.153 120.173 554.464 120.613C558.195 124.375 561.226 129.29 563.557 135.364C565.888 141.446 567.593 148.183 568.684 155.584C569.77 162.991 570.315 170.781 570.315 178.951C570.315 187.132 569.85 195.31 568.918 203.482C567.673 214.31 565.422 226.136 562.157 238.95C558.895 251.768 554.933 263.478 550.268 274.084C549.956 274.53 549.411 275.523 548.637 277.067C547.857 278.617 547.006 279.388 546.074 279.388C545.446 279.171 544.98 278.229 544.675 276.571C544.36 274.913 544.209 273.868 544.209 273.422C544.209 270.993 544.28 268.066 544.44 264.637C544.595 261.213 544.829 257.676 545.14 254.03C545.446 250.385 545.84 246.853 546.306 243.424C546.771 240 547.311 237.073 547.937 234.639C548.245 233.314 548.791 230.278 549.571 225.524C550.342 220.775 551.042 215.414 551.667 209.448C547.937 215.636 544.98 221.163 542.809 226.02C540.633 230.885 538.767 235.634 537.216 240.275C535.656 244.915 534.339 249.778 533.254 254.859C532.16 259.946 531.154 265.912 530.223 272.759C529.289 279.609 528.898 286.794 529.058 294.305C529.209 301.817 530.295 309.219 532.32 316.513C534.339 323.804 537.287 330.931 541.178 337.892C545.06 344.853 550.108 351.209 556.329 356.951C557.569 358.276 557.881 359.054 557.264 359.271C556.635 359.495 555.864 359.271 554.933 358.608C544.98 352.864 537.136 346.402 531.389 339.217C525.633 332.039 521.365 324.469 518.568 316.513C515.769 308.557 514.292 300.437 514.138 292.148C513.978 283.862 514.523 275.742 515.769 267.786C516.389 264.916 516.937 262.042 517.403 259.167C517.868 256.298 518.408 253.315 519.034 250.219C511.881 258.396 504.734 266.352 497.587 274.084C490.434 281.821 483.755 289.498 477.542 297.121C471.32 304.745 465.807 312.26 460.991 319.662C456.169 327.069 452.518 334.413 450.036 341.704L449.102 343.361C448.476 343.361 448.171 342.92 448.171 342.036V340.378V335.075C448.171 333.309 448.476 331.543 449.102 329.772C446.611 328.89 444.44 328.061 442.575 327.285C440.712 326.514 438.918 325.575 437.216 324.469C435.502 323.365 433.791 322.038 432.085 320.491C430.374 318.946 428.589 316.959 426.723 314.522C425.167 312.318 423.616 309.665 422.062 306.569C420.505 303.475 419.185 300.437 418.099 297.454C417.008 294.468 416.388 291.931 416.234 289.828C416.074 287.732 416.468 286.681 417.4 286.681C418.02 286.681 418.719 287.069 419.499 287.84C420.27 288.616 421.13 289.553 422.062 290.657C422.996 291.765 423.767 292.869 424.393 293.972C425.012 295.081 425.478 295.851 425.792 296.292C427.343 298.945 428.974 301.545 430.688 304.082C432.391 306.624 434.185 309.111 436.05 311.539ZM369.849 145.142C369.221 140.501 368.369 136.193 367.284 132.215C366.19 128.237 364.873 124.151 363.322 119.951C363.007 119.51 362.856 118.956 362.856 118.293C362.856 117.631 363.007 117.301 363.322 117.301C364.253 117.301 365.184 117.631 366.118 118.293L367.984 119.621C371.4 122.934 374.197 126.196 376.373 129.398C378.544 132.603 379.944 137.851 380.57 145.142C380.875 148.016 380.875 151.554 380.57 155.751C380.258 159.951 379.71 163.929 378.939 167.682C378.159 171.444 377.228 174.643 376.142 177.296C375.048 179.947 374.045 181.163 373.111 180.942C372.486 180.942 372.02 180.335 371.711 179.118C371.4 177.906 371.166 176.523 371.014 174.976C370.854 173.432 370.78 171.827 370.78 170.169V166.687V155.915C370.78 152.493 370.466 148.903 369.849 145.142ZM378.239 120.613C376.993 118.626 376.682 117.631 377.308 117.631C378.239 117.631 379.324 118.129 380.57 119.122C381.809 120.117 382.589 120.729 382.901 120.946C386.006 124.259 389.428 127.854 393.159 131.719C396.887 135.586 400.457 140.171 403.879 145.474C407.296 150.778 410.407 156.91 413.206 163.871C416.003 170.832 418.174 179.067 419.731 188.565C421.596 199.396 421.982 210.058 420.896 220.551C419.805 231.049 418.02 241.6 415.537 252.206C415.223 252.652 414.909 253.756 414.603 255.522C414.289 257.293 413.672 258.175 412.738 258.175C412.112 258.175 411.492 257.346 410.872 255.688C410.247 254.03 409.941 252.869 409.941 252.206C409.316 249.778 408.696 246.903 408.076 243.59C407.45 240.275 406.91 236.793 406.445 233.148C405.979 229.502 405.665 225.97 405.513 222.541C405.353 219.117 405.279 216.076 405.279 213.426C405.279 212.544 405.199 210.607 405.048 207.624C404.885 204.641 404.654 201.162 404.348 197.184C404.034 193.206 403.488 188.845 402.714 184.091C401.937 179.342 401.083 174.643 400.152 170.003C400.771 176.855 400.771 183.708 400.152 190.553C399.526 197.406 398.752 204.309 397.821 211.272C396.887 218.233 396.11 225.191 395.49 232.152C394.861 239.113 394.861 246.132 395.49 253.202C396.421 266.907 400.303 280.826 407.145 294.967C413.977 309.111 424.861 321.153 439.778 331.097C441.643 332.422 442.415 333.085 442.109 333.085C441.483 333.309 440.398 333.085 438.847 332.422C427.963 328.006 418.954 322.7 411.806 316.513C404.654 310.328 398.826 303.586 394.324 296.292C389.814 289.001 386.471 281.433 384.3 273.588C382.121 265.745 380.875 257.842 380.57 249.886C380.57 249.223 380.49 248.619 380.338 248.065C380.178 247.515 380.104 246.903 380.104 246.241C373.882 258.837 366.97 270.993 359.36 282.703C351.738 294.418 344.28 305.687 336.981 316.513C329.674 327.341 322.835 337.559 316.468 347.173C310.092 356.787 305.045 365.678 301.317 373.855C300.688 374.959 300.223 375.513 299.917 375.513C299.291 375.513 298.986 375.183 298.986 374.52V373.193C299.291 362.803 302.248 351.927 307.844 340.545C313.437 329.165 320.036 317.341 327.657 305.077C335.267 292.811 343.274 280.216 351.667 267.29C360.057 254.363 367.355 241.159 373.577 227.678C377.308 219.059 380.49 210.111 383.135 200.829C385.772 191.548 387.403 182.267 388.031 172.986C388.648 163.704 388.183 154.589 386.631 145.641C385.072 136.689 382.275 128.353 378.239 120.613ZM303.179 300.27C310.946 287.674 319.339 274.697 328.357 261.324C337.367 247.956 346.071 235.193 354.463 223.037C354.769 222.375 355.629 221.163 357.029 219.392C358.426 217.626 359.745 216.855 360.991 217.072C361.608 217.072 361.762 218.067 361.456 220.055C361.142 222.042 360.676 223.483 360.057 224.363C359.125 227.461 357.88 231.16 356.329 235.468C354.769 239.776 352.984 244.2 350.967 248.727C348.942 253.259 346.845 257.676 344.674 261.986C342.494 266.295 340.478 269.89 338.612 272.759C337.678 274.084 336.047 276.901 333.716 281.212C331.385 285.52 328.589 290.657 325.326 296.625C322.061 302.591 318.639 308.945 315.068 315.684C311.492 322.428 308.15 328.832 305.045 334.909C301.934 340.988 299.217 346.402 296.886 351.151C294.555 355.905 293.23 359.271 292.924 361.261C292.299 363.466 291.679 364.577 291.059 364.577C290.433 364.577 290.048 364.131 289.893 363.249C289.733 362.365 289.499 361.7 289.193 361.261C287.637 358.608 286.937 354.746 287.097 349.66C287.251 344.578 288.102 339.167 289.662 333.417C291.213 327.673 293.158 321.816 295.489 315.85C297.82 309.882 300.383 304.694 303.179 300.27ZM323.227 221.38C328.509 209.894 334.49 198.292 341.177 186.575C347.856 174.868 353.684 164.367 358.66 155.088C359.277 153.985 359.977 152.881 360.756 151.773C361.528 150.669 362.228 150.228 362.856 150.448C363.473 150.448 363.707 151.166 363.553 152.602C363.393 154.04 363.322 155.31 363.322 156.413C360.525 174.535 354.929 192.543 346.536 210.443C338.147 228.341 328.823 246.024 318.565 263.478C312.343 274.53 305.664 285.633 298.517 296.791C291.364 307.952 285.466 320.05 280.804 333.085C280.175 334.193 279.944 334.856 280.104 335.075C280.255 335.297 280.175 335.405 279.87 335.405C278.938 334.964 278.473 333.972 278.473 332.422C276.913 325.794 277.844 317.455 281.269 307.398C284.686 297.343 289.033 286.961 294.324 276.238C299.603 265.524 305.045 255.247 310.641 245.412C316.234 235.581 320.43 227.57 323.227 221.38Z" fill="#0B4251"/>
<path d="M725.562 346.345C736.751 345.02 747.546 342.591 757.964 339.051C768.374 335.519 777.778 330.987 786.167 325.462C786.787 325.245 788.033 324.467 789.898 323.142C791.763 321.816 793 321.376 793.629 321.816C794.249 322.26 794.094 322.925 793.163 323.804C792.229 324.691 791.449 325.462 790.832 326.125C784.611 332.536 776.452 337.784 766.354 341.87C756.25 345.962 745.761 349.219 734.886 351.648C725.868 353.419 716.238 354.026 705.98 353.472C695.725 352.923 686.087 351.099 677.077 348.002C674.281 347.121 672.567 346.4 671.95 345.848C671.321 345.299 671.321 344.911 671.95 344.687C672.567 344.47 673.581 344.354 674.978 344.354C676.378 344.354 677.694 344.47 678.943 344.687C682.359 345.133 686.321 345.516 690.829 345.848C695.331 346.178 699.842 346.4 704.349 346.511C708.851 346.624 712.973 346.677 716.704 346.677C720.435 346.677 723.383 346.566 725.562 346.345ZM663.092 248.892C661.532 256.631 660.761 264.197 660.761 271.598C660.761 279.005 661.461 285.966 662.857 292.481C664.257 299.001 666.428 304.803 669.385 309.882C672.336 314.969 675.983 319.164 680.34 322.479C685.307 326.016 691.449 328.724 698.756 330.599C706.055 332.481 713.979 333.418 722.531 333.418C731.075 333.418 740.088 332.536 749.572 330.765C759.05 328.999 768.454 326.238 777.778 322.479C779.643 321.597 780.88 321.376 781.505 321.816C782.125 322.26 781.894 322.759 780.808 323.308C779.714 323.862 778.709 324.358 777.778 324.799C769.691 329.223 761.147 332.755 752.137 335.406C743.119 338.059 734.026 339.714 724.862 340.379C715.693 341.042 706.834 340.659 698.29 339.218C689.738 337.784 682.045 335.073 675.212 331.098C668.685 327.12 663.397 322.313 659.361 316.677C655.319 311.044 652.288 304.859 650.271 298.117C648.246 291.378 647.08 284.359 646.775 277.068C646.461 269.774 646.775 262.597 647.706 255.522C648.943 244.251 652.054 232.874 657.03 221.38C661.998 209.892 668.605 199.286 676.843 189.561C685.076 179.839 694.945 171.328 706.449 164.038C717.944 156.744 730.844 151.663 745.144 148.788C752.288 147.463 759.595 146.914 767.054 147.133C774.513 147.354 781.425 148.35 787.801 150.116C794.166 151.887 799.688 154.482 804.352 157.905C809.014 161.332 812.117 165.476 813.676 170.333C815.227 175.639 814.607 180.776 811.811 185.747C809.014 190.72 805.124 195.03 800.156 198.676C795.18 202.321 789.584 204.921 783.371 206.463C777.152 208.013 771.25 208.013 765.657 206.463C765.343 206.463 765.109 206.133 764.957 205.471C764.797 204.808 765.343 204.589 766.588 204.808C770.319 205.254 774.587 204.642 779.409 202.984C784.225 201.326 788.573 199.064 792.463 196.189C796.345 193.32 799.456 189.891 801.787 185.913C804.118 181.935 804.818 177.849 803.884 173.649C802.953 170.558 801.007 167.849 798.056 165.529C795.1 163.209 791.298 161.332 786.636 159.893C781.974 158.46 776.764 157.522 771.016 157.077C765.263 156.636 759.281 156.857 753.068 157.739C741.253 159.286 730.298 162.989 720.2 168.842C710.097 174.699 701.158 181.827 693.394 190.224C685.621 198.623 679.094 207.957 673.812 218.231C668.525 228.508 664.957 238.731 663.092 248.892ZM632.786 233.977C635.271 222.267 639.233 210.887 644.675 199.835C650.108 188.788 657.264 178.677 666.12 169.507C674.978 160.339 685.936 152.436 698.987 145.805C712.042 139.177 727.428 134.536 745.144 131.886C751.357 131.004 758.35 130.616 766.123 130.724C773.887 130.838 781.66 131.833 789.432 133.707C797.197 135.587 804.424 138.406 811.111 142.16C817.79 145.918 823.306 151.108 827.662 157.739C831.696 164.151 833.095 170.449 831.856 176.632C830.61 182.822 827.968 188.4 823.931 193.37C819.889 198.343 814.913 202.488 809.014 205.801C803.104 209.116 797.357 210.996 791.763 211.436C788.338 211.882 786.476 211.824 786.167 211.27C785.856 210.721 787.567 210.003 791.298 209.116C797.197 207.791 803.184 204.425 809.246 199.006C815.307 193.594 818.955 186.691 820.201 178.289C820.821 174.095 820.041 169.95 817.87 165.859C815.693 161.773 812.582 158.185 808.546 155.086C804.504 151.995 799.688 149.342 794.094 147.133C788.501 144.926 782.591 143.485 776.378 142.822C763.012 141.497 750.737 142.16 739.548 144.812C728.359 147.463 718.644 150.836 710.411 154.923C702.172 159.011 695.491 163.042 690.363 167.02C685.236 170.996 682.045 173.649 680.805 174.977C671.17 183.593 662.777 192.932 655.63 202.984C648.477 213.044 642.579 223.592 637.917 234.64C637.917 234.861 637.682 235.635 637.217 236.96C636.751 238.285 636.283 239.668 635.817 241.104C635.351 242.543 634.806 243.868 634.186 245.08C633.56 246.299 633.092 246.904 632.786 246.904C632.161 246.904 631.855 246.241 631.855 244.916V240.772C631.855 239.338 632.009 237.955 632.321 236.627C632.626 235.302 632.786 234.42 632.786 233.977ZM699.922 358.609C703.338 358.831 706.834 358.941 710.411 358.941C713.979 358.941 715.773 359.272 715.773 359.934C715.773 360.158 715.144 360.317 713.907 360.433C712.662 360.541 711.342 360.597 709.945 360.597H705.515H702.718C693.08 360.597 683.605 359.604 674.281 357.614C664.957 355.626 656.33 352.807 648.406 349.161C640.479 345.516 633.406 341.042 627.193 335.738C620.971 330.435 616.309 324.358 613.207 317.506C606.986 304.03 603.418 290.879 602.484 278.063C601.552 265.25 602.324 252.653 604.815 240.275C606.054 233.204 608.465 225.192 612.042 216.243C615.61 207.295 620.434 198.177 626.493 188.896C632.555 179.617 640.168 170.449 649.337 161.385C658.501 152.325 669.456 144.039 682.205 136.524C695.565 128.57 710.411 123.267 726.728 120.614C743.044 117.961 758.661 117.523 773.581 119.289C788.501 121.06 801.707 124.758 813.208 130.392C824.703 136.027 832.324 143.155 836.052 151.773C836.357 152.217 836.672 153.156 836.986 154.59C837.292 156.029 837.137 156.968 836.52 157.407C836.206 157.631 835.74 157.077 835.121 155.749C834.495 154.424 833.875 153.544 833.255 153.099C820.201 140.502 805.435 132.495 788.967 129.066C772.487 125.643 756.17 125.313 740.014 128.071C723.851 130.838 708.62 135.919 694.325 143.318C680.028 150.725 668.685 158.956 660.292 168.013C645.681 183.706 634.572 200.389 626.959 218.067C619.34 235.748 615.844 253.978 616.469 272.76C616.775 281.376 618.1 290.441 620.434 299.938C622.765 309.444 627.347 318.501 634.186 327.12C641.019 335.96 650.423 343.309 662.392 349.161C674.352 355.019 686.867 358.168 699.922 358.609Z" fill="#0B4251"/>
<path d="M22.51 308.505C-1.46818 297.959 -6.58717 276.018 8.58413 260.494C22.7499 245.993 48.0306 241.458 69.6178 248.86C92.5762 256.733 102.026 278.235 90.2223 293.256C67.981 298.264 45.3997 303.351 22.51 308.505Z" fill="#0B4251"/>
<path d="M71.2623 349.559C80.2291 350.468 82.6372 348.644 80.4034 343.044C78.1753 337.453 76.01 331.845 73.4276 326.343C72.3907 324.136 70.7339 321.485 66.3547 322.304C61.9213 323.136 61.0215 325.567 62.287 328.507C65.3321 335.579 68.3258 342.663 71.2623 349.559ZM29.662 315.232C50.0551 310.635 69.7912 306.186 89.7844 301.676C90.1186 307.417 90.8813 312.952 90.6585 318.482C90.27 328.177 93.4922 337.254 97.5315 346.309C102.942 358.442 107.975 370.666 113.054 382.874C114.745 386.943 110.655 392.178 104.581 393.7C98.6998 395.171 92.7295 396.484 86.7336 397.683C80.9176 398.847 74.4817 396.013 72.6164 391.584C66.2205 376.417 60.6044 361.049 53.2173 346.15C49.221 338.09 42.2909 330.802 36.5549 323.216C34.6238 320.662 32.2929 318.261 29.662 315.232Z" fill="#0B4251"/>
<path d="M766.62 57.5075C773.233 61.1203 778.787 64.3702 783.3 67.2145C784.431 67.925 785.508 68.6027 786.531 69.2426C787.551 69.8876 788.479 70.525 789.376 71.1145C790.264 71.7065 791.101 72.2658 791.887 72.7899C792.672 73.3113 793.398 73.8052 794.052 74.2763C796.372 75.8937 798.803 77.5061 801.159 79.252C802.351 80.1136 803.556 80.9878 804.776 81.8696C805.967 82.774 807.17 83.686 808.387 84.6106C810.846 86.4397 813.217 88.4048 815.697 90.3698C816.922 91.3625 818.119 92.3904 819.35 93.4182C819.964 93.9322 820.578 94.4486 821.198 94.9702C821.818 95.4891 822.409 96.0308 823.021 96.5649C824.235 97.6357 825.463 98.7189 826.703 99.8148C827.903 100.928 829.12 102.055 830.345 103.193C830.953 103.765 831.582 104.33 832.179 104.914C832.779 105.499 833.382 106.088 833.984 106.678C834.59 107.27 835.195 107.862 835.807 108.459C836.421 109.053 837.029 109.655 837.615 110.273C838.806 111.497 840.006 112.737 841.217 113.984C842.411 115.243 843.574 116.533 844.768 117.826C845.356 118.473 845.973 119.116 846.548 119.781C847.125 120.443 847.704 121.111 848.287 121.779C849.447 123.121 850.65 124.459 851.767 125.852C870.149 147.904 883.906 172.591 891.736 198.767C899.56 225.021 900.988 251.416 896.803 276.612C895.738 282.893 894.364 288.882 892.813 294.575C892.399 295.996 891.99 297.399 891.587 298.788C891.193 300.176 890.705 301.534 890.276 302.882C889.436 305.585 888.417 308.187 887.505 310.739C883.592 320.902 879.178 329.851 874.756 337.618C872.642 341.213 869.415 346.839 864.278 354.226C863.621 355.143 862.944 356.09 862.247 357.07C861.536 358.045 860.853 359.065 860.059 360.086C858.5 362.134 856.903 364.323 855.063 366.573C851.487 371.11 847.27 376.013 842.386 381.248C832.667 391.698 820.795 402.605 806.373 413.448C791.953 424.281 774.927 435.034 755.02 444.935C735.13 454.78 713.091 463.389 689.241 470.231C677.307 473.633 664.929 476.595 652.177 479.067L649.786 479.538C648.986 479.692 648.181 479.825 647.378 479.971C645.77 480.256 644.159 480.543 642.545 480.828C640.937 481.13 639.3 481.359 637.674 481.626C636.046 481.883 634.415 482.14 632.781 482.4C631.139 482.629 629.493 482.858 627.845 483.088C626.197 483.317 624.548 483.559 622.886 483.748C619.561 484.143 616.236 484.577 612.874 484.894C585.99 487.718 559.361 488.026 533.783 486.285C520.995 485.388 508.463 483.985 496.259 482.123C484.053 480.269 472.196 477.89 460.718 475.152C449.197 472.393 438.222 469.272 427.813 465.865C417.412 462.444 407.574 458.748 398.304 454.856C379.757 447.069 363.486 438.508 349.303 429.73C335.12 420.895 324.056 412.574 315.384 405.399C306.737 398.201 300.441 392.162 295.87 387.635C294.631 386.36 293.468 385.166 292.382 384.05C291.308 382.931 290.36 381.865 289.46 380.893C287.649 378.958 286.249 377.29 285.112 375.965C284.55 375.3 284.056 374.721 283.633 374.222C283.219 373.718 282.896 373.29 282.63 372.95C282.107 372.267 281.867 371.917 281.907 371.899C281.987 371.866 282.504 372.37 283.453 373.413C284.41 374.454 285.878 375.998 287.766 378.089C289.677 380.13 291.411 381.903 292.899 383.425C294.448 384.919 295.742 386.169 296.779 387.169C298.344 388.653 300.067 390.182 301.832 391.819C302.723 392.636 303.683 393.444 304.637 394.291C305.603 395.13 306.565 396.004 307.594 396.876C308.628 397.742 309.685 398.632 310.767 399.539C311.307 399.992 311.856 400.451 312.407 400.917C312.976 401.37 313.55 401.831 314.127 402.295C315.286 403.224 316.469 404.174 317.677 405.144C318.917 406.094 320.18 407.064 321.465 408.054C326.667 411.977 332.4 416.131 338.85 420.366C345.303 424.599 352.413 428.952 360.278 433.326C376 442.068 393.351 450.094 412.245 457.058C431.132 464.021 451.563 469.919 473.31 474.378C495.065 478.81 517.687 481.682 540.722 482.826C563.758 483.987 587.204 483.357 610.534 480.913C633.915 478.465 655.425 474.401 674.824 469.458C684.528 466.984 693.715 464.286 702.39 461.441C711.057 458.579 719.201 455.564 726.86 452.48C737.766 448.066 748.401 443.211 758.619 437.87C768.834 432.527 778.675 426.743 788.073 420.545C806.815 408.117 823.758 394.024 838.246 378.525C845.531 370.793 852.132 362.686 858.128 354.309C864.144 345.937 869.414 337.245 874.011 328.332C878.636 319.421 882.449 310.251 885.537 300.914C888.654 291.577 890.899 282.052 892.381 272.418C893.89 262.784 894.472 253.122 894.281 243.513C894.278 241.11 894.11 238.711 893.99 236.315C893.947 235.116 893.818 233.922 893.718 232.728C893.613 231.531 893.507 230.337 893.401 229.143C893.253 227.951 893.107 226.76 892.958 225.57C892.807 224.379 892.684 223.187 892.476 222.003C892.087 219.632 891.759 217.257 891.259 214.901C889.445 205.461 886.871 196.134 883.552 186.987C880.204 177.844 876.136 168.88 871.383 160.148C861.916 142.669 849.516 126.197 834.921 111.023C827.606 103.443 819.681 96.2147 811.286 89.3394C802.882 82.4692 794.004 75.9441 784.645 69.8548C782.566 68.5448 779.701 66.6578 775.839 64.3274C774.876 63.7429 773.879 63.1055 772.788 62.4681C771.699 61.8307 770.554 61.1581 769.351 60.4526C766.969 59.0191 764.255 57.5453 761.342 55.9027C758.419 54.3004 755.874 52.9525 753.763 51.8037C751.621 50.6927 749.904 49.7857 748.615 49.0879C747.336 48.3799 746.459 47.9113 746.027 47.6317C745.593 47.3546 745.596 47.2765 746.042 47.3999C746.067 47.3722 746.527 47.5486 747.421 47.929C748.31 48.317 749.615 48.9317 751.355 49.748C752.22 50.1611 753.197 50.6247 754.28 51.1386C755.357 51.6627 756.52 52.2572 757.797 52.8997C759.068 53.5471 760.465 54.2299 761.93 55.0033C763.39 55.7843 764.952 56.6182 766.62 57.5075Z" fill="#0B4251"/>
<path d="M269.046 119.495C275.645 112.29 282.01 106.153 287.726 100.993C293.659 95.6927 299.892 90.5658 306.402 85.6304C312.918 80.7 319.748 75.9838 326.809 71.4616C333.882 66.9495 341.184 62.6187 348.762 58.5525C356.335 54.4837 364.136 50.6392 372.137 47.0265C380.13 43.4012 388.36 40.053 396.753 36.9466C405.151 33.8453 413.698 30.9556 422.419 28.3682C431.14 25.7834 439.998 23.448 448.962 21.3619L455.707 19.8529C457.963 19.3717 460.234 18.9232 462.497 18.4597C464.756 17.9785 467.045 17.5829 469.321 17.1571L472.741 16.5273C473.88 16.3182 475.032 16.1444 476.177 15.9504C478.474 15.5801 480.756 15.1719 483.061 14.8369L489.974 13.8291C494.602 13.2295 499.224 12.6148 503.877 12.1437L507.362 11.7683L510.859 11.4483L514.352 11.1334L516.101 10.9772L517.855 10.8513L524.862 10.3524L531.88 9.97955C541.247 9.54874 550.625 9.38498 559.989 9.48828L567.011 9.61929L574.021 9.87122C575.192 9.90649 576.357 9.96948 577.523 10.035L581.022 10.2239C582.185 10.2919 583.353 10.3373 584.516 10.4255L588.004 10.6749C625.222 13.3126 661.6 20.4726 695.297 31.4595C703.724 34.2181 711.971 37.2263 720.035 40.446C728.09 43.6758 735.983 47.0945 743.61 50.7803C758.873 58.1368 773.324 66.2869 786.633 75.2532C793.297 79.7275 799.71 84.3758 805.835 89.1953C811.937 94.0324 817.761 99.0333 823.292 104.178C824.654 105.475 826.057 106.75 827.385 108.065L831.361 112.005L835.203 116.011L836.16 117.014L837.086 118.032L838.931 120.067C843.813 125.509 848.429 131.062 852.66 136.753C869.648 159.49 881.186 184.071 887.093 209.131C890.076 221.662 891.518 234.325 891.641 246.941C891.647 259.563 890.353 272.145 887.539 284.522C884.051 300.213 878.312 315.634 870.465 330.475C862.635 345.322 852.646 359.574 840.788 372.962C817.081 399.742 785.77 423.046 749.206 440.825C730.944 449.723 711.065 457.468 689.864 463.736C668.668 470.002 646.132 474.811 622.734 477.875C599.336 480.91 575.075 482.19 550.5 481.465C538.213 481.079 525.856 480.197 513.504 478.809C511.956 478.656 510.419 478.446 508.876 478.255C507.334 478.061 505.788 477.867 504.243 477.673C502.703 477.451 501.164 477.23 499.621 477.008C498.081 476.786 496.533 476.577 494.999 476.315C491.925 475.816 488.837 475.343 485.775 474.768C484.241 474.489 482.701 474.224 481.17 473.934C479.642 473.632 478.111 473.33 476.58 473.027C475.54 472.811 474.546 472.624 473.615 472.418C472.683 472.211 471.804 472.017 470.975 471.833C469.318 471.473 467.87 471.155 466.627 470.886C464.159 470.304 462.508 469.931 461.674 469.762C460.009 469.422 459.232 469.233 459.263 469.165C460.96 469.442 463.659 469.979 467.379 470.742C469.247 471.1 471.369 471.516 473.749 471.992C476.137 472.435 478.785 472.927 481.69 473.466C487.978 474.496 494.473 475.542 501.241 476.368C504.611 476.834 508.065 477.177 511.556 477.58C513.304 477.766 515.072 477.92 516.849 478.094C517.737 478.179 518.629 478.265 519.526 478.351C520.423 478.431 521.325 478.492 522.228 478.565C524.036 478.708 525.859 478.85 527.695 478.996C529.532 479.106 531.386 479.22 533.251 479.336C535.114 479.467 536.996 479.54 538.89 479.623C539.839 479.666 540.787 479.709 541.741 479.751L543.175 479.817L544.615 479.855C546.537 479.91 548.474 479.963 550.422 480.018C552.371 480.059 554.336 480.064 556.31 480.092C557.298 480.099 558.289 480.122 559.286 480.117C560.28 480.112 561.277 480.104 562.28 480.097C563.28 480.092 564.285 480.087 565.294 480.079L566.808 480.071L568.327 480.034C570.353 479.988 572.395 479.94 574.449 479.893C576.5 479.809 578.565 479.726 580.645 479.643C582.725 479.578 584.81 479.429 586.912 479.316C587.964 479.255 589.018 479.195 590.075 479.132C591.132 479.069 592.188 478.978 593.251 478.9C594.311 478.819 595.376 478.741 596.445 478.661C597.513 478.58 598.584 478.507 599.656 478.399C601.798 478.2 603.955 477.998 606.123 477.796C610.451 477.323 614.833 476.862 619.237 476.262C628.053 475.103 637.022 473.682 646.098 471.936C655.167 470.17 664.337 468.107 673.558 465.696C691.972 460.879 709.962 454.858 727.122 447.569C744.29 440.293 760.67 431.806 775.924 422.195C806.441 402.99 832.43 379.23 851.443 352.253C860.941 338.787 868.52 324.782 874.124 310.527C879.732 296.268 883.363 281.759 885.054 267.27C886.745 252.779 886.502 238.308 884.434 224.101C882.334 209.897 878.412 195.963 872.922 182.489C870.177 175.742 867.009 169.252 863.592 163.004C860.159 156.762 856.482 150.753 852.506 145.024C848.532 139.295 844.342 133.82 839.997 128.593C835.632 123.375 831.064 118.432 826.437 113.716C825.257 112.545 824.089 111.386 822.926 110.232C821.76 109.083 820.541 107.972 819.364 106.851C818.772 106.294 818.181 105.737 817.596 105.183C816.987 104.639 816.381 104.097 815.782 103.558C814.57 102.482 813.388 101.401 812.179 100.348C809.723 98.2674 807.346 96.1915 804.869 94.2289C804.258 93.7326 803.65 93.2388 803.041 92.7475C802.438 92.2537 801.83 91.7675 801.207 91.2939C799.968 90.3391 798.739 89.3918 797.522 88.4521C797.217 88.2178 796.914 87.9835 796.608 87.7491C796.297 87.5199 795.988 87.2932 795.677 87.0639C795.057 86.6079 794.44 86.1544 793.823 85.7035C792.583 84.8066 791.392 83.887 790.138 83.0279C787.65 81.2971 785.236 79.5663 782.754 77.9464C781.52 77.1301 780.311 76.3113 779.086 75.5178C777.852 74.7343 776.624 73.9557 775.409 73.1848C774.801 72.7993 774.198 72.4164 773.596 72.036C772.981 71.6631 772.37 71.2928 771.762 70.9225C770.542 70.1868 769.334 69.4562 768.134 68.7332C750.246 58.099 730.681 48.79 709.917 40.9473C699.53 37.0272 688.841 33.48 677.892 30.3333C666.937 27.2018 655.727 24.4683 644.321 22.1505C621.514 17.5275 597.919 14.5446 574.021 13.4462C550.131 12.3326 525.956 13.0305 502.043 15.5674C478.148 18.0994 455.224 22.3873 433.663 28.076C412.098 33.7672 391.908 40.8768 373.354 49.052C354.795 57.2248 337.867 66.4582 322.659 76.3743C307.447 86.2955 293.916 96.8818 282.127 107.866C276.476 113.119 271.137 118.46 266.021 124C261.008 129.502 259.063 131.775 259.808 130.548C259.765 130.53 259.917 130.286 260.262 129.81C260.617 129.339 261.128 128.623 261.905 127.706C262.676 126.786 263.642 125.638 264.801 124.257C265.379 123.564 266.036 122.826 266.75 122.037C267.464 121.246 268.229 120.4 269.046 119.495Z" fill="#0B4251"/>
<path d="M907.376 248.127C907.385 247.327 907.395 246.527 907.359 245.723L907.271 242.224L907.222 240.478L907.111 238.727C906.088 220.044 902.089 201.234 894.936 182.836C894.936 182.836 894.805 182.507 894.551 181.867C894.345 181.348 894.058 180.624 893.693 179.704C893.39 178.908 892.983 177.976 892.513 176.903C892.377 176.59 892.234 176.265 892.088 175.928C891.903 175.51 891.714 175.073 891.518 174.618C891.014 173.453 890.46 172.17 889.786 170.791C889.515 170.234 889.242 169.658 888.961 169.064C888.274 167.611 887.535 166.052 886.658 164.409C886.063 163.25 885.438 162.041 884.784 160.781C884.372 160.02 883.939 159.243 883.497 158.45C883.212 157.938 882.923 157.42 882.633 156.894C882.433 156.541 882.234 156.185 882.034 155.826C881.854 155.502 881.673 155.176 881.49 154.848C881.076 154.155 880.662 153.457 880.242 152.75C879.957 152.279 879.673 151.802 879.387 151.321C878.809 150.35 878.22 149.361 877.588 148.363C876.637 146.869 875.648 145.335 874.637 143.758C873.975 142.746 873.27 141.724 872.554 140.685C872.162 140.116 871.766 139.542 871.372 138.961C862.288 125.914 849.751 110.871 832.894 95.6512C824.45 88.0654 814.972 80.4117 804.431 72.9695C793.856 65.5526 782.298 58.2817 769.703 51.4971C767.216 50.1249 764.65 48.8056 762.073 47.4804C761.419 47.1438 760.763 46.8069 760.108 46.4686C759.04 45.9235 757.952 45.3916 756.861 44.8584C756.298 44.5832 755.734 44.3077 755.172 44.0298C754.742 43.8204 754.311 43.611 753.881 43.4009C753.483 43.2066 753.085 43.0116 752.687 42.8155C751.844 42.4225 751.002 42.0295 750.159 41.6314C743.434 38.4444 736.436 35.4565 729.292 32.5567C727.495 31.8488 725.692 31.1358 723.89 30.4229C722.623 29.9341 721.341 29.4576 720.058 28.9806C719.509 28.7765 718.959 28.5724 718.411 28.3671C718.179 28.2805 717.948 28.1935 717.716 28.1064C717.03 27.8488 716.344 27.5909 715.654 27.3442L712.863 26.3617C712.328 26.1737 711.792 25.9838 711.256 25.7937C709.932 25.3241 708.605 24.8533 707.259 24.4067C699.746 21.8546 692.039 19.5141 684.24 17.3071C676.419 15.1304 668.455 13.1629 660.422 11.3489C652.37 9.57531 644.223 8.00572 636.03 6.61004C627.817 5.26718 619.559 4.09321 611.289 3.13837C609.81 2.96774 608.333 2.81626 606.856 2.66484C606.261 2.60389 605.667 2.54299 605.073 2.48083L601.971 2.16086L598.866 1.89134C598.143 1.83155 597.421 1.76904 596.698 1.70653C595.35 1.58988 594.003 1.47328 592.658 1.37485C591.595 1.30375 590.532 1.23064 589.47 1.15758C588.463 1.08827 587.456 1.01907 586.451 0.951605C553.375 -1.11677 520.738 0.268815 490.967 4.30985C476.058 6.27997 461.878 8.92025 448.578 11.9485C435.269 14.9768 422.846 18.4232 411.457 22.0763C395.663 27.1981 380.386 33.1312 365.826 39.8603C365.826 39.8603 361.435 41.8279 353.825 45.6624C346.224 49.4918 335.475 55.2686 323.146 63.0836C317.013 67.0163 310.477 71.4454 303.784 76.3959C297.111 81.3565 290.292 86.8411 283.542 92.8194C270.03 104.766 256.85 118.751 245.55 134.202C234.203 149.633 224.842 166.548 218.212 183.901C214.89 192.573 212.245 201.353 210.296 210.097C208.363 218.839 207.129 227.539 206.546 236.049C205.363 253.077 206.851 269.32 209.971 283.743C211.548 290.958 213.524 297.723 215.675 303.948C215.905 304.584 216.134 305.216 216.361 305.843C216.687 306.745 217.01 307.637 217.327 308.518C217.459 308.847 217.59 309.175 217.721 309.501C218.179 310.642 218.629 311.764 219.069 312.869C219.183 313.146 219.298 313.422 219.411 313.697C219.588 314.123 219.763 314.546 219.935 314.968C220.051 315.228 220.167 315.488 220.282 315.747C220.471 316.169 220.659 316.589 220.843 317.003C221.168 317.724 221.491 318.436 221.81 319.138C222.082 319.74 222.352 320.334 222.617 320.921L220.306 314.884L219.6 312.859C219.135 311.592 218.612 310.171 218.032 308.606C217.501 307.034 216.918 305.308 216.292 303.452C208.982 280.606 206.037 255.987 208.851 230.655C208.882 230.376 208.911 230.097 208.941 229.817C208.994 229.306 209.047 228.794 209.114 228.282C209.222 227.486 209.331 226.695 209.448 225.899C209.515 225.439 209.579 224.978 209.642 224.516C209.796 223.39 209.951 222.26 210.168 221.135C210.442 219.542 210.725 217.953 211.011 216.355C211.172 215.6 211.332 214.843 211.492 214.085C211.67 213.246 211.847 212.406 212.028 211.564C213.467 205.177 215.256 198.768 217.412 192.361C219.6 185.957 222.18 179.565 225.125 173.189C225.496 172.393 225.868 171.597 226.245 170.801C226.616 170.005 226.993 169.203 227.399 168.412C227.826 167.578 228.252 166.742 228.679 165.904C229.06 165.155 229.443 164.405 229.827 163.653C230.356 162.681 230.889 161.705 231.423 160.728C231.753 160.122 232.084 159.516 232.415 158.909C232.975 157.892 233.57 156.884 234.166 155.873C234.497 155.312 234.828 154.75 235.154 154.186C238.899 147.912 242.999 141.727 247.461 135.651C251.908 129.567 256.787 123.629 261.969 117.806C267.157 111.992 272.69 106.308 278.555 100.778C284.45 95.2632 290.672 89.9096 297.214 84.7323C303.755 79.5576 310.594 74.5416 317.775 69.7599C324.948 64.9807 332.421 60.3955 340.168 56.0345C355.645 47.2899 372.316 39.5227 389.827 32.7432C398.579 29.3421 407.569 26.2533 416.704 23.4266C425.848 20.605 435.152 18.0403 444.593 15.7729C463.492 11.296 482.877 7.84449 502.573 5.6955C512.417 4.60964 522.315 3.80351 532.25 3.31222C542.188 2.84359 552.146 2.66726 562.087 2.79072C581.989 3.01243 601.831 4.53157 621.327 7.19959C655.217 11.8402 687.628 20.0457 717.108 31.0275C736.313 38.1698 754.358 46.4988 771.012 55.7926C787.657 65.089 802.883 75.3679 816.549 86.3548C821.316 90.1514 825.815 94.0993 830.234 98.0748C834.559 102.106 838.818 106.162 842.781 110.354C846.814 114.508 850.565 118.791 854.227 123.097C857.795 127.443 861.286 131.809 864.462 136.286C864.709 136.631 864.959 136.974 865.209 137.318C865.768 138.087 866.326 138.856 866.853 139.634L870.284 144.708L873.532 149.835C874.025 150.622 874.494 151.421 874.964 152.218C875.171 152.572 875.379 152.924 875.588 153.276C875.835 153.704 876.089 154.129 876.343 154.554C876.776 155.278 877.208 156.001 877.602 156.735L879.513 160.212C879.643 160.453 879.775 160.693 879.906 160.932C880.093 161.272 880.279 161.611 880.459 161.953L881.353 163.706C886.149 173.048 890.168 182.553 893.345 192.16C896.501 201.771 898.841 211.475 900.366 221.213C900.537 222.156 900.658 223.105 900.779 224.052C900.813 224.323 900.848 224.595 900.883 224.866L901.355 228.519L901.698 232.179C901.728 232.519 901.761 232.86 901.795 233.201C901.88 234.077 901.966 234.955 902.003 235.832C902.036 236.438 902.072 237.043 902.108 237.647C902.217 239.479 902.327 241.309 902.337 243.139L902.417 246.789L902.372 250.437C902.378 252.253 902.285 254.069 902.193 255.883C902.162 256.495 902.131 257.107 902.103 257.718C902.078 258.593 902.003 259.468 901.927 260.343C901.898 260.677 901.869 261.011 901.843 261.346L901.538 264.974C900.992 269.801 900.361 274.61 899.429 279.387C897.627 288.948 895.067 298.398 891.674 307.654L890.394 311.128C890.119 311.844 889.829 312.558 889.54 313.271C889.363 313.706 889.187 314.14 889.014 314.575C888.259 316.5 887.413 318.407 886.569 320.308C886.405 320.678 886.241 321.048 886.078 321.417C885.638 322.443 885.148 323.453 884.657 324.465L884.492 324.806L882.878 328.187L881.15 331.53C881.008 331.8 880.868 332.071 880.727 332.341C880.291 333.183 879.854 334.025 879.376 334.858C874.534 343.693 869.041 352.304 862.868 360.613C856.678 368.914 849.859 376.928 842.475 384.612C835.068 392.286 827.058 399.615 818.56 406.581C810.073 413.552 801.015 420.115 791.531 426.28C791.144 426.53 790.758 426.781 790.371 427.033C789.574 427.553 788.777 428.073 787.968 428.58L784.335 430.827C782.667 431.883 780.943 432.893 779.22 433.901C778.473 434.338 777.727 434.775 776.985 435.216C776.151 435.721 775.289 436.199 774.427 436.678C774.028 436.9 773.63 437.121 773.234 437.345L769.478 439.453L765.647 441.489C765.241 441.703 764.836 441.919 764.432 442.135C763.564 442.6 762.695 443.064 761.802 443.504C741.146 454.093 719.033 462.971 695.972 469.844C672.945 476.74 649.104 481.73 625.083 484.842C601.048 487.928 576.827 489.105 552.989 488.45C529.139 487.82 505.684 485.293 483.109 481.141C460.542 476.992 438.832 471.225 418.427 463.999C377.601 449.576 342.022 429.711 313.742 406.432C295.491 391.45 280.271 375.099 268.148 357.943C268.148 357.943 268.148 357.938 268.139 357.938C268.031 357.819 267.928 357.693 267.834 357.56C267.688 357.436 267.551 357.3 267.442 357.156C267.378 357.113 267.316 357.067 267.257 357.019C259.532 346.301 249.041 336.171 233.563 337.38C213.801 338.924 204.078 356.529 201.678 371.892C200.738 377.912 200.595 384.149 200.451 390.407C200.145 403.779 199.835 417.248 191.749 428.895C180.025 445.785 154.759 450.35 135.408 441.268C120.837 434.428 113.608 422.089 106.379 409.749C103.241 404.394 100.103 399.037 96.3644 394.131C96.1502 393.851 94.959 393.896 95.1304 394.123C98.869 399.028 101.954 404.381 105.042 409.738C110.598 419.379 116.165 429.038 125.57 436.141C138.616 445.994 157.267 449.41 173.338 443.641C181.922 440.56 189.209 435.077 193.757 427.933C198.656 420.241 200.49 411.378 201.187 402.671C201.497 398.789 201.589 394.749 201.682 390.649C202.029 375.389 202.395 359.302 214.113 347.472C222.734 338.771 236.16 334.936 248.195 340.607C254.866 343.751 259.812 348.628 263.97 354.052C263.947 354.034 263.925 354.015 263.903 353.995C265.975 357.216 268.163 360.421 270.467 363.613C270.777 364.104 271.084 364.594 271.39 365.083C271.432 365.149 271.528 365.199 271.649 365.233C271.678 365.273 271.707 365.312 271.736 365.352C271.802 365.43 271.876 365.513 271.942 365.596C271.962 365.625 271.975 365.651 271.989 365.679C271.995 365.691 272.001 365.702 272.007 365.715C278.22 374.117 285.256 382.4 293.18 390.472C298.268 395.662 303.741 400.746 309.526 405.734C315.327 410.715 321.438 415.605 327.951 420.316C340.954 429.754 355.331 438.642 371.016 446.739C402.444 462.916 439.049 475.782 479.201 483.602C499.268 487.51 520.201 490.145 541.663 491.306C563.127 492.48 585.123 492.181 607.224 490.279C629.305 488.382 651.401 484.9 673.063 479.818C694.721 474.739 715.94 468.03 736.187 459.711C776.731 443.122 813.269 419.898 842.066 391.578C856.406 377.425 868.83 362.014 878.854 345.633C883.847 337.435 888.243 328.998 892.002 320.367C895.753 311.733 898.907 302.905 901.283 293.923C903.68 284.942 905.397 275.814 906.394 266.596L906.582 264.865L906.997 259.665C907.112 257.907 907.185 256.145 907.259 254.38C907.283 253.822 907.306 253.263 907.331 252.705L907.368 249.218C907.368 248.854 907.372 248.491 907.376 248.127Z" fill="#0B4251"/>
</svg>
