<svg width="91" height="91" viewBox="0 0 91 91" fill="none" xmlns="http://www.w3.org/2000/svg">
<path d="M50.6952 40.0779L45.5238 50.5899C44.8974 51.8476 46.2835 52.3374 46.79 52.0859L53.4675 50.0868L55.8666 56.6004C56.2398 57.4742 57.626 57.4742 58.0125 56.6004L63.0506 46.4592C64.3168 46.5784 65.7029 46.7108 66.9558 46.7108C68.342 46.7108 69.7281 46.5916 70.9943 46.4592L76.0324 56.6004C76.4056 57.4742 77.6718 57.4742 78.045 56.6004L80.5641 50.0868L87.2416 52.0859C87.7481 52.3374 89.0009 51.8343 88.5078 50.5899L83.3364 40.0779C87.6281 35.9473 90.4004 30.0691 90.4004 23.5554C90.4004 10.7928 79.9376 0.400085 66.9558 0.400085C54.094 0.400085 43.6445 10.7928 43.6445 23.5554C43.6445 30.0691 46.2835 35.9473 50.6952 40.0779ZM44.7774 66.4901H56.4931C60.0251 66.371 59.7718 61.4857 56.613 61.4857L44.8974 61.3666C41.6186 61.3666 41.4987 66.4901 44.7774 66.4901ZM44.6441 80.2589H53.8407C56.613 80.2589 56.9862 76.1283 54.0939 75.8767H44.3909C41.7519 76.1283 41.7519 80.2589 44.6441 80.2589ZM51.0817 86.4019C53.4808 86.4019 53.854 82.8935 51.4549 82.5228H44.5242C42.1251 82.8935 42.5116 86.5342 44.8974 86.5342C47.0433 86.521 49.0558 86.521 51.0817 86.4019ZM10.7501 85.1441L10.6302 59.8573C9.12407 59.8573 8.4843 60.8635 8.11111 62.2403L2.67314 82.2712C2.29995 84.0188 3.43286 85.025 5.07224 85.025L10.7501 85.1441ZM12.8827 59.8573V85.1441L15.7749 85.2633C17.0411 85.2633 17.1611 84.0056 17.1611 83.8864L17.0411 61.1018C17.0411 60.3471 16.4147 59.7249 15.655 59.7249L12.8827 59.8573ZM43.5112 59.3542C41.6186 58.2289 40.3657 56.4813 40.4857 53.2245C40.7389 50.1 40.9922 46.9623 41.2454 43.8379C41.3654 40.4619 36.3272 38.7011 35.0744 43.5863L32.3021 53.476C30.796 58.9835 24.8649 62.4919 19.3203 62.8626V81.5166C21.0796 81.7681 22.599 83.0126 24.2384 84.3895C26.1311 86.0179 28.3969 88.017 31.3025 88.017L42.8981 88.1362C40.6323 86.8785 39.8726 83.6349 41.8852 81.6225C39.7393 79.9941 39.7393 76.6181 41.6319 74.8573C39.8726 73.3613 39.4861 70.6075 40.619 68.7275C38.6064 71.7328 35.4476 73.6128 31.6756 74.6057C30.2895 74.9764 29.783 72.8582 31.1692 72.4742C35.5809 71.3489 38.9796 68.5952 40.2458 64.213C40.1125 62.2403 41.1121 60.1088 43.5112 59.3542ZM66.9558 2.51836C78.6714 2.51836 88.1346 11.9049 88.1346 23.5554C88.1346 35.1927 78.6848 44.5925 66.9558 44.5925C55.3601 44.5925 45.9103 35.2059 45.9103 23.5554C45.9103 11.9182 55.3601 2.51836 66.9558 2.51836ZM73.2601 45.9694C76.2857 45.0956 79.1779 43.5863 81.577 41.5872L85.3623 49.2262L80.1909 47.5978C79.5644 47.4786 79.058 47.7169 78.8047 48.3524L76.9121 53.3436L73.2601 45.9694ZM60.7848 45.9694L57.1195 53.3436L55.2269 48.3392C54.9736 47.717 54.3472 47.4654 53.8407 47.5846L48.5494 49.213L52.3346 41.574C54.8537 43.5863 57.626 45.0824 60.7848 45.9694ZM66.9558 8.2774C75.526 8.2774 82.4567 15.1618 82.4567 23.5554C82.4567 32.0682 75.526 38.8335 66.9558 38.8335C58.5056 38.8335 51.5749 32.0682 51.5749 23.5554C51.5749 15.1618 58.5056 8.2774 66.9558 8.2774ZM66.9558 6.02674C57.2528 6.02674 49.3091 13.9173 49.3091 23.5554C49.3091 33.1936 57.2528 41.0841 66.9558 41.0841C76.7921 41.0841 84.6026 33.1936 84.6026 23.5554C84.6026 13.9173 76.7921 6.02674 66.9558 6.02674ZM73.5134 70.6208L74.8995 68.9923L73.2601 67.6154L71.754 69.2439L73.5134 70.6208ZM76.4056 67.1256L77.5385 65.378L75.6459 64.1203L74.513 65.8679L76.4056 67.1256ZM78.8047 63.3657L79.8177 61.3666L77.8051 60.3604L76.7922 62.2403L78.8047 63.3657ZM80.6974 59.235L81.4571 57.1035L79.3112 56.3489L78.5515 58.4804L80.6974 59.235ZM82.2035 54.8529L82.7099 52.7214L80.4441 52.2183L79.9376 54.3498L82.2035 54.8529ZM46.2835 7.65516L44.1377 7.77431V10.025L46.2835 9.90582V7.65516ZM41.7519 7.90671L39.606 8.15825L39.8593 10.4089L42.0051 10.1574L41.7519 7.90671ZM37.2069 8.66134L35.0611 9.16443L35.6875 11.4151L37.7001 10.7928L37.2069 8.66134ZM32.7952 9.90582L30.7826 10.6605L31.6623 12.792L33.6749 12.0373L32.7952 9.90582ZM28.6368 11.6666L26.7442 12.792L27.7571 14.6719L29.6497 13.6658L28.6368 11.6666ZM24.7316 13.9173L22.8389 15.2942L24.2251 17.0417L25.9844 15.784L24.7316 13.9173ZM20.3199 17.4257C20.6931 17.055 21.4528 17.055 21.826 17.5448C22.1992 17.9155 22.1992 18.6702 21.706 19.0409C16.1614 24.0453 12.6294 30.3074 10.99 37.0726C9.35065 43.8379 9.72384 50.9738 12.2562 57.6066H15.655C18.0541 57.6066 19.0537 59.3542 19.187 60.7311C23.8519 60.3604 28.89 57.4742 30.1562 52.9729L32.9285 42.9641C34.9411 35.5766 43.7645 37.9597 43.3913 43.9703C43.2713 47.0947 43.0181 50.2324 42.7648 53.4892C42.5116 57.1168 45.5371 58.123 48.3094 59.2483H56.6263C61.7977 59.3674 62.6774 66.0135 59.0254 68.0126C61.2913 70.5148 60.2916 74.1424 57.5193 75.4001C58.1458 76.2739 58.399 77.2801 58.2791 78.273C60.0384 77.6508 61.8111 76.777 63.5704 75.7708C65.583 74.6455 67.6089 73.1362 69.4882 71.521C69.8614 71.1503 70.6211 71.1503 70.9943 71.6402C71.3675 72.0109 71.3675 72.7655 70.8744 73.1362C68.9817 74.8838 66.8359 76.393 64.57 77.7699C62.3042 79.0276 60.0384 80.153 57.506 80.8944H57.3861C56.7596 81.649 55.8799 82.2712 54.7337 82.3904C56.2398 85.1441 54.3605 88.6525 51.0817 88.6525H47.683C47.1765 89.2748 46.2969 90.4001 42.8981 90.4001L31.1825 90.2809C27.5305 90.1618 25.0115 88.0303 22.7323 86.0312C21.4661 85.025 20.4665 84.1512 19.3336 83.7805C19.3336 85.6605 17.6942 87.408 15.8016 87.408L5.08557 87.2889C1.94008 87.2889 -0.205786 84.6543 0.55393 81.7814L5.97857 61.6313C6.48505 59.7514 7.8712 57.8714 9.88378 57.6199C7.48468 50.8546 7.23144 43.4672 8.87083 36.5828C10.4969 29.4336 14.4021 22.6816 20.3199 17.4257ZM64.1835 59.6057C62.7974 59.6057 62.7974 57.3551 64.1835 57.3551H65.9429V55.7267C65.9429 54.2306 68.0887 54.2306 68.0887 55.7267V57.3551H69.7281C71.2342 57.3551 71.2342 59.6057 69.7281 59.6057H68.0887V61.2342C68.0887 62.611 65.9429 62.611 65.9429 61.2342V59.6057H64.1835ZM67.8355 12.6596L70.6078 18.1671C70.7277 18.4186 70.981 18.6702 71.3675 18.6702L77.4186 19.6763C78.045 19.7955 78.2983 20.2986 77.7918 20.8017L73.3801 25.1838C73.3801 25.1838 73.0069 25.5545 73.0069 26.0576L74.0198 32.0682C74.1398 32.8229 73.5134 32.942 73.0069 32.8229L67.4623 29.95C67.2091 29.8308 66.8359 29.8308 66.4493 29.95L60.9047 32.8229C60.5315 32.942 59.8918 32.8229 60.0251 32.0682L60.9047 26.0576C61.0247 25.5545 60.6515 25.1838 60.6515 25.1838L56.2398 20.8017C55.7333 20.2986 55.9866 19.7955 56.613 19.6763L62.5308 18.6702C62.904 18.6702 63.2905 18.4186 63.4105 18.1671L66.1828 12.6596C66.5826 12.0373 67.4623 12.0373 67.8355 12.6596ZM69.7281 11.6666C68.7152 9.41597 65.3164 9.41597 64.3035 11.6666L61.6511 16.671L56.2265 17.5448C53.8274 17.7964 52.8278 20.5501 54.5871 22.2977L58.6256 26.3092L57.7459 31.6975C57.3727 34.0806 59.7585 35.8282 61.9044 34.7028L66.9425 32.2006L71.9806 34.7028C74.2464 35.8282 76.5123 34.0806 76.1391 31.6975L75.2594 26.3092L79.2979 22.2977C81.0572 20.5501 80.1776 17.7964 77.7918 17.5448L72.3671 16.671L69.7281 11.6666ZM19.067 40.2103C17.5609 40.2103 17.5609 37.9597 19.067 37.9597H20.7064V36.3312C20.7064 34.8352 22.9722 34.8352 22.9722 36.3312V37.9597H24.6116C25.9978 37.9597 25.9978 40.2103 24.6116 40.2103H22.9722V41.8387C22.9722 43.3348 20.7064 43.3348 20.7064 41.8387V40.2103H19.067ZM29.0233 27.8052C27.6372 27.8052 27.6372 25.5545 29.0233 25.5545H30.6627V23.9261C30.6627 22.5492 32.9285 22.5492 32.9285 23.9261V25.5545H34.5679C36.074 25.5545 36.074 27.8052 34.5679 27.8052H32.9285V29.4336C32.9285 30.9297 30.6627 30.9297 30.6627 29.4336V27.8052H29.0233ZM55.6134 68.6216H44.6441C41.3654 68.6216 41.3654 73.626 44.6441 73.626H55.4801C58.8922 73.626 58.7589 68.6216 55.6134 68.6216Z" fill="#FFB200"/>
</svg>
