<svg width="91" height="91" viewBox="0 0 91 91" fill="none" xmlns="http://www.w3.org/2000/svg">
<path d="M78.1999 3.11163C77.8266 2.48497 76.9332 2.48497 76.6932 3.11163L73.7999 8.6583C73.6799 8.91163 73.4266 9.16497 73.0399 9.16497L66.9866 10.1783C66.3599 10.2983 66.2266 10.805 66.6132 11.3116L71.0266 15.725C71.0266 15.725 71.3999 16.0983 71.3999 16.605L70.3866 22.6583C70.2666 23.4183 70.8932 23.5383 71.3999 23.4183L76.9466 20.525C77.1999 20.405 77.5732 20.405 77.9599 20.525L83.5066 23.4183C83.8799 23.5383 84.5199 23.4183 84.3866 22.6583L83.5066 16.605C83.3866 16.0983 83.7599 15.725 83.7599 15.725L88.1732 11.3116C88.6799 10.805 88.4266 10.2983 87.7999 10.1783L81.8532 9.16497C81.4799 9.16497 81.0932 8.91163 80.9732 8.6583L78.1999 3.11163ZM45.2932 5.75163C41.8932 5.75163 38.9866 8.52497 38.9866 12.0583C38.9866 15.4583 41.8799 18.365 45.2932 18.365C48.8266 18.365 51.5999 15.4716 51.5999 12.0583C51.5866 8.52497 48.8132 5.75163 45.2932 5.75163ZM36.7199 43.7116C38.1066 43.7116 39.2399 42.5783 39.2399 41.1916C39.2399 38.4183 39.3599 35.645 39.2399 32.8716C39.2399 31.365 41.3866 31.365 41.5066 32.7516C41.5066 35.645 41.5066 38.4316 41.5066 41.205C41.5066 42.2183 41.2532 43.0983 40.7466 43.725H52.3466C53.7332 43.725 54.8666 42.5916 54.8666 41.205V32.3783C54.8666 31.7516 55.3732 31.245 55.9999 31.245C58.0132 31.245 58.8932 30.8716 60.2799 29.3516L67.9732 20.1516C70.4932 17.125 66.0799 13.4716 63.6932 16.245L58.2666 22.6716C57.2532 23.805 55.8666 24.565 54.3599 24.565H41.6266C35.3199 24.685 33.0532 27.5916 33.0532 33.765V41.205C33.0532 42.5916 34.1866 43.725 35.5732 43.725H36.7199V43.7116ZM80.2132 2.0983L82.7332 7.1383L88.1599 8.0183C90.5599 8.27163 91.5599 11.045 89.7999 12.805L85.7599 16.845L86.6399 22.2716C87.0132 24.6716 84.6266 26.4316 82.4799 25.2983L77.4399 22.7783L72.3999 25.2983C70.5066 26.3116 68.4932 25.1783 68.2399 23.285L61.9332 30.845C60.6666 32.3516 59.0399 33.245 57.1466 33.365V41.1783C57.1466 43.8316 54.9999 45.965 52.3599 45.965H35.5866C32.9332 45.965 30.7999 43.8183 30.7999 41.1783V33.7383C30.7999 26.4316 34.0799 22.3916 41.6399 22.3916H54.2532C55.5199 22.2716 55.7599 21.885 56.6532 21.2583L61.9466 14.8316C62.9599 13.6983 64.0932 13.1916 65.3466 13.0716L65.0932 12.8183C63.3332 11.0583 64.3332 8.28497 66.7332 8.03163L72.1599 7.15163L74.6799 2.11163C75.7999 -0.168366 79.0799 -0.168366 80.2132 2.0983ZM56.7599 51.7783C53.8666 51.7783 51.5866 54.1783 51.5866 57.0716C51.5866 59.965 53.8532 62.365 56.7599 62.365C59.6532 62.365 62.0532 59.965 62.0532 57.0716C62.0532 54.165 59.6666 51.7783 56.7599 51.7783ZM56.7599 49.6316C60.9199 49.6316 64.3199 52.9116 64.3199 57.0716C64.3199 61.2316 60.9199 64.6316 56.7599 64.6316C52.5999 64.6316 49.3199 61.2316 49.3199 57.0716C49.3199 52.9116 52.5999 49.6316 56.7599 49.6316ZM66.0932 73.7116V87.4583C66.0932 88.085 65.7199 88.5916 65.0799 88.5916H54.8666C54.2399 88.5916 53.7332 88.085 53.7332 87.4583V85.565L58.6532 81.405C59.1599 81.1516 60.9199 79.645 60.7999 76.9916V73.4583C60.7999 72.0716 58.5332 72.0716 58.5332 73.4583V76.9916C58.7866 78.4983 57.6532 79.3916 57.2666 79.765C57.2666 79.765 50.4532 85.445 49.8266 85.9383C48.9466 86.8183 47.4266 86.565 46.7999 85.565C46.5466 85.1916 46.4266 84.805 46.4266 84.5516V84.4316V84.3116C46.4266 83.805 46.6799 83.2983 47.0532 82.925L53.3599 77.6316C53.6132 77.5116 53.7332 77.125 53.7332 76.7516C53.7332 75.7383 53.7332 74.7383 53.7332 73.725C53.7332 70.325 56.5066 67.5516 59.9066 67.5516C63.3199 67.5383 66.0932 70.3116 66.0932 73.7116ZM78.5732 39.045C75.6799 39.045 73.3999 41.3116 73.3999 44.2183C73.3999 47.1116 75.6666 49.5116 78.5732 49.5116C81.4666 49.5116 83.8666 47.1116 83.8666 44.2183C83.8666 41.3116 81.4799 39.045 78.5732 39.045ZM78.5732 36.765C82.7332 36.765 86.1332 40.165 86.1332 44.205C86.1332 48.365 82.7332 51.765 78.5732 51.765C74.4132 51.765 71.1332 48.365 71.1332 44.205C71.1332 40.1783 74.4132 36.765 78.5732 36.765ZM87.9066 60.8583V74.605C87.9066 75.2316 87.5332 75.7383 86.8932 75.7383H76.6799C76.0532 75.7383 75.5466 75.2316 75.5466 74.605V72.7116L80.4666 68.6716C80.9732 68.2983 82.7332 66.9116 82.6132 64.1383V60.605C82.6132 59.2183 80.3466 59.2183 80.3466 60.605V64.1383C80.5999 65.645 79.4666 66.5383 79.0799 66.9116C79.0799 66.9116 72.2666 72.5916 71.6399 73.085C70.7599 73.965 69.2399 73.7116 68.6132 72.7116C67.9866 71.8316 68.1066 70.6983 68.8666 70.0583L75.1732 64.765C75.4266 64.645 75.5466 64.2583 75.5466 64.005C75.5466 62.8716 75.5466 61.8583 75.5466 60.8583C75.5466 57.4583 78.3199 54.685 81.7199 54.685C85.1332 54.6716 87.9066 57.445 87.9066 60.8583ZM33.8132 51.7783C36.7066 51.7783 39.1066 54.1783 39.1066 57.0716C39.1066 59.965 36.7066 62.365 33.8132 62.365C30.9199 62.365 28.5199 59.965 28.5199 57.0716C28.5199 54.165 30.9199 51.7783 33.8132 51.7783ZM33.8132 49.6316C29.6532 49.6316 26.3732 52.9116 26.3732 57.0716C26.3732 61.2316 29.6532 64.6316 33.8132 64.6316C37.9732 64.6316 41.3732 61.2316 41.3732 57.0716C41.3732 52.9116 37.9732 49.6316 33.8132 49.6316ZM24.4799 73.7116C24.4799 70.3116 27.2532 67.5383 30.6532 67.5383C34.0532 67.5383 36.8266 70.3116 36.8266 73.7116C36.8266 74.725 36.8266 75.725 36.8266 76.7383C36.8266 77.1116 36.9466 77.4983 37.1999 77.6183L43.5066 82.9116C43.8799 83.285 44.1332 83.7916 44.1332 84.2983V84.4183V84.5383C44.1332 84.7916 44.0132 85.165 43.8799 85.5516C43.1199 86.565 41.7332 86.8183 40.7332 85.925C40.1066 85.4183 33.4266 79.7516 33.4266 79.7516C33.0532 79.3783 31.9199 78.485 32.0399 76.9783V73.445C32.0399 72.0583 29.8932 72.0583 29.8932 73.445V76.9783C29.7732 79.6316 31.3999 81.1383 31.9066 81.3916L36.8399 85.565V87.4583C36.8399 88.085 36.3332 88.5916 35.8266 88.5916H25.6132C24.9866 88.5916 24.4799 88.085 24.4799 87.4583V73.7116ZM0.399902 60.8583V74.605C0.399902 76.4983 1.90657 78.005 3.7999 78.005H14.0132C15.7732 78.005 17.2932 76.4983 17.2932 74.605C18.6799 75.8716 20.6932 76.1116 22.2132 75.485V87.4583C22.2132 89.3516 23.7199 90.7383 25.6132 90.7383H35.8266C37.5866 90.7383 39.1066 89.3516 39.1066 87.4583C40.8666 88.965 43.6399 89.0983 45.2799 87.3383C46.9199 89.0983 49.6932 88.9783 51.5866 87.4583C51.5866 89.3516 52.9732 90.7383 54.8666 90.7383H65.0799C66.8399 90.7383 68.3599 89.3516 68.3599 87.4583V75.485C69.9999 76.1116 71.8932 75.8583 73.3999 74.605C73.3999 76.4983 74.7866 78.005 76.6799 78.005H86.8932C88.6532 78.005 90.1732 76.4983 90.1732 74.605V60.8583C90.1732 56.1916 86.3866 52.405 81.7199 52.405C77.1866 52.405 73.3999 56.1916 73.3999 60.8583V63.3783L67.4799 68.4183C67.2266 68.5383 67.1066 68.7916 66.8532 68.925C65.3466 66.7783 62.8132 65.2716 59.9199 65.2716C55.3866 65.2716 51.5999 69.0583 51.5999 73.725V76.2316L45.6799 81.2716C45.5599 81.2716 45.4266 81.3916 45.3066 81.525C45.1866 81.405 45.1866 81.2716 45.0532 81.2716L39.1066 76.2316V73.7116C39.1066 69.045 35.3199 65.2583 30.6532 65.2583C27.7599 65.2583 25.2266 66.765 23.7199 68.9116C23.5999 68.7916 23.3466 68.5383 23.2132 68.405L17.2932 63.365V60.845C17.2932 56.1783 13.5066 52.3916 8.8399 52.3916C4.18657 52.405 0.399902 56.1916 0.399902 60.8583ZM11.9999 39.045C14.8932 39.045 17.2932 41.3116 17.2932 44.2183C17.2932 47.1116 14.8932 49.5116 11.9999 49.5116C9.10657 49.5116 6.70657 47.1116 6.70657 44.2183C6.70657 41.3116 9.10657 39.045 11.9999 39.045ZM11.9999 36.765C7.8399 36.765 4.5599 40.165 4.5599 44.205C4.5599 48.365 7.8399 51.765 11.9999 51.765C16.1599 51.765 19.5599 48.365 19.5599 44.205C19.5732 40.1783 16.1599 36.765 11.9999 36.765ZM2.6799 60.8583C2.6799 57.4583 5.45323 54.685 8.85324 54.685C12.2532 54.685 15.0266 57.4583 15.0266 60.8583C15.0266 61.8716 15.0266 62.8716 15.0266 64.005C15.0266 64.2583 15.1466 64.6316 15.3999 64.765L21.7066 70.0583C22.4666 70.685 22.5866 71.8183 22.0799 72.7116C21.3199 73.725 19.9332 73.9783 18.9332 73.085C18.3066 72.5783 11.6266 66.8983 11.6266 66.8983C11.2532 66.525 10.1199 65.6316 10.2399 64.125V60.5916C10.2399 59.205 8.09324 59.205 8.09324 60.5916V64.125C7.97324 66.8983 9.5999 68.285 10.1066 68.6583L15.0266 72.6983V74.5916C15.0266 75.2183 14.5199 75.725 14.0132 75.725H3.81324C3.18657 75.725 2.6799 75.2183 2.6799 74.5916V60.8583ZM45.2932 3.48497C49.9599 3.48497 53.8666 7.39163 53.8666 12.0583C53.8666 16.725 49.9599 20.5116 45.2932 20.5116C40.6266 20.5116 36.8399 16.725 36.8399 12.0583C36.8399 7.39163 40.6266 3.48497 45.2932 3.48497Z" fill="#FFB200"/>
</svg>
