<svg width="91" height="91" viewBox="0 0 91 91" fill="none" xmlns="http://www.w3.org/2000/svg">
<path d="M49.7198 79.6534V80.0267C49.7198 85.7067 45.0531 90.4934 39.2531 90.4934H11.5198C5.71977 90.4934 0.933105 85.8267 0.933105 80.0267V11.0667C0.933105 5.2667 5.71977 0.600037 11.5198 0.600037H80.3598C86.1598 0.600037 90.9464 5.2667 90.9464 11.0667V80.0267C90.9464 85.8267 86.1598 90.4934 80.3598 90.4934H54.7598C52.6131 90.4934 50.9731 88.8534 50.9731 86.7067C50.9731 84.6934 52.6131 82.92 54.7598 82.92H80.3598C81.9998 82.92 83.3864 81.6534 83.3864 80.0267V11.0667C83.3864 9.4267 81.9998 8.17337 80.3598 8.17337H11.5198C9.87977 8.17337 8.49311 9.44004 8.49311 11.0667V80.0267C8.49311 81.6667 9.87977 82.92 11.5198 82.92H39.2531C41.1464 82.92 42.1464 81.4134 42.1464 79.64H39.2531C38.8798 79.64 38.4931 79.3867 38.2398 79.1334L35.4664 74.4667C35.3464 74.3467 35.2131 74.0934 35.2131 73.84V66.6534C35.2131 66.0267 35.4664 65.3867 35.8398 64.8934C30.9198 62.4934 26.8931 58.3334 24.7464 53.04C24.4931 52.5334 24.7464 51.7734 25.2531 51.6534L29.1598 50.0134C27.7731 49.2534 25.2531 49.1334 24.2398 49.1334C23.6131 49.1334 23.1064 48.6267 23.1064 48.12V40.4267C23.1064 39.8 23.6131 39.2934 24.2398 39.2934C25.6264 39.2934 29.4131 39.1734 30.0398 37.6534C30.6664 36.1467 28.0264 33.36 27.1464 32.48C26.6398 31.9734 26.6398 31.3467 27.1464 30.84L32.5731 25.4134C32.9464 25.04 33.7064 25.04 34.0798 25.4134C34.9598 26.2934 37.8664 28.9467 39.2531 28.44C40.7598 27.8134 40.8931 23.9067 40.8931 22.64C40.8931 22.0134 41.3998 21.5067 42.0264 21.5067H49.7198C50.3464 21.5067 50.8531 22.0134 50.8531 22.64C50.8531 23.9067 50.9731 27.8134 52.3598 28.44C53.8664 28.9467 56.7731 26.2934 57.6531 25.4134C58.0264 25.04 58.7864 25.04 59.1598 25.4134L64.5864 30.84C65.0931 31.3467 65.0931 31.9734 64.5864 32.48C63.9598 33.1067 62.1864 35 61.6931 36.52L65.5998 34.88C66.1064 34.6267 66.8664 34.88 66.9864 35.5067C69.6398 42.32 69.5064 49.88 65.2264 56.56C62.9598 60.0934 59.6798 62.9867 55.8931 64.88C56.2664 65.3867 56.5198 66.0134 56.5198 66.64V73.8267C56.5198 74.08 56.3998 74.2 56.2664 74.4534L53.4931 78.9867C53.2398 79.36 52.8664 79.6134 52.4798 79.6134H49.7198V79.6534ZM60.1864 54.44C59.3064 55.5734 57.5331 54.32 58.2931 53.1734C60.4398 50.1467 61.5731 47.12 61.3198 43.3334C61.3198 41.9467 63.4664 41.8267 63.5864 43.2134C63.8398 47.5067 62.5731 51.0267 60.1864 54.44ZM56.1464 59.3467C55.1331 60.48 53.4931 58.9734 54.5064 57.84L56.0131 56.08C57.0264 54.9467 58.6664 56.4534 57.7731 57.4667C57.1598 58.0934 56.6531 58.72 56.1464 59.3467ZM38.3731 74.9867L39.8798 77.3867H51.8531L53.3598 74.9867H38.3731ZM54.2531 68.1734V66.6667C54.2531 66.2934 53.8798 65.9067 53.4931 65.9067H38.2398C37.7331 65.9067 37.4798 66.28 37.4798 66.6667V68.1734H54.2531ZM31.5598 49.0134L36.0931 47.12C35.7198 46.24 35.5864 45.2267 35.5864 44.2267C35.5864 38.5467 40.2531 34.0134 45.7998 34.0134C49.7064 34.0134 53.1064 36.16 54.8798 39.3067L59.4131 37.4134C59.2931 35.4 60.9198 33.1334 62.3064 31.7334L58.3998 27.8267C56.7598 29.3334 53.9864 31.48 51.5864 30.48C49.1864 29.4667 48.6931 26.0667 48.5598 23.8H43.1331C43.0131 26.0667 42.5064 29.48 40.1064 30.48C37.7064 31.48 34.9331 29.3467 33.2931 27.8267L29.3864 31.7334C30.8931 33.3734 33.0398 36.1467 32.0398 38.5467C31.0264 40.9467 27.6264 41.44 25.3598 41.44V46.9867C27.2798 47.12 30.1731 47.3734 31.5598 49.0134ZM45.8131 41.5734C44.4264 41.5734 43.1598 42.84 43.1598 44.2267C43.1598 45.7334 44.4264 46.88 45.8131 46.88C47.3198 46.88 48.5864 45.7467 48.5864 44.2267C48.5864 42.7067 47.3198 41.5734 45.8131 41.5734ZM50.7198 43.4667C51.0931 46.36 48.8264 49.1467 45.7998 49.1467C44.1598 49.1467 42.7731 48.3867 41.8931 47.1334L27.1464 53.1867C29.5464 58.2267 33.8264 61.88 38.7464 63.6534H44.7998V54.4534C42.7864 54.2 40.8931 53.44 39.2531 52.0534C38.1198 51.1734 39.6264 49.4 40.6398 50.4134C42.7864 52.1734 45.8131 52.68 48.3331 51.8C51.2264 50.92 53.5064 48.2667 53.7598 45.12C54.0131 43.7334 56.1598 43.9867 56.0264 45.3734C55.5198 49.4134 52.8798 52.68 49.2131 53.9467C48.4531 54.2 47.7064 54.32 46.9464 54.4534V63.6534H52.9998C57.2798 62.1467 60.9464 59.12 63.4664 55.2C66.7464 49.9067 67.5064 43.3467 65.3598 37.4267L50.7198 43.4667ZM45.8131 39.3067C47.4531 39.3067 48.9598 40.1867 49.8531 41.4534L52.7464 40.1867C51.3598 37.7867 48.8398 36.28 45.8131 36.28C41.3998 36.28 37.8664 39.8134 37.8664 44.2267C37.8664 44.9867 37.9864 45.6134 38.1198 46.24L41.0131 45.1067C40.5064 42.08 42.7864 39.3067 45.8131 39.3067ZM44.2931 79.6534C44.2931 82.5467 42.2798 85.08 39.2531 85.08H11.5198C8.74644 85.08 6.34644 82.8134 6.34644 80.04V11.0667C6.34644 8.29337 8.74644 6.0267 11.5198 6.0267H80.3598C83.2531 6.0267 85.5331 8.29337 85.5331 11.0667V80.0267C85.5331 82.8 83.2664 85.0667 80.3598 85.0667H54.7598C53.8798 85.0667 53.1198 85.8267 53.1198 86.7067C53.1198 87.5867 53.8798 88.3467 54.7598 88.3467H80.3598C85.0264 88.3467 88.8131 84.56 88.8131 80.0267V11.0667C88.8131 6.53337 85.0264 2.7467 80.3598 2.7467H11.5198C6.85311 2.7467 3.06644 6.53337 3.06644 11.0667V80.0267C3.06644 84.56 6.85311 88.3467 11.5198 88.3467H39.2531C43.7864 88.3467 47.5731 84.56 47.5731 80.0267V79.6534H44.2931ZM45.9331 12.4534C44.6664 12.4534 43.7864 13.4667 43.7864 14.72C43.7864 15.9867 44.6664 16.8667 45.9331 16.8667C47.1998 16.8667 48.1998 15.9867 48.1998 14.72C48.1998 13.4534 47.1998 12.4534 45.9331 12.4534ZM45.9331 10.3067C48.4531 10.3067 50.3464 12.2 50.3464 14.72C50.3464 17.12 48.3331 19.1334 45.9331 19.1334C43.5331 19.1334 41.5198 17.12 41.5198 14.72C41.5198 12.2 43.5331 10.3067 45.9331 10.3067ZM23.3598 21.7867C22.4798 22.5467 22.4798 23.9334 23.3598 24.8134C24.2398 25.6934 25.6264 25.6934 26.5064 24.8134C27.3864 23.9334 27.3864 22.5467 26.5064 21.7867C25.6398 20.8934 24.2531 20.8934 23.3598 21.7867ZM21.8531 20.1467C23.6131 18.3867 26.3864 18.3867 28.1598 20.1467C29.7998 21.9067 29.7998 24.68 28.1598 26.4534C26.3998 28.2134 23.6264 28.2134 21.8531 26.4534C20.0798 24.6934 20.0931 21.9067 21.8531 20.1467ZM14.0398 44.2267C14.0398 45.4934 14.9198 46.3734 16.1864 46.3734C17.4531 46.3734 18.4531 45.36 18.4531 44.2267C18.4531 42.96 17.4398 41.96 16.1864 41.96C14.9198 41.96 14.0398 42.96 14.0398 44.2267ZM11.7598 44.2267C11.7598 41.7067 13.7731 39.8134 16.1731 39.8134C18.6931 39.8134 20.5864 41.7067 20.5864 44.2267C20.5864 46.6267 18.6931 48.64 16.1731 48.64C13.7864 48.64 11.7598 46.6134 11.7598 44.2267ZM23.2398 66.7867C24.1198 67.5467 25.5064 67.5467 26.3864 66.7867C27.2664 65.9067 27.2664 64.52 26.3864 63.64C25.5064 62.76 24.1198 62.76 23.2398 63.64C22.3598 64.52 22.3598 65.9067 23.2398 66.7867ZM21.5998 68.3067C19.9598 66.5467 19.9598 63.7734 21.5998 62C23.3598 60.36 26.1331 60.36 27.9064 62C29.6664 63.76 29.6664 66.5334 27.9064 68.3067C26.1331 70.0667 23.3598 70.0667 21.5998 68.3067ZM68.2531 66.92C69.1331 66.04 69.1331 64.6534 68.2531 63.7734C67.3731 62.8934 65.9864 62.8934 65.1064 63.7734C64.2264 64.6534 64.2264 66.04 65.1064 66.92C65.9731 67.8 67.3731 67.8 68.2531 66.92ZM69.7598 68.4267C68.1198 70.1867 65.2264 70.1867 63.5864 68.4267C61.8264 66.7867 61.8264 63.8934 63.5864 62.2534C65.2264 60.4934 68.1198 60.4934 69.7598 62.2534C71.5331 63.8934 71.5331 66.7867 69.7598 68.4267ZM77.7064 44.48C77.7064 43.2134 76.6931 42.2134 75.4398 42.2134C74.1731 42.2134 73.1731 43.2267 73.1731 44.48C73.1731 45.6134 74.1864 46.6267 75.4398 46.6267C76.6931 46.6134 77.7064 45.6134 77.7064 44.48ZM79.8531 44.48C79.8531 46.88 77.8398 48.8934 75.4398 48.8934C73.0398 48.8934 71.0264 46.88 71.0264 44.48C71.0264 41.96 73.0398 40.0667 75.4398 40.0667C77.8264 40.0667 79.8531 41.96 79.8531 44.48ZM68.3731 21.9067C67.4931 21.0267 66.1064 21.0267 65.2264 21.9067C64.4664 22.7867 64.4664 24.1734 65.2264 25.0534C66.1064 25.9334 67.4931 25.9334 68.3731 25.0534C69.2531 24.1734 69.2531 22.7867 68.3731 21.9067ZM70.0131 20.2667C71.7731 22.0267 71.7731 24.8 70.0131 26.5734C68.2531 28.3334 65.4798 28.3334 63.7064 26.5734C61.9331 24.8134 61.9464 22.04 63.7064 20.2667C65.4798 18.6267 68.2531 18.6267 70.0131 20.2667ZM54.2531 72.72V70.4534H37.4798V72.72H54.2531Z" fill="#FFB200"/>
</svg>
