<svg width="93" height="92" viewBox="0 0 93 92" fill="none" xmlns="http://www.w3.org/2000/svg">
<path d="M61.2467 77.7528L89.1133 77.8728L89.2334 75.3528C89.2334 74.5928 88.4734 73.7128 87.5933 73.8461L62.7534 73.5928C61.9934 73.5928 61.2467 74.3528 61.2467 75.0995V77.7528ZM70.1934 26.1928L61.62 11.9395C60.3534 12.3128 59.4734 13.3261 59.7267 14.7128C59.7267 15.2195 59.98 15.7261 60.3534 16.3528L67.0333 27.5795C67.9267 26.8195 69.06 26.4461 70.1934 26.1928ZM84.7 71.5795L89.1133 56.1928C90.7533 50.1395 90.38 49.0061 88.1 43.2061C85.7 36.5261 83.06 29.8461 79.9 23.4061L66.0333 4.37948C63.7667 1.35282 59.1 3.49948 61.5 7.52615L72.9667 26.4328C74.86 27.0595 76.3667 28.6995 76.8734 31.6061C77.6334 36.3928 78.38 41.1928 79.14 45.9795C80.78 48.3795 82.1667 50.8995 83.0467 53.7928C83.42 55.1795 81.2867 55.8061 80.9 54.4195C80.6467 53.5395 79.0067 49.4995 77.2467 47.1128C77.1267 46.9928 76.9934 46.8595 76.9934 46.6061C76.2334 41.6861 75.4867 36.8995 74.7267 31.9795C73.8467 26.5528 67.42 27.9395 67.2867 31.6061L67.0333 49.5128C67.0333 50.8995 66.5267 52.0328 66.02 53.4195C64.7534 56.3128 62.9934 60.3528 65.6467 71.4461L84.7 71.5795ZM31.4867 77.7528V75.0995C31.4867 74.3395 30.7267 73.5928 29.98 73.5928L5.14002 73.8461C4.26002 73.7261 3.50002 74.6061 3.50002 75.3528L3.62002 77.8728L31.4867 77.7528ZM22.54 26.1928C23.6734 26.4461 24.8067 26.8195 25.6867 27.5795L32.3667 16.3528C32.74 15.7261 32.9934 15.2195 32.9934 14.7128C33.2467 13.3261 32.3667 12.3128 31.2334 11.9395L22.54 26.1928ZM8.03336 71.5795L27.0734 71.4595C29.7267 60.3661 27.9534 56.3261 26.7 53.4328C26.1934 52.0461 25.6867 50.9128 25.6867 49.5261L25.4334 31.6061C25.3134 27.9528 18.8734 26.5662 17.9934 31.9795C17.2334 36.8995 16.4867 41.6861 15.7267 46.6061C15.7267 46.8595 15.6067 46.9795 15.4734 47.1128C13.7134 49.5128 12.0734 53.5395 11.82 54.4195C11.4467 55.8195 9.30002 55.1928 9.67336 53.8061C10.5534 50.9128 11.94 48.3795 13.58 45.9928C14.34 41.2061 15.0867 36.4061 15.8467 31.6195C16.3534 28.7261 17.9934 27.0861 19.7534 26.4461L31.22 7.53948C33.62 3.49948 28.9534 1.36615 26.6867 4.39282L12.82 23.4328C9.67336 29.8461 7.15336 36.5261 4.63336 43.2061C2.36669 49.0061 1.98002 50.1395 3.62002 56.1928L8.03336 71.5795ZM3.62002 80.0195C3.62002 81.7795 4.63336 82.5395 6.27336 83.0461L28.2067 88.7262C30.1 89.2328 31.3534 87.8462 31.3534 86.0728L31.4734 79.8995L3.62002 80.0195ZM27.3267 30.0995C28.5934 28.0861 30.3534 26.4461 33.0067 25.4328L34.2734 23.4195C34.78 22.4061 35.1534 21.4061 34.6467 20.3928C34.3934 19.7661 33.8867 19.3795 33.26 19.1261L27.0867 29.4595C27.2067 29.7262 27.3267 29.8461 27.3267 30.0995ZM59.7267 25.4328C62.38 26.4461 64.14 28.0861 65.4067 30.0995C65.4067 29.8461 65.5267 29.7261 65.66 29.4728L59.4867 19.1395C58.86 19.3928 58.3534 19.7661 58.1 20.4061C57.5933 21.4195 57.98 22.4195 58.4734 23.4328L59.7267 25.4328ZM36.0334 24.6728C39.5667 24.2995 43.4734 25.5528 46.3667 28.9528C49.26 25.5528 53.18 24.2861 56.7 24.6728L56.58 24.5528C55.7 22.9128 55.3134 21.0195 56.2067 19.3795C56.58 18.3661 57.34 17.7395 58.22 17.2328C57.8467 16.4728 57.5934 15.7261 57.46 14.9661C57.2067 12.8195 58.4734 10.8061 60.3534 9.92615L59.6067 8.65948C55.7 2.23282 64.02 -2.30052 67.8067 2.99282L81.6733 22.1528C81.7934 22.2728 81.7934 22.2728 81.7934 22.4061C85.0733 28.8328 87.5934 35.6461 90.2467 42.4461C92.6467 48.7528 93.14 50.0061 91.26 56.6995L86.9667 71.5795C89.3667 71.5795 91.38 72.7128 91.38 75.3661L91.26 80.9128C91.14 83.1795 89.1133 84.5661 86.9667 85.1928L65.0333 90.8728C61.7534 91.7528 59.2334 89.3661 59.1134 86.0861L58.9934 75.2461C59.2467 72.4728 60.8867 71.4595 63.4067 71.4595C60.7533 60.1128 62.6467 55.6995 64.0334 52.5528C64.4067 51.5395 64.9134 50.4061 64.9134 49.4061V44.2328C64.66 44.7395 64.4067 45.2461 64.0334 45.7395C60.1267 51.7928 53.06 56.8328 47.0067 60.6195C46.6334 60.8728 46.1267 60.9928 45.74 60.7395C39.82 56.8328 32.6334 51.7928 28.7134 45.7395C28.34 45.2328 28.0867 44.7261 27.8334 44.2328V49.4061C27.8334 50.4195 28.34 51.5528 28.7134 52.5528C30.1 55.6995 31.9934 60.1128 29.34 71.4595C31.86 71.4595 33.5 72.4728 33.7534 75.2461L33.6334 86.0861C33.5134 89.3661 30.98 91.7662 27.7134 90.8728L5.76669 85.1928C3.62002 84.5661 1.60669 83.1795 1.47336 80.9128L1.35336 75.3661C1.35336 72.7128 3.36669 71.5795 5.76669 71.5795L1.48669 56.6995C-0.406644 50.0195 0.100023 48.7528 2.50002 42.4461C5.15336 35.6328 7.67336 28.8328 10.9534 22.4061C10.9534 22.2861 10.9534 22.2861 11.0734 22.1528L24.94 2.99282C28.8467 -2.30052 37.0334 2.23282 33.1267 8.65948L32.3667 9.92615C34.26 10.8061 35.5134 12.8195 35.26 14.9661C35.14 15.7261 34.8867 16.4728 34.5 17.2328C35.38 17.7395 36.14 18.3661 36.6467 19.3795C37.4067 21.0195 37.02 22.9128 36.14 24.5528L36.0334 24.6728ZM60.3667 40.8195C59.74 42.0862 57.7134 41.1928 58.3534 39.8061C59.74 37.0328 59.62 32.6195 55.58 32.4995C54.1934 32.4995 54.1934 30.3528 55.7 30.3528C61.3667 30.3528 62.5 36.4062 60.3667 40.8195ZM55.7 46.8728C54.6867 47.8861 53.18 46.3661 54.1934 45.3661C54.82 44.7395 55.46 43.9795 56.0867 43.3528C56.9667 42.2195 58.6067 43.6061 57.7267 44.7395C57.0867 45.4861 56.4467 46.2328 55.7 46.8728ZM45.2334 70.0595C44.98 70.4328 44.7267 70.8195 44.7267 71.1928V79.2595C44.7267 79.6328 44.98 80.1395 45.2334 80.3928C46.2467 81.4061 48.0067 80.6461 48.0067 79.2595V71.1928C48.0067 69.8195 46.2467 69.0595 45.2334 70.0595ZM49.14 68.5528C49.7667 69.1795 50.2734 70.1928 50.2734 71.2061V79.2728C50.2734 80.2861 49.7667 81.2861 49.14 81.9261C47.6334 83.4328 45.1 83.4328 43.7134 81.9261C42.9534 81.2995 42.58 80.2861 42.58 79.2728V71.2061C42.58 70.1928 42.9534 69.1928 43.7134 68.5528C45.1 67.0461 47.6334 67.0461 49.14 68.5528ZM53.8067 62.1261C52.9267 62.1261 52.1667 62.7528 52.1667 63.7661C52.1667 64.1395 52.2867 64.5261 52.54 64.7795L56.1934 68.6861C56.5667 68.9395 56.9534 69.1928 57.3267 69.1928C58.2067 69.1928 58.9667 68.4328 58.9667 67.5528C58.9667 67.1795 58.8467 66.7928 58.5933 66.4195L54.94 62.6328C54.5667 62.2461 54.18 62.1261 53.8067 62.1261ZM53.8067 59.8595C54.82 59.8595 55.82 60.3661 56.58 61.1261L60.1134 64.9128C60.8734 65.6728 61.2467 66.6728 61.2467 67.6861C61.1267 69.8328 59.3534 71.4728 57.34 71.3395C56.3267 71.3395 55.3267 70.9661 54.6867 70.2061L50.9 66.4195C50.2734 65.5395 49.8867 64.6595 49.8867 63.6461C50.02 61.4861 51.66 59.8595 53.8067 59.8595ZM38.9267 62.1261C39.8067 62.1261 40.5667 62.7528 40.5667 63.7661C40.5667 64.1395 40.4467 64.5261 40.1934 64.7795L36.54 68.6861C36.1667 68.9395 35.78 69.1928 35.4067 69.1928C34.5267 69.1928 33.7667 68.4328 33.7667 67.5528C33.7667 67.1795 33.8867 66.7928 34.14 66.4195L37.7934 62.6328C38.1667 62.2461 38.5534 62.1261 38.9267 62.1261ZM38.9267 59.8595C37.9134 59.8595 36.9134 60.3661 36.1534 61.1261L32.62 64.9128C31.86 65.6728 31.4867 66.6728 31.4867 67.6861C31.6067 69.8328 33.38 71.4728 35.3934 71.3395C36.4067 71.3395 37.4067 70.9661 38.0467 70.2061L41.8334 66.4195C42.46 65.5395 42.8467 64.6595 42.8467 63.6461C42.7134 61.4861 41.0734 59.8595 38.9267 59.8595ZM45.4867 31.3661C42.8334 27.5795 39.06 26.4461 35.78 26.9528C35.1534 27.0728 34.6467 27.2062 34.14 27.4595C33.6334 27.7128 33.1267 27.9661 32.6334 27.9661C26.9534 30.9928 26.7134 38.6861 30.4867 44.4861C34.14 50.0328 40.82 54.8195 46.3667 58.4861C51.9134 54.8328 58.5934 50.0328 62.2467 44.4861C66.0333 38.8061 65.9 30.9928 60.1 28.0995C59.7267 27.9795 59.0867 27.7261 58.5933 27.4728C58.0867 27.2195 57.58 27.0995 56.9534 26.9662C53.6734 26.4595 49.8867 27.5928 47.2467 31.3795C46.8734 31.9928 45.86 31.9928 45.4867 31.3661ZM89.1133 80.0195L61.2467 79.8995L61.3667 86.0728C61.3667 87.8328 62.6334 89.2195 64.5134 88.7262L86.4467 83.0461C88.1 82.5528 89.1133 81.7928 89.1133 80.0195Z" fill="#FFB200"/>
</svg>
