<svg width="143" height="78" viewBox="0 0 143 78" fill="none" xmlns="http://www.w3.org/2000/svg">
<path d="M91.8041 42.9387C91.5577 44.5098 91.1781 46.081 90.6622 47.6521C90.1468 49.2232 89.6923 50.6204 89.2996 51.842C89.1028 52.2962 88.9557 52.5056 88.8577 52.4706C88.7589 52.4706 88.6975 52.3918 88.6736 52.2345C88.6483 52.0777 88.6113 51.9121 88.563 51.7373C88.1695 49.3984 88.2187 47.059 88.7102 44.7192C89.2008 42.3806 89.7415 39.9887 90.3309 37.5443C90.7236 36.0778 91.0422 34.568 91.2887 33.0144C91.5337 31.4612 91.5337 29.7933 91.2887 28.0128C91.2887 27.8735 91.337 27.7688 91.4358 27.6983C91.5337 27.6983 91.5947 27.7425 91.6199 27.8293C91.6443 27.9169 91.7053 27.9782 91.8041 28.0128C92.5407 28.781 92.9699 29.8375 93.0931 31.1813C93.215 32.5256 93.2037 33.9307 93.0561 35.3971C92.909 36.8636 92.6996 38.2775 92.4301 39.6392C92.1598 41.001 91.9512 42.1008 91.8041 42.9387ZM87.9736 53.2559C88.2683 53.8502 88.6 54.3908 88.9683 54.8796C89.3366 55.3688 89.7162 55.8576 90.1098 56.346C90.1581 56.3811 90.2077 56.4424 90.2574 56.5292C90.3056 56.6167 90.2813 56.6601 90.1833 56.6601C90.0362 56.6601 89.9256 56.643 89.8521 56.6076C89.7785 56.5733 89.6923 56.5383 89.5943 56.5029C89.4955 56.4686 89.4215 56.4336 89.3732 56.3982C88.6849 56.0145 88.1212 55.6479 87.6793 55.2984C87.237 54.9501 86.7951 54.3215 86.3533 53.4132C86.2061 53.0645 86.0585 52.6274 85.9114 52.104C85.7638 51.5801 85.665 51.0742 85.6167 50.585C85.567 50.0966 85.567 49.6774 85.6167 49.3279C85.665 48.9796 85.7882 48.8045 85.985 48.8045C86.0333 48.8045 86.1068 48.8829 86.2061 49.0401C86.3036 49.1974 86.3898 49.3725 86.4638 49.5636C86.5374 49.7562 86.611 49.9485 86.6845 50.1399C86.7586 50.3322 86.8195 50.4632 86.8687 50.5328C87.1138 51.022 87.311 51.4933 87.4581 51.9467C87.6053 52.4009 87.7768 52.8372 87.9736 53.2559ZM85.3955 22.2517C85.3463 21.6232 85.2597 21.0301 85.1378 20.4712C85.0146 19.9131 84.8304 19.3368 84.5854 18.7429C84.5357 18.6732 84.4992 18.5856 84.4748 18.4809C84.4495 18.3763 84.4865 18.342 84.5854 18.3763C84.6833 18.4467 84.7695 18.4989 84.8431 18.5335C84.9167 18.5685 85.002 18.6035 85.1008 18.6382L85.2484 18.7429C85.7882 19.2321 86.2174 19.7034 86.5374 20.1568C86.8561 20.6109 87.0402 21.3613 87.0899 22.409C87.0899 22.7935 87.0276 23.2819 86.9057 23.8754C86.7825 24.4693 86.6354 25.0365 86.4638 25.5775C86.291 26.1192 86.0956 26.5726 85.8744 26.9392C85.6532 27.3058 85.4438 27.4547 85.2484 27.3843C85.1495 27.3496 85.1008 27.2362 85.1008 27.0439V26.4154C85.1008 26.1885 85.1252 25.97 85.1748 25.7606C85.2231 25.5512 85.2484 25.394 85.2484 25.2893C85.3463 24.7312 85.4073 24.2074 85.4325 23.7182C85.4565 23.2298 85.4438 22.7409 85.3955 22.2517ZM70.4426 39.5345C71.5222 38.0339 72.6398 36.5754 73.7943 35.1615C74.9475 33.7476 75.8682 32.6215 76.5565 31.7836C77.7349 30.2825 78.9617 28.8073 80.2394 27.358C81.5158 25.9095 82.6207 24.6265 83.5541 23.5088C83.652 23.3344 83.7626 23.1772 83.8858 23.0375C84.0077 22.8982 84.1182 22.8631 84.2171 22.9324C84.315 22.9324 84.3389 23.02 84.2906 23.1943C84.241 23.3695 84.1918 23.5438 84.1435 23.7182C83.4552 26.2319 82.2154 28.6067 80.4236 30.8406C78.6304 33.0757 76.7519 35.3275 74.7886 37.5968C74.1003 38.365 73.4996 39.0027 72.9837 39.5083C72.4683 40.015 72.0264 40.5034 71.6581 40.9747C71.2898 41.446 70.9824 41.9615 70.7374 42.5196C70.4909 43.0788 70.3194 43.7945 70.2215 44.6671C70.4174 44.2833 70.6381 43.9167 70.8845 43.5672C71.1296 43.2185 71.3747 42.8862 71.6211 42.5721C72.9954 40.8963 74.5422 39.2205 76.2618 37.5443C77.98 35.8684 79.6743 34.2973 81.3443 32.8309C81.4422 32.7612 81.6264 32.6131 81.8967 32.3858C82.1662 32.159 82.3503 32.0634 82.4492 32.0977C82.5471 32.1327 82.5345 32.2899 82.4122 32.5689C82.2894 32.8488 82.2027 33.0586 82.1545 33.1975C81.9085 33.582 81.602 34.0533 81.2337 34.6114C80.8654 35.1706 80.4719 35.7375 80.0553 36.3135C79.6373 36.8899 79.2081 37.4487 78.7662 37.9897C78.3244 38.5314 77.9308 38.9765 77.5878 39.3252C77.391 39.5345 76.9731 39.9533 76.3353 40.5818C75.6967 41.2104 75.0097 41.9961 74.2727 42.9387C73.5361 43.8813 72.8113 44.9469 72.1 46.1335C71.3873 47.3209 70.8592 48.5776 70.5162 49.9043C70.3691 49.6945 70.1849 49.4326 69.9638 49.1185C69.7426 48.8045 69.4849 48.2985 69.1902 47.6C68.3064 45.4003 67.8276 43.1744 67.754 40.9226C67.6804 38.6704 67.6678 36.3576 67.717 33.9828C67.7653 32.4822 67.7779 30.9807 67.754 29.4788C67.7287 27.9782 67.3731 26.3891 66.6857 24.7133C66.6365 24.574 66.6365 24.4693 66.6857 24.3988C66.7836 24.3988 66.9312 24.5039 67.128 24.7133C68.0117 25.3769 68.6747 26.3457 69.1166 27.6199C69.5585 28.8949 69.8776 30.2383 70.0743 31.6526C70.2698 33.0665 70.3804 34.4462 70.4056 35.79C70.43 37.1343 70.4426 38.2078 70.4426 39.0107V39.5345ZM68.8959 49.2232C69.4352 50.0269 70.1479 50.7772 71.0316 51.4754C71.3747 50.009 72.0377 48.5513 73.0207 47.1024C74.0024 45.6539 75.1199 44.1958 76.3723 42.7293C77.6244 41.2629 78.9378 39.7965 80.313 38.33C81.6873 36.8636 82.9651 35.38 84.1435 33.8782C85.0272 32.7966 85.7756 31.6264 86.3898 30.3693C87.0036 29.1126 87.4455 27.8293 87.7159 26.5201C87.9853 25.2109 88.0589 23.9104 87.937 22.6183C87.8138 21.327 87.4329 20.1046 86.7951 18.9522C86.648 18.7779 86.6227 18.6561 86.7216 18.5856C86.8195 18.516 86.9793 18.5594 87.2004 18.7166C87.4211 18.8738 87.5561 18.9873 87.6053 19.0569C88.1947 19.6512 88.6736 20.4278 89.0419 21.3875C89.4102 22.3485 89.6796 23.4129 89.8521 24.5823C90.0236 25.7526 90.1098 26.9834 90.1098 28.2743C90.1098 29.5668 90.0362 30.8589 89.8891 32.1502C89.6923 33.861 89.3366 35.7295 88.8207 37.754C88.3053 39.7793 87.6793 41.6295 86.9423 43.3053C86.8931 43.3758 86.8069 43.5326 86.6845 43.7766C86.5613 44.0214 86.4268 44.1432 86.2797 44.1432C86.1804 44.109 86.1068 43.9601 86.0585 43.6982C86.0089 43.4363 85.985 43.2711 85.985 43.2006C85.985 42.8169 85.9963 42.3544 86.0215 41.8126C86.0459 41.2717 86.0829 40.7128 86.1321 40.1368C86.1804 39.5608 86.2427 39.0027 86.3163 38.461C86.3898 37.92 86.4751 37.4575 86.574 37.073C86.6227 36.8636 86.7089 36.3839 86.8321 35.6328C86.954 34.8825 87.0646 34.0354 87.1634 33.0928C86.574 34.0704 86.1068 34.9438 85.7638 35.7112C85.4199 36.4799 85.1252 37.2302 84.8801 37.9634C84.6337 38.6966 84.4256 39.4649 84.2541 40.2678C84.0812 41.0714 83.9224 42.014 83.7752 43.0959C83.6276 44.1783 83.5658 45.3135 83.5911 46.5001C83.615 47.6871 83.7865 48.8566 84.1065 50.009C84.4256 51.161 84.8914 52.2871 85.5061 53.3869C86.1195 54.4867 86.917 55.491 87.9 56.3982C88.0959 56.6076 88.1451 56.7306 88.0476 56.7648C87.9483 56.8002 87.8264 56.7648 87.6793 56.6601C86.1068 55.7525 84.8675 54.7315 83.9594 53.5963C83.0499 52.4622 82.3756 51.2661 81.9337 50.009C81.4914 48.7519 81.2581 47.469 81.2337 46.1594C81.2084 44.8502 81.2947 43.5672 81.4914 42.3102C81.5894 41.8568 81.676 41.4026 81.7496 40.9484C81.8232 40.495 81.9085 40.0237 82.0073 39.5345C80.8772 40.8266 79.7479 42.0837 78.6187 43.3053C77.4885 44.5278 76.4333 45.7406 75.4516 46.9451C74.4686 48.1497 73.5975 49.3371 72.8365 50.5066C72.0747 51.6768 71.4979 52.8372 71.1057 53.9892L70.9581 54.2511C70.8592 54.2511 70.8109 54.1814 70.8109 54.0417V53.7798V52.9419C70.8109 52.6628 70.8592 52.3838 70.9581 52.104C70.5645 51.9646 70.2215 51.8337 69.9268 51.7111C69.6325 51.5893 69.349 51.4408 69.08 51.2661C68.8092 51.0917 68.5389 50.8819 68.2694 50.6375C67.9991 50.3935 67.717 50.0794 67.4223 49.6945C67.1763 49.3462 66.9312 48.9271 66.6857 48.4379C66.4397 47.949 66.2312 47.469 66.0597 46.9977C65.8873 46.526 65.7893 46.1252 65.765 45.7928C65.7397 45.4616 65.802 45.2956 65.9491 45.2956C66.047 45.2956 66.1576 45.3569 66.2808 45.4787C66.4027 45.6013 66.5386 45.7494 66.6857 45.9237C66.8333 46.0989 66.9551 46.2732 67.054 46.4476C67.1519 46.6227 67.2255 46.7445 67.2751 46.8142C67.5202 47.2333 67.7779 47.6441 68.0487 48.045C68.3177 48.4466 68.6012 48.8395 68.8959 49.2232ZM58.4361 22.9324C58.3368 22.1992 58.2023 21.5185 58.0308 20.89C57.8579 20.2614 57.6499 19.6158 57.4048 18.9522C57.3551 18.8826 57.3312 18.795 57.3312 18.6903C57.3312 18.5856 57.3551 18.5335 57.4048 18.5335C57.5519 18.5335 57.6991 18.5856 57.8467 18.6903L58.1414 18.9001C58.6812 19.4235 59.123 19.939 59.467 20.445C59.81 20.9513 60.0311 21.7804 60.13 22.9324C60.1783 23.3866 60.1783 23.9455 60.13 24.6086C60.0808 25.2722 59.9941 25.9007 59.8723 26.4938C59.749 27.0881 59.6019 27.5936 59.4304 28.0128C59.2575 28.4316 59.0991 28.6238 58.9515 28.5888C58.8527 28.5888 58.7791 28.4929 58.7304 28.3006C58.6812 28.1091 58.6442 27.8906 58.6202 27.6462C58.595 27.4022 58.5832 27.1486 58.5832 26.8867V26.3366V24.6345C58.5832 24.0939 58.5336 23.5267 58.4361 22.9324ZM59.7617 19.0569C59.5649 18.7429 59.5157 18.5856 59.6145 18.5856C59.7617 18.5856 59.9332 18.6644 60.13 18.8213C60.3259 18.9785 60.4491 19.0752 60.4983 19.1095C60.9889 19.6329 61.5296 20.2009 62.119 20.8116C62.708 21.4226 63.2722 22.147 63.8129 22.9849C64.3527 23.8229 64.8442 24.7917 65.2865 25.8916C65.7284 26.9914 66.0714 28.2926 66.3174 29.7933C66.6121 31.5045 66.673 33.1891 66.5015 34.847C66.3291 36.5057 66.047 38.1728 65.6548 39.8486C65.6052 39.9191 65.5555 40.0934 65.5072 40.3724C65.4576 40.6523 65.3601 40.7916 65.2125 40.7916C65.1137 40.7916 65.0157 40.6606 64.9178 40.3987C64.8189 40.1368 64.7707 39.9533 64.7707 39.8486C64.6718 39.4649 64.5739 39.0107 64.4759 38.4873C64.3771 37.9634 64.2918 37.4133 64.2182 36.8373C64.1446 36.2613 64.095 35.7032 64.0711 35.1615C64.0458 34.6205 64.0341 34.1401 64.0341 33.7213C64.0341 33.582 64.0214 33.2759 63.9975 32.8046C63.9718 32.3333 63.9352 31.7836 63.8869 31.1551C63.8373 30.5265 63.7511 29.8375 63.6288 29.0864C63.506 28.336 63.371 27.5936 63.2239 26.8604C63.3219 27.9431 63.3219 29.0259 63.2239 30.1074C63.1251 31.1901 63.0028 32.2808 62.8556 33.381C62.708 34.4808 62.5853 35.5802 62.4873 36.6801C62.388 37.7799 62.388 38.8889 62.4873 40.0058C62.6345 42.1713 63.2478 44.3705 64.3288 46.6048C65.4084 48.8395 67.128 50.7422 69.4849 52.3133C69.7796 52.5227 69.9015 52.6274 69.8532 52.6274C69.7543 52.6628 69.5828 52.6274 69.3378 52.5227C67.6182 51.8249 66.1946 50.9866 65.0654 50.009C63.9352 49.0318 63.0145 47.9666 62.3032 46.8142C61.5905 45.6622 61.0624 44.4665 60.7194 43.2269C60.3751 41.9878 60.1783 40.7391 60.13 39.482C60.13 39.3773 60.1173 39.2818 60.0934 39.1942C60.0681 39.1074 60.0564 39.0107 60.0564 38.906C59.0734 40.8963 57.9812 42.8169 56.7788 44.6671C55.5746 46.518 54.3962 48.2985 53.243 50.009C52.0885 51.7198 51.008 53.3344 50.0019 54.8533C48.9945 56.3723 48.197 57.7771 47.608 59.0691C47.5087 59.2435 47.4351 59.3311 47.3869 59.3311C47.288 59.3311 47.2397 59.2789 47.2397 59.1742V58.9645C47.288 57.3229 47.7551 55.6045 48.6393 53.806C49.523 52.008 50.5656 50.1399 51.7698 48.2022C52.9722 46.2641 54.2373 44.2742 55.5633 42.2318C56.8889 40.1893 58.0421 38.1031 59.0251 35.9731C59.6145 34.6114 60.1173 33.1975 60.5353 31.731C60.9519 30.2646 61.2096 28.7982 61.3089 27.3317C61.4064 25.8653 61.3328 24.4251 61.0877 23.0112C60.8413 21.5969 60.3994 20.2798 59.7617 19.0569ZM47.9023 47.4427C49.1295 45.4524 50.4555 43.4021 51.8804 41.2892C53.3039 39.1771 54.6791 37.1605 56.0052 35.2399C56.0535 35.1352 56.1893 34.9438 56.4105 34.6639C56.6312 34.3849 56.8397 34.2631 57.0365 34.2973C57.134 34.2973 57.1584 34.4545 57.1101 34.7686C57.0604 35.0827 56.9868 35.3104 56.8889 35.4493C56.7418 35.9389 56.545 36.5232 56.2999 37.2039C56.0535 37.8846 55.7714 38.5836 55.4527 39.2989C55.1327 40.015 54.8015 40.7128 54.4584 41.3939C54.1141 42.0745 53.7954 42.6426 53.5007 43.0959C53.3531 43.3053 53.0954 43.7503 52.7271 44.4314C52.3588 45.1121 51.917 45.9237 51.4015 46.8667C50.8856 47.8093 50.3449 48.8132 49.7808 49.878C49.2157 50.9436 48.6876 51.9555 48.197 52.9156C47.7055 53.8761 47.2763 54.7315 46.908 55.4819C46.5397 56.233 46.3303 56.7648 46.282 57.0793C46.1831 57.4276 46.0852 57.6031 45.9872 57.6031C45.8884 57.6031 45.8275 57.5327 45.8031 57.3933C45.7778 57.2536 45.7408 57.1485 45.6925 57.0793C45.4465 56.6601 45.336 56.0499 45.3612 55.2462C45.3856 54.4433 45.5201 53.5883 45.7665 52.6799C46.0116 51.7724 46.319 50.8469 46.6873 49.9043C47.0556 48.9613 47.4604 48.1417 47.9023 47.4427ZM51.0698 34.978C51.9043 33.1632 52.8494 31.3302 53.906 29.4788C54.9612 27.6291 55.882 25.97 56.6682 24.5039C56.7657 24.3296 56.8763 24.1552 56.9995 23.9801C57.1214 23.8057 57.2319 23.7361 57.3312 23.7707C57.4287 23.7707 57.4657 23.8842 57.4413 24.111C57.4161 24.3383 57.4048 24.539 57.4048 24.7133C56.9629 27.5765 56.0788 30.4218 54.7527 33.25C53.4271 36.0778 51.954 38.8718 50.3332 41.6295C49.3502 43.3758 48.2949 45.13 47.1657 46.893C46.0355 48.6564 45.1035 50.5679 44.3669 52.6274C44.2676 52.8025 44.2311 52.9072 44.2564 52.9419C44.2803 52.9769 44.2676 52.994 44.2194 52.994C44.0722 52.9244 43.9986 52.7675 43.9986 52.5227C43.7522 51.4754 43.8994 50.1579 44.4405 48.5688C44.9803 46.9802 45.6672 45.3398 46.5031 43.6457C47.3372 41.9527 48.197 40.3291 49.0812 38.775C49.9649 37.2218 50.6279 35.956 51.0698 34.978Z" fill="#B3E1FA"/>
<path d="M114.639 54.7225C116.407 54.5131 118.112 54.1293 119.758 53.5701C121.403 53.012 122.889 52.2959 124.214 51.423C124.312 51.3887 124.509 51.2657 124.804 51.0564C125.099 50.847 125.294 50.7773 125.393 50.847C125.491 50.917 125.467 51.0221 125.32 51.161C125.172 51.3012 125.049 51.423 124.951 51.5277C123.968 52.5407 122.679 53.3699 121.084 54.0155C119.487 54.6619 117.83 55.1766 116.112 55.5604C114.687 55.8402 113.166 55.9361 111.545 55.8486C109.925 55.7618 108.402 55.4736 106.978 54.9844C106.536 54.8451 106.265 54.7312 106.168 54.644C106.069 54.5573 106.069 54.496 106.168 54.4605C106.265 54.4263 106.426 54.408 106.646 54.408C106.868 54.408 107.076 54.4263 107.273 54.4605C107.813 54.531 108.439 54.5915 109.151 54.644C109.862 54.6962 110.575 54.7312 111.287 54.7487C111.998 54.7666 112.65 54.775 113.239 54.775C113.829 54.775 114.294 54.7575 114.639 54.7225ZM104.768 39.3248C104.522 40.5477 104.4 41.743 104.4 42.9125C104.4 44.0828 104.511 45.1826 104.731 46.212C104.953 47.2422 105.296 48.1589 105.763 48.9614C106.229 49.7651 106.805 50.4278 107.494 50.9517C108.278 51.5105 109.249 51.9384 110.403 52.2346C111.557 52.532 112.809 52.68 114.16 52.68C115.51 52.68 116.934 52.5407 118.432 52.2609C119.93 51.9818 121.416 51.5456 122.889 50.9517C123.184 50.8123 123.379 50.7773 123.478 50.847C123.576 50.917 123.539 50.9959 123.368 51.0826C123.195 51.1702 123.036 51.2486 122.889 51.3183C121.611 52.0173 120.261 52.5753 118.838 52.9941C117.413 53.4132 115.976 53.6748 114.528 53.7799C113.079 53.8845 111.68 53.824 110.33 53.5964C108.978 53.3699 107.763 52.9416 106.683 52.3134C105.652 51.6849 104.817 50.9254 104.179 50.0349C103.54 49.1449 103.061 48.1677 102.743 47.1025C102.423 46.0377 102.239 44.9287 102.19 43.7767C102.141 42.6243 102.19 41.4903 102.337 40.3725C102.533 38.5916 103.024 36.794 103.811 34.9781C104.596 33.1629 105.639 31.4871 106.941 29.9506C108.242 28.4145 109.801 27.0699 111.619 25.9179C113.435 24.7655 115.473 23.9627 117.733 23.5085C118.861 23.2991 120.016 23.2123 121.194 23.2469C122.373 23.282 123.465 23.4392 124.473 23.7182C125.478 23.9981 126.351 24.4081 127.088 24.949C127.824 25.4904 128.314 26.1452 128.561 26.9127C128.806 27.751 128.708 28.5626 128.266 29.348C127.824 30.1337 127.209 30.8148 126.425 31.3908C125.638 31.9668 124.754 32.3776 123.773 32.6212C122.79 32.866 121.857 32.866 120.974 32.6212C120.924 32.6212 120.887 32.569 120.863 32.4643C120.838 32.3596 120.924 32.325 121.121 32.3596C121.71 32.4301 122.385 32.3334 123.147 32.0715C123.907 31.8095 124.594 31.4521 125.209 30.9979C125.822 30.5445 126.314 30.0028 126.682 29.3742C127.051 28.7457 127.161 28.1001 127.014 27.4365C126.866 26.9481 126.559 26.5202 126.093 26.1536C125.626 25.7869 125.025 25.4904 124.288 25.2631C123.552 25.0366 122.729 24.8885 121.82 24.8181C120.911 24.7484 119.966 24.7834 118.985 24.9228C117.118 25.1672 115.387 25.7523 113.792 26.677C112.195 27.6025 110.783 28.7286 109.556 30.0553C108.328 31.3824 107.297 32.8572 106.462 34.4805C105.627 36.1042 105.063 37.7195 104.768 39.3248ZM99.9801 36.9683C100.373 35.1182 100.999 33.3202 101.859 31.5739C102.717 29.8284 103.848 28.231 105.247 26.7821C106.646 25.3336 108.378 24.0849 110.44 23.0372C112.503 21.9899 114.933 21.2567 117.733 20.8379C118.714 20.6986 119.819 20.6373 121.047 20.6544C122.274 20.6723 123.502 20.8296 124.73 21.1257C125.957 21.4227 127.099 21.8681 128.155 22.4612C129.211 23.0551 130.082 23.8751 130.771 24.9228C131.408 25.9358 131.629 26.931 131.433 27.9078C131.236 28.8858 130.819 29.7671 130.181 30.5525C129.542 31.3382 128.756 31.993 127.824 32.5165C126.89 33.0403 125.982 33.3373 125.099 33.4069C124.557 33.4774 124.263 33.4682 124.214 33.3807C124.165 33.2939 124.436 33.1804 125.025 33.0403C125.957 32.8309 126.903 32.2991 127.861 31.4429C128.818 30.5879 129.395 29.4972 129.592 28.1697C129.69 27.5069 129.566 26.8521 129.223 26.2057C128.879 25.5601 128.388 24.9932 127.75 24.5036C127.112 24.0152 126.351 23.596 125.467 23.2469C124.583 22.8983 123.649 22.6706 122.668 22.5659C120.556 22.3565 118.616 22.4612 116.849 22.8803C115.081 23.2991 113.546 23.8321 112.245 24.4777C110.943 25.1238 109.887 25.7607 109.077 26.3892C108.267 27.0173 107.763 27.4365 107.567 27.6463C106.045 29.0076 104.719 30.4832 103.589 32.0715C102.459 33.6609 101.527 35.3276 100.791 37.073C100.791 37.1081 100.754 37.2303 100.68 37.4396C100.607 37.649 100.533 37.8676 100.459 38.0944C100.385 38.3217 100.299 38.5311 100.201 38.7226C100.102 38.9152 100.028 39.0108 99.9801 39.0108C99.8813 39.0108 99.833 38.9061 99.833 38.6967V38.0419C99.833 37.8154 99.8574 37.5969 99.9066 37.3871C99.9549 37.1777 99.9801 37.0384 99.9801 36.9683ZM110.588 56.6602C111.127 56.6952 111.68 56.7127 112.245 56.7127C112.809 56.7127 113.092 56.7649 113.092 56.8696C113.092 56.905 112.993 56.9301 112.797 56.9484C112.6 56.9655 112.392 56.9743 112.171 56.9743H111.471H111.029C109.507 56.9743 108.009 56.8174 106.536 56.503C105.063 56.1889 103.7 55.7435 102.448 55.1675C101.196 54.5915 100.078 53.8845 99.0964 53.0466C98.1134 52.2087 97.3768 51.2486 96.8867 50.1659C95.9036 48.0367 95.3399 45.9588 95.1923 43.9339C95.0452 41.9094 95.167 39.9191 95.5606 37.9635C95.7565 36.8461 96.1374 35.5803 96.7025 34.1664C97.2662 32.7525 98.0285 31.312 98.9858 29.8455C99.9436 28.3795 101.146 26.931 102.595 25.4988C104.043 24.0673 105.774 22.7581 107.788 21.5707C109.899 20.3141 112.245 19.4762 114.823 19.057C117.401 18.6379 119.868 18.5686 122.226 18.8476C124.583 19.1275 126.67 19.7118 128.487 20.6019C130.303 21.4923 131.507 22.6184 132.096 23.9802C132.144 24.0502 132.194 24.1987 132.244 24.4252C132.292 24.6525 132.268 24.801 132.17 24.8702C132.12 24.9056 132.047 24.8181 131.949 24.6083C131.85 24.3989 131.752 24.26 131.654 24.1895C129.592 22.1993 127.259 20.9342 124.657 20.3925C122.053 19.8515 119.475 19.7994 116.922 20.2353C114.368 20.6723 111.962 21.4752 109.703 22.6443C107.444 23.8146 105.652 25.115 104.326 26.546C102.017 29.0255 100.262 31.6615 99.0594 34.4546C97.8557 37.2482 97.3032 40.1285 97.4021 43.096C97.4504 44.4574 97.6598 45.8896 98.0285 47.3903C98.3968 48.8921 99.1208 50.3231 100.201 51.6849C101.281 53.0817 102.767 54.2428 104.658 55.1675C106.548 56.093 108.525 56.5905 110.588 56.6602Z" fill="#B3E1FA"/>
<path d="M3.55651 48.7438C-0.232034 47.0775 -1.04083 43.6109 1.35623 41.1581C3.59442 38.8668 7.58878 38.1503 10.9996 39.3198C14.627 40.5638 16.12 43.9612 14.2551 46.3344C10.7409 47.1257 7.1731 47.9294 3.55651 48.7438Z" fill="#B3E1FA"/>
<path d="M11.2594 55.2303C12.6761 55.3739 13.0566 55.0858 12.7037 54.2009C12.3516 53.3176 12.0095 52.4315 11.6015 51.5622C11.4377 51.2135 11.1759 50.7947 10.484 50.9241C9.78351 51.0554 9.64134 51.4396 9.84128 51.9041C10.3224 53.0214 10.7954 54.1408 11.2594 55.2303ZM4.68653 49.8067C7.90864 49.0803 11.0269 48.3773 14.1859 47.6648C14.2387 48.572 14.3592 49.4465 14.324 50.3202C14.2626 51.8519 14.7717 53.2861 15.4099 54.7168C16.2647 56.6338 17.06 58.5652 17.8625 60.4941C18.1297 61.137 17.4834 61.9642 16.5238 62.2046C15.5945 62.4371 14.6512 62.6444 13.7038 62.8339C12.7849 63.0178 11.768 62.57 11.4733 61.8702C10.4628 59.4739 9.57544 57.0458 8.40828 54.6917C7.77685 53.4183 6.6819 52.2667 5.77561 51.0682C5.47051 50.6645 5.10221 50.2852 4.68653 49.8067Z" fill="#B3E1FA"/>
<path d="M121.126 9.0862C122.171 9.65701 123.048 10.1705 123.761 10.6199C123.94 10.7322 124.11 10.8392 124.272 10.9403C124.433 11.0423 124.58 11.143 124.721 11.2361C124.862 11.3296 124.994 11.418 125.118 11.5008C125.242 11.5832 125.357 11.6612 125.46 11.7357C125.827 11.9912 126.211 12.246 126.583 12.5218C126.771 12.658 126.962 12.7961 127.154 12.9354C127.343 13.0783 127.533 13.2224 127.725 13.3685C128.114 13.6575 128.488 13.968 128.88 14.2785C129.074 14.4353 129.263 14.5977 129.457 14.7601C129.554 14.8413 129.651 14.9229 129.749 15.0053C129.847 15.0873 129.941 15.1729 130.037 15.2573C130.229 15.4264 130.423 15.5976 130.619 15.7708C130.809 15.9467 131.001 16.1246 131.194 16.3046C131.291 16.3949 131.39 16.4841 131.484 16.5764C131.579 16.6688 131.674 16.7619 131.769 16.8551C131.865 16.9486 131.961 17.0422 132.057 17.1365C132.154 17.2304 132.251 17.3256 132.343 17.4231C132.531 17.6165 132.721 17.8124 132.912 18.0094C133.101 18.2085 133.285 18.4123 133.473 18.6165C133.566 18.7188 133.664 18.8203 133.754 18.9254C133.846 19.03 133.937 19.1355 134.029 19.241C134.213 19.4532 134.403 19.6645 134.579 19.8847C137.483 23.3689 139.657 27.2694 140.894 31.4052C142.13 35.5534 142.356 39.7238 141.695 43.7048C141.526 44.6971 141.309 45.6433 141.064 46.5429C140.999 46.7674 140.934 46.9891 140.871 47.2085C140.808 47.4278 140.731 47.6423 140.664 47.8553C140.531 48.2824 140.37 48.6936 140.226 49.0968C139.607 50.7026 138.91 52.1165 138.211 53.3437C137.877 53.9117 137.367 54.8006 136.556 55.9677C136.452 56.1126 136.345 56.2622 136.235 56.4171C136.123 56.5711 136.015 56.7323 135.889 56.8936C135.643 57.2172 135.391 57.5631 135.1 57.9186C134.535 58.6355 133.869 59.4101 133.097 60.2372C131.561 61.8884 129.686 63.6116 127.407 65.3248C125.128 67.0364 122.438 68.7353 119.293 70.2997C116.15 71.8553 112.668 73.2155 108.9 74.2966C107.014 74.834 105.059 75.3021 103.044 75.6926L102.666 75.767C102.54 75.7913 102.412 75.8124 102.286 75.8355C102.032 75.8804 101.777 75.9258 101.522 75.9708C101.268 76.0186 101.009 76.0548 100.752 76.097C100.495 76.1376 100.237 76.1782 99.9793 76.2192C99.7198 76.2554 99.4598 76.2916 99.1994 76.3279C98.939 76.3641 98.6786 76.4023 98.4159 76.4321C97.8905 76.4946 97.3652 76.5631 96.8339 76.6133C92.5864 77.0595 88.379 77.108 84.3377 76.833C82.317 76.6913 80.337 76.4696 78.4089 76.1754C76.4803 75.8824 74.6068 75.5067 72.7933 75.074C70.9731 74.6381 69.239 74.1449 67.5943 73.6067C65.951 73.0662 64.3966 72.4822 62.932 71.8672C60.0015 70.6368 57.4306 69.2843 55.1897 67.8974C52.9488 66.5014 51.2008 65.1867 49.8305 64.053C48.4643 62.9157 47.4696 61.9616 46.7474 61.2463C46.5515 61.0449 46.3678 60.8562 46.1963 60.6799C46.0266 60.5031 45.8768 60.3347 45.7346 60.1811C45.4485 59.8754 45.2273 59.6119 45.0477 59.4025C44.9588 59.2974 44.8807 59.2059 44.8139 59.127C44.7484 59.0474 44.6974 58.9798 44.6555 58.926C44.5729 58.8182 44.5349 58.7628 44.5413 58.76C44.5539 58.7549 44.6356 58.8345 44.7854 58.9993C44.9366 59.1637 45.1686 59.4077 45.467 59.7381C45.7689 60.0605 46.0429 60.3407 46.278 60.5811C46.5226 60.8172 46.7271 61.0146 46.8909 61.1727C47.1383 61.4071 47.4104 61.6487 47.6894 61.9075C47.8302 62.0364 47.9818 62.1642 48.1326 62.298C48.2851 62.4305 48.4372 62.5686 48.5997 62.7064C48.7631 62.8433 48.9301 62.9838 49.1011 63.1271C49.1865 63.1988 49.2731 63.2712 49.3602 63.3449C49.45 63.4165 49.5408 63.4893 49.6319 63.5626C49.8152 63.7095 50.002 63.8595 50.1929 64.0128C50.3888 64.1629 50.5883 64.3161 50.7914 64.4725C51.6133 65.0923 52.5191 65.7487 53.5383 66.4179C54.5578 67.0866 55.6812 67.7744 56.9238 68.4655C59.4079 69.8467 62.1494 71.1149 65.1345 72.2151C68.1188 73.3154 71.3468 74.2472 74.7828 74.9518C78.2202 75.652 81.7944 76.1057 85.434 76.2865C89.0736 76.47 92.7782 76.3704 96.4643 75.9843C100.158 75.5974 103.557 74.9554 106.622 74.1744C108.155 73.7835 109.607 73.3572 110.978 72.9078C112.347 72.4556 113.634 71.9791 114.844 71.4919C116.567 70.7945 118.247 70.0274 119.862 69.1835C121.476 68.3393 123.031 67.4253 124.515 66.4461C127.477 64.4825 130.154 62.2558 132.443 59.8069C133.594 58.5853 134.637 57.3043 135.584 55.9808C136.535 54.6581 137.367 53.2848 138.094 51.8765C138.824 50.4685 139.427 49.0196 139.915 47.5444C140.407 46.0692 140.762 44.5642 140.996 43.042C141.234 41.5198 141.327 39.9933 141.296 38.4751C141.296 38.0953 141.269 37.7164 141.25 37.3378C141.243 37.1484 141.223 36.9597 141.207 36.771C141.191 36.5819 141.174 36.3933 141.157 36.2046C141.134 36.0163 141.111 35.828 141.087 35.6401C141.063 35.4519 141.044 35.2636 141.011 35.0765C140.95 34.7019 140.898 34.3265 140.819 33.9544C140.532 32.4629 140.126 30.9892 139.601 29.5439C139.072 28.0994 138.429 26.6831 137.678 25.3034C136.183 22.5417 134.223 19.9392 131.917 17.5417C130.762 16.344 129.51 15.2019 128.183 14.1156C126.855 13.0301 125.452 11.9992 123.974 11.0371C123.645 10.8301 123.193 10.5319 122.582 10.1637C122.43 10.0714 122.273 9.97068 122.1 9.86997C121.928 9.76926 121.747 9.66299 121.557 9.55153C121.181 9.32504 120.752 9.09217 120.292 8.83264C119.83 8.57948 119.428 8.36651 119.094 8.185C118.756 8.00945 118.485 7.86616 118.281 7.7559C118.079 7.64404 117.94 7.57001 117.872 7.52582C117.804 7.48203 117.804 7.4697 117.874 7.4892C117.879 7.48483 117.951 7.51268 118.092 7.57279C118.233 7.63409 118.439 7.73122 118.714 7.86018C118.851 7.92547 119.005 7.99871 119.176 8.07992C119.346 8.16271 119.53 8.25665 119.732 8.35816C119.933 8.46046 120.153 8.56833 120.385 8.69053C120.615 8.81393 120.862 8.94569 121.126 9.0862Z" fill="#B3E1FA"/>
<path d="M42.5092 18.8803C43.5518 17.7418 44.5574 16.7722 45.4605 15.957C46.398 15.1194 47.3828 14.3094 48.4114 13.5296C49.4409 12.7506 50.5201 12.0055 51.6358 11.2909C52.7533 10.578 53.9069 9.89377 55.1043 9.2513C56.3008 8.60844 57.5334 8.00101 58.7976 7.4302C60.0605 6.85739 61.3608 6.32838 62.6868 5.83758C64.0138 5.34757 65.3642 4.89099 66.7421 4.48219C68.12 4.07378 69.5196 3.70479 70.936 3.3752L72.0016 3.13676C72.3581 3.06074 72.7169 2.98988 73.0744 2.91663C73.4314 2.84061 73.7929 2.77811 74.1527 2.71084L74.6929 2.61133C74.873 2.57829 75.0549 2.55083 75.2359 2.52018C75.5987 2.46166 75.9594 2.39718 76.3236 2.34424L77.4158 2.18501C78.147 2.09027 78.8773 1.99315 79.6125 1.91872L80.1631 1.85941L80.7156 1.80885L81.2676 1.75909L81.5438 1.73441L81.8209 1.71451L82.9281 1.6357L84.037 1.57678C85.5169 1.50871 86.9987 1.48284 88.4782 1.49916L89.5876 1.51986L90.6952 1.55966C90.8802 1.56524 91.0644 1.57519 91.2485 1.58554L91.8014 1.61539C91.9851 1.62614 92.1697 1.6333 92.3534 1.64724L92.9045 1.68665C98.785 2.10341 104.533 3.23469 109.857 4.9706C111.188 5.40648 112.491 5.88176 113.765 6.39047C115.038 6.90078 116.285 7.44095 117.49 8.0233C119.902 9.18563 122.185 10.4733 124.288 11.89C125.341 12.597 126.354 13.3314 127.322 14.0929C128.286 14.8571 129.206 15.6473 130.08 16.4601C130.295 16.6651 130.517 16.8665 130.727 17.0743L131.355 17.6969L131.962 18.3298L132.113 18.4882L132.259 18.649L132.551 18.9706C133.322 19.8304 134.052 20.7078 134.72 21.607C137.404 25.1994 139.227 29.0833 140.161 33.0427C140.632 35.0227 140.86 37.0233 140.879 39.0168C140.88 41.011 140.676 42.9989 140.231 44.9546C139.68 47.4337 138.773 49.8702 137.533 52.2151C136.296 54.5609 134.718 56.8127 132.844 58.9279C129.099 63.1593 124.152 66.8413 118.374 69.6504C115.489 71.0563 112.348 72.2799 108.998 73.2703C105.649 74.2603 102.089 75.0201 98.3919 75.5042C94.6949 75.9838 90.8617 76.186 86.9788 76.0714C85.0376 76.0105 83.0851 75.8712 81.1335 75.6519C80.8889 75.6276 80.6461 75.5945 80.4024 75.5643C80.1586 75.5336 79.9145 75.503 79.6703 75.4723C79.427 75.4373 79.1837 75.4023 78.94 75.3672C78.6967 75.3322 78.4521 75.2992 78.2097 75.2578C77.7241 75.179 77.2362 75.1041 76.7524 75.0134C76.51 74.9692 76.2667 74.9274 76.0248 74.8816C75.7833 74.8339 75.5414 74.7861 75.2995 74.7383C75.1352 74.7041 74.9781 74.6746 74.831 74.642C74.6839 74.6094 74.5449 74.5787 74.414 74.5496C74.1522 74.4927 73.9234 74.4426 73.727 74.4C73.3371 74.308 73.0762 74.2491 72.9444 74.2224C72.6813 74.1687 72.5585 74.1388 72.5635 74.1281C72.8316 74.1719 73.2581 74.2567 73.8457 74.3773C74.1409 74.4338 74.4763 74.4995 74.8522 74.5747C75.2295 74.6448 75.6479 74.7224 76.107 74.8076C77.1004 74.9704 78.1267 75.1356 79.1959 75.2661C79.7285 75.3398 80.2742 75.3939 80.8257 75.4576C81.1019 75.4871 81.3813 75.5113 81.662 75.5388C81.8024 75.5523 81.9432 75.5659 82.0849 75.5794C82.2267 75.5921 82.3693 75.6017 82.5119 75.6132C82.7976 75.6359 83.0856 75.6582 83.3758 75.6813C83.666 75.6988 83.9589 75.7167 84.2536 75.735C84.5479 75.7557 84.8453 75.7673 85.1446 75.7804C85.2944 75.7872 85.4443 75.794 85.595 75.8007L85.8216 75.8111L86.0491 75.8171C86.3528 75.8258 86.6588 75.8342 86.9666 75.8429C87.2744 75.8493 87.585 75.8501 87.8968 75.8545C88.053 75.8557 88.2096 75.8592 88.3671 75.8585C88.5242 75.8577 88.6817 75.8565 88.8401 75.8553C88.9981 75.8545 89.157 75.8537 89.3163 75.8525L89.5555 75.8513L89.7956 75.8453C90.1156 75.8381 90.4383 75.8306 90.7629 75.823C91.0869 75.8099 91.4132 75.7968 91.7418 75.7836C92.0704 75.7733 92.3999 75.7498 92.7321 75.7319C92.8981 75.7223 93.0647 75.7128 93.2317 75.7028C93.3987 75.6929 93.5657 75.6785 93.7336 75.6662C93.901 75.6535 94.0694 75.6411 94.2382 75.6284C94.407 75.6156 94.5762 75.6041 94.7455 75.587C95.084 75.5555 95.4247 75.5237 95.7673 75.4918C96.4511 75.417 97.1434 75.3442 97.8394 75.2494C99.2322 75.0663 100.649 74.8418 102.083 74.566C103.516 74.2869 104.965 73.9609 106.422 73.58C109.331 72.8189 112.174 71.8675 114.885 70.716C117.598 69.5664 120.186 68.2253 122.596 66.7067C127.418 63.6724 131.524 59.9183 134.528 55.6559C136.029 53.5283 137.226 51.3155 138.112 49.0633C138.998 46.8103 139.571 44.5179 139.838 42.2287C140.106 39.939 140.067 37.6526 139.74 35.408C139.409 33.1637 138.789 30.9621 137.922 28.8333C137.488 27.7673 136.987 26.7419 136.447 25.7547C135.905 24.7683 135.324 23.819 134.696 22.9138C134.068 22.0086 133.406 21.1436 132.719 20.3177C132.03 19.4933 131.308 18.7123 130.577 17.9671C130.39 17.7821 130.206 17.5989 130.022 17.4166C129.838 17.2351 129.645 17.0596 129.459 16.8824C129.366 16.7945 129.273 16.7065 129.18 16.6189C129.084 16.5329 128.988 16.4474 128.893 16.3622C128.702 16.1922 128.515 16.0214 128.324 15.8551C127.936 15.5263 127.561 15.1983 127.169 14.8882C127.073 14.8098 126.977 14.7317 126.88 14.6541C126.785 14.5761 126.689 14.4993 126.591 14.4244C126.395 14.2736 126.201 14.1239 126.008 13.9754C125.96 13.9384 125.912 13.9014 125.864 13.8644C125.815 13.8282 125.766 13.7923 125.717 13.7561C125.619 13.6841 125.521 13.6124 125.424 13.5412C125.228 13.3994 125.04 13.2542 124.842 13.1184C124.449 12.845 124.067 12.5715 123.675 12.3155C123.48 12.1866 123.289 12.0572 123.095 11.9318C122.9 11.808 122.706 11.685 122.515 11.5632C122.418 11.5023 122.323 11.4418 122.228 11.3817C122.131 11.3228 122.034 11.2643 121.938 11.2058C121.746 11.0895 121.555 10.9741 121.365 10.8598C118.539 9.17965 115.448 7.70884 112.167 6.46969C110.526 5.85031 108.837 5.28985 107.107 4.79268C105.376 4.2979 103.605 3.866 101.803 3.49979C98.1991 2.76936 94.4711 2.29806 90.6952 2.12451C86.9206 1.94857 83.1009 2.05883 79.3228 2.45967C75.5473 2.85972 71.9253 3.53721 68.5186 4.43602C65.1114 5.33523 61.9213 6.45854 58.9899 7.75024C56.0575 9.04153 53.3829 10.5004 50.98 12.0672C48.5766 13.6347 46.4386 15.3073 44.5759 17.0429C43.6832 17.8728 42.8396 18.7167 42.0313 19.592C41.2392 20.4614 40.9318 20.8204 41.0496 20.6266C41.0428 20.6238 41.0667 20.5852 41.1214 20.5099C41.1773 20.4355 41.2581 20.3224 41.3809 20.1776C41.5027 20.0323 41.6553 19.8507 41.8385 19.6326C41.9297 19.5231 42.0335 19.4065 42.1463 19.2819C42.2592 19.1569 42.3801 19.0232 42.5092 18.8803Z" fill="#B3E1FA"/>
<path d="M143.365 39.2041C143.367 39.0777 143.368 38.9513 143.363 38.8243L143.349 38.2714L143.341 37.9956L143.323 37.7189C143.162 34.7669 142.53 31.795 141.4 28.888C141.4 28.888 141.379 28.8361 141.339 28.735C141.307 28.6529 141.261 28.5385 141.204 28.3932C141.156 28.2675 141.091 28.1203 141.017 27.9506C140.995 27.9012 140.973 27.8498 140.95 27.7966C140.921 27.7305 140.891 27.6615 140.86 27.5897C140.78 27.4055 140.693 27.2028 140.586 26.9849C140.543 26.897 140.5 26.8059 140.456 26.712C140.347 26.4826 140.231 26.2362 140.092 25.9766C139.998 25.7935 139.899 25.6025 139.796 25.4034C139.731 25.2831 139.662 25.1604 139.592 25.035C139.547 24.9543 139.502 24.8724 139.456 24.7892C139.424 24.7335 139.393 24.6773 139.361 24.6205C139.333 24.5694 139.304 24.5179 139.275 24.466C139.21 24.3566 139.144 24.2463 139.078 24.1344C139.033 24.06 138.988 23.9847 138.943 23.9087C138.852 23.7553 138.759 23.599 138.659 23.4414C138.509 23.2054 138.352 22.963 138.193 22.7138C138.088 22.5538 137.977 22.3924 137.864 22.2282C137.802 22.1383 137.739 22.0476 137.677 21.9559C136.241 19.8943 134.261 17.5175 131.597 15.1129C130.263 13.9143 128.765 12.705 127.1 11.5292C125.429 10.3573 123.603 9.20852 121.613 8.13655C121.22 7.91974 120.815 7.71129 120.407 7.5019C120.304 7.44872 120.201 7.39548 120.097 7.34203C119.928 7.25592 119.756 7.17188 119.584 7.08763C119.495 7.04415 119.406 7.00062 119.317 6.95672C119.249 6.92363 119.181 6.89054 119.113 6.85734C119.05 6.82664 118.987 6.79583 118.924 6.76485C118.791 6.70275 118.658 6.64065 118.525 6.57776C117.463 6.07422 116.357 5.60213 115.228 5.14397C114.944 5.03211 114.659 4.91946 114.375 4.80681C114.174 4.72958 113.972 4.65431 113.769 4.57893C113.682 4.54669 113.596 4.51443 113.509 4.48199C113.472 4.46832 113.436 4.45457 113.399 4.44081C113.291 4.40011 113.182 4.35936 113.073 4.32039L112.632 4.16515C112.548 4.13544 112.463 4.10544 112.378 4.07541C112.169 4.0012 111.96 3.92682 111.747 3.85626C110.56 3.45302 109.342 3.08322 108.11 2.73453C106.874 2.39061 105.616 2.07973 104.347 1.79313C103.074 1.5129 101.787 1.2649 100.493 1.04439C99.1951 0.832214 97.8902 0.646727 96.5836 0.495862C96.35 0.468903 96.1165 0.444969 95.8831 0.421044C95.7893 0.411414 95.6954 0.401793 95.6015 0.391972L95.1113 0.341416L94.6207 0.298832C94.5066 0.289384 94.3924 0.279508 94.2783 0.269632C94.0653 0.251201 93.8524 0.232779 93.64 0.217227C93.472 0.205993 93.304 0.194441 93.1362 0.182897C92.9771 0.171946 92.818 0.161013 92.6592 0.150354C87.4332 -0.17645 82.2766 0.0424728 77.5727 0.680957C75.2172 0.992236 72.9767 1.4094 70.8753 1.88786C68.7725 2.36633 66.8096 2.91087 65.0101 3.48805C62.5147 4.2973 60.1009 5.23472 57.8004 6.29793C57.8004 6.29793 57.1067 6.60881 55.9044 7.21466C54.7033 7.8197 53.005 8.73244 51.057 9.96721C50.0879 10.5886 49.0553 11.2884 47.9978 12.0705C46.9435 12.8543 45.8661 13.7209 44.7996 14.6655C42.6648 16.5531 40.5823 18.7627 38.7968 21.2039C37.0041 23.642 35.525 26.3146 34.4775 29.0564C33.9526 30.4265 33.5346 31.8137 33.2268 33.1954C32.9212 34.5766 32.7263 35.9511 32.6342 37.2958C32.4473 39.9862 32.6825 42.5525 33.1753 44.8314C33.4245 45.9714 33.7368 47.0402 34.0767 48.0238C34.1129 48.1243 34.1491 48.2241 34.1849 48.3232C34.2365 48.4657 34.2875 48.6066 34.3375 48.7459C34.3584 48.7979 34.3792 48.8496 34.3999 48.9012C34.4722 49.0814 34.5434 49.2587 34.6129 49.4333C34.6309 49.4771 34.649 49.5208 34.6669 49.5642C34.6948 49.6315 34.7225 49.6983 34.7496 49.7649C34.768 49.806 34.7863 49.8471 34.8046 49.888C34.8344 49.9548 34.864 50.0211 34.8931 50.0865C34.9444 50.2004 34.9955 50.3129 35.0459 50.4239C35.089 50.5189 35.1316 50.6128 35.1734 50.7055L34.8083 49.7517L34.6968 49.4317C34.6232 49.2315 34.5406 49.007 34.449 48.7598C34.3651 48.5114 34.273 48.2387 34.1742 47.9454C33.0192 44.3358 32.5538 40.446 32.9984 36.4435C33.0034 36.3994 33.008 36.3553 33.0126 36.3112C33.021 36.2303 33.0294 36.1494 33.0399 36.0686C33.0571 35.9428 33.0742 35.8178 33.0927 35.692C33.1034 35.6194 33.1134 35.5465 33.1234 35.4735C33.1478 35.2957 33.1722 35.1171 33.2065 34.9393C33.2498 34.6877 33.2945 34.4365 33.3396 34.1842C33.3651 34.0648 33.3904 33.9452 33.4157 33.8255C33.4438 33.6929 33.4718 33.5601 33.5003 33.4271C33.7278 32.418 34.0103 31.4053 34.3511 30.3931C34.6968 29.3812 35.1044 28.3713 35.5697 27.3639C35.6284 27.2381 35.687 27.1123 35.7466 26.9865C35.8053 26.8607 35.8649 26.7341 35.929 26.6091C35.9964 26.4774 36.0637 26.3453 36.1312 26.2129C36.1915 26.0946 36.2519 25.976 36.3126 25.8572C36.3962 25.7036 36.4804 25.5495 36.5647 25.395C36.6169 25.2994 36.6692 25.2036 36.7215 25.1077C36.8101 24.9469 36.904 24.7876 36.9982 24.6279C37.0505 24.5393 37.1028 24.4505 37.1544 24.3613C37.7461 23.3702 38.3937 22.3929 39.0987 21.4328C39.8015 20.4715 40.5723 19.5333 41.3911 18.6134C42.2107 17.6947 43.085 16.7967 44.0116 15.9229C44.9431 15.0516 45.9261 14.2057 46.9597 13.3877C47.9933 12.5701 49.0738 11.7776 50.2085 11.0221C51.3418 10.267 52.5225 9.54249 53.7465 8.85345C56.1919 7.4718 58.8259 6.24459 61.5926 5.17342C62.9755 4.63604 64.3959 4.14803 65.8393 3.70141C67.284 3.25559 68.754 2.85037 70.2457 2.49212C73.2317 1.78477 76.2945 1.23943 79.4065 0.899889C80.9618 0.728324 82.5257 0.600955 84.0955 0.523331C85.6657 0.449288 87.2391 0.421427 88.8097 0.440933C91.9542 0.475964 95.0892 0.715988 98.1696 1.13753C103.524 1.87075 108.645 3.16722 113.303 4.90234C116.337 6.03083 119.189 7.34681 121.82 8.81524C124.45 10.2841 126.855 11.9081 129.015 13.6441C129.768 14.2439 130.479 14.8677 131.177 15.4958C131.86 16.1327 132.533 16.7736 133.159 17.4359C133.797 18.0923 134.389 18.769 134.968 19.4493C135.532 20.136 136.083 20.8258 136.585 21.5331C136.624 21.5876 136.663 21.642 136.703 21.6963C136.791 21.8178 136.879 21.9392 136.963 22.0622L137.505 22.8638L138.018 23.6739C138.096 23.7983 138.17 23.9245 138.244 24.0505C138.277 24.1063 138.31 24.1621 138.343 24.2176C138.382 24.2853 138.422 24.3524 138.462 24.4195C138.531 24.534 138.599 24.6482 138.661 24.7642L138.963 25.3135C138.984 25.3516 139.004 25.3894 139.025 25.4272C139.055 25.4809 139.084 25.5345 139.112 25.5885L139.254 25.8656C140.012 27.3416 140.647 28.8434 141.148 30.3612C141.647 31.8798 142.017 33.4131 142.258 34.9516C142.285 35.1007 142.304 35.2507 142.323 35.4001C142.328 35.4431 142.334 35.486 142.34 35.5288L142.414 36.106L142.468 36.6844C142.473 36.7381 142.478 36.7919 142.483 36.8457C142.497 36.9841 142.511 37.1228 142.516 37.2615C142.522 37.3572 142.527 37.4527 142.533 37.5483C142.55 37.8377 142.568 38.1268 142.569 38.4159L142.582 38.9927L142.575 39.5691C142.576 39.856 142.561 40.1429 142.546 40.4295C142.542 40.5262 142.537 40.6228 142.532 40.7195C142.528 40.8577 142.516 40.9959 142.504 41.1341C142.5 41.187 142.495 41.2398 142.491 41.2927L142.443 41.8659C142.357 42.6285 142.257 43.3884 142.11 44.1431C141.825 45.6538 141.421 47.1469 140.884 48.6093L140.682 49.1582C140.639 49.2713 140.593 49.3841 140.547 49.4969C140.519 49.5655 140.492 49.6341 140.464 49.7028C140.345 50.007 140.211 50.3083 140.078 50.6087C140.052 50.6671 140.026 50.7255 140 50.7839C139.931 50.946 139.853 51.1056 139.776 51.2655L139.75 51.3193L139.495 51.8535L139.222 52.3817C139.199 52.4244 139.177 52.4672 139.155 52.5099C139.086 52.6429 139.017 52.7759 138.941 52.9075C138.176 54.3035 137.308 55.6641 136.333 56.9769C135.355 58.2885 134.278 59.5547 133.111 60.7687C131.941 61.9812 130.675 63.1392 129.332 64.2398C127.991 65.3412 126.56 66.3782 125.062 67.3522C125.001 67.3917 124.94 67.4315 124.879 67.4712C124.753 67.5533 124.627 67.6355 124.499 67.7156L123.925 68.0707C123.661 68.2375 123.389 68.397 123.117 68.5563C122.999 68.6254 122.881 68.6945 122.764 68.7641C122.632 68.8439 122.496 68.9195 122.359 68.9952C122.296 69.0301 122.233 69.0651 122.171 69.1005L121.577 69.4336L120.972 69.7553C120.908 69.789 120.844 69.8232 120.78 69.8574C120.643 69.9308 120.506 70.0042 120.365 70.0737C117.101 71.7467 113.607 73.1495 109.964 74.2354C106.325 75.3249 102.558 76.1134 98.7631 76.605C94.9656 77.0926 91.1386 77.2785 87.3722 77.175C83.604 77.0755 79.898 76.6763 76.3311 76.0203C72.7655 75.3647 69.3353 74.4535 66.1114 73.3119C59.6609 71.033 54.0394 67.8944 49.5712 64.2163C46.6875 61.8491 44.2828 59.2657 42.3673 56.5549C42.3673 56.5549 42.3673 56.5541 42.366 56.5541C42.3488 56.5354 42.3326 56.5155 42.3177 56.4944C42.2947 56.4749 42.273 56.4534 42.2558 56.4307C42.2456 56.4239 42.2359 56.4166 42.2266 56.4089C41.006 54.7156 39.3485 53.1151 36.9029 53.306C33.7806 53.55 32.2442 56.3316 31.8651 58.759C31.7166 59.71 31.694 60.6955 31.6713 61.6844C31.6228 63.7971 31.5739 65.9251 30.2962 67.7654C28.4439 70.434 24.4518 71.1553 21.3944 69.7203C19.0922 68.6397 17.95 66.6901 16.8078 64.7404C16.312 63.8942 15.8162 63.0479 15.2255 62.2726C15.1917 62.2285 15.0035 62.2356 15.0305 62.2714C15.6213 63.0465 16.1086 63.8921 16.5965 64.7386C17.4745 66.2619 18.354 67.788 19.84 68.9102C21.9013 70.467 24.8481 71.0068 27.3873 70.0952C28.7436 69.6084 29.895 68.7422 30.6135 67.6134C31.3876 66.3981 31.6773 64.9977 31.7874 63.622C31.8365 63.0087 31.851 62.3703 31.8657 61.7225C31.9206 59.3114 31.9784 56.7697 33.8298 54.9006C35.1919 53.5257 37.3132 52.9199 39.2147 53.8159C40.2687 54.3126 41.0502 55.0832 41.7072 55.9403C41.7036 55.9374 41.7001 55.9344 41.6966 55.9312C42.0239 56.4401 42.3697 56.9465 42.7338 57.4508C42.7827 57.5284 42.8312 57.6059 42.8796 57.6831C42.8862 57.6935 42.9013 57.7014 42.9204 57.7069C42.925 57.7131 42.9296 57.7194 42.9342 57.7256C42.9446 57.7379 42.9563 57.7511 42.9667 57.7642C42.9699 57.7687 42.972 57.7729 42.9742 57.7773C42.9751 57.7791 42.976 57.781 42.9771 57.7829C43.9587 59.1104 45.0704 60.4193 46.3224 61.6946C47.1263 62.5146 47.991 63.3179 48.905 64.1061C49.8217 64.893 50.7871 65.6656 51.8161 66.41C53.8706 67.9011 56.1422 69.3055 58.6205 70.5848C63.5862 73.1407 69.3696 75.1736 75.7137 76.4092C78.8843 77.0266 82.1917 77.4429 85.5827 77.6264C88.974 77.8119 92.4493 77.7646 95.9414 77.464C99.4302 77.1643 102.921 76.6142 106.344 75.8113C109.766 75.0088 113.118 73.9488 116.318 72.6344C122.723 70.0132 128.496 66.3439 133.046 61.8694C135.312 59.6331 137.275 57.1982 138.859 54.61C139.648 53.3147 140.342 51.9817 140.936 50.6179C141.529 49.2538 142.027 47.859 142.403 46.4399C142.781 45.0208 143.053 43.5787 143.21 42.1222L143.24 41.8487L143.305 41.0271C143.324 40.7492 143.335 40.4709 143.347 40.1921C143.351 40.1039 143.354 40.0156 143.358 39.9273L143.364 39.3764C143.364 39.319 143.365 39.2615 143.365 39.2041Z" fill="#B3E1FA"/>
</svg>
