<svg width="143" height="78" viewBox="0 0 143 78" fill="none" xmlns="http://www.w3.org/2000/svg">
<path d="M91.804 42.9387C91.5575 44.5098 91.178 46.081 90.6621 47.6521C90.1467 49.2232 89.6922 50.6204 89.2995 51.842C89.1027 52.2962 88.9556 52.5056 88.8576 52.4706C88.7588 52.4706 88.6974 52.3917 88.6735 52.2345C88.6482 52.0777 88.6112 51.9121 88.5629 51.7373C88.1693 49.3984 88.2185 47.059 88.71 44.7192C89.2006 42.3806 89.7414 39.9887 90.3308 37.5442C90.7235 36.0778 91.0421 34.568 91.2885 33.0144C91.5336 31.4611 91.5336 29.7933 91.2885 28.0128C91.2885 27.8735 91.3368 27.7688 91.4357 27.6983C91.5336 27.6983 91.5946 27.7425 91.6198 27.8293C91.6442 27.9168 91.7051 27.9781 91.804 28.0128C92.5406 28.781 92.9698 29.8375 93.093 31.1813C93.2149 32.5255 93.2036 33.9307 93.056 35.3971C92.9089 36.8636 92.6994 38.2775 92.43 39.6392C92.1596 41.001 91.9511 42.1008 91.804 42.9387ZM87.9735 53.2559C88.2682 53.8502 88.5999 54.3908 88.9682 54.8796C89.3365 55.3688 89.7161 55.8576 90.1096 56.346C90.1579 56.3811 90.2076 56.4424 90.2572 56.5291C90.3055 56.6167 90.2812 56.6601 90.1832 56.6601C90.0361 56.6601 89.9255 56.643 89.8519 56.6076C89.7784 56.5733 89.6922 56.5383 89.5942 56.5029C89.4954 56.4686 89.4214 56.4336 89.3731 56.3982C88.6848 56.0144 88.121 55.6478 87.6792 55.2983C87.2369 54.95 86.795 54.3215 86.3531 53.4132C86.206 53.0645 86.0584 52.6274 85.9113 52.1039C85.7637 51.5801 85.6649 51.0742 85.6166 50.585C85.5669 50.0965 85.5669 49.6774 85.6166 49.3279C85.6649 48.9796 85.7881 48.8045 85.9849 48.8045C86.0331 48.8045 86.1067 48.8829 86.206 49.0401C86.3035 49.1973 86.3897 49.3725 86.4637 49.5635C86.5373 49.7562 86.6109 49.9485 86.6844 50.1399C86.7584 50.3322 86.8194 50.4632 86.8686 50.5328C87.1137 51.022 87.3109 51.4933 87.458 51.9467C87.6052 52.4009 87.7767 52.8372 87.9735 53.2559ZM85.3954 22.2517C85.3462 21.6232 85.2595 21.0301 85.1377 20.4712C85.0145 19.9131 84.8303 19.3367 84.5852 18.7428C84.5356 18.6732 84.499 18.5856 84.4747 18.4809C84.4494 18.3762 84.4864 18.342 84.5852 18.3762C84.6832 18.4467 84.7694 18.4988 84.843 18.5335C84.9165 18.5685 85.0018 18.6035 85.1007 18.6382L85.2483 18.7428C85.7881 19.2321 86.2173 19.7034 86.5373 20.1567C86.8559 20.6109 87.0401 21.3613 87.0897 22.4089C87.0897 22.7935 87.0274 23.2819 86.9056 23.8754C86.7824 24.4693 86.6352 25.0365 86.4637 25.5775C86.2909 26.1192 86.0954 26.5726 85.8743 26.9392C85.6531 27.3058 85.4437 27.4547 85.2483 27.3842C85.1494 27.3496 85.1007 27.2362 85.1007 27.0439V26.4154C85.1007 26.1885 85.125 25.97 85.1747 25.7606C85.223 25.5512 85.2483 25.394 85.2483 25.2893C85.3462 24.7312 85.4071 24.2074 85.4324 23.7182C85.4563 23.2297 85.4437 22.7409 85.3954 22.2517ZM70.4425 39.5345C71.5221 38.0338 72.6396 36.5754 73.7942 35.1615C74.9473 33.7476 75.8681 32.6215 76.5564 31.7836C77.7348 30.2825 78.9616 28.8073 80.2393 27.358C81.5157 25.9095 82.6206 24.6265 83.5539 23.5088C83.6519 23.3344 83.7625 23.1772 83.8857 23.0375C84.0075 22.8982 84.1181 22.8631 84.217 22.9324C84.3149 22.9324 84.3388 23.02 84.2905 23.1943C84.2409 23.3695 84.1917 23.5438 84.1434 23.7182C83.4551 26.2319 82.2153 28.6067 80.4234 30.8406C78.6303 33.0757 76.7518 35.3275 74.7885 37.5968C74.1002 38.365 73.4994 39.0027 72.9836 39.5082C72.4681 40.015 72.0263 40.5034 71.658 40.9747C71.2897 41.446 70.9823 41.9615 70.7372 42.5195C70.4908 43.0788 70.3193 43.7945 70.2214 44.6671C70.4172 44.2833 70.6379 43.9167 70.8844 43.5672C71.1295 43.2185 71.3745 42.8862 71.621 42.5721C72.9953 40.8963 74.542 39.2205 76.2616 37.5442C77.9799 35.8684 79.6742 34.2973 81.3442 32.8309C81.4421 32.7612 81.6263 32.6131 81.8966 32.3858C82.1661 32.1589 82.3502 32.0634 82.4491 32.0976C82.547 32.1327 82.5344 32.2899 82.412 32.5689C82.2893 32.8488 82.2026 33.0585 82.1543 33.1975C81.9084 33.582 81.6019 34.0533 81.2336 34.6114C80.8653 35.1706 80.4717 35.7375 80.0552 36.3134C79.6372 36.8898 79.208 37.4487 78.7661 37.9897C78.3243 38.5314 77.9307 38.9764 77.5877 39.3251C77.3909 39.5345 76.9729 39.9533 76.3352 40.5818C75.6966 41.2103 75.0096 41.9961 74.2726 42.9387C73.536 43.8813 72.8111 44.9469 72.0998 46.1335C71.3872 47.3209 70.8591 48.5776 70.5161 49.9043C70.3689 49.6945 70.1848 49.4326 69.9636 49.1185C69.7425 48.8045 69.4848 48.2985 69.1901 47.5999C68.3063 45.4003 67.8275 43.1743 67.7539 40.9225C67.6803 38.6703 67.6677 36.3576 67.7169 33.9828C67.7652 32.4822 67.7778 30.9807 67.7539 29.4788C67.7286 27.9782 67.373 26.3891 66.6856 24.7133C66.6364 24.574 66.6364 24.4693 66.6856 24.3988C66.7835 24.3988 66.9311 24.5039 67.1279 24.7133C68.0116 25.3769 68.6746 26.3457 69.1165 27.6199C69.5583 28.8949 69.8774 30.2383 70.0742 31.6526C70.2697 33.0665 70.3802 34.4462 70.4055 35.79C70.4299 37.1342 70.4425 38.2078 70.4425 39.0107V39.5345ZM68.8958 49.2232C69.4351 50.0269 70.1478 50.7772 71.0315 51.4754C71.3745 50.009 72.0375 48.5513 73.0206 47.1024C74.0022 45.6538 75.1198 44.1958 76.3722 42.7293C77.6242 41.2629 78.9376 39.7964 80.3129 38.33C81.6872 36.8636 82.9649 35.38 84.1434 33.8781C85.0271 32.7966 85.7754 31.6263 86.3897 30.3693C87.0035 29.1126 87.4454 27.8293 87.7157 26.5201C87.9852 25.2109 88.0588 23.9104 87.9369 22.6183C87.8137 21.327 87.4328 20.1046 86.795 18.9522C86.6479 18.7779 86.6226 18.6561 86.7214 18.5856C86.8194 18.516 86.9792 18.5593 87.2003 18.7166C87.421 18.8738 87.556 18.9873 87.6052 19.0569C88.1946 19.6512 88.6735 20.4278 89.0418 21.3875C89.4101 22.3484 89.6795 23.4128 89.8519 24.5823C90.0234 25.7526 90.1096 26.9834 90.1096 28.2743C90.1096 29.5668 90.0361 30.8589 89.8889 32.1502C89.6922 33.861 89.3365 35.7295 88.8206 37.754C88.3052 39.7793 87.6792 41.6295 86.9421 43.3053C86.8929 43.3758 86.8067 43.5326 86.6844 43.7766C86.5612 44.0214 86.4267 44.1432 86.2796 44.1432C86.1803 44.109 86.1067 43.9601 86.0584 43.6982C86.0088 43.4363 85.9849 43.2711 85.9849 43.2006C85.9849 42.8169 85.9961 42.3544 86.0214 41.8126C86.0458 41.2716 86.0828 40.7128 86.132 40.1368C86.1803 39.5608 86.2426 39.0027 86.3161 38.461C86.3897 37.92 86.475 37.4575 86.5739 37.0729C86.6226 36.8636 86.7088 36.3839 86.832 35.6328C86.9539 34.8824 87.0645 34.0354 87.1633 33.0928C86.5739 34.0704 86.1067 34.9437 85.7637 35.7112C85.4198 36.4798 85.125 37.2302 84.88 37.9634C84.6335 38.6966 84.4255 39.4649 84.254 40.2677C84.0811 41.0714 83.9222 42.014 83.7751 43.0959C83.6275 44.1782 83.5657 45.3135 83.5909 46.5001C83.6149 47.6871 83.7864 48.8566 84.1064 50.009C84.4255 51.1609 84.8913 52.2871 85.506 53.3869C86.1194 54.4867 86.9169 55.491 87.8999 56.3982C88.0958 56.6076 88.145 56.7306 88.0475 56.7648C87.9482 56.8002 87.8263 56.7648 87.6792 56.6601C86.1067 55.7525 84.8673 54.7315 83.9592 53.5963C83.0498 52.4622 82.3755 51.266 81.9336 50.009C81.4913 48.7519 81.258 47.469 81.2336 46.1594C81.2083 44.8502 81.2945 43.5672 81.4913 42.3102C81.5893 41.8568 81.6759 41.4026 81.7495 40.9484C81.823 40.495 81.9084 40.0237 82.0072 39.5345C80.877 40.8266 79.7478 42.0837 78.6185 43.3053C77.4884 44.5277 76.4331 45.7406 75.4515 46.9451C74.4685 48.1497 73.5974 49.3371 72.8364 50.5065C72.0746 51.6768 71.4977 52.8372 71.1055 53.9891L70.9579 54.2511C70.8591 54.2511 70.8108 54.1814 70.8108 54.0417V53.7798V52.9419C70.8108 52.6628 70.8591 52.3838 70.9579 52.1039C70.5644 51.9646 70.2214 51.8337 69.9266 51.7111C69.6324 51.5893 69.3489 51.4408 69.0799 51.266C68.8091 51.0917 68.5388 50.8819 68.2693 50.6375C67.999 50.3935 67.7169 50.0794 67.4222 49.6945C67.1762 49.3462 66.9311 48.9271 66.6856 48.4378C66.4396 47.949 66.2311 47.469 66.0596 46.9977C65.8871 46.526 65.7892 46.1251 65.7648 45.7928C65.7396 45.4616 65.8018 45.2956 65.949 45.2956C66.0469 45.2956 66.1575 45.3569 66.2807 45.4787C66.4026 45.6013 66.5384 45.7494 66.6856 45.9237C66.8332 46.0989 66.955 46.2732 67.0539 46.4476C67.1518 46.6227 67.2254 46.7445 67.275 46.8142C67.5201 47.2333 67.7778 47.6441 68.0486 48.045C68.3176 48.4466 68.6011 48.8395 68.8958 49.2232ZM58.436 22.9324C58.3367 22.1992 58.2022 21.5185 58.0307 20.89C57.8578 20.2614 57.6497 19.6158 57.4047 18.9522C57.355 18.8826 57.3311 18.795 57.3311 18.6903C57.3311 18.5856 57.355 18.5335 57.4047 18.5335C57.5518 18.5335 57.6989 18.5856 57.8465 18.6903L58.1413 18.9001C58.6811 19.4235 59.1229 19.939 59.4668 20.4449C59.8099 20.9513 60.031 21.7804 60.1299 22.9324C60.1782 23.3866 60.1782 23.9454 60.1299 24.6086C60.0807 25.2722 59.994 25.9007 59.8721 26.4938C59.7489 27.0881 59.6018 27.5936 59.4303 28.0128C59.2574 28.4315 59.099 28.6238 58.9514 28.5888C58.8526 28.5888 58.779 28.4928 58.7303 28.3006C58.6811 28.1091 58.644 27.8906 58.6201 27.6462C58.5948 27.4022 58.5831 27.1486 58.5831 26.8867V26.3366V24.6345C58.5831 24.0939 58.5335 23.5267 58.436 22.9324ZM59.7616 19.0569C59.5648 18.7428 59.5156 18.5856 59.6144 18.5856C59.7616 18.5856 59.9331 18.6644 60.1299 18.8213C60.3257 18.9785 60.449 19.0752 60.4982 19.1095C60.9888 19.6329 61.5295 20.2009 62.1189 20.8115C62.7079 21.4226 63.2721 22.147 63.8128 22.9849C64.3526 23.8228 64.8441 24.7917 65.2864 25.8915C65.7283 26.9914 66.0713 28.2926 66.3173 29.7933C66.612 31.5045 66.6729 33.1891 66.5014 34.847C66.329 36.5057 66.0469 38.1728 65.6547 39.8486C65.6051 39.919 65.5554 40.0934 65.5071 40.3724C65.4575 40.6523 65.36 40.7916 65.2124 40.7916C65.1136 40.7916 65.0156 40.6606 64.9177 40.3987C64.8188 40.1368 64.7705 39.9533 64.7705 39.8486C64.6717 39.4649 64.5737 39.0107 64.4758 38.4872C64.377 37.9634 64.2917 37.4133 64.2181 36.8373C64.1445 36.2613 64.0949 35.7032 64.071 35.1615C64.0457 34.6205 64.0339 34.1401 64.0339 33.7213C64.0339 33.582 64.0213 33.2759 63.9974 32.8046C63.9717 32.3333 63.9351 31.7836 63.8868 31.155C63.8372 30.5265 63.751 29.8375 63.6286 29.0863C63.5059 28.336 63.3709 27.5936 63.2238 26.8604C63.3217 27.9431 63.3217 29.0258 63.2238 30.1074C63.1249 31.1901 63.0026 32.2807 62.8555 33.381C62.7079 34.4808 62.5851 35.5802 62.4872 36.6801C62.3879 37.7799 62.3879 38.8889 62.4872 40.0058C62.6343 42.1712 63.2477 44.3705 64.3287 46.6048C65.4083 48.8395 67.1279 50.7422 69.4848 52.3133C69.7795 52.5227 69.9014 52.6274 69.8531 52.6274C69.7542 52.6628 69.5827 52.6274 69.3376 52.5227C67.618 51.8249 66.1945 50.9866 65.0653 50.009C63.9351 49.0317 63.0144 47.9665 62.3031 46.8142C61.5904 45.6622 61.0623 44.4664 60.7193 43.2269C60.3749 41.9877 60.1782 40.739 60.1299 39.482C60.1299 39.3773 60.1172 39.2818 60.0933 39.1942C60.068 39.1074 60.0563 39.0107 60.0563 38.906C59.0733 40.8963 57.981 42.8169 56.7787 44.6671C55.5745 46.518 54.396 48.2985 53.2429 50.009C52.0883 51.7198 51.0078 53.3343 50.0018 54.8533C48.9944 56.3723 48.1969 57.777 47.6079 59.0691C47.5086 59.2435 47.435 59.3311 47.3867 59.3311C47.2879 59.3311 47.2396 59.2789 47.2396 59.1742V58.9644C47.2879 57.3229 47.755 55.6045 48.6392 53.806C49.5229 52.008 50.5655 50.1399 51.7697 48.2022C52.9721 46.2641 54.2372 44.2742 55.5632 42.2318C56.8888 40.1893 58.042 38.1031 59.025 35.9731C59.6144 34.6114 60.1172 33.1975 60.5352 31.731C60.9517 30.2646 61.2095 28.7981 61.3088 27.3317C61.4062 25.8653 61.3327 24.4251 61.0876 23.0112C60.8412 21.5969 60.3993 20.2797 59.7616 19.0569ZM47.9022 47.4427C49.1294 45.4524 50.4554 43.402 51.8803 41.2892C53.3038 39.1771 54.679 37.1605 56.0051 35.2399C56.0534 35.1352 56.1892 34.9437 56.4104 34.6639C56.6311 34.3849 56.8396 34.2631 57.0364 34.2973C57.1339 34.2973 57.1582 34.4545 57.1099 34.7686C57.0603 35.0827 56.9867 35.3103 56.8888 35.4493C56.7416 35.9389 56.5449 36.5232 56.2998 37.2039C56.0534 37.8846 55.7713 38.5836 55.4526 39.2989C55.1326 40.015 54.8013 40.7128 54.4583 41.3938C54.1139 42.0745 53.7953 42.6425 53.5006 43.0959C53.353 43.3053 53.0953 43.7503 52.727 44.4314C52.3587 45.1121 51.9168 45.9237 51.4014 46.8667C50.8855 47.8093 50.3448 48.8132 49.7806 49.878C49.2156 50.9436 48.6875 51.9555 48.1969 52.9156C47.7054 53.8761 47.2762 54.7315 46.9079 55.4819C46.5396 56.233 46.3301 56.7648 46.2819 57.0792C46.183 57.4275 46.0851 57.6031 45.9871 57.6031C45.8883 57.6031 45.8274 57.5326 45.803 57.3933C45.7777 57.2536 45.7407 57.1485 45.6924 57.0792C45.4464 56.6601 45.3358 56.0499 45.3611 55.2462C45.3855 54.4433 45.52 53.5883 45.7664 52.6799C46.0115 51.7724 46.3189 50.8469 46.6872 49.9043C47.0554 48.9613 47.4603 48.1417 47.9022 47.4427ZM51.0697 34.978C51.9042 33.1632 52.8493 31.3302 53.9059 29.4788C54.9611 27.6291 55.8818 25.97 56.6681 24.5039C56.7656 24.3296 56.8762 24.1552 56.9994 23.9801C57.1212 23.8057 57.2318 23.7361 57.3311 23.7707C57.4286 23.7707 57.4656 23.8841 57.4412 24.111C57.416 24.3383 57.4047 24.5389 57.4047 24.7133C56.9628 27.5765 56.0786 30.4218 54.7526 33.25C53.427 36.0778 51.9538 38.8718 50.3331 41.6295C49.3501 43.3758 48.2948 45.13 47.1656 46.893C46.0354 48.6564 45.1034 50.5678 44.3668 52.6274C44.2675 52.8025 44.231 52.9072 44.2562 52.9419C44.2802 52.9769 44.2675 52.994 44.2192 52.994C44.0721 52.9243 43.9985 52.7675 43.9985 52.5227C43.7521 51.4754 43.8992 50.1578 44.4404 48.5688C44.9802 46.9802 45.6671 45.3398 46.503 43.6456C47.3371 41.9527 48.1969 40.329 49.0811 38.775C49.9648 37.2218 50.6278 35.956 51.0697 34.978Z" fill="#0B4251"/>
<path d="M114.639 54.7224C116.407 54.5131 118.112 54.1293 119.758 53.5701C121.403 53.012 122.889 52.2959 124.214 51.423C124.312 51.3887 124.509 51.2657 124.804 51.0563C125.099 50.847 125.294 50.7773 125.393 50.847C125.491 50.917 125.467 51.0221 125.32 51.161C125.172 51.3011 125.049 51.4229 124.951 51.5276C123.968 52.5407 122.679 53.3698 121.084 54.0155C119.488 54.6619 117.83 55.1766 116.112 55.5603C114.687 55.8402 113.166 55.9361 111.545 55.8485C109.925 55.7618 108.402 55.4736 106.978 54.9844C106.536 54.845 106.266 54.7312 106.168 54.644C106.069 54.5572 106.069 54.4959 106.168 54.4605C106.266 54.4263 106.426 54.408 106.646 54.408C106.868 54.408 107.076 54.4263 107.273 54.4605C107.813 54.531 108.439 54.5915 109.151 54.644C109.862 54.6962 110.575 54.7312 111.287 54.7487C111.998 54.7666 112.65 54.775 113.239 54.775C113.829 54.775 114.294 54.7575 114.639 54.7224ZM104.768 39.3248C104.522 40.5477 104.4 41.743 104.4 42.9125C104.4 44.0828 104.511 45.1826 104.731 46.212C104.953 47.2422 105.296 48.1589 105.763 48.9614C106.229 49.765 106.805 50.4278 107.494 50.9517C108.279 51.5105 109.249 51.9384 110.403 52.2346C111.557 52.5319 112.809 52.68 114.16 52.68C115.51 52.68 116.934 52.5407 118.432 52.2609C119.93 51.9818 121.416 51.5456 122.889 50.9517C123.184 50.8123 123.379 50.7773 123.478 50.847C123.576 50.917 123.539 50.9958 123.368 51.0826C123.195 51.1702 123.036 51.2486 122.889 51.3183C121.611 52.0172 120.261 52.5753 118.838 52.9941C117.413 53.4132 115.976 53.6748 114.528 53.7798C113.079 53.8845 111.68 53.824 110.33 53.5963C108.979 53.3698 107.763 52.9415 106.683 52.3134C105.652 51.6849 104.817 50.9254 104.179 50.0349C103.54 49.1449 103.061 48.1676 102.743 47.1024C102.423 46.0376 102.239 44.9287 102.19 43.7767C102.141 42.6243 102.19 41.4903 102.338 40.3725C102.533 38.5916 103.024 36.794 103.811 34.978C104.596 33.1629 105.64 31.4871 106.941 29.9506C108.242 28.4145 109.801 27.0699 111.619 25.9179C113.435 24.7655 115.473 23.9626 117.733 23.5085C118.862 23.2991 120.016 23.2123 121.195 23.2469C122.373 23.282 123.465 23.4392 124.473 23.7182C125.478 23.9981 126.351 24.4081 127.088 24.949C127.824 25.4904 128.314 26.1452 128.561 26.9126C128.806 27.7509 128.708 28.5626 128.266 29.3479C127.824 30.1337 127.21 30.8148 126.425 31.3908C125.638 31.9668 124.754 32.3775 123.773 32.6212C122.79 32.866 121.858 32.866 120.974 32.6212C120.924 32.6212 120.887 32.569 120.863 32.4643C120.838 32.3596 120.924 32.325 121.121 32.3596C121.71 32.4301 122.385 32.3334 123.147 32.0714C123.908 31.8095 124.594 31.4521 125.209 30.9979C125.823 30.5445 126.314 30.0027 126.682 29.3742C127.051 28.7457 127.161 28.1 127.014 27.4365C126.867 26.9481 126.559 26.5201 126.093 26.1535C125.626 25.7869 125.025 25.4904 124.288 25.2631C123.552 25.0366 122.729 24.8885 121.821 24.8181C120.912 24.7484 119.966 24.7834 118.985 24.9228C117.118 25.1672 115.387 25.7523 113.792 26.677C112.195 27.6025 110.783 28.7286 109.556 30.0553C108.328 31.3824 107.297 32.8572 106.462 34.4805C105.627 36.1042 105.063 37.7195 104.768 39.3248ZM99.9802 36.9683C100.373 35.1182 100.999 33.3201 101.859 31.5739C102.717 29.8284 103.848 28.231 105.247 26.7821C106.646 25.3335 108.378 24.0848 110.44 23.0372C112.503 21.9899 114.934 21.2567 117.733 20.8379C118.714 20.6986 119.819 20.6373 121.047 20.6544C122.274 20.6723 123.502 20.8295 124.73 21.1257C125.957 21.4226 127.099 21.8681 128.156 22.4612C129.211 23.0551 130.082 23.8751 130.771 24.9228C131.408 25.9358 131.629 26.9309 131.433 27.9078C131.236 28.8858 130.819 29.7671 130.181 30.5525C129.542 31.3382 128.756 31.993 127.824 32.5165C126.89 33.0403 125.982 33.3373 125.099 33.4069C124.557 33.4774 124.263 33.4682 124.214 33.3806C124.165 33.2939 124.436 33.1804 125.025 33.0403C125.957 32.8309 126.903 32.2991 127.861 31.4429C128.819 30.5879 129.395 29.4972 129.592 28.1697C129.69 27.5069 129.566 26.8521 129.223 26.2057C128.879 25.56 128.388 24.9932 127.75 24.5036C127.112 24.0152 126.351 23.596 125.467 23.2469C124.583 22.8982 123.649 22.6706 122.668 22.5659C120.556 22.3565 118.616 22.4612 116.849 22.8803C115.081 23.2991 113.546 23.8321 112.245 24.4777C110.943 25.1238 109.888 25.7607 109.077 26.3892C108.267 27.0173 107.763 27.4365 107.567 27.6462C106.045 29.0076 104.719 30.4832 103.59 32.0714C102.459 33.6609 101.527 35.3275 100.791 37.073C100.791 37.108 100.754 37.2303 100.68 37.4396C100.607 37.649 100.533 37.8675 100.459 38.0944C100.385 38.3217 100.299 38.5311 100.201 38.7226C100.103 38.9152 100.028 39.0108 99.9802 39.0108C99.8814 39.0108 99.8331 38.9061 99.8331 38.6967V38.0419C99.8331 37.8154 99.8574 37.5969 99.9066 37.3871C99.9549 37.1777 99.9802 37.0384 99.9802 36.9683ZM110.588 56.6602C111.127 56.6952 111.68 56.7127 112.245 56.7127C112.809 56.7127 113.092 56.7649 113.092 56.8696C113.092 56.905 112.993 56.9301 112.797 56.9484C112.601 56.9655 112.392 56.9742 112.171 56.9742H111.471H111.029C109.507 56.9742 108.01 56.8174 106.536 56.5029C105.063 56.1889 103.7 55.7435 102.448 55.1675C101.196 54.5915 100.078 53.8845 99.0965 53.0466C98.1135 52.2087 97.3769 51.2486 96.8867 50.1659C95.9037 48.0367 95.34 45.9588 95.1924 43.9339C95.0452 41.9094 95.1671 39.9191 95.5607 37.9635C95.7566 36.8461 96.1375 35.5803 96.7026 34.1664C97.2663 32.7525 98.0286 31.312 98.9859 29.8455C99.9436 28.3795 101.146 26.9309 102.595 25.4987C104.043 24.0673 105.774 22.7581 107.788 21.5707C109.899 20.3141 112.245 19.4761 114.823 19.057C117.401 18.6378 119.868 18.5686 122.226 18.8476C124.583 19.1274 126.67 19.7118 128.487 20.6018C130.303 21.4923 131.507 22.6184 132.096 23.9802C132.144 24.0502 132.194 24.1987 132.244 24.4252C132.292 24.6525 132.268 24.8009 132.17 24.8702C132.121 24.9056 132.047 24.8181 131.949 24.6083C131.85 24.3989 131.752 24.26 131.654 24.1895C129.592 22.1992 127.259 20.9342 124.657 20.3925C122.053 19.8515 119.475 19.7994 116.922 20.2352C114.368 20.6723 111.962 21.4752 109.703 22.6443C107.444 23.8146 105.652 25.115 104.326 26.546C102.018 29.0255 100.262 31.6614 99.0595 34.4546C97.8557 37.2482 97.3033 40.1285 97.4021 43.096C97.4504 44.4574 97.6599 45.8896 98.0286 47.3902C98.3969 48.8921 99.1208 50.3231 100.201 51.6849C101.281 53.0817 102.767 54.2428 104.658 55.1675C106.548 56.0929 108.525 56.5905 110.588 56.6602Z" fill="#0B4251"/>
<path d="M3.55657 48.7438C-0.231973 47.0775 -1.04077 43.6108 1.35629 41.158C3.59449 38.8668 7.58884 38.1503 10.9996 39.3198C14.627 40.5637 16.1201 43.9611 14.2551 46.3343C10.741 47.1257 7.17316 47.9293 3.55657 48.7438Z" fill="#0B4251"/>
<path d="M11.2594 55.2302C12.6762 55.3739 13.0567 55.0857 12.7037 54.2008C12.3517 53.3175 12.0096 52.4315 11.6016 51.5621C11.4377 51.2134 11.176 50.7947 10.484 50.924C9.78357 51.0554 9.6414 51.4395 9.84134 51.904C10.3225 53.0214 10.7955 54.1407 11.2594 55.2302ZM4.68659 49.8067C7.9087 49.0802 11.027 48.3773 14.1859 47.6647C14.2387 48.5719 14.3593 49.4464 14.324 50.3202C14.2627 51.8519 14.7718 53.2861 15.41 54.7167C16.2648 56.6338 17.0601 58.5651 17.8626 60.4941C18.1297 61.137 17.4834 61.9641 16.5239 62.2045C15.5946 62.437 14.6513 62.6444 13.7039 62.8339C12.785 63.0178 11.7681 62.57 11.4734 61.8702C10.4628 59.4739 9.5755 57.0457 8.40834 54.6916C7.77691 53.4183 6.68196 52.2667 5.77567 51.0681C5.47057 50.6645 5.10227 50.2852 4.68659 49.8067Z" fill="#0B4251"/>
<path d="M121.126 9.08624C122.171 9.65704 123.048 10.1705 123.761 10.6199C123.94 10.7322 124.11 10.8393 124.272 10.9404C124.433 11.0423 124.58 11.143 124.721 11.2361C124.862 11.3297 124.994 11.418 125.118 11.5008C125.242 11.5832 125.357 11.6613 125.46 11.7357C125.827 11.9912 126.211 12.246 126.583 12.5219C126.771 12.658 126.962 12.7961 127.154 12.9354C127.343 13.0783 127.533 13.2224 127.725 13.3685C128.114 13.6575 128.488 13.968 128.88 14.2785C129.074 14.4353 129.263 14.5977 129.457 14.7601C129.554 14.8413 129.651 14.9229 129.749 15.0053C129.847 15.0873 129.941 15.1729 130.037 15.2573C130.229 15.4265 130.423 15.5976 130.619 15.7708C130.808 15.9467 131.001 16.1247 131.194 16.3046C131.29 16.3949 131.39 16.4841 131.484 16.5765C131.579 16.6688 131.674 16.762 131.769 16.8551C131.865 16.9486 131.961 17.0422 132.057 17.1365C132.154 17.2305 132.25 17.3256 132.343 17.4231C132.531 17.6166 132.721 17.8124 132.912 18.0095C133.101 18.2085 133.285 18.4123 133.473 18.6165C133.566 18.7188 133.664 18.8203 133.754 18.9254C133.846 19.0301 133.937 19.1356 134.029 19.241C134.212 19.4532 134.402 19.6646 134.579 19.8847C137.483 23.3689 139.657 27.2694 140.894 31.4052C142.13 35.5534 142.356 39.7238 141.695 43.7048C141.526 44.6971 141.309 45.6433 141.064 46.5429C140.999 46.7674 140.934 46.9892 140.871 47.2085C140.808 47.4278 140.731 47.6424 140.663 47.8553C140.531 48.2824 140.37 48.6936 140.226 49.0969C139.607 50.7026 138.91 52.1165 138.211 53.3437C137.877 53.9117 137.367 54.8006 136.556 55.9677C136.452 56.1126 136.345 56.2623 136.235 56.4171C136.123 56.5712 136.015 56.7324 135.889 56.8936C135.643 57.2172 135.39 57.5631 135.1 57.9186C134.535 58.6355 133.869 59.4101 133.097 60.2373C131.561 61.8884 129.686 63.6116 127.407 65.3248C125.128 67.0365 122.438 68.7354 119.293 70.2997C116.15 71.8553 112.668 73.2155 108.9 74.2966C107.014 74.834 105.059 75.3021 103.044 75.6926L102.666 75.767C102.54 75.7913 102.412 75.8124 102.286 75.8355C102.031 75.8805 101.777 75.9258 101.522 75.9708C101.268 76.0186 101.009 76.0548 100.752 76.097C100.495 76.1376 100.237 76.1782 99.9793 76.2192C99.7197 76.2554 99.4598 76.2917 99.1993 76.3279C98.9389 76.3641 98.6785 76.4023 98.4158 76.4322C97.8905 76.4947 97.3651 76.5631 96.8339 76.6133C92.5863 77.0595 88.3789 77.1081 84.3376 76.833C82.317 76.6913 80.337 76.4696 78.4088 76.1754C76.4803 75.8825 74.6067 75.5067 72.7933 75.074C70.973 74.6381 69.239 74.1449 67.5943 73.6068C65.9509 73.0662 64.3965 72.4823 62.9319 71.8673C60.0014 70.6369 57.4306 69.2843 55.1897 67.8975C52.9488 66.5015 51.2007 65.1867 49.8305 64.053C48.4642 62.9158 47.4695 61.9616 46.7474 61.2463C46.5515 61.0449 46.3678 60.8562 46.1963 60.6799C46.0266 60.5032 45.8767 60.3348 45.7345 60.1811C45.4484 59.8754 45.2272 59.6119 45.0476 59.4025C44.9587 59.2974 44.8806 59.2059 44.8138 59.1271C44.7484 59.0475 44.6974 58.9798 44.6554 58.9261C44.5728 58.8182 44.5349 58.7629 44.5412 58.7601C44.5538 58.7549 44.6355 58.8345 44.7854 58.9993C44.9366 59.1637 45.1686 59.4077 45.4669 59.7381C45.7688 60.0605 46.0428 60.3408 46.278 60.5812C46.5226 60.8172 46.727 61.0147 46.8909 61.1727C47.1382 61.4071 47.4104 61.6488 47.6893 61.9075C47.8301 62.0365 47.9818 62.1642 48.1325 62.298C48.2851 62.4305 48.4372 62.5687 48.5997 62.7064C48.763 62.8433 48.93 62.9838 49.1011 63.1271C49.1864 63.1988 49.273 63.2712 49.3602 63.3449C49.45 63.4165 49.5407 63.4894 49.6319 63.5626C49.8151 63.7095 50.002 63.8596 50.1929 64.0128C50.3888 64.1629 50.5882 64.3161 50.7914 64.4726C51.6132 65.0924 52.5191 65.7487 53.5382 66.4179C54.5578 67.0866 55.6812 67.7745 56.9237 68.4655C59.4079 69.8467 62.1493 71.1149 65.1345 72.2152C68.1187 73.3154 71.3467 74.2472 74.7828 74.9518C78.2202 75.652 81.7943 76.1058 85.4339 76.2865C89.0735 76.47 92.7781 76.3705 96.4642 75.9844C100.158 75.5975 103.557 74.9554 106.622 74.1744C108.155 73.7835 109.607 73.3572 110.977 72.9078C112.347 72.4556 113.634 71.9791 114.844 71.4919C116.567 70.7945 118.247 70.0275 119.862 69.1836C121.476 68.3393 123.031 67.4254 124.515 66.4461C127.477 64.4825 130.154 62.2558 132.443 59.807C133.594 58.5853 134.637 57.3044 135.584 55.9808C136.535 54.6581 137.367 53.2848 138.094 51.8765C138.824 50.4686 139.427 49.0196 139.915 47.5444C140.407 46.0692 140.762 44.5642 140.996 43.042C141.234 41.5199 141.326 39.9933 141.296 38.4751C141.296 38.0954 141.269 37.7164 141.25 37.3379C141.243 37.1484 141.223 36.9597 141.207 36.771C141.191 36.582 141.174 36.3933 141.157 36.2046C141.134 36.0163 141.111 35.828 141.087 35.6402C141.063 35.4519 141.044 35.2636 141.011 35.0765C140.95 34.702 140.898 34.3266 140.819 33.9544C140.532 32.4629 140.125 30.9893 139.601 29.5439C139.072 28.0994 138.429 26.6831 137.678 25.3034C136.183 22.5417 134.223 19.9392 131.917 17.5417C130.762 16.344 129.509 15.202 128.183 14.1157C126.855 13.0302 125.452 11.9992 123.974 11.0371C123.645 10.8301 123.193 10.532 122.582 10.1638C122.43 10.0714 122.273 9.97071 122.1 9.87C121.928 9.76929 121.747 9.66302 121.557 9.55156C121.181 9.32507 120.752 9.0922 120.292 8.83267C119.83 8.57951 119.428 8.36654 119.094 8.18503C118.756 8.00948 118.485 7.86619 118.281 7.75593C118.079 7.64407 117.94 7.57004 117.872 7.52585C117.804 7.48206 117.804 7.46973 117.874 7.48923C117.878 7.48486 117.951 7.51271 118.092 7.57282C118.233 7.63412 118.439 7.73125 118.714 7.86021C118.851 7.9255 119.005 7.99874 119.176 8.07995C119.346 8.16274 119.53 8.25668 119.732 8.35819C119.933 8.46049 120.153 8.56836 120.385 8.69056C120.615 8.81396 120.862 8.94572 121.126 9.08624Z" fill="#0B4251"/>
<path d="M42.5091 18.8803C43.5517 17.7419 44.5573 16.7722 45.4604 15.957C46.3978 15.1195 47.3827 14.3094 48.4113 13.5296C49.4408 12.7506 50.5199 12.0055 51.6356 11.291C52.7532 10.5781 53.9068 9.8938 55.1042 9.25134C56.3007 8.60847 57.5333 8.00104 58.7975 7.43023C60.0604 6.85742 61.3607 6.32841 62.6867 5.83761C64.0136 5.3476 65.364 4.89102 66.742 4.48222C68.1199 4.07381 69.5195 3.70482 70.9358 3.37523L72.0014 3.1368C72.358 3.06077 72.7168 2.98991 73.0743 2.91666C73.4313 2.84064 73.7928 2.77814 74.1525 2.71087L74.6928 2.61136C74.8729 2.57832 75.0548 2.55086 75.2357 2.52021C75.5986 2.46169 75.9592 2.39721 76.3235 2.34427L77.4157 2.18504C78.1469 2.0903 78.8772 1.99318 79.6124 1.91875L80.163 1.85944L80.7155 1.80888L81.2674 1.75912L81.5437 1.73444L81.8208 1.71454L82.9279 1.63573L84.0369 1.57681C85.5168 1.50874 86.9986 1.48287 88.4781 1.49919L89.5874 1.51989L90.695 1.55969C90.8801 1.56527 91.0642 1.57522 91.2484 1.58557L91.8013 1.61543C91.985 1.62617 92.1696 1.63333 92.3533 1.64727L92.9043 1.68668C98.7848 2.10344 104.533 3.23472 109.857 4.97063C111.188 5.40651 112.491 5.88179 113.765 6.3905C115.038 6.90081 116.285 7.44098 117.49 8.02333C119.902 9.18566 122.185 10.4734 124.288 11.89C125.341 12.597 126.354 13.3314 127.322 14.0929C128.286 14.8572 129.206 15.6473 130.08 16.4601C130.295 16.6651 130.517 16.8665 130.727 17.0743L131.355 17.6969L131.962 18.3298L132.113 18.4882L132.259 18.649L132.551 18.9707C133.322 19.8305 134.052 20.7078 134.72 21.607C137.404 25.1995 139.227 29.0833 140.161 33.0428C140.632 35.0227 140.86 37.0233 140.879 39.0168C140.88 41.011 140.675 42.9989 140.231 44.9546C139.68 47.4337 138.773 49.8702 137.533 52.2151C136.296 54.5609 134.718 56.8127 132.844 58.928C129.099 63.1593 124.151 66.8413 118.374 69.6504C115.489 71.0563 112.348 72.28 108.998 73.2703C105.649 74.2603 102.089 75.0202 98.3917 75.5042C94.6948 75.9839 90.8616 76.1861 86.9787 76.0714C85.0375 76.0105 83.085 75.8712 81.1334 75.6519C80.8888 75.6276 80.646 75.5946 80.4022 75.5643C80.1585 75.5337 79.9143 75.503 79.6702 75.4724C79.4269 75.4373 79.1836 75.4023 78.9399 75.3673C78.6966 75.3322 78.452 75.2992 78.2096 75.2578C77.724 75.179 77.2361 75.1042 76.7522 75.0134C76.5099 74.9692 76.2666 74.9274 76.0247 74.8816C75.7832 74.8339 75.5413 74.7861 75.2994 74.7383C75.1351 74.7041 74.978 74.6747 74.8309 74.642C74.6838 74.6094 74.5447 74.5787 74.4139 74.5497C74.1521 74.4927 73.9232 74.4426 73.7269 74.4C73.337 74.3081 73.0761 74.2491 72.9443 74.2225C72.6812 74.1687 72.5584 74.1389 72.5634 74.1281C72.8315 74.1719 73.258 74.2567 73.8456 74.3773C74.1408 74.4338 74.4761 74.4995 74.8521 74.5747C75.2294 74.6448 75.6478 74.7224 76.1068 74.8076C77.1002 74.9704 78.1266 75.1356 79.1958 75.2662C79.7284 75.3398 80.274 75.3939 80.8256 75.4576C81.1018 75.4871 81.3812 75.5114 81.6619 75.5388C81.8023 75.5524 81.9431 75.5659 82.0848 75.5794C82.2265 75.5922 82.3692 75.6017 82.5118 75.6133C82.7975 75.636 83.0854 75.6583 83.3757 75.6813C83.6659 75.6989 83.9588 75.7168 84.2535 75.7351C84.5478 75.7558 84.8452 75.7673 85.1445 75.7805C85.2943 75.7872 85.4441 75.794 85.5949 75.8008L85.8215 75.8111L86.0489 75.8171C86.3527 75.8258 86.6587 75.8342 86.9665 75.843C87.2743 75.8493 87.5849 75.8501 87.8967 75.8545C88.0529 75.8557 88.2095 75.8593 88.367 75.8585C88.5241 75.8577 88.6816 75.8565 88.84 75.8553C88.998 75.8545 89.1569 75.8537 89.3162 75.8525L89.5554 75.8513L89.7955 75.8453C90.1155 75.8382 90.4382 75.8306 90.7627 75.8231C91.0868 75.8099 91.4131 75.7968 91.7417 75.7836C92.0703 75.7733 92.3997 75.7498 92.7319 75.7319C92.898 75.7223 93.0646 75.7128 93.2316 75.7028C93.3986 75.6929 93.5656 75.6786 93.7335 75.6662C93.9009 75.6535 94.0692 75.6411 94.238 75.6284C94.4068 75.6157 94.5761 75.6041 94.7454 75.587C95.0839 75.5556 95.4246 75.5237 95.7672 75.4919C96.451 75.417 97.1433 75.3442 97.8393 75.2495C99.2321 75.0663 100.649 74.8418 102.083 74.566C103.516 74.287 104.965 73.9609 106.422 73.58C109.331 72.8189 112.174 71.8676 114.885 70.716C117.598 69.5664 120.186 68.2254 122.596 66.7068C127.417 63.6724 131.524 59.9183 134.528 55.6559C136.028 53.5283 137.226 51.3155 138.111 49.0633C138.997 46.8103 139.571 44.5179 139.838 42.2287C140.105 39.9391 140.067 37.6526 139.74 35.408C139.409 33.1638 138.789 30.9621 137.921 28.8333C137.488 27.7673 136.987 26.7419 136.447 25.7547C135.905 24.7684 135.324 23.819 134.696 22.9138C134.068 22.0086 133.406 21.1437 132.719 20.3177C132.03 19.4933 131.308 18.7123 130.577 17.9672C130.39 17.7821 130.206 17.599 130.022 17.4167C129.838 17.2351 129.645 17.0596 129.459 16.8825C129.366 16.7945 129.272 16.7065 129.18 16.619C129.084 16.533 128.988 16.4474 128.893 16.3622C128.702 16.1922 128.515 16.0215 128.324 15.8551C127.936 15.5263 127.56 15.1983 127.169 14.8882C127.073 14.8098 126.976 14.7318 126.88 14.6541C126.785 14.5761 126.689 14.4993 126.591 14.4245C126.395 14.2736 126.201 14.1239 126.008 13.9755C125.96 13.9384 125.912 13.9014 125.864 13.8644C125.815 13.8282 125.766 13.7924 125.717 13.7561C125.619 13.6841 125.521 13.6124 125.424 13.5412C125.228 13.3995 125.04 13.2542 124.842 13.1185C124.448 12.845 124.067 12.5715 123.675 12.3156C123.48 12.1866 123.289 12.0572 123.095 11.9318C122.9 11.8081 122.706 11.6851 122.514 11.5632C122.418 11.5023 122.323 11.4418 122.228 11.3817C122.131 11.3228 122.034 11.2643 121.938 11.2058C121.745 11.0896 121.554 10.9741 121.365 10.8599C118.539 9.17968 115.447 7.70887 112.167 6.46972C110.526 5.85034 108.837 5.28988 107.107 4.79271C105.376 4.29793 103.605 3.86604 101.803 3.49982C98.199 2.76939 94.4709 2.29809 90.695 2.12454C86.9205 1.9486 83.1008 2.05886 79.3226 2.4597C75.5472 2.85975 71.9252 3.53724 68.5185 4.43605C65.1113 5.33526 61.9212 6.45857 58.9898 7.75027C56.0574 9.04156 53.3828 10.5004 50.9798 12.0672C48.5765 13.6347 46.4385 15.3074 44.5758 17.0429C43.683 17.8728 42.8395 18.7167 42.0311 19.592C41.239 20.4614 40.9317 20.8204 41.0495 20.6266C41.0427 20.6238 41.0666 20.5852 41.1212 20.51C41.1772 20.4355 41.258 20.3225 41.3808 20.1776C41.5026 20.0323 41.6552 19.8508 41.8384 19.6326C41.9296 19.5232 42.0334 19.4065 42.1462 19.282C42.2591 19.157 42.38 19.0232 42.5091 18.8803Z" fill="#0B4251"/>
<path d="M143.365 39.2041C143.367 39.0777 143.368 38.9513 143.363 38.8243L143.349 38.2714L143.341 37.9956L143.323 37.7189C143.162 34.7669 142.53 31.795 141.4 28.888C141.4 28.888 141.379 28.8361 141.339 28.735C141.306 28.6529 141.261 28.5385 141.203 28.3932C141.156 28.2675 141.091 28.1203 141.017 27.9506C140.995 27.9012 140.973 27.8498 140.95 27.7966C140.921 27.7305 140.891 27.6615 140.86 27.5897C140.78 27.4055 140.693 27.2028 140.586 26.9849C140.543 26.897 140.5 26.8059 140.456 26.712C140.347 26.4826 140.23 26.2362 140.092 25.9766C139.998 25.7935 139.899 25.6025 139.796 25.4034C139.731 25.2831 139.662 25.1604 139.592 25.035C139.547 24.9543 139.502 24.8724 139.456 24.7892C139.424 24.7335 139.393 24.6773 139.361 24.6205C139.333 24.5694 139.304 24.5179 139.275 24.466C139.21 24.3566 139.144 24.2463 139.078 24.1344C139.033 24.06 138.988 23.9847 138.943 23.9087C138.852 23.7553 138.759 23.599 138.659 23.4414C138.508 23.2054 138.352 22.963 138.193 22.7138C138.088 22.5538 137.977 22.3924 137.863 22.2282C137.801 22.1383 137.739 22.0476 137.677 21.9559C136.241 19.8943 134.26 17.5175 131.597 15.1129C130.263 13.9143 128.765 12.705 127.1 11.5292C125.429 10.3573 123.603 9.20852 121.613 8.13655C121.22 7.91974 120.815 7.71129 120.407 7.5019C120.304 7.44872 120.2 7.39548 120.097 7.34203C119.928 7.25592 119.756 7.17188 119.584 7.08763C119.495 7.04415 119.406 7.00062 119.317 6.95672C119.249 6.92363 119.181 6.89054 119.113 6.85734C119.05 6.82664 118.987 6.79583 118.924 6.76485C118.791 6.70275 118.658 6.64065 118.525 6.57776C117.463 6.07422 116.357 5.60213 115.228 5.14397C114.944 5.03211 114.659 4.91946 114.374 4.80681C114.174 4.72958 113.972 4.65431 113.769 4.57893C113.682 4.54669 113.595 4.51443 113.509 4.48199C113.472 4.46832 113.436 4.45457 113.399 4.44081C113.291 4.40011 113.182 4.35936 113.073 4.32039L112.632 4.16515C112.548 4.13544 112.463 4.10544 112.378 4.07541C112.169 4.0012 111.959 3.92682 111.747 3.85626C110.56 3.45302 109.342 3.08322 108.11 2.73453C106.874 2.39061 105.616 2.07973 104.347 1.79313C103.074 1.5129 101.787 1.2649 100.493 1.04439C99.195 0.832214 97.8902 0.646727 96.5836 0.495862C96.3499 0.468903 96.1164 0.444969 95.8831 0.421044C95.7892 0.411414 95.6953 0.401793 95.6014 0.391972L95.1113 0.341416L94.6207 0.298832C94.5065 0.289384 94.3923 0.279508 94.2782 0.269632C94.0652 0.251201 93.8524 0.232779 93.6399 0.217227C93.4719 0.205993 93.304 0.194441 93.1361 0.182897C92.977 0.171946 92.818 0.161013 92.6591 0.150354C87.4331 -0.17645 82.2765 0.0424728 77.5727 0.680957C75.2171 0.992236 72.9767 1.4094 70.8752 1.88786C68.7724 2.36633 66.8096 2.91087 65.0101 3.48805C62.5146 4.2973 60.1009 5.23472 57.8004 6.29793C57.8004 6.29793 57.1067 6.60881 55.9043 7.21466C54.7033 7.8197 53.0049 8.73244 51.0569 9.96721C50.0879 10.5886 49.0552 11.2884 47.9977 12.0705C46.9434 12.8543 45.8661 13.7209 44.7995 14.6655C42.6647 16.5531 40.5822 18.7627 38.7967 21.2039C37.004 23.642 35.525 26.3146 34.4774 29.0564C33.9525 30.4265 33.5345 31.8137 33.2267 33.1954C32.9212 34.5766 32.7262 35.9511 32.6341 37.2958C32.4473 39.9862 32.6824 42.5525 33.1753 44.8314C33.4244 45.9714 33.7368 47.0402 34.0766 48.0238C34.1129 48.1243 34.149 48.2241 34.1849 48.3232C34.2364 48.4657 34.2874 48.6066 34.3375 48.7459C34.3583 48.7979 34.3791 48.8496 34.3998 48.9012C34.4722 49.0814 34.5433 49.2587 34.6128 49.4333C34.6308 49.4771 34.6489 49.5208 34.6669 49.5642C34.6947 49.6315 34.7224 49.6983 34.7496 49.7649C34.7679 49.806 34.7862 49.8471 34.8045 49.888C34.8343 49.9548 34.864 50.0211 34.8931 50.0865C34.9444 50.2004 34.9954 50.3129 35.0458 50.4239C35.0889 50.5189 35.1315 50.6128 35.1734 50.7055L34.8082 49.7517L34.6967 49.4317C34.6232 49.2315 34.5406 49.007 34.449 48.7598C34.365 48.5114 34.2729 48.2387 34.1741 47.9454C33.0191 44.3358 32.5538 40.446 32.9984 36.4435C33.0033 36.3994 33.0079 36.3553 33.0125 36.3112C33.0209 36.2303 33.0294 36.1494 33.0399 36.0686C33.057 35.9428 33.0742 35.8178 33.0927 35.692C33.1033 35.6194 33.1133 35.5465 33.1233 35.4735C33.1477 35.2957 33.1722 35.1171 33.2064 34.9393C33.2498 34.6877 33.2944 34.4365 33.3396 34.1842C33.3651 34.0648 33.3903 33.9452 33.4157 33.8255C33.4437 33.6929 33.4718 33.5601 33.5002 33.4271C33.7277 32.418 34.0103 31.4053 34.351 30.3931C34.6967 29.3812 35.1043 28.3713 35.5696 27.3639C35.6283 27.2381 35.687 27.1123 35.7466 26.9865C35.8052 26.8607 35.8648 26.7341 35.9289 26.6091C35.9963 26.4774 36.0636 26.3453 36.1311 26.2129C36.1914 26.0946 36.2518 25.976 36.3125 25.8572C36.3962 25.7036 36.4803 25.5495 36.5647 25.395C36.6169 25.2994 36.6692 25.2036 36.7215 25.1077C36.81 24.9469 36.904 24.7876 36.9982 24.6279C37.0504 24.5393 37.1028 24.4505 37.1543 24.3613C37.746 23.3702 38.3937 22.3929 39.0987 21.4328C39.8014 20.4715 40.5723 19.5333 41.391 18.6134C42.2107 17.6947 43.0849 16.7967 44.0115 15.9229C44.9431 15.0516 45.9261 14.2057 46.9596 13.3877C47.9932 12.5701 49.0737 11.7776 50.2084 11.0221C51.3417 10.267 52.5224 9.54249 53.7464 8.85345C56.1918 7.4718 58.8258 6.24459 61.5925 5.17342C62.9754 4.63604 64.3958 4.14803 65.8392 3.70141C67.2839 3.25559 68.7539 2.85037 70.2456 2.49212C73.2317 1.78477 76.2945 1.23943 79.4065 0.899889C80.9618 0.728324 82.5257 0.600955 84.0954 0.523331C85.6656 0.449288 87.239 0.421427 88.8097 0.440933C91.9542 0.475964 95.0892 0.715988 98.1696 1.13753C103.524 1.87075 108.645 3.16722 113.303 4.90234C116.337 6.03083 119.188 7.34681 121.82 8.81524C124.45 10.2841 126.855 11.9081 129.015 13.6441C129.768 14.2439 130.479 14.8677 131.177 15.4958C131.86 16.1327 132.533 16.7736 133.159 17.4359C133.797 18.0923 134.389 18.769 134.968 19.4493C135.531 20.136 136.083 20.8258 136.585 21.5331C136.624 21.5876 136.663 21.642 136.703 21.6963C136.791 21.8178 136.879 21.9392 136.963 22.0622L137.505 22.8638L138.018 23.6739C138.096 23.7983 138.17 23.9245 138.244 24.0505C138.277 24.1063 138.31 24.1621 138.343 24.2176C138.382 24.2853 138.422 24.3524 138.462 24.4195C138.53 24.534 138.599 24.6482 138.661 24.7642L138.963 25.3135C138.983 25.3516 139.004 25.3894 139.025 25.4272C139.055 25.4809 139.084 25.5345 139.112 25.5885L139.254 25.8656C140.011 27.3416 140.646 28.8434 141.148 30.3612C141.647 31.8798 142.017 33.4131 142.258 34.9516C142.285 35.1007 142.304 35.2507 142.323 35.4001C142.328 35.4431 142.334 35.486 142.339 35.5288L142.414 36.106L142.468 36.6844C142.473 36.7381 142.478 36.7919 142.483 36.8457C142.497 36.9841 142.511 37.1228 142.516 37.2615C142.522 37.3572 142.527 37.4527 142.533 37.5483C142.55 37.8377 142.567 38.1268 142.569 38.4159L142.582 38.9927L142.575 39.5691C142.576 39.856 142.561 40.1429 142.546 40.4295C142.541 40.5262 142.537 40.6228 142.532 40.7195C142.528 40.8577 142.516 40.9959 142.504 41.1341C142.5 41.187 142.495 41.2398 142.491 41.2927L142.443 41.8659C142.357 42.6285 142.257 43.3884 142.11 44.1431C141.825 45.6538 141.421 47.1469 140.884 48.6093L140.682 49.1582C140.639 49.2713 140.593 49.3841 140.547 49.4969C140.519 49.5655 140.491 49.6341 140.464 49.7028C140.345 50.007 140.211 50.3083 140.078 50.6087C140.052 50.6671 140.026 50.7255 140 50.7839C139.931 50.946 139.853 51.1056 139.776 51.2655L139.75 51.3193L139.495 51.8535L139.222 52.3817C139.199 52.4244 139.177 52.4672 139.155 52.5099C139.086 52.6429 139.017 52.7759 138.941 52.9075C138.176 54.3035 137.308 55.6641 136.333 56.9769C135.355 58.2885 134.278 59.5547 133.111 60.7687C131.941 61.9812 130.675 63.1392 129.332 64.2398C127.991 65.3412 126.56 66.3782 125.062 67.3522C125.001 67.3917 124.94 67.4315 124.879 67.4712C124.753 67.5533 124.627 67.6355 124.499 67.7156L123.925 68.0707C123.661 68.2375 123.389 68.397 123.117 68.5563C122.999 68.6254 122.881 68.6945 122.764 68.7641C122.632 68.8439 122.496 68.9195 122.359 68.9952C122.296 69.0301 122.233 69.0651 122.171 69.1005L121.577 69.4336L120.972 69.7553C120.908 69.789 120.844 69.8232 120.78 69.8574C120.643 69.9308 120.506 70.0042 120.365 70.0737C117.101 71.7467 113.607 73.1495 109.964 74.2354C106.325 75.3249 102.558 76.1134 98.7631 76.605C94.9655 77.0926 91.1386 77.2785 87.3722 77.175C83.6039 77.0755 79.898 76.6763 76.331 76.0203C72.7654 75.3647 69.3353 74.4535 66.1113 73.3119C59.6608 71.033 54.0394 67.8944 49.5711 64.2163C46.6875 61.8491 44.2827 59.2657 42.3673 56.5549C42.3673 56.5549 42.3673 56.5541 42.3659 56.5541C42.3488 56.5354 42.3325 56.5155 42.3176 56.4944C42.2946 56.4749 42.2729 56.4534 42.2558 56.4307C42.2455 56.4239 42.2358 56.4166 42.2265 56.4089C41.0059 54.7156 39.3484 53.1151 36.9029 53.306C33.7805 53.55 32.2441 56.3316 31.865 58.759C31.7165 59.71 31.6939 60.6955 31.6712 61.6844C31.6227 63.7971 31.5739 65.9251 30.2962 67.7654C28.4439 70.434 24.4518 71.1553 21.3944 69.7203C19.0921 68.6397 17.95 66.6901 16.8077 64.7404C16.3119 63.8942 15.8161 63.0479 15.2255 62.2726C15.1916 62.2285 15.0034 62.2356 15.0305 62.2714C15.6212 63.0465 16.1086 63.8921 16.5965 64.7386C17.4744 66.2619 18.354 67.788 19.84 68.9102C21.9012 70.467 24.848 71.0068 27.3873 70.0952C28.7435 69.6084 29.8949 68.7422 30.6134 67.6134C31.3875 66.3981 31.6772 64.9977 31.7874 63.622C31.8364 63.0087 31.8509 62.3703 31.8657 61.7225C31.9205 59.3114 31.9783 56.7697 33.8297 54.9006C35.1918 53.5257 37.3131 52.9199 39.2146 53.8159C40.2687 54.3126 41.0501 55.0832 41.7071 55.9403C41.7036 55.9374 41.7001 55.9344 41.6966 55.9312C42.0239 56.4401 42.3696 56.9465 42.7337 57.4508C42.7826 57.5284 42.8312 57.6059 42.8795 57.6831C42.8861 57.6935 42.9012 57.7014 42.9204 57.7069C42.9249 57.7131 42.9295 57.7194 42.9342 57.7256C42.9445 57.7379 42.9563 57.7511 42.9666 57.7642C42.9699 57.7687 42.9719 57.7729 42.9741 57.7773C42.975 57.7791 42.976 57.781 42.977 57.7829C43.9587 59.1104 45.0703 60.4193 46.3224 61.6946C47.1262 62.5146 47.991 63.3179 48.9049 64.1061C49.8216 64.893 50.787 65.6656 51.8161 66.41C53.8706 67.9011 56.1422 69.3055 58.6205 70.5848C63.5861 73.1407 69.3696 75.1736 75.7136 76.4092C78.8843 77.0266 82.1917 77.4429 85.5826 77.6264C88.974 77.8119 92.4493 77.7646 95.9413 77.464C99.4301 77.1643 102.921 76.6142 106.344 75.8113C109.766 75.0088 113.118 73.9488 116.317 72.6344C122.723 70.0132 128.496 66.3439 133.046 61.8694C135.312 59.6331 137.275 57.1982 138.859 54.61C139.648 53.3147 140.342 51.9817 140.936 50.6179C141.529 49.2538 142.027 47.859 142.403 46.4399C142.781 45.0208 143.053 43.5787 143.21 42.1222L143.24 41.8487L143.305 41.0271C143.324 40.7492 143.335 40.4709 143.347 40.1921C143.351 40.1039 143.354 40.0156 143.358 39.9273L143.364 39.3764C143.364 39.319 143.365 39.2615 143.365 39.2041Z" fill="#0B4251"/>
</svg>
