<svg width="72" height="82" viewBox="0 0 72 82" fill="none" xmlns="http://www.w3.org/2000/svg">
<path d="M71.9965 37.4828L58.6862 29.7985L56.1602 31.2569L56.1579 7.68324L42.8452 0.00012207L17.4399 14.6767V19.4866L13.3114 17.1189L0 24.8031V54.1433L25.4065 68.8022L33.2785 64.2579V73.8058L46.5982 81.4841L46.6006 81.4818L46.603 81.4841L72 66.8111L71.9965 37.4828ZM58.6909 32.6079L68.3557 38.1866L58.7004 43.8173L51.59 39.6781L56.1638 37.0435V34.0675L58.6909 32.6079ZM38.7238 55.2935V45.7422L26.6287 38.7653V35.3465L42.8523 44.7065L45.3807 43.2516V51.4484L38.7238 55.2935ZM24.196 27.6114V38.7582L14.5325 44.3404V33.1913L24.196 27.6114ZM33.2065 36.3184L41.6372 31.453V41.1968L33.1982 36.3243L33.2089 36.3184H33.2065ZM47.8111 41.851L49.1585 41.0763L57.4758 45.9193V57.0319L47.8111 51.4508V41.851ZM53.7322 35.4717V35.6193L44.0675 41.198V27.2406L31.9724 34.2234V23.066L53.7322 10.4938V35.4717ZM42.7756 2.85088L52.5159 8.38825L30.7797 20.9344L21.0914 15.3805L42.7756 2.85088ZM19.8762 17.4861L29.5397 23.0672V34.2234L26.6276 32.5429V24.7547L19.8762 20.8825V17.4861ZM13.3161 19.9271L22.8368 25.5778L13.3067 31.0798L3.65261 25.5058L13.3161 19.9271ZM24.196 65.2889L2.43625 52.738V27.6114L12.0998 33.1913V47.1971L24.196 54.1315V65.2889ZM15.7571 46.4507L25.4207 40.872L35.0759 46.446L25.4112 52.0259L15.7571 46.4507ZM26.6276 65.2889V54.1433L36.2911 48.5622V56.6988L33.2821 58.436V61.4509L26.6276 65.2889ZM45.3795 77.9803L35.7136 72.4004V61.2419L45.0867 66.6529L45.3795 66.8241V77.9803ZM36.9312 59.1351L46.5959 53.5564L56.2417 59.1245L56.2323 59.1292L56.2417 59.1351L46.6809 64.6559L36.9312 59.1351ZM69.5708 65.4188L47.8111 77.9803V66.8654L59.9038 59.8495L59.9061 45.917L69.5708 40.2934V65.4188Z" fill="#FFB200"/>
</svg>
