<svg width="71" height="78" viewBox="0 0 71 78" fill="none" xmlns="http://www.w3.org/2000/svg">
<path d="M12.7499 34.1508C12.759 37.6758 13.5913 41.15 15.1806 44.2964C16.7698 47.4429 19.072 50.1746 21.9037 52.274C23.4053 53.3894 24.517 54.9499 25.0807 56.7335C24.5759 56.9872 24.1517 57.3764 23.8556 57.8576C23.5595 58.3387 23.4032 58.8929 23.4042 59.4578V61.9726C23.4066 62.6161 23.6152 63.2419 23.9994 63.7581C23.6152 64.2743 23.4066 64.9001 23.4042 65.5436V68.0584C23.408 68.844 23.7155 69.5976 24.2624 70.1617C24.8092 70.7257 25.553 71.0564 26.3381 71.0845L29.2301 77.2792C29.3336 77.494 29.4954 77.6755 29.6969 77.8029C29.8984 77.9303 30.1317 77.9987 30.3701 78.0001H40.1777C40.4162 77.9987 40.6494 77.9303 40.851 77.8029C41.0525 77.6755 41.2142 77.494 41.3178 77.2792L44.2098 71.0845C44.9949 71.0564 45.7387 70.7257 46.2855 70.1617C46.8323 69.5976 47.1399 68.844 47.1437 68.0584V65.5436C47.1413 64.9001 46.9327 64.2743 46.5485 63.7581C46.9327 63.2419 47.1413 62.6161 47.1437 61.9726V59.4578C47.1411 58.8873 46.9777 58.3291 46.6722 57.8472C46.3668 57.3654 45.9317 56.9793 45.4169 56.7335C45.9548 54.9733 47.0452 53.4331 48.5268 52.341C51.6392 50.0727 54.1177 47.044 55.7254 43.5443C57.3332 40.0447 58.0164 36.1912 57.7097 32.3522C57.403 28.5132 56.1168 24.817 53.9739 21.617C51.831 18.417 48.9031 15.8201 45.4701 14.0746C42.0371 12.3292 38.2137 11.4935 34.3655 11.6474C30.5174 11.8014 26.773 12.9398 23.4904 14.9539C20.2078 16.968 17.4967 19.7905 15.6163 23.1514C13.7358 26.5124 12.7489 30.2995 12.7499 34.1508ZM44.6038 61.9726C44.6038 62.1127 44.5481 62.247 44.4491 62.346C44.35 62.4451 44.2157 62.5007 44.0757 62.5007H26.4135C26.2735 62.5007 26.1392 62.4451 26.0401 62.346C25.9411 62.247 25.8854 62.1127 25.8854 61.9726V59.4578C25.8854 59.3178 25.9411 59.1834 26.0401 59.0844C26.1392 58.9854 26.2735 58.9297 26.4135 58.9297H44.1008C44.2409 58.9297 44.3752 58.9854 44.4742 59.0844C44.5733 59.1834 44.6289 59.3178 44.6289 59.4578L44.6038 61.9726ZM39.373 75.4853H31.1413L29.0876 71.0929H41.4268L39.373 75.4853ZM27.1093 68.5781H26.4135C26.2749 68.5781 26.1418 68.5236 26.043 68.4264C25.9442 68.3292 25.8876 68.197 25.8854 68.0584V65.5436C25.8854 65.4035 25.9411 65.2692 26.0401 65.1702C26.1392 65.0711 26.2735 65.0155 26.4135 65.0155H44.1008C44.2409 65.0155 44.3752 65.0711 44.4742 65.1702C44.5733 65.2692 44.6289 65.4035 44.6289 65.5436V68.0584C44.6267 68.197 44.5701 68.3292 44.4713 68.4264C44.3725 68.5236 44.2394 68.5781 44.1008 68.5781H27.1093ZM21.5684 19.5819C23.5564 17.6987 25.9132 16.2482 28.49 15.3219C31.0669 14.3957 33.8078 14.0137 36.5397 14.2002C40.6409 14.463 44.5615 15.9832 47.7678 18.5539C50.9741 21.1247 53.3102 24.6211 54.4582 28.5671C55.6062 32.5131 55.5102 36.717 54.1834 40.6066C52.8565 44.4961 50.3633 47.8823 47.0431 50.304C44.9891 51.8026 43.51 53.9591 42.8518 56.415H27.6123C26.9477 53.9483 25.4711 51.7777 23.421 50.2537C20.9058 48.3877 18.861 45.9603 17.4494 43.1647C16.0377 40.3691 15.2983 37.2826 15.2898 34.1508C15.2749 31.4207 15.825 28.717 16.9055 26.2097C17.986 23.7025 19.5736 21.4459 21.5684 19.5819ZM7.59463 34.6621H1.25739C0.923908 34.6621 0.604087 34.5297 0.368281 34.2938C0.132475 34.058 0 33.7382 0 33.4047C0 33.0713 0.132475 32.7514 0.368281 32.5156C0.604087 32.2798 0.923908 32.1474 1.25739 32.1474H7.59463C7.92811 32.1474 8.24793 32.2798 8.48373 32.5156C8.71954 32.7514 8.85201 33.0713 8.85201 33.4047C8.85201 33.7382 8.71954 34.058 8.48373 34.2938C8.24793 34.5297 7.92811 34.6621 7.59463 34.6621ZM69.2234 34.6621H62.9197C62.5862 34.6621 62.2664 34.5297 62.0306 34.2938C61.7948 34.058 61.6623 33.7382 61.6623 33.4047C61.6623 33.0713 61.7948 32.7514 62.0306 32.5156C62.2664 32.2798 62.5862 32.1474 62.9197 32.1474H69.2905C69.624 32.1474 69.9438 32.2798 70.1796 32.5156C70.4154 32.7514 70.5479 33.0713 70.5479 33.4047C70.5479 33.7382 70.4154 34.058 70.1796 34.2938C69.9438 34.5297 69.624 34.6621 69.2905 34.6621H69.2234ZM16.6143 12.9931C16.8477 13.23 16.9786 13.5492 16.9786 13.8817C16.9786 14.2142 16.8477 14.5334 16.6143 14.7702C16.3771 15.0062 16.0561 15.1387 15.7215 15.1387C15.387 15.1387 15.066 15.0062 14.8288 14.7702L10.3273 10.2604C10.1052 10.0221 9.98433 9.70679 9.99008 9.38104C9.99582 9.05529 10.1278 8.74449 10.3582 8.51411C10.5885 8.28374 10.8993 8.15178 11.2251 8.14603C11.5508 8.14028 11.8661 8.2612 12.1045 8.4833L16.6143 12.9931ZM60.2038 56.5826C60.3794 56.7584 60.499 56.9824 60.5474 57.2262C60.5958 57.4699 60.5709 57.7226 60.4758 57.9522C60.3808 58.1818 60.2198 58.3781 60.0132 58.5163C59.8066 58.6545 59.5637 58.7283 59.3152 58.7285C58.9824 58.7256 58.6637 58.5933 58.4266 58.3597L53.9168 53.8499C53.6812 53.6131 53.5492 53.2924 53.55 52.9584C53.5508 52.6243 53.6842 52.3042 53.921 52.0686C54.1578 51.8329 54.4785 51.701 54.8125 51.7018C55.1466 51.7025 55.4666 51.836 55.7023 52.0728L60.2038 56.5826ZM10.3273 56.5826L14.8288 52.0728C15.0645 51.836 15.3845 51.7025 15.7186 51.7018C16.0526 51.701 16.3733 51.8329 16.6101 52.0686C16.8469 52.3042 16.9803 52.6243 16.9811 52.9584C16.9819 53.2924 16.85 53.6131 16.6143 53.8499L12.1045 58.3429C11.8674 58.5765 11.5487 58.7088 11.2159 58.7118C10.9708 58.7084 10.732 58.6334 10.5289 58.4961C10.3258 58.3587 10.1673 58.165 10.0729 57.9388C9.97852 57.7125 9.9523 57.4636 9.9975 57.2227C10.0427 56.9817 10.1574 56.7592 10.3273 56.5826ZM60.187 10.252L55.6855 14.7619C55.4484 14.9978 55.1274 15.1303 54.7928 15.1303C54.4582 15.1303 54.1372 14.9978 53.9 14.7619C53.6666 14.525 53.5357 14.2058 53.5357 13.8733C53.5357 13.5408 53.6666 13.2216 53.9 12.9848L58.4099 8.47492C58.525 8.35138 58.6638 8.2523 58.8181 8.18357C58.9723 8.11485 59.1388 8.0779 59.3076 8.07492C59.4764 8.07194 59.6441 8.10299 59.8007 8.16623C59.9573 8.22948 60.0995 8.3236 60.2189 8.443C60.3383 8.5624 60.4324 8.70463 60.4957 8.86119C60.5589 9.01776 60.59 9.18546 60.587 9.35429C60.584 9.52312 60.5471 9.68962 60.4783 9.84386C60.4096 9.9981 60.3105 10.1369 60.187 10.252ZM35.2572 8.89405C34.9237 8.89405 34.6039 8.76158 34.3681 8.52577C34.1323 8.28996 33.9998 7.97014 33.9998 7.63666V1.25751C33.9998 0.92403 34.1323 0.604209 34.3681 0.368403C34.6039 0.132597 34.9237 0.00012207 35.2572 0.00012207C35.5907 0.00012207 35.9105 0.132597 36.1463 0.368403C36.3821 0.604209 36.5146 0.92403 36.5146 1.25751V7.63666C36.5146 7.97014 36.3821 8.28996 36.1463 8.52577C35.9105 8.76158 35.5907 8.89405 35.2572 8.89405ZM26.4135 38.2331L26.7572 45.3835C26.7656 45.5718 26.8167 45.7557 26.9068 45.9213C26.9968 46.0868 27.1234 46.2297 27.2769 46.3391C27.4284 46.4493 27.6025 46.5245 27.7866 46.5593C27.9707 46.5941 28.1603 46.5876 28.3415 46.5403L35.2572 44.629L42.1728 46.5235C42.2814 46.5357 42.3911 46.5357 42.4997 46.5235C42.8227 46.5218 43.1328 46.3967 43.3665 46.1739C43.6003 45.9511 43.74 45.6473 43.7571 45.3248L44.1008 38.1744L48.0239 32.1809C48.1295 32.024 48.1981 31.8451 48.2246 31.6578C48.251 31.4704 48.2345 31.2796 48.1764 31.0995C48.1183 30.9195 48.02 30.755 47.889 30.6185C47.7581 30.482 47.5978 30.3771 47.4203 30.3116L40.7142 27.7968L36.2379 22.214C36.116 22.0736 35.9653 21.9611 35.7961 21.8839C35.6269 21.8068 35.4431 21.7669 35.2572 21.7669C35.0712 21.7669 34.8874 21.8068 34.7182 21.8839C34.549 21.9611 34.3984 22.0736 34.2764 22.214L29.7917 27.7968L23.0856 30.3116C22.9082 30.3771 22.7479 30.482 22.6169 30.6185C22.4859 30.755 22.3877 30.9195 22.3296 31.0995C22.2714 31.2796 22.255 31.4704 22.2814 31.6578C22.3078 31.8451 22.3764 32.024 22.4821 32.1809L26.4135 38.2331ZM30.9988 30.0601C31.2096 29.9832 31.3952 29.8498 31.5353 29.6745L35.2572 25.0138L38.979 29.6493C39.1191 29.8246 39.3047 29.958 39.5155 30.0349L45.0648 32.139L41.8124 37.1098C41.6886 37.2968 41.619 37.5144 41.6112 37.7385L41.3178 43.6734L35.5841 42.1143C35.3697 42.0585 35.1446 42.0585 34.9303 42.1143L29.1966 43.6734L28.9032 37.7385C28.8954 37.5144 28.8258 37.2968 28.702 37.1098L25.4495 32.139L30.9988 30.0601ZM48.6023 26.5562C48.4663 26.2685 48.4436 25.9402 48.5388 25.6366C48.634 25.333 48.84 25.0763 49.1159 24.9178C49.3918 24.7592 49.7172 24.7104 50.0275 24.781C50.3377 24.8516 50.61 25.0365 50.7901 25.2988C52.5291 28.344 53.3347 31.8333 53.1066 35.3327C52.8786 38.8321 51.6271 42.1873 49.5076 44.9811C49.39 45.1341 49.239 45.2582 49.0661 45.344C48.8932 45.4297 48.703 45.4747 48.51 45.4757C48.2338 45.477 47.9652 45.3855 47.7472 45.2158C47.483 45.0132 47.31 44.7142 47.266 44.3842C47.222 44.0542 47.3106 43.7202 47.5125 43.4555C49.5302 40.7714 50.6295 37.5087 50.6476 34.1508C50.6332 32.1929 50.2463 30.2555 49.5076 28.4422C49.2433 27.7838 48.9324 27.1451 48.5771 26.531L48.6023 26.5562ZM41.5022 18.7268C41.5745 18.579 41.6754 18.447 41.7989 18.3383C41.9224 18.2296 42.0662 18.1463 42.222 18.0934C42.3778 18.0404 42.5425 18.0187 42.7067 18.0296C42.8709 18.0405 43.0313 18.0837 43.1787 18.1568C44.3747 18.7483 45.4997 19.4739 46.5318 20.3195C46.7387 20.4851 46.8881 20.7119 46.9585 20.9674C47.0289 21.2229 47.0168 21.4942 46.9238 21.7424C46.8308 21.9906 46.6618 22.2031 46.4408 22.3495C46.2199 22.496 45.9583 22.5688 45.6935 22.5577C45.4054 22.5591 45.1261 22.4581 44.9055 22.2727C44.013 21.5436 43.0398 20.9192 42.0052 20.4117C41.8566 20.3358 41.7248 20.2309 41.6175 20.1032C41.5101 19.9755 41.4295 19.8275 41.3802 19.6681C41.331 19.5087 41.3142 19.3411 41.3309 19.1751C41.3475 19.0091 41.3972 18.8481 41.4771 18.7017L41.5022 18.7268Z" fill="#FFB200"/>
</svg>
