<svg width="175" height="107" viewBox="0 0 175 107" fill="none" xmlns="http://www.w3.org/2000/svg">
<path d="M112.048 59.0016C111.75 61.1568 111.29 63.3121 110.666 65.4673C110.043 67.6226 109.493 69.5392 109.018 71.215C108.78 71.838 108.602 72.1252 108.483 72.0772C108.364 72.0772 108.289 71.9691 108.26 71.7534C108.23 71.5382 108.185 71.3111 108.127 71.0714C107.65 67.8628 107.71 64.6537 108.305 61.4441C108.898 58.236 109.552 54.9548 110.265 51.6016C110.74 49.59 111.126 47.5188 111.424 45.3876C111.721 43.2569 111.721 40.969 111.424 38.5265C111.424 38.3354 111.483 38.1918 111.602 38.0952C111.721 38.0952 111.794 38.1558 111.825 38.2748C111.854 38.3949 111.928 38.479 112.048 38.5265C112.939 39.5804 113.458 41.0296 113.607 42.8731C113.755 44.717 113.741 46.6446 113.562 48.6562C113.384 50.6679 113.131 52.6074 112.805 54.4754C112.478 56.3434 112.226 57.8522 112.048 59.0016ZM107.413 73.1545C107.77 73.9698 108.171 74.7113 108.617 75.3819C109.062 76.0529 109.522 76.7235 109.998 77.3935C110.056 77.4415 110.116 77.5256 110.176 77.6447C110.235 77.7648 110.205 77.8243 110.087 77.8243C109.909 77.8243 109.775 77.8008 109.686 77.7522C109.597 77.7053 109.493 77.6572 109.374 77.6086C109.255 77.5617 109.165 77.5136 109.107 77.465C108.274 76.9386 107.592 76.4357 107.057 75.9563C106.522 75.4785 105.988 74.6163 105.453 73.3702C105.275 72.8919 105.097 72.2923 104.919 71.5743C104.74 70.8557 104.62 70.1617 104.562 69.4906C104.502 68.8206 104.502 68.2456 104.562 67.7662C104.62 67.2884 104.769 67.0481 105.008 67.0481C105.066 67.0481 105.155 67.1557 105.275 67.3714C105.393 67.5871 105.497 67.8273 105.587 68.0894C105.676 68.3537 105.765 68.6174 105.854 68.8801C105.943 69.1438 106.017 69.3235 106.077 69.419C106.373 70.0901 106.612 70.7367 106.79 71.3586C106.968 71.9816 107.175 72.5801 107.413 73.1545ZM104.294 30.6236C104.235 29.7614 104.13 28.9478 103.983 28.1812C103.834 27.4156 103.611 26.6249 103.314 25.8102C103.254 25.7147 103.21 25.5945 103.18 25.4509C103.15 25.3073 103.195 25.2604 103.314 25.3073C103.433 25.404 103.537 25.4755 103.626 25.523C103.715 25.5711 103.818 25.6191 103.938 25.6666L104.116 25.8102C104.769 26.4813 105.289 27.1278 105.676 27.7498C106.061 28.3728 106.284 29.4021 106.344 30.8393C106.344 31.3668 106.269 32.0368 106.121 32.8509C105.972 33.6656 105.794 34.4438 105.587 35.1858C105.378 35.929 105.141 36.5509 104.874 37.0538C104.606 37.5568 104.353 37.761 104.116 37.6643C103.997 37.6168 103.938 37.4612 103.938 37.1975V36.3353C103.938 36.024 103.967 35.7242 104.027 35.437C104.086 35.1498 104.116 34.9341 104.116 34.7905C104.235 34.0249 104.309 33.3063 104.339 32.6353C104.368 31.9653 104.353 31.2947 104.294 30.6236ZM86.2039 54.3318C87.51 52.2732 88.862 50.2725 90.2588 48.333C91.654 46.3934 92.7679 44.8486 93.6006 43.6992C95.0263 41.6401 96.5105 39.6164 98.0564 37.6283C99.6006 35.6412 100.937 33.8813 102.067 32.348C102.185 32.1089 102.319 31.8932 102.468 31.7015C102.615 31.5104 102.749 31.4623 102.869 31.5574C102.987 31.5574 103.016 31.6775 102.958 31.9167C102.898 32.1569 102.838 32.3961 102.78 32.6353C101.947 36.0835 100.447 39.3412 98.2791 42.4056C96.1097 45.4717 93.8371 48.5607 91.4618 51.6737C90.629 52.7275 89.9022 53.6023 89.2781 54.2958C88.6545 54.9909 88.12 55.6609 87.6744 56.3074C87.2288 56.9539 86.8569 57.6611 86.5604 58.4266C86.2623 59.1938 86.0548 60.1756 85.9363 61.3725C86.1733 60.8461 86.4403 60.3432 86.7385 59.8638C87.035 59.3855 87.3315 58.9295 87.6296 58.4987C89.2923 56.1998 91.1636 53.901 93.244 51.6016C95.3228 49.3027 97.3727 47.1475 99.3931 45.1359C99.5116 45.0403 99.7344 44.8372 100.061 44.5254C100.387 44.2141 100.61 44.0831 100.73 44.1301C100.848 44.1781 100.833 44.3938 100.685 44.7766C100.536 45.1604 100.432 45.4482 100.373 45.6388C100.076 46.1663 99.7049 46.8128 99.2593 47.5783C98.8137 48.3455 98.3376 49.1231 97.8336 49.9132C97.3279 50.7039 96.8086 51.4705 96.2741 52.2126C95.7395 52.9558 95.2633 53.5663 94.8483 54.0446C94.6103 54.3318 94.1046 54.9063 93.3331 55.7685C92.5604 56.6307 91.7293 57.7086 90.8376 59.0016C89.9465 60.2946 89.0695 61.7564 88.209 63.3842C87.3468 65.013 86.7079 66.7369 86.2929 68.5568C86.1149 68.2691 85.8921 67.9098 85.6245 67.4789C85.357 67.0481 85.0452 66.3541 84.6886 65.3958C83.6194 62.3783 83.0401 59.3249 82.9511 56.2359C82.8621 53.1463 82.8468 49.9738 82.9063 46.7161C82.9647 44.6575 82.98 42.5979 82.9511 40.5376C82.9205 38.479 82.4902 36.2992 81.6586 34.0004C81.5991 33.8092 81.5991 33.6656 81.6586 33.569C81.7771 33.569 81.9556 33.7131 82.1937 34.0004C83.2629 34.9106 84.065 36.2397 84.5996 37.9876C85.1342 39.7366 85.5202 41.5795 85.7583 43.5196C85.9947 45.4591 86.1285 47.3517 86.1591 49.1952C86.1886 51.0392 86.2039 52.5118 86.2039 53.6132V54.3318ZM84.3326 67.6226C84.9851 68.725 85.8473 69.7543 86.9165 70.7121C87.3315 68.7004 88.1336 66.7008 89.3229 64.7132C90.5105 62.7262 91.8626 60.726 93.3778 58.7144C94.8926 56.7027 96.4816 54.6911 98.1454 52.6795C99.8081 50.6679 101.354 48.6327 102.78 46.5725C103.849 45.0889 104.754 43.4835 105.497 41.7591C106.24 40.0353 106.775 38.2748 107.102 36.4789C107.428 34.6829 107.517 32.899 107.369 31.1265C107.22 29.3552 106.759 27.6783 105.988 26.0975C105.81 25.8583 105.779 25.6912 105.899 25.5945C106.017 25.499 106.21 25.5585 106.478 25.7742C106.745 25.9899 106.908 26.1455 106.968 26.2411C107.681 27.0563 108.26 28.1216 108.706 29.4382C109.151 30.7563 109.477 32.2164 109.686 33.8207C109.894 35.4261 109.998 37.1145 109.998 38.8853C109.998 40.6583 109.909 42.4308 109.731 44.2021C109.493 46.549 109.062 49.1122 108.438 51.8894C107.815 54.6676 107.057 57.2057 106.166 59.5045C106.106 59.6012 106.002 59.8163 105.854 60.151C105.705 60.4868 105.542 60.6539 105.364 60.6539C105.244 60.607 105.155 60.4027 105.097 60.0434C105.036 59.6841 105.008 59.4575 105.008 59.3609C105.008 58.8345 105.021 58.2 105.052 57.4568C105.081 56.7148 105.126 55.9481 105.186 55.158C105.244 54.3679 105.319 53.6023 105.408 52.8591C105.497 52.1171 105.601 51.4825 105.72 50.9551C105.779 50.6679 105.883 50.0099 106.032 48.9795C106.18 47.9502 106.314 46.7882 106.433 45.4952C105.72 46.8363 105.155 48.0343 104.74 49.0871C104.324 50.1415 103.967 51.1708 103.671 52.1766C103.373 53.1824 103.121 54.2363 102.913 55.3376C102.704 56.4401 102.512 57.7331 102.334 59.2173C102.156 60.702 102.081 62.2593 102.111 63.8871C102.14 65.5154 102.348 67.1196 102.735 68.7004C103.121 70.2807 103.684 71.8255 104.428 73.3342C105.17 74.8429 106.135 76.2206 107.324 77.465C107.561 77.7522 107.621 77.921 107.503 77.9679C107.383 78.0165 107.235 77.9679 107.057 77.8243C105.155 76.5793 103.656 75.1787 102.557 73.6214C101.457 72.0657 100.641 70.4249 100.106 68.7004C99.5711 66.976 99.2888 65.2161 99.2593 63.4196C99.2287 61.6237 99.333 59.8638 99.5711 58.1394C99.6896 57.5174 99.7944 56.8944 99.8834 56.2714C99.9724 55.6494 100.076 55.0029 100.195 54.3318C98.8279 56.1043 97.4617 57.8287 96.0955 59.5045C94.7282 61.1814 93.4515 62.8452 92.2639 64.4975C91.0746 66.1499 90.0207 67.7787 89.1001 69.383C88.1784 70.9884 87.4805 72.5801 87.006 74.1604L86.8275 74.5197C86.7079 74.5197 86.6495 74.4241 86.6495 74.2324V73.8731V72.7237C86.6495 72.3409 86.7079 71.9582 86.8275 71.5743C86.3513 71.3832 85.9363 71.2035 85.5797 71.0353C85.2237 70.8682 84.8808 70.6646 84.5554 70.4249C84.2277 70.1857 83.9007 69.8979 83.5747 69.5627C83.2476 69.2279 82.9063 68.7971 82.5497 68.2691C82.2521 67.7913 81.9556 67.2163 81.6586 66.5452C81.361 65.8747 81.1087 65.2161 80.9012 64.5696C80.6926 63.9226 80.5741 63.3727 80.5447 62.9167C80.5141 62.4624 80.5894 62.2347 80.7674 62.2347C80.8859 62.2347 81.0197 62.3188 81.1688 62.4859C81.3162 62.6541 81.4806 62.8572 81.6586 63.0964C81.8371 63.3366 81.9846 63.5758 82.1042 63.815C82.2227 64.0552 82.3117 64.2223 82.3717 64.3179C82.6682 64.8929 82.98 65.4564 83.3076 66.0063C83.6331 66.5572 83.976 67.0962 84.3326 67.6226ZM71.678 31.5574C71.5578 30.5515 71.3951 29.6178 71.1876 28.7556C70.9785 27.8934 70.7267 27.0077 70.4302 26.0975C70.3702 26.0019 70.3412 25.8818 70.3412 25.7382C70.3412 25.5945 70.3702 25.523 70.4302 25.523C70.6083 25.523 70.7863 25.5945 70.9648 25.7382L71.3214 26.0259C71.9745 26.744 72.509 27.4511 72.9251 28.1451C73.3401 28.8397 73.6077 29.9771 73.7273 31.5574C73.7857 32.1804 73.7857 32.947 73.7273 33.8568C73.6678 34.767 73.5629 35.6292 73.4155 36.4428C73.2664 37.2581 73.0884 37.9515 72.8809 38.5265C72.6718 39.101 72.4801 39.3647 72.3015 39.3167C72.182 39.3167 72.093 39.1851 72.034 38.9213C71.9745 38.6587 71.9297 38.3589 71.9007 38.0236C71.8702 37.6889 71.856 37.3411 71.856 36.9818V36.2271V33.8922C71.856 33.1507 71.7959 32.3726 71.678 31.5574ZM73.2817 26.2411C73.0436 25.8102 72.9841 25.5945 73.1037 25.5945C73.2817 25.5945 73.4892 25.7027 73.7273 25.9178C73.9643 26.1335 74.1133 26.2662 74.1728 26.3131C74.7664 27.0312 75.4206 27.8104 76.1337 28.648C76.8463 29.4862 77.5288 30.48 78.183 31.6294C78.8361 32.7789 79.4307 34.1079 79.9658 35.6167C80.5004 37.1254 80.9154 38.9104 81.213 40.969C81.5696 43.3164 81.6433 45.6273 81.4358 47.9016C81.2272 50.177 80.8859 52.4638 80.4114 54.7626C80.3514 54.8593 80.2913 55.0985 80.2329 55.4812C80.1728 55.8651 80.0549 56.0562 79.8763 56.0562C79.7567 56.0562 79.6382 55.8766 79.5197 55.5173C79.4001 55.158 79.3417 54.9063 79.3417 54.7626C79.2221 54.2363 79.1036 53.6132 78.9851 52.8952C78.8656 52.1766 78.7624 51.4219 78.6734 50.6318C78.5844 49.8417 78.5243 49.0761 78.4953 48.333C78.4648 47.5909 78.4506 46.9318 78.4506 46.3574C78.4506 46.1663 78.4353 45.7463 78.4063 45.0998C78.3752 44.4533 78.331 43.6992 78.2726 42.837C78.2125 41.9748 78.1082 41.0296 77.9602 39.9992C77.8117 38.9699 77.6484 37.9515 77.4704 36.9457C77.5889 38.431 77.5889 39.9162 77.4704 41.3998C77.3508 42.8851 77.2029 44.3812 77.0248 45.8905C76.8463 47.3992 76.6978 48.9074 76.5793 50.4161C76.4591 51.9248 76.4591 53.4461 76.5793 54.9783C76.7573 57.9488 77.4994 60.9657 78.8071 64.0307C80.1133 67.0962 82.1937 69.7063 85.0452 71.8615C85.4017 72.1487 85.5492 72.2923 85.4907 72.2923C85.3712 72.3409 85.1637 72.2923 84.8672 72.1487C82.7867 71.1915 81.0645 70.0415 79.6983 68.7004C78.331 67.3599 77.2171 65.8987 76.3565 64.3179C75.4943 62.7376 74.8554 61.0973 74.4404 59.3969C74.0238 57.6971 73.7857 55.9841 73.7273 54.2597C73.7273 54.1161 73.712 53.9851 73.683 53.8649C73.6525 53.7459 73.6383 53.6132 73.6383 53.4696C72.449 56.1998 71.1275 58.8345 69.6729 61.3725C68.216 63.9116 66.7903 66.3541 65.3952 68.7004C63.9984 71.0473 62.6911 73.2621 61.474 75.3458C60.2552 77.4295 59.2904 79.3565 58.5778 81.129C58.4576 81.3682 58.3686 81.4883 58.3102 81.4883C58.1906 81.4883 58.1322 81.4167 58.1322 81.2731V80.9854C58.1906 78.7335 58.7558 76.3762 59.8255 73.9092C60.8946 71.4427 62.156 68.8801 63.6129 66.2219C65.0675 63.5633 66.5981 60.8336 68.2024 58.0318C69.8061 55.2301 71.2013 52.3682 72.3906 49.4463C73.1037 47.5783 73.712 45.6388 74.2176 43.6271C74.7216 41.6155 75.0334 39.6039 75.1535 37.5923C75.2715 35.5806 75.1825 33.605 74.886 31.6655C74.5878 29.7254 74.0533 27.9185 73.2817 26.2411ZM58.9338 65.1801C60.4185 62.4499 62.0228 59.6372 63.7466 56.7388C65.4689 53.8415 67.1327 51.0752 68.737 48.4405C68.7954 48.2969 68.9597 48.0343 69.2273 47.6504C69.4943 47.2676 69.7466 47.1005 69.9847 47.1475C70.1026 47.1475 70.1321 47.3632 70.0737 47.794C70.0136 48.2248 69.9246 48.5372 69.8061 48.7277C69.6281 49.3994 69.39 50.201 69.0935 51.1347C68.7954 52.0685 68.4541 53.0273 68.0686 54.0086C67.6814 54.9909 67.2806 55.9481 66.8657 56.8824C66.449 57.8161 66.0635 58.5953 65.7069 59.2173C65.5284 59.5045 65.2166 60.115 64.771 61.0493C64.3254 61.983 63.7909 63.0964 63.1673 64.39C62.5432 65.683 61.889 67.0601 61.2064 68.5208C60.5228 69.9826 59.8839 71.3706 59.2904 72.6877C58.6957 74.0053 58.1764 75.1787 57.7309 76.208C57.2853 77.2384 57.0319 77.9679 56.9735 78.3993C56.8539 78.8771 56.7354 79.1179 56.6169 79.1179C56.4973 79.1179 56.4236 79.0212 56.3941 78.8301C56.3636 78.6385 56.3188 78.4943 56.2603 78.3993C55.9628 77.8243 55.829 76.9872 55.8596 75.8848C55.889 74.7834 56.0518 73.6105 56.3499 72.3644C56.6464 71.1194 57.0183 69.8499 57.4638 68.5568C57.9094 67.2633 58.3992 66.1389 58.9338 65.1801ZM62.7659 48.0812C63.7756 45.5918 64.919 43.0773 66.1973 40.5376C67.474 38.0001 68.5879 35.7242 69.5391 33.7131C69.657 33.474 69.7908 33.2348 69.9399 32.9945C70.0873 32.7554 70.2211 32.6598 70.3412 32.7073C70.4592 32.7073 70.504 32.863 70.4745 33.1742C70.4439 33.486 70.4302 33.7612 70.4302 34.0004C69.8957 37.9281 68.826 41.8312 67.2217 45.7109C65.6179 49.59 63.8356 53.4226 61.8748 57.2056C60.6855 59.6011 59.4089 62.0076 58.0426 64.426C56.6753 66.845 55.5478 69.4671 54.6566 72.2923C54.5365 72.5326 54.4923 72.6762 54.5228 72.7237C54.5518 72.7718 54.5365 72.7952 54.4781 72.7952C54.3 72.6997 54.211 72.4845 54.211 72.1487C53.9129 70.7121 54.0909 68.9047 54.7456 66.7249C55.3987 64.5456 56.2298 62.2953 57.241 59.9714C58.2501 57.649 59.2904 55.4217 60.3601 53.29C61.4292 51.1593 62.2314 49.4229 62.7659 48.0812Z" fill="#F3C864"/>
<path d="M139.674 75.1659C141.813 74.8787 143.877 74.3523 145.868 73.5851C147.858 72.8195 149.655 71.8372 151.259 70.6397C151.378 70.5928 151.616 70.424 151.972 70.1368C152.329 69.8496 152.565 69.7541 152.685 69.8496C152.804 69.9457 152.774 70.0899 152.596 70.2804C152.418 70.4726 152.269 70.6397 152.151 70.7833C150.961 72.173 149.402 73.3104 147.472 74.1961C145.54 75.0829 143.535 75.7889 141.456 76.3153C139.733 76.6992 137.892 76.8308 135.931 76.7107C133.971 76.5916 132.128 76.1963 130.406 75.5252C129.872 75.3341 129.544 75.1779 129.426 75.0583C129.306 74.9393 129.306 74.8552 129.426 74.8066C129.544 74.7596 129.738 74.7345 130.005 74.7345C130.272 74.7345 130.524 74.7596 130.763 74.8066C131.416 74.9033 132.173 74.9863 133.035 75.0583C133.895 75.1299 134.758 75.1779 135.619 75.2019C136.48 75.2265 137.268 75.238 137.981 75.238C138.694 75.238 139.257 75.214 139.674 75.1659ZM127.733 54.0438C127.435 55.7212 127.287 57.361 127.287 58.9653C127.287 60.5707 127.421 62.0794 127.688 63.4915C127.955 64.9046 128.37 66.1622 128.936 67.263C129.5 68.3655 130.197 69.2746 131.03 69.9932C131.979 70.7599 133.153 71.3469 134.55 71.7531C135.945 72.161 137.46 72.3641 139.095 72.3641C140.728 72.3641 142.451 72.173 144.264 71.7892C146.075 71.4064 147.873 70.8079 149.655 69.9932C150.012 69.8021 150.248 69.7541 150.368 69.8496C150.486 69.9457 150.442 70.0538 150.235 70.1729C150.026 70.293 149.833 70.4006 149.655 70.4961C148.109 71.455 146.476 72.2205 144.754 72.795C143.03 73.37 141.292 73.7287 139.54 73.8729C137.788 74.0165 136.094 73.9335 134.461 73.6211C132.826 73.3104 131.356 72.7229 130.05 71.8612C128.802 70.999 127.791 69.9572 127.02 68.7357C126.247 67.5147 125.667 66.1742 125.282 64.713C124.895 63.2523 124.672 61.731 124.614 60.1508C124.554 58.57 124.614 57.0143 124.792 55.481C125.028 53.038 125.623 50.572 126.574 48.081C127.524 45.591 128.787 43.2922 130.361 41.1844C131.935 39.0772 133.822 37.2327 136.021 35.6524C138.218 34.0716 140.684 32.9703 143.417 32.3472C144.783 32.06 146.18 31.941 147.605 31.9885C149.031 32.0365 150.353 32.2522 151.571 32.635C152.788 33.0189 153.843 33.5813 154.735 34.3234C155.626 35.066 156.219 35.9642 156.517 37.017C156.814 38.167 156.695 39.2804 156.161 40.3577C155.626 41.4356 154.883 42.3699 153.933 43.16C152.982 43.9501 151.912 44.5137 150.724 44.8478C149.536 45.1837 148.408 45.1837 147.338 44.8478C147.278 44.8478 147.234 44.7763 147.205 44.6327C147.174 44.4891 147.278 44.4416 147.516 44.4891C148.23 44.5857 149.045 44.453 149.967 44.0938C150.888 43.7345 151.719 43.2441 152.463 42.6211C153.205 41.9991 153.799 41.256 154.245 40.3937C154.69 39.5315 154.824 38.6459 154.646 37.7356C154.468 37.0656 154.096 36.4786 153.532 35.9757C152.967 35.4728 152.24 35.066 151.349 34.7542C150.457 34.4435 149.461 34.2404 148.363 34.1437C147.263 34.0482 146.12 34.0962 144.932 34.2873C142.674 34.6226 140.579 35.4253 138.649 36.6937C136.718 37.9633 135.009 39.5081 133.525 41.328C132.039 43.1485 130.792 45.1716 129.782 47.3984C128.771 49.6257 128.089 51.8416 127.733 54.0438ZM121.94 50.8112C122.415 48.2732 123.172 45.8067 124.212 43.4112C125.251 41.0168 126.619 38.8255 128.311 36.8379C130.005 34.8508 132.099 33.1379 134.594 31.7007C137.09 30.2641 140.031 29.2583 143.417 28.6838C144.605 28.4927 145.942 28.4086 147.427 28.4321C148.912 28.4567 150.397 28.6723 151.883 29.0786C153.367 29.486 154.749 30.097 156.027 30.9106C157.304 31.7253 158.358 32.8501 159.191 34.2873C159.962 35.677 160.229 37.0421 159.993 38.3821C159.754 39.7238 159.249 40.9327 158.478 42.01C157.705 43.0879 156.754 43.9862 155.626 44.7042C154.497 45.4228 153.398 45.8302 152.329 45.9257C151.674 46.0224 151.318 46.0098 151.259 45.8897C151.2 45.7707 151.527 45.615 152.24 45.4228C153.367 45.1356 154.512 44.4061 155.671 43.2315C156.829 42.0586 157.527 40.5625 157.765 38.7414C157.883 37.8322 157.734 36.934 157.319 36.0472C156.903 35.1615 156.308 34.384 155.537 33.7123C154.764 33.0423 153.843 32.4674 152.774 31.9885C151.705 31.5101 150.575 31.1978 149.388 31.0542C146.833 30.767 144.486 30.9106 142.348 31.4856C140.209 32.06 138.352 32.7912 136.778 33.6768C135.203 34.5631 133.926 35.4368 132.946 36.299C131.966 37.1606 131.356 37.7356 131.119 38.0234C129.277 39.8908 127.673 41.915 126.306 44.0938C124.939 46.2741 123.811 48.5604 122.92 50.9548C122.92 51.0029 122.876 51.1705 122.787 51.4577C122.698 51.7449 122.608 52.0447 122.519 52.356C122.43 52.6678 122.326 52.955 122.207 53.2176C122.088 53.4819 121.998 53.613 121.94 53.613C121.82 53.613 121.762 53.4693 121.762 53.1821V52.2839C121.762 51.9732 121.791 51.6734 121.851 51.3856C121.909 51.0984 121.94 50.9073 121.94 50.8112ZM134.773 77.8241C135.426 77.8721 136.094 77.8961 136.778 77.8961C137.46 77.8961 137.803 77.9677 137.803 78.1113C137.803 78.1599 137.683 78.1943 137.446 78.2194C137.208 78.2429 136.956 78.2549 136.689 78.2549H135.842H135.307C133.465 78.2549 131.654 78.0397 129.872 77.6084C128.089 77.1775 126.44 76.5665 124.925 75.7764C123.41 74.9863 122.058 74.0165 120.87 72.8671C119.681 71.7176 118.79 70.4006 118.197 68.9153C117.008 65.9945 116.326 63.1442 116.147 60.3664C115.969 57.5893 116.117 54.859 116.593 52.1763C116.83 50.6436 117.291 48.9071 117.974 46.9676C118.656 45.028 119.579 43.0519 120.737 41.0403C121.895 39.0292 123.351 37.0421 125.103 35.0775C126.855 33.1139 128.949 31.3179 131.386 29.6891C133.94 27.9652 136.778 26.8158 139.897 26.2408C143.016 25.6658 146.001 25.5708 148.853 25.9536C151.705 26.3375 154.23 27.139 156.428 28.36C158.625 29.5815 160.082 31.1263 160.795 32.9943C160.853 33.0904 160.913 33.2941 160.973 33.6048C161.032 33.9166 161.002 34.1202 160.884 34.2152C160.824 34.2638 160.735 34.1437 160.617 33.8559C160.497 33.5687 160.379 33.3782 160.26 33.2815C157.765 30.5513 154.942 28.816 151.794 28.0728C148.644 27.3307 145.525 27.2592 142.437 27.8571C139.347 28.4567 136.436 29.558 133.703 31.1618C130.97 32.7671 128.802 34.5511 127.198 36.5141C124.404 39.9154 122.281 43.5313 120.826 47.3629C119.369 51.1951 118.701 55.1462 118.821 59.217C118.879 61.0845 119.132 63.0492 119.579 65.1078C120.024 67.168 120.9 69.131 122.207 70.999C123.513 72.9151 125.311 74.5079 127.599 75.7764C129.885 77.0459 132.277 77.7285 134.773 77.8241Z" fill="#F3C864"/>
<path fill-rule="evenodd" clip-rule="evenodd" d="M174.425 53.3565C174.432 53.5307 174.43 53.7041 174.429 53.8775C174.428 53.9563 174.427 54.035 174.427 54.1139L174.42 54.8696L174.406 55.2294L174.406 55.2328C174.392 55.6152 174.378 55.9971 174.356 56.3783L174.277 57.5054L174.241 57.8805C174.05 59.8785 173.722 61.8568 173.264 63.8034C172.81 65.7501 172.207 67.6634 171.49 69.5347C170.771 71.4055 169.931 73.2342 168.976 75.011C167.06 78.5614 164.685 81.9016 161.944 84.9692C156.44 91.1073 149.455 96.1408 141.705 99.7365C137.835 101.54 133.779 102.994 129.639 104.094C125.498 105.196 121.274 105.95 117.053 106.362C112.829 106.774 108.624 106.839 104.521 106.584C100.419 106.333 96.4171 105.762 92.5811 104.915C84.9059 103.22 77.9089 100.431 71.9013 96.9249C68.9029 95.1699 66.1547 93.2435 63.6691 91.198C62.4241 90.1769 61.2561 89.117 60.1471 88.0375C59.0413 86.9563 57.9951 85.8544 57.0226 84.7295C55.5079 82.98 54.1629 81.1846 52.9753 79.3635C52.974 79.3608 52.9729 79.3583 52.9718 79.3558L52.9702 79.3522L52.9695 79.3507L52.9676 79.3466C52.9662 79.3437 52.9646 79.3409 52.9627 79.3379C52.9543 79.3258 52.9452 79.3137 52.9363 79.3019L52.931 79.295L52.9234 79.2849L52.9067 79.2592C52.8836 79.2517 52.8653 79.2409 52.8573 79.2265C52.7988 79.1207 52.7401 79.0144 52.681 78.9079C52.2404 78.2162 51.8221 77.5215 51.4262 76.8233C51.4304 76.8277 51.4346 76.8319 51.4389 76.8358C50.6441 75.6601 49.6986 74.603 48.4234 73.9217C46.1229 72.6926 43.5565 73.5236 41.9085 75.4097C39.6687 77.9736 39.5987 81.4603 39.5324 84.7678C39.5146 85.6564 39.497 86.5322 39.4377 87.3735C39.3044 89.2607 38.9539 91.1816 38.0174 92.8487C37.1481 94.3973 35.7551 95.5855 34.1143 96.2533C31.0422 97.5038 27.4771 96.7633 24.9833 94.6277C23.1855 93.0882 22.1214 90.9949 21.0592 88.9052C20.5302 87.8646 20.0017 86.825 19.3834 85.8551C18.778 86.0088 18.1695 86.1541 17.5595 86.2924C16.4477 86.5447 15.2175 85.9304 14.8609 84.9704C14.4878 83.9671 14.1285 82.9598 13.7693 81.9525C12.9515 79.6595 12.1338 77.3667 11.1527 75.123C10.6083 73.8782 9.77917 72.7183 8.95076 71.5594C8.6167 71.0921 8.28273 70.6249 7.96765 70.1524C7.71973 69.7805 7.43733 69.4237 7.12623 69.0305C6.97413 68.8384 6.81518 68.6375 6.65004 68.422L8.8896 67.8495C12.0032 67.0535 15.0569 66.2729 18.1427 65.4837C18.1626 65.8712 18.1904 66.2544 18.218 66.6346C18.2791 67.4752 18.3391 68.301 18.3098 69.1264C18.2355 71.2275 18.8514 73.195 19.6236 75.1574C20.5425 77.4941 21.4045 79.8463 22.2664 82.1979L22.2666 82.1986C22.3746 82.4933 22.4826 82.788 22.5908 83.0827C22.914 83.9646 22.1321 85.0993 20.9712 85.4291C20.5118 85.5594 20.0496 85.684 19.5853 85.8034C20.22 86.7888 20.7674 87.8483 21.3148 88.9077C22.6967 91.5823 24.0785 94.2566 26.8639 95.7389C30.5628 97.7074 35.3926 96.718 37.6335 93.0573C39.1794 90.5328 39.2385 87.6136 39.2971 84.7155C39.3246 83.359 39.3519 82.0071 39.5316 80.7025C39.9903 77.3727 41.849 73.5569 45.6266 73.2222C48.5853 72.9603 50.5906 75.1558 52.0673 77.4787C52.0748 77.4857 52.0825 77.4925 52.0905 77.499C52.0945 77.5023 52.0986 77.5055 52.1027 77.5086C52.1235 77.5397 52.1497 77.5692 52.1775 77.596C52.1955 77.6249 52.2152 77.6522 52.236 77.6779L52.2369 77.6781L52.2373 77.6783L52.2376 77.679C54.555 81.3976 57.4643 84.9414 60.953 88.1887C66.3589 93.2342 73.1599 97.5397 80.964 100.666C84.8644 102.232 89.0144 103.482 93.3281 104.381C97.6435 105.281 102.127 105.829 106.686 105.965C111.243 106.107 115.873 105.852 120.467 105.183C125.059 104.509 129.616 103.427 134.018 101.933C138.426 100.443 142.653 98.5188 146.602 96.2238C146.772 96.1284 146.938 96.0277 147.104 95.927C147.182 95.8801 147.259 95.8333 147.336 95.7869L148.069 95.3457L148.787 94.8887C148.809 94.8748 148.83 94.8609 148.852 94.847L148.888 94.8242C148.929 94.7982 148.97 94.7722 149.012 94.7462L149.015 94.7442C149.18 94.6405 149.344 94.5367 149.504 94.4273L149.558 94.3905L149.614 94.3532L149.687 94.3043L149.749 94.2631C149.806 94.2254 149.862 94.1878 149.919 94.1501L149.925 94.1463L149.931 94.1423L149.931 94.142C150.261 93.9236 150.59 93.7049 150.909 93.4761L151.603 92.989C151.758 92.8792 151.91 92.7667 152.062 92.6543L152.062 92.654L152.19 92.5597C152.221 92.5366 152.253 92.5135 152.284 92.4905C154.097 91.1543 155.829 89.7318 157.451 88.2209C159.075 86.7111 160.607 85.1227 162.022 83.4594C163.434 81.794 164.737 80.057 165.921 78.2578C167.101 76.4569 168.151 74.5906 169.076 72.6756C169.168 72.495 169.251 72.3126 169.335 72.1302L169.367 72.0603C169.383 72.025 169.399 71.9896 169.415 71.9543L169.746 71.2297L170.054 70.4969L170.086 70.4231C170.18 70.2037 170.273 69.9848 170.357 69.7624L170.451 69.5221L170.451 69.5214C170.613 69.1094 170.774 68.6965 170.919 68.2794C170.951 68.1871 170.984 68.0949 171.017 68.0026L171.018 67.9998L171.02 67.9944L171.02 67.9932C171.075 67.8398 171.13 67.6863 171.182 67.5324L171.427 66.7794C172.076 64.7732 172.565 62.725 172.909 60.6528C173.087 59.6175 173.208 58.5751 173.312 57.5288L173.371 56.7425C173.376 56.67 173.381 56.5976 173.387 56.5251C173.401 56.3355 173.416 56.1458 173.421 55.9562C173.424 55.8722 173.428 55.7882 173.431 55.7041L173.438 55.5585C173.455 55.1654 173.473 54.7716 173.472 54.3782L173.481 53.5875L173.465 52.7963C173.463 52.3997 173.442 52.0031 173.422 51.606C173.415 51.475 173.408 51.3439 173.401 51.2127C173.394 51.0224 173.378 50.8321 173.362 50.6423L173.354 50.5567L173.349 50.4897C173.347 50.4667 173.345 50.4439 173.343 50.421L173.278 49.6276L173.187 48.8358C173.181 48.7771 173.174 48.7182 173.167 48.6593C173.144 48.4543 173.121 48.2485 173.089 48.044C172.797 45.9336 172.35 43.8302 171.746 41.747C171.139 39.665 170.371 37.6047 169.454 35.58L169.283 35.2C169.249 35.1266 169.214 35.0537 169.179 34.9807L169.177 34.9786C169.152 34.9268 169.127 34.8749 169.102 34.8226L168.737 34.0691C168.662 33.91 168.579 33.7533 168.496 33.5963C168.448 33.5043 168.399 33.4122 168.352 33.3194L168.317 33.2526L168.265 33.1524L168.233 33.0901L168.232 33.0892C168.143 32.9167 168.053 32.7439 167.959 32.5735L167.338 31.4623L166.682 30.3625C166.582 30.194 166.475 30.0276 166.368 29.8611L166.368 29.8606L166.313 29.7746L166.265 29.6995C166.252 29.6786 166.239 29.6578 166.225 29.6368C165.618 28.6665 164.951 27.7202 164.269 26.7783C163.569 25.8451 162.852 24.9168 162.081 24.0164C161.323 23.1078 160.509 22.2287 159.683 21.355C158.838 20.4933 157.978 19.6377 157.066 18.8148C154.454 16.4335 151.544 14.2056 148.362 12.1907C145.179 10.1763 141.729 8.37111 138.058 6.82308C132.423 4.44287 126.227 2.6644 119.749 1.65859C116.022 1.08032 112.23 0.751062 108.425 0.703007C106.525 0.676249 104.621 0.714468 102.722 0.816039C100.823 0.922522 98.9306 1.09724 97.0489 1.33259C93.2839 1.79837 89.5784 2.54645 85.9658 3.51678C84.1611 4.00822 82.3826 4.56409 80.6347 5.17566C78.8885 5.78832 77.1701 6.45777 75.497 7.19493C72.1497 8.66434 68.963 10.3478 66.0045 12.2431C64.5236 13.1883 63.0952 14.1821 61.7241 15.218C60.3513 16.2544 59.0441 17.3415 57.7936 18.4631C56.5432 19.5852 55.3539 20.7456 54.2268 21.9409C53.1058 23.1395 52.0481 24.3713 51.0565 25.6316C50.066 26.8935 49.1333 28.1805 48.2831 29.4992C47.4302 30.8163 46.6466 32.1568 45.9308 33.5165C45.8684 33.6389 45.8051 33.7606 45.7419 33.8821C45.6279 34.1012 45.5142 34.3199 45.4071 34.5403C45.3441 34.6713 45.2811 34.8021 45.2182 34.9328L45.2144 34.9407C45.1134 35.1505 45.0126 35.3598 44.9124 35.5685C44.8424 35.7238 44.7727 35.8789 44.7031 36.0337L44.6929 36.0565C44.6113 36.2379 44.5298 36.4194 44.4482 36.6C44.3707 36.7715 44.2986 36.9451 44.2276 37.1177C44.1559 37.2895 44.0852 37.4613 44.0145 37.6331L44.0143 37.6336L44.0136 37.6353C43.4506 39.0174 42.9575 40.4027 42.5393 41.7907C42.127 43.1793 41.7852 44.5685 41.51 45.9527C41.4755 46.1352 41.4416 46.3174 41.4076 46.4992C41.377 46.6635 41.3464 46.8275 41.3156 46.9913C41.261 47.3374 41.2069 47.682 41.1545 48.0271C41.1131 48.2709 41.0834 48.5159 41.054 48.7598C41.0418 48.8599 41.0298 48.96 41.0169 49.0597C40.9945 49.2322 40.9737 49.4037 40.953 49.5762C40.9403 49.6872 40.9301 49.7981 40.9199 49.909L40.9198 49.9101C40.9163 49.9474 40.9129 49.9847 40.9094 50.0219C40.9072 50.0448 40.905 50.0677 40.9028 50.0906C40.3649 55.5811 40.9279 60.917 42.3252 65.8686C42.3788 66.0489 42.4307 66.2235 42.4809 66.392C42.5427 66.5995 42.6017 66.7977 42.6578 66.9858C42.7686 67.3249 42.8685 67.6329 42.9575 67.9075L43.0924 68.3465L43.5342 69.6549C43.5048 69.581 43.475 69.5066 43.4451 69.4316L43.3798 69.2685C43.3189 69.1163 43.2571 68.962 43.1951 68.8058C43.1704 68.7429 43.1454 68.6795 43.1203 68.6156L43.0214 68.3645C42.9888 68.274 42.9556 68.183 42.9221 68.0913L42.9214 68.0892C42.8996 68.0297 42.8778 67.9698 42.856 67.9097C42.7719 67.6702 42.6859 67.4272 42.5984 67.18L42.5229 66.9667C42.4623 66.7757 42.4006 66.5824 42.3382 66.3869L42.2073 65.9762C41.7961 64.6269 41.4182 63.1607 41.1168 61.5969C40.5205 58.4708 40.236 54.9504 40.4621 51.2597C40.5735 49.4151 40.8094 47.5296 41.1791 45.6349C41.5515 43.7396 42.0571 41.8366 42.6922 39.9571C43.9595 36.1959 45.7489 32.5298 47.9178 29.1853C50.078 25.8364 52.5974 22.8053 55.1802 20.2159C56.4705 18.9202 57.774 17.7314 59.0495 16.6563C60.3289 15.5833 61.5783 14.6233 62.7506 13.771C65.1074 12.0771 67.1621 10.825 68.6152 9.99506C70.0698 9.16397 70.9091 8.73752 70.9091 8.73752C73.6923 7.27903 76.6126 5.99309 79.6316 4.88298C81.8087 4.09122 84.1835 3.34422 86.7275 2.68787C89.2699 2.03153 91.9805 1.45927 94.8303 1.03227C100.521 0.156408 106.76 -0.143906 113.082 0.304396C113.275 0.319019 113.467 0.334017 113.66 0.349039L113.663 0.349321C113.865 0.365062 114.067 0.380813 114.269 0.396132C114.526 0.41744 114.783 0.442675 115.04 0.467928L115.041 0.46802C115.179 0.481568 115.317 0.495116 115.456 0.508076L116.049 0.566492L116.642 0.635843C116.751 0.648795 116.861 0.661494 116.97 0.674194L116.983 0.675724C117.265 0.708544 117.548 0.741376 117.83 0.778357C119.411 0.985311 120.99 1.23976 122.56 1.53081C124.126 1.83331 125.683 2.17351 127.222 2.55792C128.758 2.95108 130.28 3.37753 131.775 3.84931C133.266 4.32765 134.739 4.83493 136.175 5.38808C136.432 5.48478 136.686 5.58673 136.939 5.68844L136.939 5.6887C137.042 5.7299 137.144 5.77106 137.247 5.81181L137.78 6.02476C137.912 6.07822 138.043 6.13412 138.174 6.18995L138.252 6.22326L138.307 6.24645C138.362 6.26965 138.416 6.29278 138.471 6.31588L138.622 6.37943C138.867 6.48282 139.112 6.58609 139.354 6.69203L139.364 6.69624C139.705 6.84937 140.047 7.00248 140.387 7.15453C141.753 7.78303 143.09 8.43063 144.376 9.12138C144.537 9.20765 144.698 9.29284 144.859 9.37802C144.935 9.42052 145.011 9.46278 145.087 9.5049C145.168 9.54944 145.248 9.59383 145.329 9.63822L145.334 9.64122C145.441 9.70133 145.549 9.76095 145.656 9.82049L145.657 9.82081C145.865 9.93637 146.074 10.0517 146.278 10.1698C146.403 10.2431 146.528 10.3161 146.653 10.3891L146.654 10.3893C147.146 10.6765 147.636 10.9624 148.112 11.2597C150.519 12.7302 152.729 14.3061 154.75 15.9136C156.765 17.5267 158.577 19.1855 160.191 20.8297C163.413 24.1283 165.81 27.3888 167.546 30.2167C167.593 30.294 167.639 30.3708 167.685 30.4471L167.772 30.5903C167.909 30.8155 168.044 31.037 168.17 31.2564C168.227 31.3569 168.284 31.4566 168.34 31.5555L168.34 31.5565L168.352 31.5765C168.482 31.8068 168.61 32.0327 168.734 32.2546C168.855 32.4707 168.968 32.6851 169.078 32.8955C169.11 32.9563 169.142 33.0167 169.173 33.0767C169.196 33.1198 169.219 33.1626 169.242 33.2052C169.322 33.3587 169.401 33.5099 169.48 33.6601C169.515 33.7313 169.55 33.8019 169.584 33.872L169.611 33.9258L169.638 33.9821C169.659 34.0228 169.679 34.0632 169.699 34.1035C169.754 34.2169 169.809 34.3287 169.863 34.4389L169.864 34.4407L169.864 34.4414C169.949 34.6131 170.031 34.7812 170.11 34.946C170.235 35.2191 170.355 35.4812 170.468 35.7323C170.636 36.0885 170.777 36.4264 170.908 36.7412L170.955 36.8529C170.993 36.9425 171.029 37.03 171.066 37.1155C171.195 37.4144 171.301 37.6924 171.397 37.9451L171.397 37.9461C171.435 38.0443 171.471 38.1386 171.506 38.2289C171.534 38.302 171.561 38.3724 171.587 38.4403C171.677 38.6728 171.755 38.875 171.813 39.0474L172.051 39.7261C173.418 43.7139 174.182 47.7907 174.378 51.8401L174.399 52.2196L174.408 52.598L174.425 53.3565ZM16.3495 74.4498C16.7765 75.6636 16.3162 76.059 14.6021 75.8618C14.4395 75.4289 14.276 74.9925 14.1116 74.5538L14.1114 74.5532L14.1108 74.5518C13.7079 73.4766 13.2996 72.3871 12.8864 71.2991C12.6445 70.6618 12.8165 70.1349 13.664 69.9547C14.5011 69.7773 14.8178 70.3517 15.016 70.83C15.4445 71.8651 15.8129 72.9175 16.1812 73.9697C16.2372 74.1297 16.2932 74.2898 16.3495 74.4498Z" fill="#B3E1FA"/>
<path d="M52.4094 25.9977C53.6708 24.436 54.8873 23.1059 55.98 21.9876C57.1141 20.8387 58.3056 19.7275 59.55 18.6578C60.7956 17.5892 62.1012 16.567 63.451 15.5868C64.803 14.6089 66.1987 13.6702 67.6474 12.7889C69.0949 11.907 70.5862 11.0737 72.1157 10.2907C73.6435 9.50496 75.2167 8.77927 76.8209 8.106C78.4263 7.43382 80.0601 6.8075 81.7272 6.24671C83.3942 5.68647 85.0875 5.18029 86.801 4.72816L88.0902 4.40108C88.3832 4.33025 88.6775 4.26269 88.9716 4.19515L88.9721 4.19504C89.1108 4.16319 89.2497 4.13129 89.3882 4.09911C89.7067 4.0222 90.0282 3.95539 90.3496 3.8886L90.3504 3.88843C90.4645 3.86471 90.5787 3.84098 90.6927 3.81681L91.3463 3.6803C91.4853 3.65139 91.6251 3.6256 91.765 3.59979C91.8445 3.58514 91.9239 3.57049 92.0032 3.55526C92.1539 3.52771 92.3043 3.49918 92.4547 3.47067C92.7423 3.41612 93.0298 3.3616 93.3192 3.31391L94.6406 3.09549L94.8975 3.05768C95.6963 2.94002 96.4948 2.82241 97.2982 2.73018L97.9644 2.64882L98.6328 2.57948L99.6348 2.47736L101.309 2.34194L102.651 2.26113C104.442 2.16775 106.234 2.13227 108.024 2.15465L109.366 2.18305L110.706 2.23765C110.93 2.24529 111.153 2.25895 111.376 2.27314L112.045 2.31409C112.122 2.31921 112.199 2.32374 112.277 2.32827C112.422 2.33678 112.568 2.3453 112.713 2.35778L113.379 2.41183C120.494 2.98355 127.448 4.5354 133.889 6.91671C135.5 7.51463 137.076 8.1666 138.618 8.86445C140.157 9.56448 141.666 10.3055 143.124 11.1043C146.042 12.6988 148.804 14.4652 151.348 16.4086C152.622 17.3784 153.848 18.3858 155.019 19.4304C156.185 20.4788 157.298 21.5627 158.355 22.6778C158.447 22.777 158.54 22.8756 158.633 22.9742L158.634 22.9747C158.804 23.1554 158.974 23.336 159.138 23.5203L159.898 24.3743L160.633 25.2425L160.815 25.4599L160.992 25.6805L161.345 26.1217C162.278 27.3011 163.161 28.5046 163.969 29.7381C167.217 34.6662 169.422 39.9939 170.551 45.4255C171.122 48.1415 171.397 50.8859 171.421 53.6205C171.422 56.3562 171.174 59.0831 170.637 61.7659C169.97 65.1666 168.873 68.509 167.373 71.7257C165.876 74.9436 163.967 78.0325 161.7 80.9342C157.168 86.7387 151.183 91.7896 144.194 95.643C140.703 97.5717 136.903 99.2502 132.85 100.609C128.799 101.967 124.491 103.009 120.018 103.673C115.545 104.331 110.908 104.609 106.21 104.451C103.862 104.368 101.5 104.177 99.1384 103.876C98.9147 103.851 98.6922 103.819 98.4696 103.786L98.3281 103.766L97.3681 103.63L97.3588 103.628C97.0676 103.58 96.7764 103.533 96.4846 103.485C96.426 103.476 96.3673 103.466 96.3085 103.457L96.3068 103.457L96.3063 103.456C96.071 103.419 95.8352 103.381 95.6011 103.335C95.5327 103.323 95.4642 103.31 95.3957 103.298L95.2351 103.268C94.7688 103.184 94.3018 103.099 93.8379 103C93.7276 102.977 93.6172 102.955 93.5067 102.932C93.3235 102.895 93.1403 102.858 92.9577 102.819C92.6778 102.756 92.3973 102.694 92.1169 102.631L92.0802 102.623C92.0023 102.604 91.9258 102.587 91.8508 102.57C91.7344 102.543 91.6217 102.518 91.5134 102.49L91.0089 102.364C90.6922 102.286 90.4153 102.217 90.1778 102.158C89.706 102.032 89.3904 101.951 89.2309 101.915C88.9126 101.841 88.7641 101.8 88.7701 101.786C89.0944 101.846 89.6104 101.962 90.3214 102.127C90.6785 102.205 91.0842 102.295 91.5391 102.398L93.0571 102.718C94.2589 102.941 95.5006 103.168 96.7942 103.347C97.2463 103.418 97.7061 103.475 98.1707 103.534L98.1712 103.534L98.1723 103.534C98.3694 103.558 98.5674 103.583 98.766 103.609C98.9804 103.635 99.1964 103.658 99.4134 103.681C99.5346 103.694 99.6561 103.707 99.7778 103.721L100.289 103.776C100.396 103.787 100.503 103.796 100.61 103.806L100.721 103.815C100.749 103.818 100.778 103.82 100.806 103.823C100.972 103.838 101.139 103.853 101.306 103.867L101.313 103.868C101.492 103.884 101.671 103.9 101.851 103.916L102.227 103.942C102.378 103.952 102.53 103.963 102.682 103.974L102.913 103.99C103.22 104.014 103.529 104.029 103.84 104.045L103.991 104.052L104.81 104.094L105.085 104.102C105.295 104.109 105.506 104.116 105.718 104.123L105.738 104.123C105.89 104.128 106.043 104.133 106.196 104.138C106.423 104.143 106.651 104.146 106.88 104.148H106.881C107.027 104.15 107.174 104.151 107.321 104.154L107.375 104.154L107.446 104.155L107.521 104.156C107.643 104.158 107.766 104.16 107.89 104.159C108.074 104.158 108.258 104.157 108.443 104.155L108.446 104.155L108.462 104.155L108.475 104.155C108.662 104.154 108.85 104.153 109.038 104.151L109.328 104.149L109.618 104.141C109.958 104.133 110.3 104.123 110.644 104.114L110.788 104.111C111.18 104.093 111.575 104.075 111.973 104.057C112.249 104.047 112.526 104.028 112.804 104.009L112.95 104C113.023 103.995 113.097 103.99 113.171 103.986L113.216 103.983C113.402 103.97 113.588 103.958 113.775 103.946C113.912 103.936 114.05 103.924 114.187 103.912L114.193 103.912L114.196 103.911L114.296 103.903C114.324 103.9 114.353 103.898 114.382 103.895C114.494 103.886 114.606 103.876 114.718 103.867L114.726 103.866L115.103 103.834C115.271 103.82 115.439 103.806 115.607 103.787C115.812 103.765 116.018 103.743 116.224 103.722L116.843 103.656L117.14 103.62C117.87 103.529 118.608 103.438 119.35 103.324C121.035 103.073 122.749 102.765 124.484 102.386C126.218 102.003 127.971 101.556 129.733 101.034C133.253 99.9896 136.692 98.6845 139.972 97.1048C143.254 95.5278 146.385 93.6882 149.301 91.605C155.134 87.4425 160.102 82.2928 163.737 76.4457C165.552 73.5271 167.001 70.4916 168.072 67.4021C169.144 64.3115 169.838 61.1668 170.162 58.0265C170.485 54.8857 170.438 51.7492 170.043 48.6701C169.642 45.5914 168.892 42.5713 167.842 39.651C167.318 38.1887 166.712 36.7821 166.059 35.4279C165.403 34.0748 164.7 32.7725 163.94 31.5308C163.18 30.2891 162.379 29.1025 161.549 27.9695C160.714 26.8386 159.841 25.7673 158.957 24.7451C158.808 24.5778 158.66 24.4117 158.513 24.2463L158.286 23.9899C158.143 23.831 157.997 23.6754 157.851 23.5205C157.769 23.4326 157.686 23.345 157.605 23.2571L157.446 23.0879C157.401 23.0398 157.356 22.9917 157.312 22.9437L157.267 22.8956C157.15 22.7777 157.035 22.6603 156.92 22.5434C156.833 22.4556 156.746 22.3677 156.66 22.2799L156.659 22.2791L156.659 22.2783L156.658 22.278C156.516 22.1335 156.375 21.9894 156.231 21.8478C156.123 21.7436 156.015 21.6395 155.908 21.5357L155.896 21.5245L155.893 21.5213L155.893 21.5209C155.541 21.1805 155.193 20.8438 154.834 20.5214C154.717 20.4139 154.601 20.3068 154.485 20.2003C154.369 20.0933 154.253 19.9879 154.134 19.8853C153.897 19.6783 153.662 19.473 153.43 19.2693C153.401 19.2441 153.372 19.2188 153.343 19.1936C153.313 19.168 153.284 19.1425 153.255 19.117L153.077 18.9685C152.958 18.8696 152.84 18.7713 152.722 18.6736C152.639 18.6052 152.557 18.5362 152.475 18.4674L152.474 18.4668L152.473 18.4661C152.323 18.3397 152.173 18.214 152.018 18.0937L151.936 18.0291L151.838 17.951C151.784 17.9085 151.731 17.866 151.677 17.8236L151.671 17.8187L151.668 17.8161C151.314 17.5347 150.964 17.2567 150.607 16.9923C150.524 16.9306 150.443 16.8689 150.361 16.8073L150.36 16.8067L150.36 16.8062L150.359 16.8055L150.358 16.8047L150.356 16.8033C150.206 16.6897 150.056 16.5767 149.905 16.466L149.09 15.8791L149.088 15.8781L149.084 15.875C149.038 15.8421 148.993 15.8094 148.947 15.7767C148.917 15.7548 148.886 15.7331 148.856 15.7113L148.505 15.47L148.205 15.2641C148.073 15.1741 147.942 15.0845 147.812 14.9954C144.393 12.6906 140.653 10.673 136.683 8.97312C134.698 8.12347 132.655 7.35464 130.562 6.67263C128.468 5.9939 126.325 5.40144 124.145 4.89908C119.785 3.89708 115.275 3.25057 110.706 3.01249C106.14 2.77114 101.519 2.92239 96.9477 3.47226C92.38 4.02103 87.998 4.9504 83.8764 6.18337C79.7543 7.41688 75.8948 8.95783 72.3483 10.7297C68.8006 12.5011 65.5647 14.5024 62.6576 16.6516C59.7499 18.8019 57.1633 21.0964 54.9097 23.4772C53.8297 24.6157 52.8091 25.7733 51.8311 26.974C51.6073 27.2526 51.4154 27.493 51.2546 27.6945C50.7271 28.3553 50.5342 28.597 50.6435 28.3932C50.6353 28.3894 50.6642 28.3364 50.7303 28.2332L50.7539 28.1974L50.7685 28.1752C50.8335 28.0758 50.9216 27.9414 51.0443 27.7773C51.156 27.6263 51.289 27.4467 51.4434 27.2384L51.598 27.0297C51.7083 26.8796 51.8339 26.7196 51.9704 26.5487C52.0496 26.4492 52.1321 26.3457 52.2179 26.238L52.4094 25.9977Z" fill="#B3E1FA"/>
<path d="M150.711 14.6663C149.848 14.0498 148.787 13.3454 147.523 12.5624C147.204 12.3696 146.905 12.1889 146.626 12.0196C146.439 11.9075 146.257 11.8042 146.085 11.7061L146.084 11.7058L146.078 11.7022C145.995 11.655 145.914 11.6089 145.836 11.5637C145.771 11.5267 145.708 11.4905 145.646 11.4551L145.645 11.4548C145.475 11.3569 145.315 11.2653 145.164 11.182L145.114 11.1554C144.927 11.0545 144.757 10.9629 144.605 10.8806L144.539 10.8455L144.537 10.8448C144.238 10.6856 144.011 10.5646 143.853 10.4863C143.682 10.4039 143.594 10.3656 143.589 10.3716C143.504 10.3449 143.503 10.3618 143.586 10.4219C143.649 10.4678 143.76 10.5373 143.917 10.6349C143.967 10.6662 144.022 10.7003 144.081 10.7375C144.327 10.8888 144.655 11.0853 145.065 11.3261C145.226 11.4256 145.401 11.5321 145.588 11.6461L145.588 11.6465C145.869 11.8177 146.178 12.0062 146.513 12.2146C146.67 12.3147 146.824 12.4119 146.974 12.5069L146.977 12.5091C147.359 12.751 147.718 12.9781 148.045 13.2007L148.439 13.4631C148.528 13.5225 148.616 13.5807 148.701 13.6375C148.836 13.7266 148.963 13.8156 149.085 13.9016L149.087 13.9027L149.087 13.903L149.088 13.9033C149.155 13.9501 149.22 13.996 149.285 14.0405C149.819 14.4059 150.253 14.721 150.603 14.9748L150.604 14.9752C150.737 15.0721 150.858 15.1601 150.968 15.2386C152.757 16.5583 154.454 17.9726 156.061 19.4617C157.665 20.9518 159.18 22.5184 160.579 24.1615C163.368 27.4503 165.739 31.0203 167.548 34.8088C168.457 36.7014 169.234 38.6442 169.874 40.6258C170.509 42.6085 171.001 44.63 171.348 46.676C171.419 47.0548 171.471 47.4361 171.524 47.8175L171.524 47.8185L171.525 47.8195C171.533 47.878 171.541 47.9364 171.549 47.9949C171.559 48.0684 171.57 48.1419 171.58 48.2153C171.61 48.4081 171.631 48.6019 171.652 48.7959L171.652 48.7967L171.652 48.7982C171.659 48.8616 171.665 48.9251 171.673 48.9885C171.682 49.0717 171.691 49.155 171.7 49.2384L171.757 49.7628L171.818 50.5398L171.822 50.6015C171.826 50.6453 171.829 50.689 171.833 50.7329C171.848 50.9274 171.864 51.1221 171.87 51.3174C171.875 51.4346 171.881 51.5519 171.886 51.6692C171.906 52.0715 171.925 52.4741 171.925 52.8774C171.962 54.9601 171.851 57.0541 171.562 59.1422C171.279 61.2303 170.85 63.2949 170.254 65.3185C169.664 67.3422 168.935 69.3298 168.051 71.2611C167.172 73.1931 166.165 75.0769 165.015 76.8914C163.868 78.707 162.607 80.4642 161.214 82.14C158.445 85.4993 155.206 88.5539 151.623 91.2475C149.827 92.5908 147.946 93.8445 145.993 95.0026C144.04 96.1603 142.007 97.2125 139.922 98.1692C138.458 98.8375 136.901 99.4911 135.245 100.111C133.586 100.728 131.83 101.313 129.975 101.849C126.267 102.92 122.155 103.801 117.686 104.332C113.227 104.861 108.745 104.998 104.341 104.746C99.9379 104.498 95.6138 103.876 91.4551 102.915C87.298 101.949 83.3927 100.671 79.7822 99.1613C76.1707 97.6521 72.854 95.9124 69.8486 94.0176C68.3453 93.0696 66.9862 92.1261 65.7527 91.2087C64.5197 90.2908 63.4238 89.3904 62.4294 88.5402C62.1837 88.3256 61.9424 88.1154 61.7054 87.9095L61.0266 87.2919C60.9163 87.1915 60.8066 87.0915 60.6979 86.9933C60.623 86.9215 60.5484 86.8505 60.4745 86.7802L60.3845 86.6946C60.277 86.5925 60.1708 86.4914 60.0659 86.3915L59.7778 86.1174C59.6569 86.0012 59.5405 85.8846 59.4261 85.7698L59.4252 85.769C59.3541 85.6977 59.2833 85.6267 59.2127 85.5572C59.1419 85.486 59.071 85.4161 59.0008 85.3468L59.0002 85.3462C58.8897 85.2372 58.7805 85.1295 58.6765 85.0215C58.5367 84.8744 58.3983 84.7314 58.2628 84.5915L58.2625 84.5912C58.0712 84.3935 57.8856 84.2017 57.7105 84.0135L56.969 83.2021C56.6845 82.8723 56.353 82.4878 55.9877 82.0455C55.741 81.7357 55.5316 81.4811 55.3655 81.279C55.2886 81.1856 55.221 81.1034 55.1632 81.0321C54.9819 80.806 54.8831 80.6968 54.8678 80.7039C54.8601 80.7077 54.906 80.7836 55.0059 80.9316C55.0181 80.9493 55.0312 80.9684 55.0447 80.9883L55.0465 80.991C55.0889 81.0532 55.1384 81.1257 55.1976 81.2074C55.2175 81.234 55.2382 81.2616 55.2598 81.2904L55.3064 81.3527C55.3599 81.4241 55.418 81.5015 55.4804 81.5852C55.5108 81.6254 55.5422 81.667 55.5746 81.71L55.5753 81.7109L55.5756 81.7113C55.7749 81.9757 56.0142 82.2931 56.3115 82.6533L56.3565 82.7086L56.3843 82.7429C56.4159 82.782 56.448 82.8218 56.4804 82.8621C56.6023 83.0135 56.7307 83.1728 56.8701 83.3375L57.5369 84.1145C58.4105 85.0957 59.614 86.4046 61.2669 87.9647C62.9247 89.5198 65.0395 91.3234 67.7507 93.2384C70.4618 95.1408 73.5721 96.9963 77.1175 98.6841C78.8895 99.5277 80.77 100.329 82.7582 101.07C84.748 101.809 86.8459 102.485 89.0481 103.083C91.2421 103.677 93.5088 104.192 95.842 104.594C98.1747 104.997 100.57 105.302 103.015 105.496C107.904 105.873 112.994 105.807 118.133 105.195C118.622 105.142 119.107 105.075 119.591 105.009L119.592 105.008L119.604 105.007C119.708 104.992 119.813 104.978 119.917 104.964L120.047 104.946C120.306 104.913 120.563 104.872 120.819 104.831C120.878 104.822 120.936 104.812 120.995 104.803L121.939 104.654L122.874 104.486C122.909 104.48 122.943 104.474 122.978 104.467C123.048 104.455 123.119 104.442 123.189 104.43L123.19 104.43C123.396 104.393 123.602 104.357 123.805 104.313C123.934 104.287 124.064 104.261 124.193 104.235L124.729 104.128C124.788 104.115 124.846 104.104 124.905 104.092C125 104.073 125.095 104.054 125.189 104.034L125.646 103.932C128.084 103.396 130.45 102.754 132.731 102.017C137.29 100.534 141.503 98.6677 145.305 96.5338C149.11 94.3878 152.365 92.0573 155.121 89.7093C157.878 87.3591 160.148 84.9953 162.005 82.7303C162.939 81.5956 163.745 80.533 164.429 79.5496C164.689 79.189 164.923 78.8356 165.149 78.4964L165.15 78.4942C165.229 78.3755 165.307 78.2585 165.384 78.1435C165.482 78.0003 165.571 77.8571 165.659 77.7166C165.682 77.6799 165.705 77.6434 165.728 77.6072C165.752 77.5678 165.777 77.5287 165.802 77.4899C165.935 77.2775 166.065 77.0722 166.19 76.8734C167.093 75.4009 167.688 74.2512 168.092 73.4699L168.094 73.4653L168.193 73.2739C169.038 71.5904 169.882 69.6509 170.63 67.4481C170.681 67.2859 170.734 67.1227 170.787 66.9583C170.916 66.5622 171.046 66.159 171.16 65.745C171.189 65.6423 171.219 65.5391 171.249 65.4357L171.249 65.4352C171.305 65.2447 171.362 65.0525 171.41 64.8577C171.452 64.6941 171.495 64.5295 171.537 64.3639L171.645 63.9447C171.941 62.7106 172.204 61.4127 172.408 60.0514C173.208 54.5904 172.934 48.8695 171.439 43.1791C169.942 37.5057 167.312 32.155 163.799 27.3755C163.641 27.1528 163.475 26.9366 163.309 26.7217L163.309 26.721L163.308 26.7201C163.25 26.6442 163.191 26.5684 163.133 26.4925C163.062 26.3991 162.99 26.3057 162.918 26.2125L162.801 26.0595C162.729 25.9647 162.653 25.8721 162.578 25.7798L162.577 25.7789C162.538 25.7312 162.499 25.6836 162.461 25.6358C162.385 25.5433 162.311 25.4509 162.236 25.3588L162.236 25.3579L162.233 25.3546C162.083 25.169 161.934 24.9846 161.782 24.8031L161.501 24.475L161.496 24.4693L161.093 23.9987C160.982 23.865 160.865 23.7345 160.748 23.6056C160.638 23.4839 160.529 23.3633 160.42 23.2426L160.399 23.2195C160.284 23.0918 160.169 22.964 160.054 22.8373C159.98 22.7545 159.902 22.6733 159.825 22.5925C159.785 22.5498 159.744 22.5072 159.704 22.4644C159.579 22.3333 159.456 22.2031 159.332 22.0736L159.008 21.7321C158.849 21.573 158.691 21.4151 158.534 21.2584L158.304 21.0277C158.294 21.0184 158.285 21.009 158.275 20.9996L158.246 20.9699C158.225 20.9491 158.204 20.9283 158.184 20.9075C158.108 20.8315 158.033 20.7557 157.955 20.6821C157.837 20.569 157.719 20.4571 157.602 20.3457C157.526 20.2735 157.45 20.2013 157.375 20.1294L157.373 20.1275C157.217 19.9781 157.061 19.8298 156.904 19.685C156.763 19.5588 156.625 19.4326 156.487 19.3071L156.486 19.3067L156.486 19.3061L156.485 19.3056L156.484 19.305C156.158 19.0079 155.836 18.715 155.506 18.4367L154.816 17.8426L154.125 17.2753C153.812 17.0129 153.493 16.7644 153.179 16.5199C153.04 16.4117 152.902 16.3043 152.766 16.1969C152.641 16.0947 152.503 15.9877 152.352 15.8747L151.872 15.5116C151.815 15.4688 151.757 15.4248 151.698 15.3801C151.58 15.2911 151.458 15.1989 151.329 15.1059L151.191 15.008C151.092 14.9381 150.992 14.8662 150.888 14.7926L150.711 14.6663Z" fill="#B3E1FA"/>
<path d="M2.62093 56.5579C-0.279122 59.9226 0.699393 64.6781 5.28291 66.9639C7.39497 66.4246 9.49329 65.8887 11.5772 65.3566L11.8305 65.2919C13.9781 64.7435 16.1103 64.199 18.2264 63.6587C20.4827 60.4031 18.6763 55.7426 14.2878 54.0363C10.1613 52.432 5.32877 53.4149 2.62093 56.5579Z" fill="#B3E1FA"/>
</svg>
