<svg width="331" height="43" viewBox="0 0 331 43" fill="none" xmlns="http://www.w3.org/2000/svg">
<path d="M309.614 31.9345C309.614 34.49 310.416 35.7678 312.022 35.7678C312.579 35.7678 313.25 35.5057 314.037 34.9815C314.823 34.4573 315.544 33.9167 316.199 33.3597C316.494 33.0976 316.641 32.8519 316.641 32.6225C316.641 32.557 316.625 32.5079 316.592 32.4751C316.592 32.3441 316.51 32.3113 316.346 32.3768C316.215 32.3768 316.019 32.4587 315.757 32.6225C315.429 32.8846 315.003 33.114 314.479 33.3106C313.955 33.5071 313.463 33.6054 313.005 33.6054C312.382 33.6054 312.071 32.8846 312.071 31.4431C312.071 30.9844 312.087 30.5257 312.12 30.067C312.186 29.5756 312.251 29.0678 312.317 28.5436C312.382 28.0194 312.431 27.5935 312.464 27.2658C312.53 26.9382 312.579 26.7089 312.612 26.5778C312.743 25.5949 313.021 24.4482 313.447 23.1377C313.873 21.7945 314.413 20.3857 315.069 18.9113C315.724 17.437 316.412 16.0118 317.133 14.6358C318.476 13.0304 319.59 11.6544 320.475 10.5077C321.359 9.32825 322.08 8.46004 322.637 7.90308L322.686 7.85393C323.44 7.10039 323.98 6.34685 324.308 5.5933C324.635 4.83976 324.881 4.15175 325.045 3.52926C325.176 3.1361 325.029 2.66104 324.603 2.10407C324.21 1.54711 323.767 1.26863 323.276 1.26863C322.948 1.26863 322.653 1.44882 322.391 1.80921C321.67 2.89038 320.999 3.92241 320.376 4.90529C319.787 5.88817 319.18 6.95296 318.558 8.09965C317.935 9.21358 317.231 10.5569 316.445 12.1295L315.265 14.4392C315.134 14.5703 314.889 14.8324 314.528 15.2255C314.201 15.5859 313.758 16.0774 313.201 16.6999C310.711 19.4519 308.352 21.9583 306.125 24.2189C303.897 26.4795 301.898 28.2815 300.129 29.6248C298.392 30.9353 296.951 31.5905 295.804 31.5905C294.69 31.5905 294.133 30.8697 294.133 29.4282C294.133 28.7402 294.264 27.9047 294.526 26.9218C295.018 25.0544 295.886 23.1705 297.131 21.2703C298.376 19.3373 300.063 16.9947 302.193 14.2427C303.241 12.8339 304.11 11.6544 304.798 10.7043C305.518 9.75417 306.043 9.01701 306.37 8.4928C307.157 7.21506 307.763 6.10113 308.189 5.15101C308.614 4.16813 308.827 3.26715 308.827 2.44808C308.827 1.69454 308.582 1.17034 308.09 0.875474C307.599 0.547847 306.862 0.384033 305.879 0.384033C304.667 0.384033 303.192 0.777187 301.456 1.56349C299.752 2.3498 297.967 3.41458 296.099 4.75786C294.232 6.06836 292.43 7.54269 290.693 9.18082C289.383 10.393 288.269 11.5561 287.351 12.67C286.434 13.784 285.697 14.816 285.14 15.7661C284.78 16.4214 284.599 17.0275 284.599 17.5845C284.599 18.6001 285.058 19.4356 285.975 20.0908C286.893 20.7461 288.023 21.0737 289.366 21.0737C289.596 21.0737 289.809 21.0409 290.005 20.9754C290.136 20.9426 290.202 20.8607 290.202 20.7297C290.202 20.4021 289.907 20.2382 289.317 20.2382C287.908 20.2382 287.204 19.6157 287.204 18.3708C287.204 17.6172 287.482 16.7162 288.039 15.6678C288.727 14.4884 289.661 13.2106 290.841 11.8346C292.053 10.4258 293.413 9.04977 294.92 7.7065C296.427 6.36323 297.967 5.20015 299.539 4.21727C301.833 2.71019 303.815 1.95664 305.486 1.95664C305.977 1.95664 306.223 2.23513 306.223 2.79209C306.223 3.34906 306.075 4.00431 305.78 4.75786C305.486 5.5114 305.142 6.26494 304.748 7.01848C304.355 7.73926 303.995 8.34537 303.667 8.83681C303.372 9.32825 303.209 9.60674 303.176 9.67226C302.455 10.8517 301.259 12.5881 299.588 14.8815C298.278 16.7162 297.148 18.3544 296.197 19.7959C295.28 21.2047 294.51 22.5316 293.888 23.7766C293.298 24.9888 292.839 26.2338 292.512 27.5116C292.249 28.56 292.118 29.4282 292.118 30.1162C292.118 31.2301 292.38 32.0983 292.905 32.7208C293.429 33.3761 294.215 33.7037 295.264 33.7037C296.115 33.7037 297.213 33.245 298.556 32.3277C299.932 31.4431 301.407 30.28 302.979 28.8384C304.585 27.3969 306.157 25.8734 307.697 24.2681C308.844 23.0558 309.859 21.9747 310.744 21.0245C311.629 20.0417 312.382 19.1735 313.005 18.4199C312.677 19.1079 312.317 20.0089 311.924 21.1228C311.53 22.2368 311.154 23.449 310.793 24.7595C310.466 26.0372 310.187 27.315 309.958 28.5927C309.728 29.8377 309.614 30.9516 309.614 31.9345Z" fill="#C3EAFF"/>
<path fill-rule="evenodd" clip-rule="evenodd" d="M315.654 41.0262C316.113 41.7142 316.703 42.0582 317.423 42.0582C317.849 42.0582 318.275 41.9271 318.701 41.665C320.7 40.4856 322.518 38.7328 324.156 36.4066C325.827 34.0805 327.203 31.5577 328.284 28.8384C328.809 27.4952 329.3 26.1846 329.759 24.9069C330.217 23.5964 330.447 22.335 330.447 21.1228V21.0737C330.447 20.8771 330.463 20.7133 330.496 20.5822C330.529 20.4184 330.545 20.2874 330.545 20.1891C330.545 19.8942 330.496 19.6976 330.397 19.5993C330.266 19.4683 330.135 19.4028 330.004 19.4028L329.857 19.4519C329.726 19.714 329.415 19.8778 328.923 19.9433C328.465 19.9761 328.219 19.9925 328.186 19.9925C328.055 20.0253 327.924 20.0416 327.793 20.0416H327.351L326.859 20.1399C326.695 20.1399 326.532 20.1563 326.368 20.1891C325.45 20.3856 324.566 20.8279 323.714 21.516C322.534 22.4333 321.453 23.5472 320.47 24.8578C319.487 26.1355 318.75 27.2003 318.259 28.0521C317.604 29.1988 317.276 30.0506 317.276 30.6076C317.276 31.0335 317.456 31.3448 317.817 31.5413C318.013 31.6069 318.21 31.6396 318.406 31.6396C319.127 31.6396 319.733 31.4267 320.225 31.0008C320.618 30.6731 321.093 30.2472 321.65 29.723L323.321 28.1504C323.878 27.5934 324.353 27.102 324.746 26.6761C325.172 26.2174 325.434 25.9225 325.532 25.7915C325.598 25.6932 325.729 25.5294 325.925 25.3001C326.122 25.038 326.319 24.8086 326.515 24.612C326.712 24.3827 326.859 24.3008 326.957 24.3663L327.154 24.4155C326.761 26.3485 326.155 28.4617 325.336 30.755C324.517 33.0157 323.468 35.0961 322.19 36.9963C320.913 38.8638 319.504 40.0924 317.964 40.6821C317.866 40.7149 317.784 40.7313 317.718 40.7313C317.653 40.7641 317.587 40.7804 317.522 40.7804C317.063 40.7804 316.67 40.5347 316.342 40.0433C316.015 39.5518 315.851 39.0604 315.851 38.569C315.851 38.3069 315.916 38.0939 316.047 37.9301C316.244 37.668 316.342 37.4059 316.342 37.1438C316.342 36.8489 316.211 36.7015 315.949 36.7015C315.72 36.7015 315.474 36.8817 315.212 37.2421C315.015 37.5697 314.917 38.0775 314.917 38.7655C314.917 39.6174 315.163 40.3709 315.654 41.0262ZM319.193 29.9687C319.127 29.9687 319.029 29.936 318.898 29.8705C318.701 29.7394 318.701 29.4282 318.898 28.9367C319.062 28.478 319.356 27.9375 319.782 27.315C320.143 26.758 320.503 26.2338 320.864 25.7423C321.257 25.2181 321.666 24.7431 322.092 24.3172C322.551 23.793 323.091 23.2524 323.714 22.6954C324.369 22.1384 324.992 21.6634 325.581 21.2702C326.204 20.8771 326.695 20.6805 327.056 20.6805C327.416 20.6805 327.596 20.8279 327.596 21.1228C327.596 21.4504 327.416 21.9091 327.056 22.4988C326.695 23.0886 326.253 23.6947 325.729 24.3172C325.205 24.9397 324.713 25.4802 324.254 25.9389L323.321 26.8235L322.289 27.8555C321.994 28.1504 321.732 28.3797 321.502 28.5436C321.175 28.8057 320.88 29.035 320.618 29.2316C320.388 29.4282 320.159 29.592 319.93 29.723C319.602 29.8868 319.356 29.9687 319.193 29.9687Z" fill="#C3EAFF"/>
<path d="M263.212 33.5563C262.688 33.5563 262.23 33.5071 261.836 33.4088C261.476 33.3106 261.296 33.1795 261.296 33.0157C261.296 32.7536 261.558 32.6062 262.082 32.5734C262.574 32.5406 262.901 32.4915 263.065 32.426C263.36 32.3604 263.704 32.3113 264.097 32.2785C264.457 32.213 264.752 32.1639 264.982 32.1311C266.554 31.6724 267.341 30.968 267.341 30.0179C267.341 29.3626 266.996 28.5272 266.308 27.5116C265.883 26.8891 265.67 26.201 265.67 25.4475C265.67 24.5301 265.948 23.6292 266.505 22.7446C267.095 21.86 267.816 21.0901 268.667 20.4348C269.552 19.7468 270.437 19.2881 271.321 19.0588C271.714 18.9605 272.124 18.9113 272.55 18.9113C273.238 18.9113 273.729 19.0752 274.024 19.4028C274.221 19.5994 274.319 20.0253 274.319 20.6805C274.319 21.172 274.237 21.6798 274.073 22.204C273.909 22.6954 273.68 23.105 273.385 23.4326C273.221 23.5964 273.09 23.6783 272.992 23.6783C272.828 23.6783 272.746 23.449 272.746 22.9903L272.796 22.0074C272.828 21.7453 272.845 21.516 272.845 21.3194C272.877 21.1228 272.894 20.959 272.894 20.828C272.894 20.271 272.779 19.9434 272.55 19.8451C272.288 19.7796 272.108 19.7468 272.009 19.7468C271.321 19.7468 270.584 20.058 269.798 20.6805C269.011 21.303 268.373 22.0238 267.881 22.8429C267.685 23.1377 267.586 23.4981 267.586 23.924C267.586 24.4482 267.717 25.0707 267.979 25.7915C268.274 26.4795 268.487 26.9874 268.618 27.315C268.946 28.0358 269.192 28.6583 269.355 29.1825C269.552 29.7067 269.65 30.1653 269.65 30.5585C269.65 30.7551 269.634 30.9025 269.601 31.0008C269.765 30.9353 270.158 30.837 270.781 30.7059C271.338 30.5749 271.813 30.5093 272.206 30.5093C272.435 30.5093 272.55 30.5585 272.55 30.6568C272.55 30.6895 272.452 30.8042 272.255 31.0008C272.157 31.0991 271.845 31.2629 271.321 31.4922C270.83 31.6888 270.24 31.9018 269.552 32.1311C268.897 32.3604 268.241 32.5734 267.586 32.77C266.931 32.9665 266.374 33.114 265.915 33.2123C265.129 33.4416 264.228 33.5563 263.212 33.5563Z" fill="#C3EAFF"/>
<path fill-rule="evenodd" clip-rule="evenodd" d="M255.731 31.4922C256.255 31.8526 256.861 32.0328 257.549 32.0328C258.335 32.0328 259.203 31.8035 260.154 31.3448C261.136 30.8861 262.021 30.3455 262.807 29.723C263.626 29.1006 264.2 28.5272 264.527 28.003C264.593 27.7081 264.527 27.5607 264.331 27.5607C264.265 27.5607 264.052 27.6918 263.692 27.9539C262.906 28.6091 262.283 29.1006 261.824 29.4282C261.366 29.7558 260.956 30.0015 260.596 30.1653C260.268 30.3292 259.842 30.5094 259.318 30.7059C259.023 30.837 258.663 30.9025 258.237 30.9025C257.68 30.9025 257.238 30.7387 256.91 30.4111C256.615 30.0507 256.468 29.6411 256.468 29.1825V28.8876L256.566 28.5927C257.647 28.0358 258.696 27.4624 259.711 26.8727C260.76 26.2502 261.661 25.5458 262.414 24.7595C263.201 23.9732 263.708 23.0722 263.938 22.0566C264.069 21.4341 263.839 20.9263 263.25 20.5331C262.693 20.14 262.054 19.9434 261.333 19.9434C260.776 19.9434 260.334 20.058 260.006 20.2874C258.139 21.5324 256.746 22.892 255.829 24.3663C254.912 25.8407 254.453 27.2331 254.453 28.5436C254.453 29.8541 254.879 30.837 255.731 31.4922ZM258.483 26.4795C257.664 27.0037 257.123 27.2658 256.861 27.2658C257.221 25.8243 257.909 24.6121 258.925 23.6292C260.399 22.1549 261.448 21.4177 262.07 21.4177C262.267 21.4177 262.414 21.4996 262.512 21.6634C262.611 21.7945 262.66 21.9419 262.66 22.1057C262.66 22.7282 262.037 23.6128 260.792 24.7595C260.072 25.382 259.302 25.9553 258.483 26.4795Z" fill="#C3EAFF"/>
<path d="M254.434 20.7297C254.009 20.7297 253.796 20.6314 253.796 20.4348C253.796 20.271 253.91 20.0417 254.14 19.7468C254.402 19.4192 254.697 19.1407 255.024 18.9114C255.745 18.4527 256.302 18.0595 256.695 17.7319C257.121 17.4043 257.629 16.8473 258.219 16.061C258.251 16.1265 258.268 16.2576 258.268 16.4542C258.268 16.8801 258.087 17.4043 257.727 18.0268C257.399 18.6165 257.023 19.1571 256.597 19.6485C256.171 20.14 255.794 20.4512 255.466 20.5823C255.172 20.6805 254.828 20.7297 254.434 20.7297Z" fill="#C3EAFF"/>
<path d="M250.061 32.77C249.798 32.77 249.553 32.6717 249.323 32.4751C249.094 32.2785 248.979 32.0164 248.979 31.6888C248.979 31.0008 249.454 29.7394 250.405 27.9047L250.945 26.8236C251.011 26.758 251.093 26.5942 251.191 26.3321C251.322 26.07 251.502 25.726 251.731 25.3001C251.961 24.8414 252.141 24.4319 252.272 24.0715C252.403 23.7111 252.501 23.3671 252.567 23.0395C252.567 23.0067 252.632 22.9412 252.764 22.8429C252.895 22.7446 253.026 22.6627 253.157 22.5972L253.452 22.548C253.714 22.548 253.927 22.5972 254.09 22.6954C254.287 22.7937 254.352 22.9248 254.287 23.0886C254.058 23.58 253.861 24.006 253.697 24.3663C253.533 24.7267 253.402 25.038 253.304 25.3001H253.255C252.895 26.1192 252.583 26.9055 252.321 27.659C252.092 28.3798 251.994 29.0678 252.026 29.7231L252.076 31.0499C252.043 31.3776 251.928 31.6561 251.731 31.8854C251.6 31.9837 251.42 32.0984 251.191 32.2294C250.962 32.3932 250.667 32.557 250.306 32.7208C250.274 32.7536 250.192 32.77 250.061 32.77Z" fill="#C3EAFF"/>
<path d="M232.128 31.5905C232.128 32.0492 232.423 32.2785 233.013 32.2785C233.57 32.2785 234.127 32 234.684 31.4431C235.241 30.8861 235.65 30.4438 235.912 30.1162C239.254 26.6106 241.351 24.8578 242.203 24.8578C242.563 24.8578 242.743 25.2018 242.743 25.8898L242.694 27.5115V28.7893C242.727 29.3463 242.793 29.8705 242.891 30.3619C242.989 30.8206 243.153 31.0991 243.382 31.1973C243.644 31.2956 243.907 31.3448 244.169 31.3448C245.512 31.3448 247.216 30.067 249.28 27.5115C249.476 27.2167 249.476 27.0692 249.28 27.0692C249.116 27.0692 249.001 27.0856 248.936 27.1184L247.854 27.8064L246.773 28.5436C246.38 28.8057 245.954 28.9367 245.496 28.9367C245.102 28.9367 244.906 28.7729 244.906 28.4453V27.6098C244.906 27.3477 244.889 27.1511 244.857 27.0201C244.824 26.4304 244.824 25.8243 244.857 25.2018C244.988 23.5964 244.611 22.7937 243.726 22.7937C243.006 22.7937 242.105 23.2851 241.023 24.268C240.335 24.8905 239.697 25.4475 239.107 25.9389C238.55 26.3976 238.042 26.8071 237.583 27.1675C237.551 27.2003 237.42 27.315 237.19 27.5115C236.961 27.6754 236.617 27.9375 236.158 28.2978C235.962 28.2323 235.863 28.0521 235.863 27.7573C235.863 27.102 236.322 25.8406 237.239 23.9732C237.436 23.58 237.632 23.1377 237.829 22.6463C238.026 22.0565 237.878 21.7617 237.387 21.7617C236.928 21.7617 236.584 22.0238 236.355 22.548C235.863 23.7274 235.355 24.8414 234.831 25.8898C234.307 26.9382 233.734 28.0194 233.111 29.1333C232.882 29.5592 232.653 30.0015 232.423 30.4602C232.227 30.9189 232.128 31.2956 232.128 31.5905Z" fill="#C3EAFF"/>
<path fill-rule="evenodd" clip-rule="evenodd" d="M222.775 32.3277C221.497 32.3277 220.858 31.7543 220.858 30.6076V30.2636C220.891 30.0998 220.924 29.9032 220.956 29.6739C221.284 28.3306 221.939 27.0365 222.922 25.7915C223.938 24.5137 225.101 23.3998 226.411 22.4497C226.903 22.0565 227.689 21.86 228.77 21.86C229.393 21.86 229.933 21.9583 230.392 22.1548C230.884 22.3186 231.228 22.5807 231.424 22.9411C231.621 23.2688 231.719 23.6455 231.719 24.0714C231.719 24.137 231.703 24.2353 231.67 24.3663C231.67 24.4974 231.654 24.6448 231.621 24.8086C231.686 24.7758 231.785 24.7595 231.916 24.7595C232.079 24.7595 232.276 24.7431 232.505 24.7103C232.735 24.6776 232.948 24.6448 233.144 24.612C233.374 24.5793 233.603 24.5629 233.832 24.5629H234.029C234.389 24.5629 234.422 24.7103 234.127 25.0052C233.865 25.2673 233.505 25.4311 233.046 25.4966L231.375 25.6932C231.047 26.6106 230.474 27.5279 229.655 28.4453C228.869 29.3626 227.984 30.1653 227.001 30.8533C226.051 31.5086 225.15 31.9345 224.298 32.1311C223.807 32.2621 223.299 32.3277 222.775 32.3277ZM229.065 25.0052H229.753C230.048 24.9724 230.376 24.9397 230.736 24.9069C230.769 24.8414 230.785 24.6939 230.785 24.4646C230.785 23.8749 230.54 23.4653 230.048 23.236C229.786 23.0722 229.458 22.9903 229.065 22.9903C228.574 22.9903 228.066 23.1541 227.542 23.4817C227.05 23.7766 226.526 24.1697 225.969 24.6612C226.657 24.8905 227.689 25.0052 229.065 25.0052ZM224.249 30.6076C224.577 30.6076 225.035 30.4602 225.625 30.1653C226.248 29.8377 226.887 29.4118 227.542 28.8876C228.197 28.3634 228.787 27.8064 229.311 27.2167C229.475 27.0529 229.639 26.8563 229.802 26.6269C229.966 26.3648 230.146 26.1027 230.343 25.8406L229.164 25.9881C227.329 26.2502 225.691 26.3976 224.249 26.4304C223.528 27.6098 223.086 28.5927 222.922 29.379C222.889 29.8049 223.004 30.1162 223.266 30.3127C223.528 30.5093 223.856 30.6076 224.249 30.6076Z" fill="#C3EAFF"/>
<path d="M198.43 32.5242C198.43 32.9174 198.544 33.114 198.774 33.114C199.101 33.114 199.576 32.8191 200.199 32.2294C201.673 30.493 203.295 28.9203 205.064 27.5115C206.375 26.4631 207.194 25.9389 207.521 25.9389C207.783 25.9389 207.931 26.0864 207.964 26.3812C207.996 26.6761 208.045 27.2494 208.111 28.1013V28.8384C208.144 29.1661 208.177 29.592 208.209 30.1162C208.275 30.6076 208.652 30.8533 209.34 30.8533C209.667 30.8533 209.929 30.7551 210.126 30.5585C210.486 30.1653 210.863 29.7885 211.256 29.4282C211.551 29.1661 211.813 28.904 212.043 28.6419C212.305 28.3798 212.534 28.134 212.731 27.9047C214.664 25.5458 215.925 24.3663 216.515 24.3663C216.777 24.3663 216.908 24.612 216.908 25.1035C216.908 25.5949 216.678 26.6761 216.22 28.347C216.089 28.7401 216.023 29.1661 216.023 29.6247C216.023 30.5093 216.433 30.9516 217.252 30.9516C217.645 30.9516 218.087 30.8533 218.579 30.6568C219.103 30.4274 219.578 30.1653 220.004 29.8705C220.43 29.5756 220.725 29.3299 220.889 29.1333C221.052 28.904 220.97 28.7893 220.643 28.7893C220.315 28.7893 219.824 28.904 219.168 29.1333C219.168 29.035 219.037 28.9695 218.775 28.9367C218.546 28.904 218.3 28.8384 218.038 28.7401C217.809 28.6419 217.694 28.4453 217.694 28.1504C217.694 27.6917 217.891 27.0692 218.284 26.2829C218.448 25.8898 218.628 25.3656 218.824 24.7103C219.054 24.0223 219.234 23.4162 219.365 22.892C219.463 22.5644 219.398 22.3023 219.168 22.1057C218.972 21.9091 218.726 21.8108 218.431 21.8108C218.366 21.8108 218.284 21.8272 218.186 21.86C218.12 21.86 218.038 21.8764 217.94 21.9091C217.154 22.1385 216.449 22.5644 215.827 23.1869C215.204 23.8094 214.32 24.7922 213.173 26.1355L211.797 27.7573C211.633 27.9211 211.502 28.003 211.404 28.003C211.174 28.003 210.994 27.8556 210.863 27.5607C210.765 27.2331 210.716 26.8563 210.716 26.4304V26.0864C210.748 25.9553 210.765 25.8243 210.765 25.6932V24.4646C210.765 23.7438 210.683 23.3015 210.519 23.1377C210.159 22.8101 209.847 22.6463 209.585 22.6463C209.29 22.6463 208.979 22.7609 208.652 22.9903C208.488 23.1213 208.275 23.2852 208.013 23.4817C207.751 23.6783 207.456 23.924 207.128 24.2189L204.13 26.971C203.704 27.3313 203.328 27.6098 203 27.8064C202.672 28.003 202.312 28.1996 201.919 28.3961L201.821 28.1996V28.003C201.821 27.3805 202.165 26.4304 202.853 25.1526C203.213 24.5301 203.606 23.9076 204.032 23.2852C204.458 22.6627 204.802 22.2204 205.064 21.9583C205.13 21.8927 205.162 21.7289 205.162 21.4668C205.162 21.2047 205.113 20.9754 205.015 20.7788C204.917 20.5495 204.786 20.4348 204.622 20.4348C204.36 20.4348 203.999 20.7133 203.541 21.2702C203.115 21.7617 202.672 22.4825 202.214 23.4326C201.755 24.3499 201.182 25.5785 200.494 27.1184C199.904 28.5272 199.462 29.5101 199.167 30.067C198.97 30.4602 198.79 30.8861 198.626 31.3448C198.495 31.8035 198.43 32.1966 198.43 32.5242Z" fill="#C3EAFF"/>
<path fill-rule="evenodd" clip-rule="evenodd" d="M192.471 32.0328C191.783 32.0328 191.177 31.8526 190.653 31.4922C189.801 30.837 189.375 29.8541 189.375 28.5436C189.375 27.2331 189.834 25.8407 190.751 24.3663C191.669 22.892 193.061 21.5324 194.928 20.2874C195.256 20.058 195.698 19.9434 196.255 19.9434C196.976 19.9434 197.615 20.14 198.172 20.5331C198.762 20.9263 198.991 21.4341 198.86 22.0566C198.631 23.0722 198.123 23.9732 197.337 24.7595C196.583 25.5458 195.682 26.2502 194.634 26.8727C193.618 27.4624 192.57 28.0358 191.488 28.5927L191.39 28.8876V29.1825C191.39 29.6411 191.538 30.0507 191.832 30.4111C192.16 30.7387 192.602 30.9025 193.159 30.9025C193.585 30.9025 193.946 30.837 194.24 30.7059C194.765 30.5094 195.191 30.3292 195.518 30.1653C195.879 30.0015 196.288 29.7558 196.747 29.4282C197.205 29.1006 197.828 28.6091 198.614 27.9539C198.975 27.6918 199.188 27.5607 199.253 27.5607C199.45 27.5607 199.515 27.7081 199.45 28.003C199.122 28.5272 198.549 29.1006 197.73 29.723C196.943 30.3455 196.059 30.8861 195.076 31.3448C194.126 31.8035 193.258 32.0328 192.471 32.0328ZM191.783 27.2658C192.045 27.2658 192.586 27.0037 193.405 26.4795C194.224 25.9553 194.994 25.382 195.715 24.7595C196.96 23.6128 197.582 22.7282 197.582 22.1057C197.582 21.9419 197.533 21.7945 197.435 21.6634C197.337 21.4996 197.189 21.4177 196.993 21.4177C196.37 21.4177 195.322 22.1549 193.847 23.6292C192.832 24.6121 192.144 25.8243 191.783 27.2658Z" fill="#C3EAFF"/>
<path d="M179.337 31.3939C179.337 32.1475 179.55 32.5242 179.976 32.5242C180.27 32.5242 180.533 32.4096 180.762 32.1802C181.221 31.1318 181.941 29.9032 182.924 28.4944C183.907 27.0529 185.005 25.8243 186.217 24.8086C187.364 23.793 188.461 23.2852 189.51 23.2852C189.804 23.2852 190.001 23.3015 190.099 23.3343C190.198 23.4326 190.329 23.4817 190.492 23.4817C190.82 23.4817 191.148 23.2852 191.475 22.892C191.803 22.4661 191.967 22.0729 191.967 21.7125C191.967 21.2866 191.705 21.0737 191.18 21.0737C190.591 21.0737 189.87 21.303 189.018 21.7617C188.166 22.2204 187.249 22.8101 186.266 23.5309C185.316 24.2189 184.382 24.9724 183.465 25.7915C183.563 25.2345 183.874 24.268 184.399 22.892C184.562 22.4661 184.693 22.1057 184.792 21.8108C184.923 21.4832 185.021 21.2047 185.087 20.9754C185.25 20.5822 185.119 20.3857 184.693 20.3857C184.497 20.3857 184.3 20.4839 184.104 20.6805L183.023 22.8429C182.662 23.6292 182.269 24.4482 181.843 25.3001C181.221 26.7089 180.533 28.134 179.779 29.5756C179.484 30.1653 179.337 30.7714 179.337 31.3939Z" fill="#C3EAFF"/>
<path fill-rule="evenodd" clip-rule="evenodd" d="M173.034 32.0328C172.346 32.0328 171.74 31.8526 171.216 31.4922C170.364 30.837 169.938 29.8541 169.938 28.5436C169.938 27.2331 170.397 25.8407 171.314 24.3663C172.232 22.892 173.624 21.5324 175.492 20.2874C175.819 20.058 176.261 19.9434 176.818 19.9434C177.539 19.9434 178.178 20.14 178.735 20.5331C179.325 20.9263 179.554 21.4341 179.423 22.0566C179.194 23.0722 178.686 23.9732 177.9 24.7595C177.146 25.5458 176.245 26.2502 175.197 26.8727C174.181 27.4624 173.133 28.0358 172.051 28.5927L171.953 28.8876V29.1825C171.953 29.6411 172.101 30.0507 172.395 30.4111C172.723 30.7387 173.165 30.9025 173.722 30.9025C174.148 30.9025 174.509 30.837 174.804 30.7059C175.328 30.5094 175.754 30.3292 176.081 30.1653C176.442 30.0015 176.851 29.7558 177.31 29.4282C177.769 29.1006 178.391 28.6091 179.177 27.9539C179.538 27.6918 179.751 27.5607 179.816 27.5607C180.013 27.5607 180.078 27.7081 180.013 28.003C179.685 28.5272 179.112 29.1006 178.293 29.723C177.506 30.3455 176.622 30.8861 175.639 31.3448C174.689 31.8035 173.821 32.0328 173.034 32.0328ZM172.346 27.2658C172.608 27.2658 173.149 27.0037 173.968 26.4795C174.787 25.9553 175.557 25.382 176.278 24.7595C177.523 23.6128 178.145 22.7282 178.145 22.1057C178.145 21.9419 178.096 21.7945 177.998 21.6634C177.9 21.4996 177.752 21.4177 177.556 21.4177C176.933 21.4177 175.885 22.1549 174.41 23.6292C173.395 24.6121 172.707 25.8243 172.346 27.2658Z" fill="#C3EAFF"/>
<path d="M145.997 33.2614C147.275 34.3753 149.159 34.8832 151.649 34.7849C152.927 34.7194 154.368 34.3262 155.974 33.6054C157.579 32.9174 159.25 31.9837 160.986 30.8042C162.723 29.592 164.41 28.2487 166.048 26.7744C167.293 25.6605 168.407 24.5793 169.39 23.5309C170.406 22.4497 171.307 21.3849 172.093 20.3365C172.355 19.9761 172.486 19.6321 172.486 19.3045C172.486 19.1734 172.437 19.1079 172.339 19.1079C172.175 19.1079 171.962 19.239 171.7 19.5011C170.717 20.8116 169.505 22.1712 168.063 23.58C166.654 24.9888 165.131 26.3321 163.493 27.6098C161.855 28.8876 160.2 30.0179 158.529 31.0008C155.875 32.5406 153.598 33.3106 151.698 33.3106C149.962 33.3106 148.602 32.8191 147.619 31.8362C146.669 30.8861 146.194 29.5265 146.194 27.7573C146.194 26.5123 146.423 25.169 146.882 23.7275C147.635 21.3685 148.782 19.0424 150.322 16.749C151.895 14.4229 153.697 12.2605 155.728 10.262C157.759 8.26346 159.856 6.5598 162.018 5.15101C165.196 3.05419 167.801 2.00578 169.832 2.00578C170.651 2.00578 171.323 2.23512 171.847 2.6938C172.404 3.11972 172.683 3.74221 172.683 4.56127C172.683 5.11824 172.552 5.74073 172.29 6.42875C171.7 7.9686 170.848 9.44292 169.734 10.8517C168.653 12.2278 167.359 13.4072 165.852 14.3901C164.345 15.373 162.641 16.061 160.741 16.4541C160.413 16.5197 160.135 16.4541 159.905 16.2576C159.709 16.061 159.61 15.7661 159.61 15.373C159.61 14.3573 160.216 13.0468 161.429 11.4414C161.756 11.0155 161.936 10.7043 161.969 10.5077C161.969 10.2456 161.871 10.0982 161.674 10.0654C161.314 10.0654 160.904 10.3767 160.446 10.9991C158.742 13.096 157.89 14.7832 157.89 16.061C157.89 17.1094 158.464 17.6336 159.61 17.6336C159.905 17.6336 160.38 17.5517 161.035 17.3879C163.132 16.7981 165.131 15.8644 167.031 14.5867C168.964 13.2762 170.569 11.9001 171.847 10.4586C173.158 9.017 173.977 7.83755 174.304 6.92019C174.567 6.23217 174.698 5.57692 174.698 4.95443C174.698 3.77497 174.272 2.79209 173.42 2.00578C172.601 1.21948 171.651 0.74442 170.569 0.580607C170.275 0.547843 170.012 0.531461 169.783 0.531461C169.554 0.498699 169.357 0.482317 169.193 0.482317C167.424 0.482317 165.524 0.908233 163.493 1.76006C161.461 2.57913 159.414 3.79135 157.35 5.39673C155.286 7.0021 153.32 8.98424 151.452 11.3432C148.668 14.8815 146.505 19.0096 144.965 23.7275C144.408 25.5949 144.13 27.1675 144.13 28.4453C144.13 30.5421 144.752 32.1475 145.997 33.2614Z" fill="#C3EAFF"/>
<path d="M127.693 34.7357C127.332 34.7357 127.021 34.621 126.759 34.3917C126.53 34.1624 126.431 33.8839 126.464 33.5563C126.366 33.0976 126.431 32.4259 126.661 31.5414C126.923 30.6895 127.283 29.723 127.742 28.6419C128.201 27.5607 128.692 26.4467 129.216 25.3001C129.773 24.1534 130.297 23.0886 130.789 22.1057L127.496 22.9903H127.398C127.168 22.9903 127.054 22.8756 127.054 22.6463C127.054 22.3186 127.185 21.9419 127.447 21.516C127.742 21.0573 128.053 20.7788 128.381 20.6805C128.708 20.5495 129.167 20.4348 129.757 20.3365C130.346 20.2382 131.084 20.1235 131.968 19.9925C137.538 10.6551 141.06 5.92091 142.534 5.78986C144.271 5.59328 145.139 6.69083 145.139 9.08251C145.139 9.37738 145.106 9.73777 145.041 10.1637C145.008 10.5568 144.959 11.0319 144.893 11.5889C144.86 11.9165 144.746 12.0803 144.549 12.0803C144.418 12.0803 144.303 11.982 144.205 11.7854C144.14 11.5889 144.14 11.3431 144.205 11.0483C144.303 10.4585 144.353 9.96711 144.353 9.57395C144.353 8.29621 143.976 7.65733 143.222 7.65733C142.469 7.65733 141.273 8.83679 139.635 11.1957C138.816 12.4079 137.931 13.7348 136.981 15.1764C136.064 16.5852 135.097 18.1086 134.081 19.7468C134.376 19.714 134.671 19.6976 134.966 19.6976C135.261 19.6649 135.539 19.6485 135.801 19.6485H136.784C137.178 19.6157 137.587 19.583 138.013 19.5502C138.275 19.3536 138.521 19.2553 138.75 19.2553C139.176 19.2553 139.389 19.4847 139.389 19.9433C139.389 20.4348 139.111 20.6805 138.554 20.6805C138.39 20.6805 138.16 20.6314 137.866 20.5331C137.014 20.5986 136.358 20.6805 135.9 20.7788C135.441 20.8443 135.015 20.9426 134.622 21.0737L133.049 21.4668C132.23 22.8101 131.46 24.1534 130.74 25.4966C130.019 26.8071 129.413 28.0194 128.921 29.1333C128.463 30.2472 128.233 31.1646 128.233 31.8854C128.233 32.5406 128.495 32.8846 129.02 32.9174C129.478 32.7208 129.806 32.6225 130.002 32.6225C130.232 32.6225 130.346 32.7044 130.346 32.8682C130.346 33.1631 130.002 33.5726 129.314 34.0968C128.79 34.5228 128.25 34.7357 127.693 34.7357Z" fill="#C3EAFF"/>
<path fill-rule="evenodd" clip-rule="evenodd" d="M114.555 30.6076C114.555 31.7543 115.194 32.3277 116.472 32.3277C116.996 32.3277 117.504 32.2621 117.995 32.1311C118.847 31.9345 119.748 31.5086 120.698 30.8533C121.681 30.1653 122.566 29.3626 123.352 28.4453C124.171 27.5279 124.744 26.6106 125.072 25.6932L126.743 25.4966C127.202 25.4311 127.562 25.2673 127.824 25.0052C128.119 24.7103 128.086 24.5629 127.726 24.5629H127.529C127.3 24.5629 127.07 24.5793 126.841 24.612C126.645 24.6448 126.432 24.6776 126.202 24.7103C125.973 24.7431 125.776 24.7595 125.613 24.7595C125.481 24.7595 125.383 24.7758 125.318 24.8086C125.35 24.6448 125.367 24.4974 125.367 24.3663C125.4 24.2353 125.416 24.137 125.416 24.0714C125.416 23.6455 125.318 23.2688 125.121 22.9411C124.924 22.5807 124.58 22.3186 124.089 22.1548C123.63 21.9583 123.09 21.86 122.467 21.86C121.386 21.86 120.6 22.0565 120.108 22.4497C118.798 23.3998 117.635 24.5137 116.619 25.7915C115.636 27.0365 114.981 28.3306 114.653 29.6739C114.621 29.9032 114.588 30.0998 114.555 30.2636V30.6076ZM123.45 25.0052H122.762C121.386 25.0052 120.354 24.8905 119.666 24.6612C120.223 24.1697 120.747 23.7766 121.239 23.4817C121.763 23.1541 122.271 22.9903 122.762 22.9903C123.155 22.9903 123.483 23.0722 123.745 23.236C124.236 23.4653 124.482 23.8749 124.482 24.4646C124.482 24.6939 124.466 24.8414 124.433 24.9069C124.073 24.9397 123.745 24.9724 123.45 25.0052ZM119.322 30.1653C118.732 30.4602 118.274 30.6076 117.946 30.6076C117.553 30.6076 117.225 30.5093 116.963 30.3127C116.701 30.1162 116.586 29.8049 116.619 29.379C116.783 28.5927 117.225 27.6098 117.946 26.4304C119.388 26.3976 121.026 26.2502 122.86 25.9881L124.04 25.8406C123.843 26.1027 123.663 26.3648 123.499 26.6269C123.336 26.8563 123.172 27.0529 123.008 27.2167C122.484 27.8064 121.894 28.3634 121.239 28.8876C120.583 29.4118 119.945 29.8377 119.322 30.1653Z" fill="#C3EAFF"/>
<path d="M96.5648 32.5242C96.1389 32.5242 95.926 32.1475 95.926 31.3939C95.926 30.7714 96.0734 30.1653 96.3683 29.5756C97.1218 28.134 97.8098 26.7089 98.4323 25.3001C98.8582 24.4482 99.2514 23.6292 99.6118 22.8429L100.693 20.6805C100.89 20.4839 101.086 20.3857 101.283 20.3857C101.709 20.3857 101.84 20.5822 101.676 20.9754C101.61 21.2047 101.512 21.4832 101.381 21.8108C101.283 22.1057 101.152 22.4661 100.988 22.892C100.464 24.268 100.152 25.2345 100.054 25.7915C100.971 24.9724 101.905 24.2189 102.855 23.5309C103.838 22.8101 104.756 22.2204 105.607 21.7617C106.459 21.303 107.18 21.0737 107.77 21.0737C108.294 21.0737 108.556 21.2866 108.556 21.7125C108.556 22.0729 108.392 22.4661 108.065 22.892C107.737 23.2852 107.409 23.4817 107.082 23.4817C106.918 23.4817 106.787 23.4326 106.689 23.3343C106.59 23.3015 106.394 23.2852 106.099 23.2852C105.05 23.2852 103.953 23.793 102.806 24.8086C101.594 25.8243 100.496 27.0529 99.5135 28.4944C98.5306 29.9032 97.8098 31.1318 97.3512 32.1802C97.1218 32.4096 96.8597 32.5242 96.5648 32.5242Z" fill="#C3EAFF"/>
<path fill-rule="evenodd" clip-rule="evenodd" d="M87.8053 31.4922C88.3295 31.8526 88.9356 32.0328 89.6236 32.0328C90.4099 32.0328 91.2781 31.8035 92.2282 31.3448C93.2111 30.8861 94.0957 30.3455 94.882 29.723C95.7011 29.1006 96.2745 28.5272 96.6021 28.003C96.6676 27.7081 96.6021 27.5607 96.4055 27.5607C96.34 27.5607 96.127 27.6918 95.7666 27.9539C94.9803 28.6091 94.3578 29.1006 93.8992 29.4282C93.4405 29.7558 93.0309 30.0015 92.6705 30.1653C92.3429 30.3292 91.917 30.5094 91.3928 30.7059C91.0979 30.837 90.7375 30.9025 90.3116 30.9025C89.7547 30.9025 89.3124 30.7387 88.9847 30.4111C88.6899 30.0507 88.5424 29.6411 88.5424 29.1825V28.8876L88.6407 28.5927C89.7219 28.0358 90.7703 27.4624 91.7859 26.8727C92.8344 26.2502 93.7353 25.5458 94.4889 24.7595C95.2752 23.9732 95.783 23.0722 96.0124 22.0566C96.1434 21.4341 95.9141 20.9263 95.3243 20.5331C94.7674 20.14 94.1285 19.9434 93.4077 19.9434C92.8507 19.9434 92.4084 20.058 92.0808 20.2874C90.2133 21.5324 88.8209 22.892 87.9036 24.3663C86.9862 25.8407 86.5275 27.2331 86.5275 28.5436C86.5275 29.8541 86.9534 30.837 87.8053 31.4922ZM90.5573 26.4795C89.7383 27.0037 89.1977 27.2658 88.9356 27.2658C89.296 25.8243 89.984 24.6121 90.9996 23.6292C92.474 22.1549 93.5224 21.4177 94.1449 21.4177C94.3415 21.4177 94.4889 21.4996 94.5872 21.6634C94.6855 21.7945 94.7346 21.9419 94.7346 22.1057C94.7346 22.7282 94.1121 23.6128 92.8671 24.7595C92.1463 25.382 91.3764 25.9553 90.5573 26.4795Z" fill="#C3EAFF"/>
<path d="M77.3794 36.0626C77.2156 36.0626 77.1337 35.9152 77.1337 35.6203V35.3255C77.1665 35.2272 77.1992 35.1125 77.232 34.9815L79.3452 29.6739L81.8515 23.4817C81.4584 23.449 80.885 23.4654 80.1315 23.5309C79.378 23.5636 78.7391 23.6292 78.2149 23.7275C78.0183 23.7602 77.8545 23.793 77.7234 23.8258H77.4777C77.2156 23.8258 77.0354 23.7111 76.9371 23.4817C76.9699 23.2852 77.1501 23.105 77.4777 22.9412C77.6415 22.8756 77.8381 22.8265 78.0674 22.7937C78.2968 22.7282 78.5753 22.6627 78.9029 22.5971C79.2633 22.5316 79.5745 22.4825 79.8366 22.4497C80.1315 22.417 80.3445 22.3842 80.4755 22.3514L80.9669 22.2531C81.1308 22.2204 81.3273 22.1876 81.5567 22.1549C81.7533 22.1221 81.9662 22.0893 82.1955 22.0566C82.4249 22.0238 82.6706 21.9747 82.9327 21.9091C83.1948 21.5487 83.588 20.9099 84.1122 19.9925C84.6364 19.0752 85.308 17.8629 86.1271 16.3559C86.7823 15.1436 87.3065 14.1935 87.6997 13.5055C88.1256 12.7847 88.4205 12.3097 88.5843 12.0803C88.8792 11.6872 89.2232 11.4906 89.6163 11.4906C89.8129 11.4906 89.9112 11.5725 89.9112 11.7363C89.9112 11.7691 89.8293 11.982 89.6655 12.3752C89.4689 12.7028 89.1413 13.3089 88.6826 14.1935C88.2239 15.0781 87.7325 16.0446 87.2083 17.093C86.6841 18.1414 86.209 19.1243 85.7831 20.0417C85.3572 20.959 85.0623 21.6306 84.8985 22.0566C85.0623 22.0238 85.2425 22.0074 85.4391 22.0074H86.2745C86.6349 22.0074 86.9625 22.0238 87.2574 22.0566C87.585 22.0566 87.8635 22.0729 88.0929 22.1057C88.5515 22.204 88.7809 22.335 88.7809 22.4989C88.7809 22.5644 88.6334 22.6791 88.3386 22.8429C88.1748 22.9084 87.8635 22.9739 87.4048 23.0394C86.9462 23.105 86.34 23.1705 85.5865 23.236C85.3899 23.236 85.177 23.2524 84.9476 23.2852C84.7183 23.2852 84.4726 23.3015 84.2105 23.3343C83.2276 24.9397 81.8843 27.6098 80.1806 31.3448C79.5581 32.5898 79.0831 33.5563 78.7555 34.2443C78.4278 34.9323 78.2313 35.3418 78.1657 35.4729C77.8709 35.8661 77.6088 36.0626 77.3794 36.0626Z" fill="#C3EAFF"/>
<path d="M64.7797 33.4088C65.1728 33.5071 65.6315 33.5563 66.1557 33.5563C67.1714 33.5563 68.0723 33.4416 68.8586 33.2123C69.3173 33.114 69.8743 32.9665 70.5295 32.77C71.1848 32.5734 71.8401 32.3604 72.4953 32.1311C73.1833 31.9018 73.7731 31.6888 74.2645 31.4922C74.7887 31.2629 75.1 31.0991 75.1982 31.0008C75.3948 30.8042 75.4931 30.6895 75.4931 30.6568C75.4931 30.5585 75.3784 30.5093 75.1491 30.5093C74.7559 30.5093 74.2809 30.5749 73.7239 30.7059C73.1014 30.837 72.7083 30.9353 72.5445 31.0008C72.5772 30.9025 72.5936 30.7551 72.5936 30.5585C72.5936 30.1653 72.4953 29.7067 72.2987 29.1825C72.1349 28.6583 71.8892 28.0358 71.5616 27.315C71.4305 26.9874 71.2176 26.4795 70.9227 25.7915C70.6606 25.0707 70.5295 24.4482 70.5295 23.924C70.5295 23.4981 70.6278 23.1377 70.8244 22.8429C71.3158 22.0238 71.9547 21.303 72.741 20.6805C73.5273 20.058 74.2645 19.7468 74.9525 19.7468C75.0508 19.7468 75.231 19.7796 75.4931 19.8451C75.7224 19.9434 75.8371 20.271 75.8371 20.828C75.8371 20.959 75.8207 21.1228 75.788 21.3194C75.788 21.516 75.7716 21.7453 75.7388 22.0074L75.6897 22.9903C75.6897 23.449 75.7716 23.6783 75.9354 23.6783C76.0337 23.6783 76.1647 23.5964 76.3286 23.4326C76.6234 23.105 76.8528 22.6954 77.0166 22.204C77.1804 21.6798 77.2623 21.172 77.2623 20.6805C77.2623 20.0253 77.164 19.5994 76.9674 19.4028C76.6726 19.0752 76.1811 18.9113 75.4931 18.9113C75.0672 18.9113 74.6577 18.9605 74.2645 19.0588C73.3799 19.2881 72.4953 19.7468 71.6107 20.4348C70.7589 21.0901 70.0381 21.86 69.4484 22.7446C68.8914 23.6292 68.6129 24.5301 68.6129 25.4475C68.6129 26.201 68.8259 26.8891 69.2518 27.5116C69.9398 28.5272 70.2838 29.3626 70.2838 30.0179C70.2838 30.968 69.4975 31.6724 67.9249 32.1311C67.6956 32.1639 67.4007 32.213 67.0403 32.2785C66.6471 32.3113 66.3031 32.3604 66.0083 32.426C65.8445 32.4915 65.5168 32.5406 65.0254 32.5734C64.5012 32.6062 64.2391 32.7536 64.2391 33.0157C64.2391 33.1795 64.4193 33.3106 64.7797 33.4088Z" fill="#C3EAFF"/>
<path fill-rule="evenodd" clip-rule="evenodd" d="M60.8485 32.8191C60.783 32.8191 60.7175 32.8027 60.652 32.77C60.5864 32.77 60.5209 32.7536 60.4554 32.7208C59.9967 32.4915 59.7018 32.1638 59.5708 31.7379C59.4397 31.312 59.407 30.7714 59.4725 30.1162C59.538 29.8541 59.6035 29.3954 59.6691 28.7401C59.7674 28.0849 59.882 27.5607 60.0131 27.1675L57.5067 29.5756L56.1307 30.9025C55.1806 31.8526 54.3943 32.3277 53.7718 32.3277C53.5097 32.3277 53.2967 32.2294 53.1329 32.0328C52.838 31.6724 52.6906 31.2301 52.6906 30.7059C52.6906 30.0179 52.8708 29.2807 53.2312 28.4944C53.5916 27.7081 54.0175 26.9546 54.5089 26.2338C55.0004 25.4802 55.4427 24.8578 55.8358 24.3663C56.8187 23.1541 57.7688 22.204 58.6862 21.516C59.6363 20.8279 60.6192 20.4839 61.6348 20.4839C62.1918 20.4839 62.7324 20.5822 63.2566 20.7788C63.8136 20.9754 64.3214 21.303 64.7801 21.7617L64.8292 21.8108C64.8292 21.9091 64.7473 22.0074 64.5835 22.1057C64.518 22.1712 64.4524 22.2204 64.3869 22.2531L64.2886 22.3514C63.8955 22.7446 63.4532 23.3998 62.9617 24.3172C62.4703 25.2345 62.0444 26.201 61.684 27.2167C61.3236 28.1996 61.1434 29.0514 61.1434 29.7722C61.1434 30.4274 61.3072 30.8697 61.6348 31.0991C61.7987 31.1973 61.9789 31.2465 62.1754 31.2465C62.6013 31.2465 63.1911 30.9844 63.9446 30.4602C63.9774 30.4274 64.0429 30.3783 64.1412 30.3128C64.2722 30.2145 64.4524 30.0834 64.6818 29.9196C64.9439 29.723 65.1569 29.6247 65.3207 29.6247C65.4845 29.6247 65.5664 29.6903 65.5664 29.8213C65.5664 30.0179 65.4353 30.2472 65.1732 30.5093C64.9766 30.6731 64.7473 30.8533 64.4852 31.0499C64.2559 31.2465 63.9774 31.4431 63.6498 31.6396C63.1583 32 62.6505 32.2785 62.1263 32.4751C61.6021 32.7044 61.1762 32.8191 60.8485 32.8191ZM55.2952 29.6739C55.9833 29.6739 57.261 28.6582 59.1285 26.6269C59.6199 26.07 60.0622 25.5458 60.4554 25.0543C60.8485 24.5301 61.2089 24.0223 61.5366 23.5309C62.1263 22.5807 62.3229 21.9255 62.1263 21.5651C62.028 21.3685 61.8314 21.2702 61.5366 21.2702C61.1762 21.2702 60.6847 21.4668 60.0622 21.86C59.4397 22.2204 58.8009 22.6954 58.1456 23.2851C57.5231 23.8749 56.9498 24.4646 56.4256 25.0543C56.0652 25.513 55.7048 26.1519 55.3444 26.971C54.984 27.79 54.8038 28.4617 54.8038 28.9859C54.8038 29.4445 54.9676 29.6739 55.2952 29.6739Z" fill="#C3EAFF"/>
<path d="M45.6042 33.0648C46.2267 34.015 47.0294 34.49 48.0123 34.49C48.6676 34.49 49.3556 34.2443 50.0764 33.7529C50.8299 33.2614 51.5507 32.5079 52.2387 31.4922C52.3698 31.3612 52.4353 31.2138 52.4353 31.0499C52.4353 30.9844 52.3861 30.9025 52.2878 30.8042C52.0257 30.7059 51.7309 30.8697 51.4033 31.2957C50.4859 32.4751 49.6177 33.0648 48.7986 33.0648C48.1761 33.0648 47.7011 32.7045 47.3734 31.9837C47.0786 31.2629 46.9639 30.4274 47.0294 29.4773C47.2588 27.3805 47.7502 25.0544 48.5037 22.4989C49.2901 19.9106 50.3548 17.0766 51.6981 13.997L51.7473 14.0461C52.3698 12.6045 53.0742 11.1138 53.8605 9.57398C54.6795 8.00137 55.5314 6.34686 56.416 4.61043L57.2514 2.98868C57.448 2.59553 57.3497 2.23514 56.9565 1.90751C56.5634 1.57988 56.1211 1.41607 55.6297 1.41607C55.0072 1.41607 54.614 1.66179 54.4502 2.15323C53.9915 3.66032 53.1724 5.4295 51.993 7.46079C50.8463 9.49208 49.4375 11.6872 47.7666 14.0461C46.1284 16.3722 44.3265 18.7803 42.3607 21.2703C42.0331 21.6962 41.5908 22.204 41.0338 22.7937C40.5096 23.3507 39.9527 23.8913 39.3629 24.4155C38.7732 24.9397 38.1998 25.382 37.6429 25.7424C37.1187 26.1028 36.6928 26.283 36.3651 26.283C35.6116 26.2502 35.0546 26.0372 34.6942 25.6441C34.3666 25.2182 34.2028 24.5138 34.2028 23.5309V22.8429C34.2028 22.6135 34.2192 22.4333 34.2519 22.3023C34.4157 20.828 34.7106 19.3864 35.1365 17.9776C35.5624 16.5688 36.1358 15.0617 36.8566 13.4564L37.4463 12.1295C37.7084 11.5725 37.9214 11.0811 38.0852 10.6552C38.2817 10.2292 38.4128 9.88523 38.4783 9.62313C38.7077 8.90235 38.9042 8.21433 39.0681 7.55908C39.2319 6.90382 39.3629 6.26495 39.4612 5.64246C39.494 5.41312 39.3138 5.20016 38.9206 5.00358C38.5602 4.80701 38.1507 4.70872 37.692 4.70872C37.2661 4.70872 36.9057 4.80701 36.6108 5.00358C36.3487 5.1674 36.2177 5.46226 36.2177 5.88818C36.1849 6.28133 36.1358 6.70725 36.0703 7.16592C36.0047 7.6246 35.8901 8.13242 35.7263 8.68939L34.5959 12.7192C33.482 16.6835 32.794 19.9106 32.5319 22.4006C32.4336 23.1869 32.3845 23.9077 32.3845 24.5629C32.3845 26.1683 32.6302 27.4297 33.1216 28.347C33.6131 29.2644 34.3502 29.7067 35.3331 29.6739C36.0211 29.6739 37.348 28.5764 39.3138 26.3813C39.7397 25.9226 40.1492 25.4639 40.5424 25.0052C40.9683 24.5138 41.3615 24.0387 41.7218 23.58C42.0822 23.1214 42.3607 22.761 42.5573 22.4989C42.7866 22.204 42.9341 22.0238 42.9996 21.9583C43.491 21.303 44.048 20.5495 44.6705 19.6977C45.293 18.8458 45.981 17.8793 46.7346 16.7982L47.6191 15.5204C48.3727 14.4392 49.0443 13.4891 49.6341 12.6701C50.2566 11.8182 50.7808 11.0975 51.2067 10.5077C50.191 12.7356 49.2245 15.0454 48.3072 17.437C47.4226 19.7959 46.669 22.0566 46.0465 24.2189C45.4568 26.3485 45.08 28.1996 44.9162 29.7722C44.7852 31.0499 45.0145 32.1475 45.6042 33.0648Z" fill="#C3EAFF"/>
<path d="M2.40649 35.1289C3.68424 36.5377 5.40429 37.2421 7.56663 37.2421C9.2703 37.2421 11.1378 36.7834 13.1691 35.8661C15.2331 34.9487 17.3463 33.5727 19.5087 31.738C22.7522 29.0187 25.6845 25.6277 28.3055 21.5651H28.2563L29.1409 20.14C30.3204 18.207 31.3688 16.4705 32.2862 14.9307C33.2363 13.3581 34.0881 12.0148 34.8417 10.9009C34.9727 10.7371 34.9563 10.5241 34.7925 10.262C34.6942 10.0654 34.5959 10.049 34.4977 10.2129C33.8424 11.1957 33.2199 12.1131 32.6302 12.9649C32.0404 13.784 31.4835 14.5539 30.9593 15.2747C30.8937 15.373 30.5334 15.8972 29.8781 16.8473C29.2228 17.7974 28.2727 19.1735 27.0277 20.9754C24.5705 24.5465 21.8676 27.6426 18.9189 30.2636C16.7894 32.1311 14.7744 33.5235 12.8742 34.4409C10.974 35.3582 9.25392 35.8169 7.71406 35.8169C6.0104 35.8169 4.66712 35.26 3.68424 34.146C2.73412 33.0321 2.25906 31.4759 2.25906 29.4773C2.25906 26.3321 3.47128 22.5153 5.89573 18.0268C7.40282 15.3075 9.00819 13.3089 10.7119 12.0312C12.4483 10.7207 14.1028 10.0654 15.6754 10.0654C16.9859 10.0654 18.0671 10.4913 18.9189 11.3432C19.7708 12.1622 20.1967 13.227 20.1967 14.5375C20.1967 15.4549 19.951 16.4378 19.4595 17.4862C18.9681 18.5018 18.2309 19.5175 17.248 20.5331C16.9859 20.7952 16.8549 21.0246 16.8549 21.2211C16.8549 21.4177 16.9368 21.516 17.1006 21.516C17.2644 21.516 17.4282 21.4341 17.592 21.2703C18.9681 19.9925 19.9837 18.7148 20.639 17.437C21.327 16.1593 21.671 14.9307 21.671 13.7512C21.671 12.1786 21.114 10.8845 20.0001 9.86885C18.9189 8.8532 17.5429 8.34538 15.872 8.34538C13.9718 8.34538 11.9732 9.09892 9.87641 10.606C7.81235 12.0803 5.92849 14.3573 4.22483 17.437C1.73485 21.9255 0.489868 25.8898 0.489868 29.3299C0.489868 31.8199 1.12874 33.7529 2.40649 35.1289Z" fill="#C3EAFF"/>
</svg>
