<svg width="91" height="94" viewBox="0 0 91 94" fill="none" xmlns="http://www.w3.org/2000/svg">
<path d="M44.4373 25.8656C40.8164 25.8656 37.1943 27.2487 34.447 30.0205C28.952 35.5634 28.9518 44.5856 34.447 50.1285L51.7319 67.563C52.4739 68.3126 53.6855 68.3126 54.4275 67.563L60.9075 61.0229C62.8905 59.2326 59.993 56.3585 58.2192 58.3565L53.0797 63.5337L37.1427 47.4546C33.0903 43.3673 33.0905 36.7738 37.1427 32.6865C41.1946 28.5995 47.6799 28.5995 51.7319 32.6865C52.4739 33.4361 53.6855 33.4361 54.4275 32.6865C58.4793 28.5986 64.9645 28.5991 69.0167 32.6865C73.0697 36.7738 73.0692 43.3669 69.0167 47.4546C67.2343 49.2521 69.93 51.9258 71.7123 50.1285C77.2077 44.5852 77.2082 35.5634 71.7123 30.0205C66.6147 24.8786 58.4652 24.529 53.1006 28.8019C50.5082 26.8581 47.5346 25.8656 44.4373 25.8656Z" fill="#FFB200"/>
<path d="M66.3541 54.3028C66.3541 54.5518 66.3051 54.798 66.2098 55.028C66.1146 55.2581 65.9749 55.4674 65.7989 55.6434C65.6228 55.8195 65.4138 55.9589 65.1838 56.0542C64.9538 56.1495 64.7072 56.1985 64.4583 56.1985C64.2093 56.1985 63.9628 56.1495 63.7327 56.0542C63.5027 55.9589 63.2937 55.8195 63.1177 55.6434C62.9416 55.4674 62.802 55.2581 62.7067 55.028C62.6114 54.798 62.5624 54.5518 62.5624 54.3028C62.5624 53.7999 62.7622 53.3177 63.1177 52.9621C63.4733 52.6066 63.9555 52.4066 64.4583 52.4066C64.9611 52.4066 65.4433 52.6066 65.7988 52.9621C66.1544 53.3177 66.3541 53.7999 66.3541 54.3028Z" fill="#FFB200"/>
<path d="M87.0642 32.276C87.1595 32.0459 87.2085 31.7997 87.2085 31.5507C87.2085 31.0479 87.0087 30.5656 86.6532 30.2101C86.2976 29.8545 85.8154 29.6546 85.3126 29.6546C84.8098 29.6546 84.3276 29.8545 83.9721 30.2101C83.6165 30.5656 83.4168 31.0479 83.4168 31.5507C83.4168 31.7997 83.4658 32.0459 83.5611 32.276C83.6563 32.506 83.796 32.7153 83.972 32.8914C84.1481 33.0675 84.3571 33.2073 84.5871 33.3025C84.8171 33.3978 85.0636 33.4469 85.3126 33.4469C85.5616 33.4469 85.8081 33.3978 86.0381 33.3025C86.2682 33.2073 86.4772 33.0675 86.6532 32.8914C86.8293 32.7153 86.9689 32.506 87.0642 32.276Z" fill="#FFB200"/>
<path d="M6.83148 33.5739C7.06087 33.4754 7.30743 33.4233 7.55703 33.4203C7.81036 33.4174 8.06172 33.4649 8.29627 33.5607C8.53081 33.6566 8.74377 33.7985 8.92257 33.978C9.10137 34.1575 9.24239 34.3712 9.33729 34.6061C9.43219 34.8411 9.47904 35.0925 9.4751 35.3458V37.1899C9.47865 37.4411 9.43224 37.6907 9.33856 37.9239C9.24488 38.157 9.1058 38.3691 8.9294 38.548C8.753 38.727 8.5428 38.8688 8.31102 38.9658C8.07924 39.0627 7.8305 39.1127 7.57925 39.1127C7.328 39.1127 7.07925 39.0627 6.84747 38.9658C6.61569 38.8688 6.40549 38.727 6.22909 38.548C6.05269 38.3691 5.91361 38.157 5.81993 37.9239C5.72625 37.6907 5.67984 37.4411 5.6834 37.1899V35.3458C5.67951 35.0962 5.72493 34.8482 5.81708 34.6162C5.90922 34.3842 6.04626 34.1727 6.22034 33.9938C6.39441 33.8149 6.6021 33.6723 6.83148 33.5739Z" fill="#FFB200"/>
<path d="M6.83148 43.0537C7.06087 42.9553 7.30743 42.9031 7.55703 42.9002C7.81036 42.8972 8.06172 42.9452 8.29627 43.041C8.53081 43.1369 8.74377 43.2784 8.92257 43.4579C9.10137 43.6374 9.24239 43.8511 9.33729 44.086C9.43219 44.3209 9.47904 44.5723 9.4751 44.8256V46.6697C9.47865 46.921 9.43224 47.1706 9.33856 47.4037C9.24488 47.6369 9.1058 47.849 8.9294 48.0279C8.753 48.2068 8.5428 48.3491 8.31102 48.4461C8.07924 48.543 7.8305 48.593 7.57925 48.593C7.328 48.593 7.07925 48.543 6.84747 48.4461C6.61569 48.3491 6.40549 48.2068 6.22909 48.0279C6.05269 47.849 5.91361 47.6369 5.81993 47.4037C5.72625 47.1706 5.67984 46.921 5.6834 46.6697V44.8256C5.67951 44.576 5.72493 44.3285 5.81708 44.0965C5.90922 43.8645 6.04626 43.6525 6.22034 43.4736C6.39441 43.2947 6.6021 43.1522 6.83148 43.0537Z" fill="#FFB200"/>
<path d="M10.6673 39.2453C10.9003 39.1515 11.1495 39.1051 11.4006 39.1084H13.2446C13.4957 39.1051 13.745 39.1515 13.9779 39.2453C14.2108 39.3391 14.4228 39.4783 14.6016 39.6547C14.7803 39.8311 14.9222 40.0411 15.0191 40.2728C15.116 40.5045 15.1658 40.753 15.1658 41.0041C15.1658 41.2552 15.116 41.5038 15.0191 41.7355C14.9222 41.9671 14.7803 42.1776 14.6016 42.3539C14.4228 42.5303 14.2108 42.6696 13.9779 42.7634C13.745 42.8571 13.4957 42.9036 13.2446 42.9003H11.4006C11.1495 42.9036 10.9003 42.8571 10.6673 42.7634C10.4344 42.6696 10.2224 42.5303 10.0437 42.3539C9.86494 42.1776 9.72302 41.9671 9.62616 41.7355C9.5293 41.5038 9.47942 41.2552 9.47942 41.0041C9.47942 40.753 9.5293 40.5045 9.62616 40.2728C9.72302 40.0411 9.86494 39.8311 10.0437 39.6547C10.2224 39.4783 10.4344 39.3391 10.6673 39.2453Z" fill="#FFB200"/>
<path d="M1.18805 39.2453C1.42099 39.1515 1.67024 39.1051 1.92133 39.1084H3.76534C4.01643 39.1051 4.26568 39.1515 4.49862 39.2453C4.73156 39.3391 4.94354 39.4783 5.12228 39.6547C5.30101 39.8311 5.44294 40.0411 5.5398 40.2728C5.63666 40.5045 5.68654 40.753 5.68654 41.0041C5.68654 41.2552 5.63666 41.5038 5.5398 41.7355C5.44294 41.9671 5.30101 42.1776 5.12228 42.3539C4.94354 42.5303 4.73156 42.6696 4.49862 42.7634C4.26568 42.8571 4.01643 42.9036 3.76534 42.9003H1.92133C1.67024 42.9036 1.42099 42.8571 1.18805 42.7634C0.955111 42.6696 0.743121 42.5303 0.564386 42.3539C0.385651 42.1776 0.243731 41.9671 0.146867 41.7355C0.0500022 41.5038 0.00012207 41.2552 0.00012207 41.0041C0.00012207 40.753 0.0500022 40.5045 0.146867 40.2728C0.243731 40.0411 0.385651 39.8311 0.564386 39.6547C0.743121 39.4783 0.955111 39.3391 1.18805 39.2453Z" fill="#FFB200"/>
<path d="M20.828 52.3801C20.5784 52.383 20.3318 52.4352 20.1024 52.5336C19.8731 52.6321 19.6654 52.7751 19.4913 52.954C19.3172 53.1329 19.1802 53.3444 19.088 53.5764C18.9959 53.8084 18.9505 54.0564 18.9544 54.306V56.1497C18.9508 56.4009 18.9972 56.6505 19.0909 56.8836C19.1846 57.1168 19.3237 57.3289 19.5001 57.5078C19.6765 57.6867 19.8867 57.829 20.1184 57.926C20.3502 58.0229 20.599 58.0729 20.8502 58.0729C21.1014 58.0729 21.3502 58.0229 21.582 57.926C21.8137 57.829 22.0239 57.6867 22.2003 57.5078C22.3767 57.3289 22.5158 57.1168 22.6095 56.8836C22.7032 56.6505 22.7496 56.4009 22.7461 56.1497V54.306C22.75 54.0527 22.7031 53.8008 22.6082 53.5659C22.5133 53.331 22.3723 53.1177 22.1935 52.9382C22.0147 52.7587 21.8018 52.6168 21.5672 52.521C21.3327 52.4251 21.0813 52.3771 20.828 52.3801Z" fill="#FFB200"/>
<path d="M20.828 61.8604C20.5784 61.8634 20.3318 61.9155 20.1025 62.014C19.8731 62.1124 19.6654 62.255 19.4913 62.4339C19.3173 62.6128 19.1802 62.8243 19.0881 63.0563C18.9959 63.2883 18.9505 63.5363 18.9543 63.7859V65.63C18.9508 65.8812 18.9972 66.1304 19.0909 66.3635C19.1846 66.5967 19.3237 66.8092 19.5001 66.9882C19.6765 67.1671 19.8867 67.3089 20.1184 67.4059C20.3502 67.5028 20.599 67.5528 20.8502 67.5528C21.1014 67.5528 21.3502 67.5028 21.582 67.4059C21.8137 67.3089 22.0239 67.1671 22.2003 66.9882C22.3767 66.8092 22.5158 66.5967 22.6095 66.3635C22.7032 66.1304 22.7496 65.8812 22.7461 65.63V63.7859C22.75 63.5326 22.7031 63.2812 22.6082 63.0462C22.5133 62.8113 22.3723 62.5976 22.1935 62.4181C22.0147 62.2386 21.8017 62.0966 21.5672 62.0008C21.3327 61.905 21.0813 61.8575 20.828 61.8604Z" fill="#FFB200"/>
<path d="M24.6716 58.0681C24.4205 58.0648 24.1712 58.1117 23.9383 58.2055C23.7054 58.2993 23.4934 58.4381 23.3146 58.6145C23.1359 58.7909 22.994 59.0013 22.8971 59.233C22.8003 59.4646 22.7504 59.7132 22.7504 59.9643C22.7504 60.2154 22.8003 60.464 22.8971 60.6956C22.994 60.9273 23.1359 61.1377 23.3146 61.3141C23.4934 61.4905 23.7054 61.6293 23.9383 61.7231C24.1712 61.8169 24.4205 61.8638 24.6716 61.8605H26.5156C26.7667 61.8638 27.0159 61.8169 27.2489 61.7231C27.4818 61.6293 27.6938 61.4905 27.8725 61.3141C28.0513 61.1377 28.1932 60.9273 28.2901 60.6956C28.3869 60.464 28.4368 60.2154 28.4368 59.9643C28.4368 59.7132 28.3869 59.4646 28.2901 59.233C28.1932 59.0013 28.0513 58.7909 27.8725 58.6145C27.6938 58.4381 27.4818 58.2993 27.2489 58.2055C27.0159 58.1117 26.7667 58.0648 26.5156 58.0681H24.6716Z" fill="#FFB200"/>
<path d="M15.1923 58.0681C14.9412 58.0648 14.6919 58.1117 14.459 58.2055C14.2261 58.2993 14.0141 58.4381 13.8353 58.6145C13.6566 58.7909 13.5147 59.0013 13.4178 59.233C13.321 59.4646 13.2711 59.7132 13.2711 59.9643C13.2711 60.2154 13.321 60.464 13.4178 60.6956C13.5147 60.9273 13.6566 61.1377 13.8353 61.3141C14.0141 61.4905 14.2261 61.6293 14.459 61.7231C14.6919 61.8169 14.9412 61.8638 15.1923 61.8605H17.0363C17.2874 61.8638 17.5366 61.8169 17.7696 61.7231C18.0025 61.6293 18.2145 61.4905 18.3932 61.3141C18.572 61.1377 18.7139 60.9273 18.8108 60.6956C18.9076 60.464 18.9575 60.2154 18.9575 59.9643C18.9575 59.7132 18.9076 59.4646 18.8108 59.233C18.7139 59.0013 18.572 58.7909 18.3932 58.6145C18.2145 58.4381 18.0025 58.2993 17.7696 58.2055C17.5366 58.1117 17.2874 58.0648 17.0363 58.0681H15.1923Z" fill="#FFB200"/>
<path d="M79.5994 69.4442C79.3498 69.4471 79.1033 69.4993 78.8739 69.5977C78.6445 69.6962 78.4368 69.8392 78.2627 70.0181C78.0887 70.197 77.9516 70.4085 77.8595 70.6405C77.7673 70.8725 77.7219 71.1205 77.7258 71.3701V73.2138C77.7223 73.465 77.7687 73.7146 77.8623 73.9477C77.956 74.1809 78.0951 74.393 78.2715 74.5719C78.4479 74.7508 78.6581 74.8931 78.8899 74.9901C79.1217 75.0871 79.3704 75.137 79.6217 75.137C79.8729 75.137 80.1217 75.0871 80.3534 74.9901C80.5852 74.8931 80.7954 74.7508 80.9718 74.5719C81.1482 74.393 81.2873 74.1809 81.381 73.9477C81.4746 73.7146 81.5211 73.465 81.5175 73.2138V71.3701C81.5215 71.1168 81.4746 70.8649 81.3797 70.63C81.2848 70.3951 81.1438 70.1818 80.965 70.0023C80.7862 69.8228 80.5732 69.6809 80.3387 69.585C80.1041 69.4892 79.8528 69.4412 79.5994 69.4442Z" fill="#FFB200"/>
<path d="M79.5994 78.9245C79.3498 78.9274 79.1033 78.9796 78.8739 79.0781C78.6445 79.1765 78.4369 79.3191 78.2628 79.4979C78.0887 79.6768 77.9517 79.8884 77.8595 80.1204C77.7674 80.3524 77.7219 80.6004 77.7258 80.85V82.6941C77.7223 82.9453 77.7687 83.1944 77.8623 83.4276C77.956 83.6607 78.0951 83.8733 78.2715 84.0522C78.4479 84.2311 78.6581 84.3729 78.8899 84.4699C79.1217 84.5669 79.3704 84.6169 79.6217 84.6169C79.8729 84.6169 80.1216 84.5669 80.3534 84.4699C80.5852 84.3729 80.7954 84.2311 80.9718 84.0522C81.1482 83.8733 81.2873 83.6607 81.381 83.4276C81.4746 83.1944 81.5211 82.9453 81.5175 82.6941V80.85C81.5214 80.5966 81.4745 80.3448 81.3796 80.1099C81.2847 79.875 81.1437 79.6617 80.9649 79.4822C80.7861 79.3027 80.5732 79.1607 80.3386 79.0649C80.1041 78.9691 79.8528 78.9215 79.5994 78.9245Z" fill="#FFB200"/>
<path d="M83.4429 75.1323C83.1918 75.1289 82.9425 75.1758 82.7096 75.2696C82.4767 75.3634 82.2647 75.5022 82.0859 75.6786C81.9072 75.855 81.7653 76.0654 81.6684 76.2971C81.5715 76.5288 81.5217 76.7773 81.5217 77.0284C81.5217 77.2795 81.5715 77.528 81.6684 77.7597C81.7653 77.9914 81.9072 78.2018 82.0859 78.3782C82.2647 78.5546 82.4767 78.6934 82.7096 78.7872C82.9425 78.881 83.1918 78.9279 83.4429 78.9245H85.2869C85.538 78.9279 85.7872 78.881 86.0202 78.7872C86.2531 78.6934 86.4651 78.5546 86.6438 78.3782C86.8226 78.2018 86.9645 77.9914 87.0614 77.7597C87.1582 77.528 87.2081 77.2795 87.2081 77.0284C87.2081 76.7773 87.1582 76.5288 87.0614 76.2971C86.9645 76.0654 86.8226 75.855 86.6438 75.6786C86.4651 75.5022 86.2531 75.3634 86.0202 75.2696C85.7872 75.1758 85.538 75.1289 85.2869 75.1323H83.4429Z" fill="#FFB200"/>
<path d="M73.9637 75.1323C73.7126 75.1289 73.4633 75.1758 73.2304 75.2696C72.9974 75.3634 72.7855 75.5022 72.6067 75.6786C72.428 75.855 72.2861 76.0654 72.1892 76.2971C72.0923 76.5288 72.0424 76.7773 72.0424 77.0284C72.0424 77.2795 72.0923 77.528 72.1892 77.7597C72.2861 77.9914 72.428 78.2018 72.6067 78.3782C72.7855 78.5546 72.9974 78.6934 73.2304 78.7872C73.4633 78.881 73.7126 78.9279 73.9637 78.9245H75.8077C76.0588 78.9279 76.308 78.881 76.5409 78.7872C76.7739 78.6934 76.9859 78.5546 77.1646 78.3782C77.3434 78.2018 77.4853 77.9914 77.5821 77.7597C77.679 77.528 77.7289 77.2795 77.7289 77.0284C77.7289 76.7773 77.679 76.5288 77.5821 76.2971C77.4853 76.0654 77.3434 75.855 77.1646 75.6786C76.9859 75.5022 76.7739 75.3634 76.5409 75.2696C76.308 75.1758 76.0588 75.1289 75.8077 75.1323H73.9637Z" fill="#FFB200"/>
<path d="M7.58274 69.4707C7.58273 69.9736 7.38298 70.4558 7.02744 70.8114C6.6719 71.1669 6.18969 71.3664 5.68689 71.3664C5.18409 71.3664 4.70188 71.1669 4.34634 70.8114C3.9908 70.4558 3.79105 69.9736 3.79104 69.4707C3.79105 68.9679 3.9908 68.4856 4.34634 68.1301C4.70188 67.7745 5.18409 67.5746 5.68689 67.5746C6.18969 67.5746 6.6719 67.7745 7.02744 68.1301C7.38298 68.4856 7.58273 68.9679 7.58274 69.4707Z" fill="#FFB200"/>
<path d="M91.0001 58.0947C91.0001 58.5975 90.8004 59.0798 90.4448 59.4353C90.0893 59.7909 89.6071 59.9908 89.1043 59.9908C88.6015 59.9908 88.1193 59.7909 87.7637 59.4353C87.4082 59.0798 87.2084 58.5975 87.2084 58.0947C87.2084 57.5918 87.4082 57.1096 87.7637 56.754C88.1193 56.3985 88.6015 56.1985 89.1043 56.1985C89.6071 56.1985 90.0893 56.3985 90.4448 56.754C90.8004 57.1096 91.0001 57.5918 91.0001 58.0947Z" fill="#FFB200"/>
<path d="M53.1645 0.153783C53.3939 0.0553381 53.6404 0.00317332 53.89 0.000253444C54.1433 -0.0027214 54.3947 0.0448486 54.6293 0.140661C54.8638 0.236472 55.0768 0.378439 55.2556 0.557946C55.4344 0.737453 55.5754 0.951134 55.6703 1.18606C55.7652 1.42099 55.812 1.67237 55.8081 1.92571V3.76982C55.8116 4.02106 55.7652 4.27064 55.6716 4.50379C55.5779 4.73694 55.4388 4.94904 55.2624 5.12796C55.086 5.30689 54.8758 5.44871 54.644 5.54569C54.4122 5.64266 54.1635 5.69266 53.9122 5.69266C53.661 5.69266 53.4123 5.64266 53.1805 5.54569C52.9487 5.44871 52.7385 5.30689 52.5621 5.12796C52.3857 4.94904 52.2466 4.73694 52.1529 4.50379C52.0592 4.27064 52.0128 4.02106 52.0164 3.76982V1.92571C52.0125 1.67611 52.0579 1.42812 52.1501 1.19612C52.2422 0.964118 52.3793 0.752602 52.5533 0.573693C52.7274 0.394783 52.9351 0.252228 53.1645 0.153783Z" fill="#FFB200"/>
<path d="M53.1645 9.63367C53.3939 9.53523 53.6404 9.48306 53.89 9.48014C54.1433 9.47717 54.3947 9.52517 54.6293 9.62099C54.8638 9.7168 55.0768 9.85833 55.2556 10.0378C55.4344 10.2173 55.5754 10.431 55.6703 10.666C55.7652 10.9009 55.812 11.1523 55.8081 11.4056V13.2497C55.8116 13.501 55.7652 13.7505 55.6716 13.9837C55.5779 14.2168 55.4388 14.4289 55.2624 14.6079C55.086 14.7868 54.8758 14.929 54.644 15.026C54.4122 15.123 54.1635 15.173 53.9122 15.173C53.661 15.173 53.4123 15.123 53.1805 15.026C52.9487 14.929 52.7385 14.7868 52.5621 14.6079C52.3857 14.4289 52.2466 14.2168 52.1529 13.9837C52.0592 13.7505 52.0128 13.501 52.0164 13.2497V11.4056C52.0125 11.156 52.0579 10.9084 52.1501 10.6764C52.2422 10.4444 52.3793 10.2325 52.5533 10.0536C52.7274 9.87467 52.9351 9.73212 53.1645 9.63367Z" fill="#FFB200"/>
<path d="M57.0003 5.82524C57.2333 5.73145 57.4825 5.685 57.7336 5.68833H59.5776C59.8287 5.685 60.078 5.73145 60.3109 5.82524C60.5438 5.91903 60.7558 6.05826 60.9346 6.23465C61.1133 6.41105 61.2552 6.62102 61.3521 6.85271C61.449 7.0844 61.4988 7.33292 61.4988 7.58405C61.4988 7.83518 61.449 8.0837 61.3521 8.31539C61.2552 8.54709 61.1133 8.75749 60.9346 8.93389C60.7558 9.11028 60.5438 9.24951 60.3109 9.3433C60.078 9.43709 59.8287 9.48354 59.5776 9.48021H57.7336C57.4825 9.48354 57.2333 9.43709 57.0003 9.3433C56.7674 9.24951 56.5554 9.11028 56.3767 8.93389C56.1979 8.75749 56.056 8.54709 55.9592 8.31539C55.8623 8.0837 55.8124 7.83518 55.8124 7.58405C55.8124 7.33292 55.8623 7.0844 55.9592 6.85271C56.056 6.62102 56.1979 6.41105 56.3767 6.23465C56.5554 6.05826 56.7674 5.91903 57.0003 5.82524Z" fill="#FFB200"/>
<path d="M47.521 5.82524C47.754 5.73145 48.0032 5.685 48.2543 5.68833H50.0983C50.3494 5.685 50.5987 5.73145 50.8316 5.82524C51.0646 5.91903 51.2765 6.05826 51.4553 6.23465C51.634 6.41105 51.7759 6.62102 51.8728 6.85271C51.9697 7.0844 52.0195 7.33292 52.0195 7.58405C52.0195 7.83518 51.9697 8.0837 51.8728 8.31539C51.7759 8.54709 51.634 8.75749 51.4553 8.93389C51.2765 9.11028 51.0646 9.24951 50.8316 9.3433C50.5987 9.43709 50.3494 9.48354 50.0983 9.48021H48.2543C48.0032 9.48354 47.754 9.43709 47.521 9.3433C47.2881 9.24951 47.0761 9.11028 46.8974 8.93389C46.7186 8.75749 46.5767 8.54709 46.4799 8.31539C46.383 8.0837 46.3331 7.83518 46.3331 7.58405C46.3331 7.33292 46.383 7.0844 46.4799 6.85271C46.5767 6.62102 46.7186 6.41105 46.8974 6.23465C47.0761 6.05826 47.2881 5.91903 47.521 5.82524Z" fill="#FFB200"/>
<path d="M46.3331 91.1733C46.3331 91.6761 46.1334 92.1583 45.7778 92.5139C45.4223 92.8695 44.9401 93.069 44.4373 93.069C43.9345 93.069 43.4523 92.8695 43.0967 92.5139C42.7412 92.1583 42.5414 91.6761 42.5414 91.1733C42.5414 90.6704 42.7412 90.1882 43.0967 89.8326C43.4523 89.4771 43.9345 89.2771 44.4373 89.2771C44.9401 89.2771 45.4223 89.4771 45.7778 89.8326C46.1334 90.1882 46.3331 90.6704 46.3331 91.1733Z" fill="#FFB200"/>
<path d="M28.8453 14.5903C28.8453 15.0932 28.6456 15.5754 28.2901 15.931C27.9345 16.2866 27.4523 16.4861 26.9495 16.4861C26.4467 16.4861 25.9645 16.2866 25.6089 15.931C25.2534 15.5754 25.0537 15.0932 25.0536 14.5903C25.0537 14.0875 25.2534 13.6053 25.6089 13.2497C25.9645 12.8941 26.4467 12.6942 26.9495 12.6942C27.4523 12.6942 27.9345 12.8941 28.2901 13.2497C28.6456 13.6053 28.8453 14.0875 28.8453 14.5903Z" fill="#FFB200"/>
</svg>
