<svg width="245" height="15" viewBox="0 0 245 15" fill="none" xmlns="http://www.w3.org/2000/svg">
<path d="M144.036 4.9234V3.94562H142.354V3.18294C142.354 2.81138 142.437 2.52946 142.603 2.33716C142.773 2.14486 143.048 2.04871 143.429 2.04871C143.596 2.04871 143.729 2.06338 143.83 2.09271C143.935 2.12204 144.016 2.14649 144.075 2.16604L144.407 1.1687C144.319 1.12959 144.186 1.08722 144.006 1.04159C143.827 0.99596 143.596 0.973145 143.312 0.973145C142.954 0.973145 142.613 1.04485 142.29 1.18826C141.968 1.33167 141.705 1.54678 141.503 1.8336C141.301 2.12041 141.2 2.47894 141.2 2.90916V3.94562H139.988V4.9234H141.2V11.455H142.354V4.9234H144.036Z" fill="#717171"/>
<path d="M167.742 3.94565V11.4551H168.896V3.94565H167.742Z" fill="#717171"/>
<path d="M167.747 2.4643C167.91 2.61749 168.104 2.69408 168.329 2.69408C168.554 2.69408 168.746 2.61749 168.906 2.4643C169.069 2.31111 169.15 2.12696 169.15 1.91185C169.15 1.69674 169.069 1.51259 168.906 1.3594C168.746 1.20621 168.554 1.12962 168.329 1.12962C168.104 1.12962 167.91 1.20621 167.747 1.3594C167.587 1.51259 167.507 1.69674 167.507 1.91185C167.507 2.12696 167.587 2.31111 167.747 2.4643Z" fill="#717171"/>
<path d="M196.188 11.455V1.44247H195.035V11.455H196.188Z" fill="#717171"/>
<path d="M202.33 11.455V1.44247H208.373V2.51803H203.543V5.90118H208.06V6.97674H203.543V10.3794H208.451V11.455H202.33Z" fill="#717171"/>
<path d="M211.517 3.94566H210.402V11.4551H211.556V6.76169C211.556 6.39339 211.634 6.06909 211.79 5.78879C211.95 5.50523 212.159 5.2836 212.416 5.12389C212.677 4.96419 212.957 4.88433 213.257 4.88433C213.694 4.88433 214.051 5.01634 214.328 5.28034C214.605 5.54108 214.743 5.88494 214.743 6.3119V11.4551H215.917V6.56613C215.917 6.08049 216.062 5.6796 216.352 5.36345C216.642 5.04404 217.051 4.88433 217.579 4.88433C217.99 4.88433 218.346 5.0033 218.65 5.24123C218.953 5.47916 219.104 5.87516 219.104 6.42924V11.4551H220.258V6.42924C220.258 5.54597 220.044 4.89574 219.618 4.47855C219.191 4.0581 218.641 3.84788 217.97 3.84788C217.432 3.84788 216.971 3.96359 216.586 4.195C216.202 4.42315 215.913 4.73115 215.721 5.119H215.643C215.457 4.71811 215.198 4.40685 214.865 4.18522C214.536 3.96033 214.124 3.84788 213.629 3.84788C213.14 3.84788 212.721 3.96033 212.372 4.18522C212.023 4.40685 211.771 4.71811 211.614 5.119H211.517V3.94566Z" fill="#717171"/>
<path d="M225.418 11.6115C224.714 11.6115 224.108 11.4453 223.6 11.1128C223.091 10.7804 222.7 10.3225 222.426 9.73905C222.152 9.15563 222.016 8.48911 222.016 7.73947C222.016 6.9768 222.156 6.30376 222.436 5.72034C222.72 5.13367 223.114 4.67574 223.619 4.34655C224.128 4.0141 224.721 3.84788 225.399 3.84788C225.927 3.84788 226.403 3.94566 226.826 4.14122C227.25 4.33677 227.597 4.61055 227.868 4.96256C228.138 5.31456 228.306 5.72523 228.371 6.19457H227.217C227.129 5.85234 226.934 5.54923 226.631 5.28523C226.331 5.01796 225.927 4.88433 225.418 4.88433C224.969 4.88433 224.574 5.00167 224.235 5.23634C223.899 5.46775 223.637 5.79531 223.448 6.21901C223.262 6.63946 223.169 7.13324 223.169 7.70036C223.169 8.28051 223.261 8.78571 223.443 9.21593C223.629 9.64616 223.89 9.98024 224.225 10.2182C224.564 10.4561 224.962 10.5751 225.418 10.5751C225.718 10.5751 225.99 10.5229 226.235 10.4186C226.479 10.3143 226.686 10.1644 226.856 9.96883C227.025 9.77327 227.146 9.5386 227.217 9.26482H228.371C228.306 9.70808 228.145 10.1073 227.887 10.4626C227.633 10.8146 227.296 11.0949 226.875 11.3035C226.458 11.5088 225.972 11.6115 225.418 11.6115Z" fill="#717171"/>
<path fill-rule="evenodd" clip-rule="evenodd" d="M231.334 11.1324C231.859 11.4518 232.483 11.6115 233.206 11.6115C233.715 11.6115 234.173 11.5333 234.58 11.3768C234.988 11.2171 235.33 10.9955 235.607 10.7119C235.884 10.4251 236.081 10.0927 236.198 9.7146L235.084 9.40171C234.986 9.66245 234.847 9.88083 234.668 10.0568C234.489 10.2296 234.275 10.3599 234.028 10.4479C233.783 10.5327 233.51 10.5751 233.206 10.5751C232.74 10.5751 232.331 10.474 231.979 10.2719C231.627 10.0666 231.352 9.76838 231.153 9.37727C230.976 9.01968 230.879 8.59108 230.862 8.09148H236.316V7.60258C236.316 6.90183 236.223 6.3119 236.037 5.83279C235.851 5.35367 235.602 4.96908 235.289 4.679C234.976 4.38566 234.629 4.17381 234.248 4.04344C233.866 3.91307 233.48 3.84788 233.089 3.84788C232.411 3.84788 231.818 4.0141 231.309 4.34655C230.804 4.67574 230.41 5.1353 230.126 5.72523C229.846 6.3119 229.706 6.98984 229.706 7.75903C229.706 8.52822 229.846 9.20289 230.126 9.78305C230.41 10.3599 230.812 10.8097 231.334 11.1324ZM230.865 7.09413C230.887 6.7458 230.975 6.41661 231.129 6.10657C231.308 5.74479 231.564 5.45145 231.896 5.22656C232.232 4.99841 232.629 4.88433 233.089 4.88433C233.506 4.88433 233.868 4.98048 234.174 5.17278C234.484 5.36508 234.722 5.62745 234.888 5.9599C235.058 6.29235 235.142 6.67043 235.142 7.09413H230.865Z" fill="#717171"/>
<path fill-rule="evenodd" clip-rule="evenodd" d="M239.347 11.1324C239.872 11.4518 240.496 11.6115 241.219 11.6115C241.728 11.6115 242.186 11.5333 242.593 11.3768C243.001 11.2171 243.343 10.9955 243.62 10.7119C243.897 10.4251 244.094 10.0927 244.211 9.7146L243.097 9.40171C242.999 9.66245 242.86 9.88083 242.681 10.0568C242.502 10.2296 242.288 10.3599 242.041 10.4479C241.796 10.5327 241.522 10.5751 241.219 10.5751C240.753 10.5751 240.344 10.474 239.992 10.2719C239.64 10.0666 239.365 9.76838 239.166 9.37727C238.989 9.01968 238.892 8.59108 238.875 8.09148H244.329V7.60258C244.329 6.90183 244.236 6.3119 244.05 5.83279C243.864 5.35367 243.615 4.96908 243.302 4.679C242.989 4.38566 242.642 4.17381 242.261 4.04344C241.879 3.91307 241.493 3.84788 241.102 3.84788C240.424 3.84788 239.831 4.0141 239.322 4.34655C238.817 4.67574 238.423 5.1353 238.139 5.72523C237.859 6.3119 237.719 6.98984 237.719 7.75903C237.719 8.52822 237.859 9.20289 238.139 9.78305C238.423 10.3599 238.825 10.8097 239.347 11.1324ZM238.878 7.09413C238.9 6.7458 238.988 6.41661 239.142 6.10657C239.321 5.74479 239.577 5.45145 239.909 5.22656C240.245 4.99841 240.642 4.88433 241.102 4.88433C241.519 4.88433 241.881 4.98048 242.187 5.17278C242.497 5.36508 242.735 5.62745 242.901 5.9599C243.071 6.29235 243.155 6.67043 243.155 7.09413H238.878Z" fill="#717171"/>
<path fill-rule="evenodd" clip-rule="evenodd" d="M189.487 11.6311C189.011 11.6311 188.579 11.5414 188.191 11.3622C187.804 11.1797 187.496 10.9173 187.267 10.5751C187.039 10.2296 186.925 9.81238 186.925 9.32349C186.925 8.89326 187.01 8.54452 187.179 8.27726C187.349 8.00673 187.575 7.79488 187.859 7.64169C188.143 7.48851 188.455 7.37443 188.798 7.29947C189.143 7.22125 189.49 7.15932 189.839 7.11369C190.295 7.05502 190.665 7.01102 190.949 6.98169C191.236 6.94909 191.444 6.89532 191.575 6.82035C191.708 6.74539 191.775 6.61502 191.775 6.42924V6.39013C191.775 5.90775 191.643 5.53293 191.379 5.26567C191.118 4.99841 190.722 4.86478 190.191 4.86478C189.64 4.86478 189.208 4.98537 188.895 5.22656C188.583 5.46775 188.363 5.72523 188.235 5.99901L187.14 5.6079C187.336 5.1516 187.597 4.79633 187.923 4.54211C188.252 4.28463 188.61 4.10536 188.998 4.00433C189.389 3.90003 189.774 3.84788 190.152 3.84788C190.393 3.84788 190.67 3.87721 190.983 3.93588C191.299 3.99129 191.604 4.10699 191.897 4.28299C192.194 4.459 192.44 4.72463 192.635 5.07989C192.831 5.43515 192.929 5.91101 192.929 6.50746V11.4551H191.775V10.4382H191.716C191.638 10.6011 191.508 10.7755 191.325 10.9613C191.143 11.1471 190.9 11.3051 190.597 11.4355C190.294 11.5659 189.924 11.6311 189.487 11.6311ZM189.663 10.5946C190.119 10.5946 190.504 10.505 190.817 10.3257C191.133 10.1465 191.371 9.91505 191.531 9.63149C191.693 9.34793 191.775 9.04971 191.775 8.73682V7.68081C191.726 7.73947 191.619 7.79325 191.452 7.84214C191.289 7.88777 191.1 7.92851 190.885 7.96436C190.673 7.99696 190.466 8.02629 190.264 8.05236C190.065 8.07518 189.904 8.09474 189.78 8.11103C189.48 8.15014 189.2 8.2137 188.939 8.3017C188.682 8.38644 188.473 8.51518 188.314 8.68793C188.157 8.85741 188.079 9.08882 188.079 9.38216C188.079 9.78305 188.227 10.0862 188.524 10.2915C188.824 10.4936 189.203 10.5946 189.663 10.5946Z" fill="#717171"/>
<path d="M180.378 11.4551V6.93769C180.378 6.50094 180.461 6.12938 180.627 5.82301C180.793 5.51664 181.02 5.2836 181.307 5.12389C181.597 4.96419 181.926 4.88433 182.294 4.88433C182.829 4.88433 183.249 5.05056 183.555 5.38301C183.862 5.71219 184.015 6.17175 184.015 6.76169V11.4551H185.169V6.68346C185.169 6.04464 185.063 5.51664 184.851 5.09945C184.639 4.679 184.343 4.36611 183.961 4.16077C183.58 3.95218 183.135 3.84788 182.627 3.84788C182.059 3.84788 181.597 3.96522 181.238 4.19988C180.88 4.43129 180.612 4.73767 180.436 5.119H180.339V3.94566H179.224V11.4551H180.378Z" fill="#717171"/>
<path fill-rule="evenodd" clip-rule="evenodd" d="M174.06 11.6115C173.382 11.6115 172.787 11.4502 172.275 11.1275C171.767 10.8048 171.369 10.3534 171.082 9.77327C170.799 9.19312 170.657 8.51518 170.657 7.73947C170.657 6.95724 170.799 6.27442 171.082 5.69101C171.369 5.1076 171.767 4.65455 172.275 4.33189C172.787 4.00922 173.382 3.84788 174.06 3.84788C174.738 3.84788 175.331 4.00922 175.839 4.33189C176.351 4.65455 176.749 5.1076 177.032 5.69101C177.319 6.27442 177.463 6.95724 177.463 7.73947C177.463 8.51518 177.319 9.19312 177.032 9.77327C176.749 10.3534 176.351 10.8048 175.839 11.1275C175.331 11.4502 174.738 11.6115 174.06 11.6115ZM174.06 10.5751C174.575 10.5751 174.999 10.4431 175.331 10.1791C175.663 9.91505 175.91 9.56793 176.069 9.13771C176.229 8.70748 176.309 8.2414 176.309 7.73947C176.309 7.23754 176.229 6.76983 176.069 6.33635C175.91 5.90286 175.663 5.55249 175.331 5.28523C174.999 5.01796 174.575 4.88433 174.06 4.88433C173.545 4.88433 173.121 5.01796 172.789 5.28523C172.456 5.55249 172.21 5.90286 172.051 6.33635C171.891 6.76983 171.811 7.23754 171.811 7.73947C171.811 8.2414 171.891 8.70748 172.051 9.13771C172.21 9.56793 172.456 9.91505 172.789 10.1791C173.121 10.4431 173.545 10.5751 174.06 10.5751Z" fill="#717171"/>
<path d="M165.868 5.62745L164.832 5.92079C164.767 5.74805 164.671 5.58019 164.544 5.41723C164.42 5.25101 164.25 5.11411 164.035 5.00656C163.82 4.899 163.545 4.84522 163.209 4.84522C162.749 4.84522 162.366 4.95115 162.06 5.163C161.757 5.3716 161.605 5.63723 161.605 5.9599C161.605 6.24672 161.71 6.47324 161.918 6.63946C162.127 6.80569 162.453 6.94421 162.896 7.05502L164.011 7.3288C164.682 7.49177 165.182 7.7411 165.512 8.07681C165.841 8.40926 166.005 8.83785 166.005 9.3626C166.005 9.79283 165.881 10.1774 165.634 10.5164C165.389 10.8554 165.047 11.1226 164.607 11.3182C164.167 11.5137 163.655 11.6115 163.072 11.6115C162.306 11.6115 161.672 11.4453 161.17 11.1128C160.668 10.7804 160.35 10.2948 160.217 9.65594L161.312 9.38216C161.416 9.78631 161.613 10.0894 161.903 10.2915C162.197 10.4936 162.58 10.5946 163.052 10.5946C163.59 10.5946 164.017 10.4805 164.333 10.2524C164.653 10.021 164.812 9.74394 164.812 9.42127C164.812 9.16052 164.721 8.94215 164.539 8.76615C164.356 8.58689 164.076 8.45326 163.698 8.36526L162.446 8.07192C161.758 7.90896 161.253 7.65636 160.931 7.31414C160.611 6.96865 160.451 6.53679 160.451 6.01857C160.451 5.59486 160.57 5.22004 160.808 4.89411C161.05 4.56818 161.377 4.31233 161.791 4.12655C162.208 3.94077 162.681 3.84788 163.209 3.84788C163.952 3.84788 164.535 4.01084 164.959 4.33677C165.386 4.6627 165.689 5.09293 165.868 5.62745Z" fill="#717171"/>
<path d="M157.639 5.92079L158.676 5.62745C158.496 5.09293 158.193 4.6627 157.766 4.33677C157.343 4.01084 156.759 3.84788 156.016 3.84788C155.488 3.84788 155.015 3.94077 154.598 4.12655C154.184 4.31233 153.857 4.56818 153.616 4.89411C153.378 5.22004 153.259 5.59486 153.259 6.01857C153.259 6.53679 153.418 6.96865 153.738 7.31414C154.06 7.65636 154.566 7.90896 155.253 8.07192L156.505 8.36526C156.883 8.45326 157.163 8.58689 157.346 8.76615C157.528 8.94215 157.62 9.16052 157.62 9.42127C157.62 9.74394 157.46 10.021 157.14 10.2524C156.824 10.4805 156.397 10.5946 155.86 10.5946C155.387 10.5946 155.004 10.4936 154.711 10.2915C154.421 10.0894 154.223 9.78631 154.119 9.38216L153.024 9.65594C153.158 10.2948 153.475 10.7804 153.977 11.1128C154.479 11.4453 155.113 11.6115 155.879 11.6115C156.462 11.6115 156.974 11.5137 157.414 11.3182C157.854 11.1226 158.196 10.8554 158.441 10.5164C158.689 10.1774 158.812 9.79283 158.812 9.3626C158.812 8.83785 158.648 8.40926 158.319 8.07681C157.989 7.7411 157.489 7.49177 156.818 7.3288L155.703 7.05502C155.26 6.94421 154.934 6.80569 154.725 6.63946C154.517 6.47324 154.412 6.24672 154.412 5.9599C154.412 5.63723 154.564 5.3716 154.867 5.163C155.173 4.95115 155.556 4.84522 156.016 4.84522C156.352 4.84522 156.627 4.899 156.842 5.00656C157.057 5.11411 157.227 5.25101 157.351 5.41723C157.478 5.58019 157.574 5.74805 157.639 5.92079Z" fill="#717171"/>
<path fill-rule="evenodd" clip-rule="evenodd" d="M148.492 11.6115C147.768 11.6115 147.144 11.4518 146.619 11.1324C146.098 10.8097 145.695 10.3599 145.412 9.78305C145.132 9.20289 144.991 8.52822 144.991 7.75903C144.991 6.98984 145.132 6.3119 145.412 5.72523C145.695 5.1353 146.09 4.67574 146.595 4.34655C147.103 4.0141 147.697 3.84788 148.375 3.84788C148.766 3.84788 149.152 3.91307 149.533 4.04344C149.915 4.17381 150.262 4.38566 150.575 4.679C150.887 4.96908 151.137 5.35367 151.323 5.83279C151.508 6.3119 151.601 6.90183 151.601 7.60258V8.09148H146.148C146.164 8.59108 146.261 9.01968 146.439 9.37727C146.637 9.76838 146.913 10.0666 147.265 10.2719C147.617 10.474 148.026 10.5751 148.492 10.5751C148.795 10.5751 149.069 10.5327 149.313 10.4479C149.561 10.3599 149.774 10.2296 149.954 10.0568C150.133 9.88083 150.271 9.66245 150.369 9.40171L151.484 9.7146C151.367 10.0927 151.169 10.4251 150.892 10.7119C150.615 10.9955 150.273 11.2171 149.866 11.3768C149.458 11.5333 149 11.6115 148.492 11.6115ZM146.151 7.09413H150.428C150.428 6.67043 150.343 6.29235 150.174 5.9599C150.007 5.62745 149.77 5.36508 149.46 5.17278C149.154 4.98048 148.792 4.88433 148.375 4.88433C147.915 4.88433 147.517 4.99841 147.182 5.22656C146.849 5.45145 146.593 5.74479 146.414 6.10657C146.26 6.41661 146.173 6.7458 146.151 7.09413Z" fill="#717171"/>
<path fill-rule="evenodd" clip-rule="evenodd" d="M135.528 11.6115C134.85 11.6115 134.255 11.4502 133.743 11.1275C133.235 10.8048 132.837 10.3534 132.55 9.77327C132.267 9.19312 132.125 8.51518 132.125 7.73947C132.125 6.95724 132.267 6.27442 132.55 5.69101C132.837 5.1076 133.235 4.65455 133.743 4.33189C134.255 4.00922 134.85 3.84788 135.528 3.84788C136.206 3.84788 136.799 4.00922 137.307 4.33189C137.819 4.65455 138.217 5.1076 138.5 5.69101C138.787 6.27442 138.93 6.95724 138.93 7.73947C138.93 8.51518 138.787 9.19312 138.5 9.77327C138.217 10.3534 137.819 10.8048 137.307 11.1275C136.799 11.4502 136.206 11.6115 135.528 11.6115ZM135.528 10.5751C136.043 10.5751 136.466 10.4431 136.799 10.1791C137.131 9.91505 137.377 9.56793 137.537 9.13771C137.697 8.70748 137.777 8.2414 137.777 7.73947C137.777 7.23754 137.697 6.76983 137.537 6.33635C137.377 5.90286 137.131 5.55249 136.799 5.28523C136.466 5.01796 136.043 4.88433 135.528 4.88433C135.013 4.88433 134.589 5.01796 134.256 5.28523C133.924 5.55249 133.678 5.90286 133.518 6.33635C133.359 6.76983 133.279 7.23754 133.279 7.73947C133.279 8.2414 133.359 8.70748 133.518 9.13771C133.678 9.56793 133.924 9.91505 134.256 10.1791C134.589 10.4431 135.013 10.5751 135.528 10.5751Z" fill="#717171"/>
<path d="M127.583 3.94562V11.455H128.737V6.70298C128.737 6.36401 128.818 6.06253 128.981 5.79852C129.148 5.53126 129.372 5.32267 129.656 5.17274C129.943 5.01955 130.269 4.94296 130.634 4.94296C130.787 4.94296 130.932 4.95437 131.069 4.97718C131.209 4.99674 131.299 5.01141 131.338 5.02118V3.84784C131.273 3.84132 131.176 3.83643 131.049 3.83317C130.922 3.82991 130.816 3.82828 130.732 3.82828C130.282 3.82828 129.878 3.94399 129.519 4.1754C129.161 4.40681 128.913 4.70829 128.776 5.07985H128.698V3.94562H127.583Z" fill="#717171"/>
<path fill-rule="evenodd" clip-rule="evenodd" d="M119.001 11.455V1.44247H122.384C123.169 1.44247 123.811 1.58425 124.31 1.86781C124.812 2.14811 125.183 2.52781 125.425 3.00693C125.666 3.48604 125.786 4.02057 125.786 4.6105C125.786 5.20043 125.666 5.73658 125.425 6.21896C125.187 6.70133 124.818 7.08593 124.32 7.37275C123.821 7.65631 123.182 7.79808 122.403 7.79808H120.213V11.455H119.001ZM120.213 6.72252H122.364C122.902 6.72252 123.334 6.62963 123.66 6.44385C123.986 6.25807 124.222 6.0071 124.369 5.69095C124.519 5.37154 124.593 5.01139 124.593 4.6105C124.593 4.20961 124.519 3.85108 124.369 3.53493C124.222 3.21878 123.984 2.97108 123.655 2.79182C123.326 2.60929 122.889 2.51803 122.345 2.51803H120.213V6.72252Z" fill="#717171"/>
<path fill-rule="evenodd" clip-rule="evenodd" d="M104.964 11.455H106.235L107.242 8.61943H111.291L112.298 11.455H113.569L109.892 1.44247H108.641L104.964 11.455ZM109.306 3.02648L110.909 7.54386H107.624L109.228 3.02648H109.306Z" fill="#717171"/>
<path fill-rule="evenodd" clip-rule="evenodd" d="M96.6324 11.6115C95.9544 11.6115 95.3596 11.4502 94.8479 11.1275C94.3394 10.8048 93.9418 10.3534 93.655 9.77327C93.3714 9.19312 93.2296 8.51518 93.2296 7.73947C93.2296 6.95724 93.3714 6.27442 93.655 5.69101C93.9418 5.1076 94.3394 4.65455 94.8479 4.33189C95.3596 4.00922 95.9544 3.84788 96.6324 3.84788C97.3103 3.84788 97.9035 4.00922 98.4119 4.33189C98.9236 4.65455 99.3213 5.1076 99.6048 5.69101C99.8916 6.27442 100.035 6.95724 100.035 7.73947C100.035 8.51518 99.8916 9.19312 99.6048 9.77327C99.3213 10.3534 98.9236 10.8048 98.4119 11.1275C97.9035 11.4502 97.3103 11.6115 96.6324 11.6115ZM96.6324 10.5751C97.1473 10.5751 97.571 10.4431 97.9035 10.1791C98.2359 9.91505 98.482 9.56793 98.6417 9.13771C98.8014 8.70748 98.8813 8.2414 98.8813 7.73947C98.8813 7.23754 98.8014 6.76983 98.6417 6.33635C98.482 5.90286 98.2359 5.55249 97.9035 5.28523C97.571 5.01796 97.1473 4.88433 96.6324 4.88433C96.1174 4.88433 95.6937 5.01796 95.3612 5.28523C95.0288 5.55249 94.7827 5.90286 94.623 6.33635C94.4633 6.76983 94.3834 7.23754 94.3834 7.73947C94.3834 8.2414 94.4633 8.70748 94.623 9.13771C94.7827 9.56793 95.0288 9.91505 95.3612 10.1791C95.6937 10.4431 96.1174 10.5751 96.6324 10.5751Z" fill="#717171"/>
<path d="M85.4464 1.44247V2.51803H88.5949V11.455H89.8074V2.51803H92.9559V1.44247H85.4464Z" fill="#717171"/>
<path d="M80.0918 5.62745L79.0554 5.92079C78.9902 5.74805 78.894 5.58019 78.7669 5.41723C78.6431 5.25101 78.4736 5.11411 78.2585 5.00656C78.0434 4.899 77.7679 4.84522 77.4322 4.84522C76.9727 4.84522 76.5897 4.95115 76.2833 5.163C75.9802 5.3716 75.8287 5.63723 75.8287 5.9599C75.8287 6.24672 75.933 6.47324 76.1416 6.63946C76.3502 6.80569 76.6761 6.94421 77.1193 7.05502L78.234 7.3288C78.9054 7.49177 79.4057 7.7411 79.7349 8.07681C80.0641 8.40926 80.2287 8.83785 80.2287 9.3626C80.2287 9.79283 80.1049 10.1774 79.8571 10.5164C79.6127 10.8554 79.2705 11.1226 78.8305 11.3182C78.3905 11.5137 77.8788 11.6115 77.2953 11.6115C76.5294 11.6115 75.8955 11.4453 75.3935 11.1128C74.8916 10.7804 74.5738 10.2948 74.4402 9.65594L75.5353 9.38216C75.6396 9.78631 75.8368 10.0894 76.1269 10.2915C76.4202 10.4936 76.8032 10.5946 77.2758 10.5946C77.8136 10.5946 78.2405 10.4805 78.5567 10.2524C78.8761 10.021 79.0358 9.74394 79.0358 9.42127C79.0358 9.16052 78.9445 8.94215 78.762 8.76615C78.5795 8.58689 78.2992 8.45326 77.9211 8.36526L76.6696 8.07192C75.9818 7.90896 75.4767 7.65636 75.154 7.31414C74.8346 6.96865 74.6749 6.53679 74.6749 6.01857C74.6749 5.59486 74.7938 5.22004 75.0318 4.89411C75.2729 4.56818 75.6005 4.31233 76.0144 4.12655C76.4316 3.94077 76.9042 3.84788 77.4322 3.84788C78.1754 3.84788 78.7588 4.01084 79.1825 4.33677C79.6094 4.6627 79.9126 5.09293 80.0918 5.62745Z" fill="#717171"/>
<path d="M71.8625 5.92079L72.899 5.62745C72.7197 5.09293 72.4166 4.6627 71.9896 4.33677C71.5659 4.01084 70.9825 3.84788 70.2394 3.84788C69.7114 3.84788 69.2388 3.94077 68.8216 4.12655C68.4076 4.31233 68.0801 4.56818 67.8389 4.89411C67.601 5.22004 67.482 5.59486 67.482 6.01857C67.482 6.53679 67.6417 6.96865 67.9611 7.31414C68.2838 7.65636 68.789 7.90896 69.4767 8.07192L70.7283 8.36526C71.1063 8.45326 71.3866 8.58689 71.5692 8.76615C71.7517 8.94215 71.8429 9.16052 71.8429 9.42127C71.8429 9.74394 71.6832 10.021 71.3638 10.2524C71.0477 10.4805 70.6207 10.5946 70.0829 10.5946C69.6103 10.5946 69.2274 10.4936 68.934 10.2915C68.6439 10.0894 68.4468 9.78631 68.3425 9.38216L67.2473 9.65594C67.381 10.2948 67.6987 10.7804 68.2007 11.1128C68.7026 11.4453 69.3365 11.6115 70.1025 11.6115C70.6859 11.6115 71.1976 11.5137 71.6376 11.3182C72.0776 11.1226 72.4198 10.8554 72.6643 10.5164C72.912 10.1774 73.0359 9.79283 73.0359 9.3626C73.0359 8.83785 72.8713 8.40926 72.5421 8.07681C72.2129 7.7411 71.7126 7.49177 71.0412 7.3288L69.9265 7.05502C69.4832 6.94421 69.1573 6.80569 68.9487 6.63946C68.7401 6.47324 68.6358 6.24672 68.6358 5.9599C68.6358 5.63723 68.7874 5.3716 69.0905 5.163C69.3969 4.95115 69.7798 4.84522 70.2394 4.84522C70.5751 4.84522 70.8505 4.899 71.0656 5.00656C71.2807 5.11411 71.4502 5.25101 71.5741 5.41723C71.7012 5.58019 71.7973 5.74805 71.8625 5.92079Z" fill="#717171"/>
<path fill-rule="evenodd" clip-rule="evenodd" d="M62.7153 11.6115C61.9917 11.6115 61.3676 11.4518 60.8428 11.1324C60.3213 10.8097 59.9188 10.3599 59.6352 9.78305C59.3549 9.20289 59.2148 8.52822 59.2148 7.75903C59.2148 6.98984 59.3549 6.3119 59.6352 5.72523C59.9188 5.1353 60.3132 4.67574 60.8184 4.34655C61.3268 4.0141 61.92 3.84788 62.5979 3.84788C62.9891 3.84788 63.3753 3.91307 63.7566 4.04344C64.138 4.17381 64.4851 4.38566 64.798 4.679C65.1109 4.96908 65.3602 5.35367 65.546 5.83279C65.7318 6.3119 65.8246 6.90183 65.8246 7.60258V8.09148H60.3711C60.3877 8.59108 60.4846 9.01968 60.6619 9.37727C60.8607 9.76838 61.1361 10.0666 61.4882 10.2719C61.8402 10.474 62.2492 10.5751 62.7153 10.5751C63.0184 10.5751 63.2922 10.5327 63.5366 10.4479C63.7843 10.3599 63.9978 10.2296 64.1771 10.0568C64.3563 9.88083 64.4949 9.66245 64.5926 9.40171L65.7073 9.7146C65.59 10.0927 65.3928 10.4251 65.1158 10.7119C64.8387 10.9955 64.4965 11.2171 64.0891 11.3768C63.6817 11.5333 63.2237 11.6115 62.7153 11.6115ZM60.3741 7.09413H64.6513C64.6513 6.67043 64.5666 6.29235 64.3971 5.9599C64.2309 5.62745 63.9929 5.36508 63.6833 5.17278C63.3769 4.98048 63.0151 4.88433 62.5979 4.88433C62.1384 4.88433 61.7407 4.99841 61.405 5.22656C61.0726 5.45145 60.8167 5.74479 60.6375 6.10657C60.4839 6.41661 60.396 6.7458 60.3741 7.09413Z" fill="#717171"/>
<path d="M53.1085 11.1128C53.6169 11.4453 54.2232 11.6115 54.9272 11.6115C55.4813 11.6115 55.9669 11.5088 56.3841 11.3035C56.8045 11.0949 57.1419 10.8146 57.3961 10.4626C57.6536 10.1073 57.8149 9.70808 57.8801 9.26482H56.7263C56.6546 9.5386 56.534 9.77327 56.3645 9.96883C56.195 10.1644 55.9881 10.3143 55.7436 10.4186C55.4992 10.5229 55.227 10.5751 54.9272 10.5751C54.4709 10.5751 54.0732 10.4561 53.7343 10.2182C53.3986 9.98024 53.1378 9.64616 52.952 9.21593C52.7695 8.78571 52.6783 8.28051 52.6783 7.70036C52.6783 7.13324 52.7712 6.63946 52.9569 6.21901C53.146 5.79531 53.4083 5.46775 53.7441 5.23634C54.083 5.00167 54.4774 4.88433 54.9272 4.88433C55.4356 4.88433 55.8398 5.01796 56.1396 5.28523C56.4428 5.54923 56.6383 5.85234 56.7263 6.19457H57.8801C57.8149 5.72523 57.6471 5.31456 57.3765 4.96256C57.106 4.61055 56.7589 4.33677 56.3352 4.14122C55.9115 3.94566 55.4356 3.84788 54.9076 3.84788C54.2297 3.84788 53.6365 4.0141 53.128 4.34655C52.6229 4.67574 52.2285 5.13367 51.9449 5.72034C51.6646 6.30376 51.5245 6.9768 51.5245 7.73947C51.5245 8.48911 51.6614 9.15563 51.9351 9.73905C52.2089 10.3225 52.6 10.7804 53.1085 11.1128Z" fill="#717171"/>
<path d="M47.2369 11.6115C46.5328 11.6115 45.9266 11.4453 45.4182 11.1128C44.9097 10.7804 44.5186 10.3225 44.2448 9.73905C43.971 9.15563 43.8342 8.48911 43.8342 7.73947C43.8342 6.9768 43.9743 6.30376 44.2546 5.72034C44.5382 5.13367 44.9325 4.67574 45.4377 4.34655C45.9462 4.0141 46.5394 3.84788 47.2173 3.84788C47.7453 3.84788 48.2212 3.94566 48.6449 4.14122C49.0686 4.33677 49.4157 4.61055 49.6862 4.96256C49.9567 5.31456 50.1246 5.72523 50.1898 6.19457H49.036C48.948 5.85234 48.7524 5.54923 48.4493 5.28523C48.1495 5.01796 47.7453 4.88433 47.2369 4.88433C46.7871 4.88433 46.3927 5.00167 46.0537 5.23634C45.718 5.46775 45.4557 5.79531 45.2666 6.21901C45.0808 6.63946 44.9879 7.13324 44.9879 7.70036C44.9879 8.28051 45.0792 8.78571 45.2617 9.21593C45.4475 9.64616 45.7082 9.98024 46.044 10.2182C46.3829 10.4561 46.7806 10.5751 47.2369 10.5751C47.5367 10.5751 47.8089 10.5229 48.0533 10.4186C48.2978 10.3143 48.5047 10.1644 48.6742 9.96883C48.8437 9.77327 48.9643 9.5386 49.036 9.26482H50.1898C50.1246 9.70808 49.9633 10.1073 49.7058 10.4626C49.4515 10.8146 49.1142 11.0949 48.6938 11.3035C48.2766 11.5088 47.7909 11.6115 47.2369 11.6115Z" fill="#717171"/>
<path fill-rule="evenodd" clip-rule="evenodd" d="M34.1785 11.455H35.4496L36.4562 8.61943H40.5053L41.5119 11.455H42.783L39.1065 1.44247H37.855L34.1785 11.455ZM38.5199 3.02648L40.1235 7.54386H36.838L38.4416 3.02648H38.5199Z" fill="#717171"/>
<path d="M24.0901 14.271C23.8946 14.271 23.7202 14.2548 23.567 14.2222C23.4138 14.1928 23.3079 14.1635 23.2492 14.1342L23.5426 13.1173C23.8229 13.189 24.0706 13.215 24.2857 13.1955C24.5008 13.1759 24.6915 13.0798 24.8577 12.907C25.0272 12.7376 25.182 12.4621 25.3222 12.0808L25.5373 11.4941L22.7603 3.94561H24.0119L26.0848 9.92967H26.1631L28.236 3.94561H29.4875L26.2999 12.5501C26.1565 12.938 25.9789 13.259 25.767 13.5133C25.5552 13.7707 25.3091 13.9614 25.0288 14.0853C24.7518 14.2091 24.4389 14.271 24.0901 14.271Z" fill="#717171"/>
<path d="M20.4369 5.92079L21.4733 5.62745C21.2941 5.09293 20.9909 4.6627 20.564 4.33677C20.1403 4.01084 19.5569 3.84788 18.8137 3.84788C18.2857 3.84788 17.8131 3.94077 17.3959 4.12655C16.982 4.31233 16.6544 4.56818 16.4133 4.89411C16.1753 5.22004 16.0564 5.59486 16.0564 6.01857C16.0564 6.53679 16.2161 6.96865 16.5355 7.31414C16.8582 7.65636 17.3633 7.90896 18.0511 8.07192L19.3026 8.36526C19.6807 8.45326 19.961 8.58689 20.1435 8.76615C20.326 8.94215 20.4173 9.16052 20.4173 9.42127C20.4173 9.74394 20.2576 10.021 19.9382 10.2524C19.622 10.4805 19.1951 10.5946 18.6573 10.5946C18.1847 10.5946 17.8017 10.4936 17.5084 10.2915C17.2183 10.0894 17.0211 9.78631 16.9168 9.38216L15.8217 9.65594C15.9553 10.2948 16.2731 10.7804 16.775 11.1128C17.277 11.4453 17.9109 11.6115 18.6768 11.6115C19.2603 11.6115 19.772 11.5137 20.212 11.3182C20.652 11.1226 20.9942 10.8554 21.2386 10.5164C21.4864 10.1774 21.6102 9.79283 21.6102 9.3626C21.6102 8.83785 21.4456 8.40926 21.1164 8.07681C20.7872 7.7411 20.2869 7.49177 19.6155 7.3288L18.5008 7.05502C18.0576 6.94421 17.7316 6.80569 17.523 6.63946C17.3145 6.47324 17.2102 6.24672 17.2102 5.9599C17.2102 5.63723 17.3617 5.3716 17.6648 5.163C17.9712 4.95115 18.3542 4.84522 18.8137 4.84522C19.1494 4.84522 19.4248 4.899 19.64 5.00656C19.8551 5.11411 20.0246 5.25101 20.1484 5.41723C20.2755 5.58019 20.3717 5.74805 20.4369 5.92079Z" fill="#717171"/>
<path fill-rule="evenodd" clip-rule="evenodd" d="M10.6064 11.6311C10.1306 11.6311 9.6987 11.5414 9.31084 11.3622C8.92298 11.1797 8.61498 10.9173 8.38683 10.5751C8.15868 10.2296 8.0446 9.81238 8.0446 9.32349C8.0446 8.89326 8.12934 8.54452 8.29883 8.27726C8.46831 8.00673 8.69483 7.79488 8.97839 7.64169C9.26195 7.48851 9.57484 7.37443 9.91707 7.29947C10.2626 7.22125 10.6097 7.15932 10.9584 7.11369C11.4147 7.05502 11.7846 7.01102 12.0682 6.98169C12.355 6.94909 12.5636 6.89532 12.694 6.82035C12.8276 6.74539 12.8944 6.61502 12.8944 6.42924V6.39013C12.8944 5.90775 12.7624 5.53293 12.4984 5.26567C12.2377 4.99841 11.8417 4.86478 11.3104 4.86478C10.7596 4.86478 10.3277 4.98537 10.0148 5.22656C9.70196 5.46775 9.48195 5.72523 9.35484 5.99901L8.25972 5.6079C8.45527 5.1516 8.71602 4.79633 9.04195 4.54211C9.37114 4.28463 9.72966 4.10536 10.1175 4.00433C10.5086 3.90003 10.8932 3.84788 11.2713 3.84788C11.5125 3.84788 11.7895 3.87721 12.1024 3.93588C12.4186 3.99129 12.7233 4.10699 13.0167 4.28299C13.3133 4.459 13.5593 4.72463 13.7549 5.07989C13.9505 5.43515 14.0482 5.91101 14.0482 6.50746V11.4551H12.8944V10.4382H12.8358C12.7575 10.6011 12.6272 10.7755 12.4447 10.9613C12.2621 11.1471 12.0193 11.3051 11.7162 11.4355C11.4131 11.5659 11.0432 11.6311 10.6064 11.6311ZM10.7824 10.5946C11.2387 10.5946 11.6233 10.505 11.9362 10.3257C12.2524 10.1465 12.4903 9.91505 12.65 9.63149C12.813 9.34793 12.8944 9.04971 12.8944 8.73682V7.68081C12.8455 7.73947 12.738 7.79325 12.5718 7.84214C12.4088 7.88777 12.2198 7.92851 12.0047 7.96436C11.7928 7.99696 11.5858 8.02629 11.3838 8.05236C11.1849 8.07518 11.0236 8.09474 10.8997 8.11103C10.5999 8.15014 10.3196 8.2137 10.0588 8.3017C9.80136 8.38644 9.59277 8.51518 9.43306 8.68793C9.27662 8.85741 9.19839 9.08882 9.19839 9.38216C9.19839 9.78305 9.34669 10.0862 9.64329 10.2915C9.94314 10.4936 10.3229 10.5946 10.7824 10.5946Z" fill="#717171"/>
<path d="M0.324951 1.44247V11.455H6.44592V10.3794H1.53741V6.97674H6.0548V5.90118H1.53741V2.51803H6.36769V1.44247H0.324951Z" fill="#717171"/>
</svg>
